M48
; DRILL file {KiCad (7.0.0)} date Wed Jan  8 17:10:45 2025
; FORMAT={-:-/ absolute / metric / decimal}
; #@! TF.CreationDate,2025-01-08T17:10:45+03:30
; #@! TF.GenerationSoftware,Kicad,Pcbnew,(7.0.0)
; #@! TF.FileFunction,Plated,1,2,PTH
FMAT,2
METRIC
; #@! TA.AperFunction,Plated,PTH,ComponentDrill
T1C0.330
; #@! TA.AperFunction,Plated,PTH,ViaDrill
T2C0.400
; #@! TA.AperFunction,Plated,PTH,ComponentDrill
T3C0.500
; #@! TA.AperFunction,Plated,PTH,ComponentDrill
T4C0.600
; #@! TA.AperFunction,Plated,PTH,ComponentDrill
T5C0.762
; #@! TA.AperFunction,Plated,PTH,ComponentDrill
T6C0.800
; #@! TA.AperFunction,Plated,PTH,ComponentDrill
T7C0.950
; #@! TA.AperFunction,Plated,PTH,ComponentDrill
T8C1.000
; #@! TA.AperFunction,Plated,PTH,ComponentDrill
T9C1.200
; #@! TA.AperFunction,Plated,PTH,ViaDrill
T10C2.500
; #@! TA.AperFunction,Plated,PTH,ComponentDrill
T11C3.200
; #@! TA.AperFunction,Plated,PTH,ComponentDrill
T12C3.500
%
G90
G05
T1
X223.81Y-114.634
X223.81Y-115.386
X224.71Y-114.634
X224.71Y-115.386
X225.61Y-114.634
X226.06Y-115.386
X226.51Y-114.634
X226.96Y-115.386
X227.41Y-114.634
X227.86Y-115.386
X228.76Y-114.634
X228.76Y-115.386
X229.66Y-114.634
X229.66Y-115.386
T2
X177.115Y-101.625
X177.425Y-89.1
X178.0Y-71.625
X178.0Y-74.0
X178.075Y-69.625
X178.675Y-79.075
X178.725Y-78.225
X179.425Y-51.7
X179.425Y-61.125
X179.825Y-78.25
X179.825Y-79.075
X179.975Y-74.075
X180.0Y-48.275
X180.05Y-69.7
X180.05Y-71.75
X180.55Y-96.975
X180.625Y-91.2
X180.625Y-91.95
X180.825Y-48.275
X181.0Y-79.1
X181.025Y-78.25
X181.7Y-48.275
X181.7Y-91.175
X181.7Y-91.975
X182.05Y-51.725
X182.075Y-61.125
X182.65Y-93.725
X182.675Y-94.625
X182.975Y-92.95
X183.015Y-97.095
X184.375Y-47.675
X184.4Y-50.15
X186.35Y-50.1
X186.375Y-47.675
X186.6Y-69.7
X186.6Y-71.675
X187.075Y-103.8
X187.95Y-60.175
X188.375Y-47.675
X189.375Y-78.025
X189.375Y-115.675
X189.375Y-117.675
X190.375Y-47.675
X190.755Y-97.915
X191.125Y-78.075
X191.375Y-115.675
X191.375Y-117.675
X192.375Y-47.675
X192.575Y-101.875
X192.85Y-78.125
X193.125Y-59.525
X193.785Y-100.375
X193.8Y-56.2
X194.665Y-96.185
X195.495Y-105.305
X195.505Y-65.095
X195.535Y-103.725
X195.925Y-56.175
X196.333Y-85.025
X196.35Y-104.525
X197.175Y-105.365
X197.185Y-103.685
X197.333Y-85.025
X197.38Y-110.73
X197.715Y-75.555
X198.095Y-110.73
X198.505Y-101.075
X198.575Y-84.075
X198.575Y-85.075
X198.8Y-54.2
X199.55Y-105.75
X199.585Y-64.565
X199.695Y-61.755
X200.1Y-107.775
X200.2Y-105.75
X201.075Y-74.725
X201.075Y-77.275
X201.275Y-110.7
X201.775Y-82.675
X201.975Y-110.7
X202.255Y-100.365
X202.335Y-71.405
X202.345Y-61.389
X202.39Y-56.485
X202.525Y-85.9
X202.525Y-90.875
X203.66Y-56.445
X203.735Y-71.395
X203.755Y-60.665
X204.15Y-94.575
X205.375Y-46.675
X205.375Y-72.195
X205.565Y-74.635
X205.655Y-100.415
X205.675Y-65.5
X205.725Y-107.1
X205.775Y-92.675
X205.775Y-96.075
X205.775Y-109.075
X205.795Y-60.825
X206.085Y-69.065
X206.175Y-89.3
X206.325Y-85.725
X206.475Y-57.225
X207.375Y-46.675
X207.375Y-65.635
X207.425Y-88.275
X207.475Y-78.275
X208.105Y-70.085
X208.5Y-78.15
X208.735Y-60.855
X208.85Y-105.775
X209.175Y-84.075
X209.375Y-46.675
X209.375Y-48.675
X209.45Y-85.9
X209.5Y-87.45
X209.575Y-80.875
X210.175Y-84.075
X210.4Y-89.3
X210.475Y-88.275
X210.775Y-82.675
X211.15Y-73.8
X211.175Y-84.075
X211.275Y-97.2
X211.325Y-105.775
X211.375Y-46.675
X211.775Y-102.112
X211.969Y-96.481
X212.875Y-95.825
X212.95Y-73.8
X213.15Y-105.675
X213.55Y-99.35
X213.95Y-101.3
X213.95Y-102.125
X215.175Y-75.275
X215.3Y-105.775
X215.45Y-59.825
X215.8Y-64.725
X216.075Y-99.975
X216.225Y-102.25
X216.425Y-95.1
X216.95Y-78.975
X217.175Y-99.251
X217.225Y-102.25
X217.275Y-90.925
X217.875Y-64.75
X217.95Y-105.525
X218.65Y-52.6
X218.7Y-49.15
X219.975Y-104.275
X220.425Y-80.05
X220.425Y-81.735
X220.425Y-83.42
X220.425Y-85.105
X220.425Y-86.79
X220.425Y-88.475
X221.075Y-100.375
X221.075Y-101.125
X222.025Y-105.25
X222.153Y-112.472
X222.267Y-98.902
X222.275Y-110.575
X222.575Y-67.275
X222.725Y-111.9
X222.875Y-80.025
X222.875Y-81.475
X222.875Y-86.975
X222.875Y-88.5
X223.1Y-98.35
X224.575Y-67.275
X225.075Y-111.23
X225.375Y-46.675
X225.375Y-80.0
X225.375Y-81.55
X225.375Y-83.39
X225.375Y-85.085
X225.375Y-86.78
X225.375Y-88.475
X226.275Y-52.05
X226.575Y-67.275
X227.065Y-110.505
X227.375Y-46.675
X227.375Y-48.675
X227.5Y-107.725
X227.725Y-87.1
X227.725Y-91.025
X227.85Y-79.1
X227.85Y-110.425
X228.375Y-74.675
X229.375Y-46.675
X229.675Y-110.325
X230.025Y-112.125
X230.375Y-74.675
X230.375Y-76.675
X230.475Y-110.325
X230.575Y-66.025
X231.275Y-110.325
X231.35Y-108.4
X231.525Y-92.245
X232.375Y-74.675
X232.375Y-76.675
X232.655Y-94.605
X233.855Y-92.325
X233.865Y-91.495
X233.875Y-93.135
X235.325Y-84.625
X235.365Y-92.625
X235.865Y-72.025
X238.315Y-74.035
X238.315Y-77.145
X238.45Y-67.1
X240.585Y-101.625
X241.975Y-58.275
X241.975Y-60.275
X243.975Y-58.275
X243.975Y-60.275
X244.795Y-78.635
X245.375Y-76.065
X245.505Y-67.315
X245.8Y-73.0
X245.975Y-58.275
X245.975Y-60.275
X246.8Y-73.0
X247.575Y-65.135
X250.005Y-88.125
X250.005Y-89.085
X250.005Y-89.955
X250.005Y-90.815
X250.25Y-58.025
X250.95Y-60.225
X251.25Y-63.75
X252.215Y-95.305
X252.355Y-89.385
X252.875Y-68.305
X252.965Y-69.485
X253.25Y-44.675
X253.285Y-73.015
X253.535Y-93.925
X254.525Y-65.95
X254.625Y-102.825
X255.505Y-76.015
X255.565Y-78.655
X255.8Y-44.75
X255.835Y-68.175
X256.225Y-62.475
X256.255Y-92.635
X256.895Y-57.465
X257.375Y-55.7
X257.875Y-62.537
X258.175Y-64.865
X258.525Y-44.725
X261.375Y-44.725
X262.975Y-60.675
X262.975Y-67.475
X262.975Y-71.475
X262.975Y-80.475
X262.975Y-82.475
X263.025Y-58.025
X263.32Y-64.485
X263.425Y-62.12
X264.375Y-44.675
X264.375Y-47.675
X264.975Y-67.475
X264.975Y-71.475
X264.975Y-80.475
X264.975Y-82.475
X264.975Y-95.075
X264.975Y-99.075
X266.775Y-80.475
X266.775Y-82.475
X266.975Y-67.475
X266.975Y-71.475
X266.975Y-95.075
X266.975Y-99.075
X267.375Y-44.675
X267.375Y-47.675
X268.975Y-67.475
X268.975Y-71.475
X268.975Y-80.475
X268.975Y-82.475
X268.975Y-95.075
X268.975Y-99.075
X270.375Y-44.675
X270.375Y-47.675
X270.975Y-95.075
X270.975Y-99.075
T3
X180.115Y-56.44
X180.115Y-106.44
X180.884Y-54.584
X180.884Y-58.296
X180.884Y-104.584
X180.884Y-108.296
X182.74Y-53.815
X182.74Y-59.065
X182.74Y-103.815
X182.74Y-109.065
X184.596Y-54.584
X184.596Y-58.296
X184.596Y-104.584
X184.596Y-108.296
X185.365Y-56.44
X185.365Y-106.44
X188.075Y-76.775
X189.375Y-106.775
X189.445Y-103.205
X202.375Y-88.275
X203.775Y-77.075
X203.775Y-80.675
X207.375Y-80.675
X211.175Y-77.075
X230.735Y-97.705
X235.175Y-108.075
X239.62Y-90.475
X239.62Y-92.375
X265.115Y-56.44
X265.115Y-106.44
X265.884Y-54.584
X265.884Y-58.296
X265.884Y-104.584
X265.884Y-108.296
X267.74Y-53.815
X267.74Y-59.065
X267.74Y-103.815
X267.74Y-109.065
X269.596Y-54.584
X269.596Y-58.296
X269.596Y-104.584
X269.596Y-108.296
X270.365Y-56.44
X270.365Y-106.44
T5
X183.605Y-62.885
X183.605Y-65.425
X183.605Y-67.965
X183.605Y-70.505
T6
X186.1Y-89.325
X188.1Y-89.325
T7
X225.975Y-60.425
X228.475Y-60.425
X230.975Y-60.425
X233.475Y-60.425
X235.975Y-60.425
X238.475Y-60.425
X239.855Y-105.945
X242.355Y-105.945
X244.855Y-105.945
X247.355Y-105.945
X249.855Y-105.945
X254.575Y-49.2
X257.075Y-49.2
X259.575Y-49.2
T8
X197.0Y-52.18
X198.385Y-49.34
X199.77Y-52.18
X201.155Y-49.34
X202.54Y-52.18
X203.925Y-49.34
X205.31Y-52.18
X206.695Y-49.34
X208.08Y-52.18
X229.42Y-52.18
X230.805Y-49.34
X232.19Y-52.18
X233.575Y-49.34
X234.96Y-52.18
X236.345Y-49.34
X237.73Y-52.18
X239.115Y-49.34
X240.5Y-52.18
X259.855Y-94.325
X259.855Y-99.325
T9
X187.075Y-112.417
X190.885Y-112.417
T10
X223.0Y-84.5
T11
X190.04Y-50.76
X215.04Y-50.76
X222.46Y-50.76
X247.46Y-50.76
T12
X182.74Y-56.44
X182.74Y-106.44
X267.74Y-56.44
X267.74Y-106.44
T4
G00X195.46Y-112.44
M15
G01X195.46Y-113.54
M16
G05
G00X195.46Y-116.79
M15
G01X195.46Y-117.59
M16
G05
G00X204.1Y-112.44
M15
G01X204.1Y-113.54
M16
G05
G00X204.1Y-116.79
M15
G01X204.1Y-117.59
M16
G05
G00X224.91Y-113.58
M15
G01X223.81Y-113.58
M16
G05
G00X224.91Y-116.44
M15
G01X223.81Y-116.44
M16
G05
G00X229.71Y-113.58
M15
G01X228.61Y-113.58
M16
G05
G00X229.71Y-116.44
M15
G01X228.61Y-116.44
M16
G05
T8
G00X259.125Y-76.265
M15
G01X259.125Y-76.765
M16
G05
G00X260.435Y-76.265
M15
G01X260.435Y-76.765
M16
G05
G00X265.435Y-76.265
M15
G01X265.435Y-76.765
M16
G05
G00X266.745Y-76.265
M15
G01X266.745Y-76.765
M16
G05
T0
M30
