%TF.GenerationSoftware,KiCad,Pcbnew,(7.0.0)*%
%TF.CreationDate,2025-01-08T17:10:47+03:30*%
%TF.ProjectId,logger,6c6f6767-6572-42e6-9b69-6361645f7063,rev?*%
%TF.SameCoordinates,Original*%
%TF.FileFunction,Paste,Top*%
%TF.FilePolarity,Positive*%
%FSLAX46Y46*%
G04 Gerber Fmt 4.6, Leading zero omitted, Abs format (unit mm)*
G04 Created by KiCad (PCBNEW (7.0.0)) date 2025-01-08 17:10:47*
%MOMM*%
%LPD*%
G01*
G04 APERTURE LIST*
G04 Aperture macros list*
%AMRoundRect*
0 Rectangle with rounded corners*
0 $1 Rounding radius*
0 $2 $3 $4 $5 $6 $7 $8 $9 X,Y pos of 4 corners*
0 Add a 4 corners polygon primitive as box body*
4,1,4,$2,$3,$4,$5,$6,$7,$8,$9,$2,$3,0*
0 Add four circle primitives for the rounded corners*
1,1,$1+$1,$2,$3*
1,1,$1+$1,$4,$5*
1,1,$1+$1,$6,$7*
1,1,$1+$1,$8,$9*
0 Add four rect primitives between the rounded corners*
20,1,$1+$1,$2,$3,$4,$5,0*
20,1,$1+$1,$4,$5,$6,$7,0*
20,1,$1+$1,$6,$7,$8,$9,0*
20,1,$1+$1,$8,$9,$2,$3,0*%
%AMFreePoly0*
4,1,9,5.362500,-0.866500,1.237500,-0.866500,1.237500,-0.450000,-1.237500,-0.450000,-1.237500,0.450000,1.237500,0.450000,1.237500,0.866500,5.362500,0.866500,5.362500,-0.866500,5.362500,-0.866500,$1*%
G04 Aperture macros list end*
%ADD10RoundRect,0.250000X0.350000X0.450000X-0.350000X0.450000X-0.350000X-0.450000X0.350000X-0.450000X0*%
%ADD11R,2.000000X0.700000*%
%ADD12RoundRect,0.250000X-0.350000X-0.450000X0.350000X-0.450000X0.350000X0.450000X-0.350000X0.450000X0*%
%ADD13RoundRect,0.250000X-1.500000X-0.900000X1.500000X-0.900000X1.500000X0.900000X-1.500000X0.900000X0*%
%ADD14RoundRect,0.250000X-0.337500X-0.475000X0.337500X-0.475000X0.337500X0.475000X-0.337500X0.475000X0*%
%ADD15RoundRect,0.237500X-0.300000X-0.237500X0.300000X-0.237500X0.300000X0.237500X-0.300000X0.237500X0*%
%ADD16R,1.780000X2.000000*%
%ADD17RoundRect,0.150000X0.150000X-0.825000X0.150000X0.825000X-0.150000X0.825000X-0.150000X-0.825000X0*%
%ADD18RoundRect,0.250000X-0.450000X0.325000X-0.450000X-0.325000X0.450000X-0.325000X0.450000X0.325000X0*%
%ADD19R,0.600000X1.600000*%
%ADD20R,0.300000X1.600000*%
%ADD21R,0.600000X1.240000*%
%ADD22RoundRect,0.237500X-0.237500X0.300000X-0.237500X-0.300000X0.237500X-0.300000X0.237500X0.300000X0*%
%ADD23RoundRect,0.250000X0.650000X-1.000000X0.650000X1.000000X-0.650000X1.000000X-0.650000X-1.000000X0*%
%ADD24RoundRect,0.250000X-0.412500X-0.650000X0.412500X-0.650000X0.412500X0.650000X-0.412500X0.650000X0*%
%ADD25RoundRect,0.250001X0.624999X-0.462499X0.624999X0.462499X-0.624999X0.462499X-0.624999X-0.462499X0*%
%ADD26RoundRect,0.250000X-0.325000X-0.450000X0.325000X-0.450000X0.325000X0.450000X-0.325000X0.450000X0*%
%ADD27RoundRect,0.250000X-0.450000X0.350000X-0.450000X-0.350000X0.450000X-0.350000X0.450000X0.350000X0*%
%ADD28RoundRect,0.250000X0.275000X-0.275000X0.275000X0.275000X-0.275000X0.275000X-0.275000X-0.275000X0*%
%ADD29RoundRect,0.062500X0.062500X-0.487500X0.062500X0.487500X-0.062500X0.487500X-0.062500X-0.487500X0*%
%ADD30RoundRect,0.062500X0.487500X-0.062500X0.487500X0.062500X-0.487500X0.062500X-0.487500X-0.062500X0*%
%ADD31R,0.900000X2.300000*%
%ADD32FreePoly0,270.000000*%
%ADD33RoundRect,0.250001X-0.462499X-0.624999X0.462499X-0.624999X0.462499X0.624999X-0.462499X0.624999X0*%
%ADD34R,1.700000X1.700000*%
%ADD35RoundRect,0.075000X1.225000X0.075000X-1.225000X0.075000X-1.225000X-0.075000X1.225000X-0.075000X0*%
%ADD36RoundRect,0.075000X0.075000X1.225000X-0.075000X1.225000X-0.075000X-1.225000X0.075000X-1.225000X0*%
%ADD37RoundRect,0.250000X0.475000X-0.337500X0.475000X0.337500X-0.475000X0.337500X-0.475000X-0.337500X0*%
%ADD38RoundRect,0.250000X0.625000X-0.400000X0.625000X0.400000X-0.625000X0.400000X-0.625000X-0.400000X0*%
%ADD39R,0.700000X1.600000*%
%ADD40R,1.350000X0.800000*%
%ADD41R,2.000000X1.500000*%
%ADD42R,2.500000X2.800000*%
%ADD43R,1.000000X2.000000*%
%ADD44R,3.000000X1.900000*%
%ADD45R,3.000000X3.500000*%
%ADD46RoundRect,0.150000X-0.650000X-0.150000X0.650000X-0.150000X0.650000X0.150000X-0.650000X0.150000X0*%
%ADD47R,1.450000X0.450000*%
%ADD48RoundRect,0.250000X0.412500X0.650000X-0.412500X0.650000X-0.412500X-0.650000X0.412500X-0.650000X0*%
%ADD49RoundRect,0.250000X-0.650000X1.500000X-0.650000X-1.500000X0.650000X-1.500000X0.650000X1.500000X0*%
%ADD50RoundRect,0.250000X0.450000X-0.325000X0.450000X0.325000X-0.450000X0.325000X-0.450000X-0.325000X0*%
%ADD51RoundRect,0.150000X-0.150000X0.512500X-0.150000X-0.512500X0.150000X-0.512500X0.150000X0.512500X0*%
%ADD52RoundRect,0.250000X-0.650000X1.000000X-0.650000X-1.000000X0.650000X-1.000000X0.650000X1.000000X0*%
%ADD53RoundRect,0.250000X0.325000X0.450000X-0.325000X0.450000X-0.325000X-0.450000X0.325000X-0.450000X0*%
%ADD54RoundRect,0.250000X0.450000X-0.350000X0.450000X0.350000X-0.450000X0.350000X-0.450000X-0.350000X0*%
%ADD55RoundRect,0.250000X1.500000X-1.112500X1.500000X1.112500X-1.500000X1.112500X-1.500000X-1.112500X0*%
%ADD56RoundRect,0.250001X0.462499X0.624999X-0.462499X0.624999X-0.462499X-0.624999X0.462499X-0.624999X0*%
%ADD57RoundRect,0.250000X0.337500X0.475000X-0.337500X0.475000X-0.337500X-0.475000X0.337500X-0.475000X0*%
%ADD58R,2.000000X1.400000*%
%ADD59RoundRect,0.250000X-0.475000X0.337500X-0.475000X-0.337500X0.475000X-0.337500X0.475000X0.337500X0*%
%ADD60R,1.500000X1.500000*%
%ADD61RoundRect,0.237500X0.237500X-0.300000X0.237500X0.300000X-0.237500X0.300000X-0.237500X-0.300000X0*%
%ADD62RoundRect,0.150000X0.725000X0.150000X-0.725000X0.150000X-0.725000X-0.150000X0.725000X-0.150000X0*%
%ADD63RoundRect,0.250000X-1.500000X1.112500X-1.500000X-1.112500X1.500000X-1.112500X1.500000X1.112500X0*%
G04 APERTURE END LIST*
D10*
%TO.C,R1*%
X252005000Y-101545000D03*
X250005000Y-101545000D03*
%TD*%
D11*
%TO.C,Q1*%
X230324999Y-102574999D03*
X230324999Y-104474999D03*
X233724999Y-103524999D03*
%TD*%
D12*
%TO.C,R5*%
X229087500Y-69020000D03*
X231087500Y-69020000D03*
%TD*%
D13*
%TO.C,D3*%
X178965000Y-99775000D03*
X184365000Y-99775000D03*
%TD*%
D12*
%TO.C,R21*%
X250775000Y-66150000D03*
X252775000Y-66150000D03*
%TD*%
D14*
%TO.C,C11*%
X217862500Y-73525000D03*
X219937500Y-73525000D03*
%TD*%
D15*
%TO.C,C17*%
X256012500Y-102375000D03*
X257737500Y-102375000D03*
%TD*%
D16*
%TO.C,U15*%
X216789999Y-62064999D03*
X214249999Y-62064999D03*
X211709999Y-62064999D03*
X211709999Y-69684999D03*
X214249999Y-69684999D03*
X216789999Y-69684999D03*
%TD*%
D17*
%TO.C,U5*%
X201120000Y-63200000D03*
X202390000Y-63200000D03*
X203660000Y-63200000D03*
X204930000Y-63200000D03*
X204930000Y-58250000D03*
X203660000Y-58250000D03*
X202390000Y-58250000D03*
X201120000Y-58250000D03*
%TD*%
D18*
%TO.C,D7*%
X197885000Y-63250000D03*
X197885000Y-65300000D03*
%TD*%
D16*
%TO.C,U8*%
X189684999Y-70469999D03*
X192224999Y-70469999D03*
X194764999Y-70469999D03*
X194764999Y-62849999D03*
X192224999Y-62849999D03*
X189684999Y-62849999D03*
%TD*%
D19*
%TO.C,J6*%
X196579999Y-112209999D03*
X197379999Y-112209999D03*
D20*
X198529999Y-112209999D03*
X199529999Y-112209999D03*
X200029999Y-112209999D03*
X201029999Y-112209999D03*
D19*
X202179999Y-112209999D03*
X202979999Y-112209999D03*
D21*
X202979999Y-112389999D03*
X202179999Y-112389999D03*
D20*
X201529999Y-112209999D03*
X200529999Y-112209999D03*
X199029999Y-112209999D03*
X198029999Y-112209999D03*
D21*
X197379999Y-112389999D03*
X196579999Y-112389999D03*
%TD*%
D22*
%TO.C,C38*%
X243335000Y-97182500D03*
X243335000Y-98907500D03*
%TD*%
D23*
%TO.C,D15*%
X227025000Y-104350000D03*
X227025000Y-100350000D03*
%TD*%
D12*
%TO.C,R22*%
X253075000Y-57350000D03*
X255075000Y-57350000D03*
%TD*%
D24*
%TO.C,C6*%
X246342500Y-76085000D03*
X249467500Y-76085000D03*
%TD*%
D15*
%TO.C,C33*%
X195387500Y-100025000D03*
X197112500Y-100025000D03*
%TD*%
D25*
%TO.C,J4*%
X182315000Y-118652500D03*
X182315000Y-115677500D03*
%TD*%
D26*
%TO.C,D14*%
X259925000Y-59850000D03*
X261975000Y-59850000D03*
%TD*%
D27*
%TO.C,R27*%
X230000000Y-106400000D03*
X230000000Y-108400000D03*
%TD*%
D28*
%TO.C,U1*%
X195700000Y-105175000D03*
X197000000Y-105175000D03*
X195700000Y-103875000D03*
X197000000Y-103875000D03*
D29*
X195100000Y-106600000D03*
X195600000Y-106600000D03*
X196100000Y-106600000D03*
X196600000Y-106600000D03*
X197100000Y-106600000D03*
X197600000Y-106600000D03*
D30*
X198425000Y-105775000D03*
X198425000Y-105275000D03*
X198425000Y-104775000D03*
X198425000Y-104275000D03*
X198425000Y-103775000D03*
X198425000Y-103275000D03*
D29*
X197600000Y-102450000D03*
X197100000Y-102450000D03*
X196600000Y-102450000D03*
X196100000Y-102450000D03*
X195600000Y-102450000D03*
X195100000Y-102450000D03*
D30*
X194275000Y-103275000D03*
X194275000Y-103775000D03*
X194275000Y-104275000D03*
X194275000Y-104775000D03*
X194275000Y-105275000D03*
X194275000Y-105775000D03*
%TD*%
D26*
%TO.C,D12*%
X259870000Y-64485000D03*
X261920000Y-64485000D03*
%TD*%
D31*
%TO.C,U10*%
X198699999Y-79574999D03*
D32*
X197200000Y-79662500D03*
D31*
X195699999Y-79574999D03*
%TD*%
D33*
%TO.C,F1*%
X180387500Y-45350000D03*
X183362500Y-45350000D03*
%TD*%
D34*
%TO.C,D2*%
X254274999Y-108614999D03*
X258174999Y-108614999D03*
%TD*%
D26*
%TO.C,D13*%
X259900000Y-62220000D03*
X261950000Y-62220000D03*
%TD*%
D35*
%TO.C,U3*%
X230900000Y-91125000D03*
X230900000Y-90625000D03*
X230900000Y-90125000D03*
X230900000Y-89625000D03*
X230900000Y-89125000D03*
X230900000Y-88625000D03*
X230900000Y-88125000D03*
X230900000Y-87625000D03*
X230900000Y-87125000D03*
X230900000Y-86625000D03*
X230900000Y-86125000D03*
X230900000Y-85625000D03*
X230900000Y-85125000D03*
X230900000Y-84625000D03*
X230900000Y-84125000D03*
X230900000Y-83625000D03*
X230900000Y-83125000D03*
X230900000Y-82625000D03*
X230900000Y-82125000D03*
X230900000Y-81625000D03*
X230900000Y-81125000D03*
X230900000Y-80625000D03*
X230900000Y-80125000D03*
X230900000Y-79625000D03*
X230900000Y-79125000D03*
D36*
X228725000Y-76950000D03*
X228225000Y-76950000D03*
X227725000Y-76950000D03*
X227225000Y-76950000D03*
X226725000Y-76950000D03*
X226225000Y-76950000D03*
X225725000Y-76950000D03*
X225225000Y-76950000D03*
X224725000Y-76950000D03*
X224225000Y-76950000D03*
X223725000Y-76950000D03*
X223225000Y-76950000D03*
X222725000Y-76950000D03*
X222225000Y-76950000D03*
X221725000Y-76950000D03*
X221225000Y-76950000D03*
X220725000Y-76950000D03*
X220225000Y-76950000D03*
X219725000Y-76950000D03*
X219225000Y-76950000D03*
X218725000Y-76950000D03*
X218225000Y-76950000D03*
X217725000Y-76950000D03*
X217225000Y-76950000D03*
X216725000Y-76950000D03*
D35*
X214550000Y-79125000D03*
X214550000Y-79625000D03*
X214550000Y-80125000D03*
X214550000Y-80625000D03*
X214550000Y-81125000D03*
X214550000Y-81625000D03*
X214550000Y-82125000D03*
X214550000Y-82625000D03*
X214550000Y-83125000D03*
X214550000Y-83625000D03*
X214550000Y-84125000D03*
X214550000Y-84625000D03*
X214550000Y-85125000D03*
X214550000Y-85625000D03*
X214550000Y-86125000D03*
X214550000Y-86625000D03*
X214550000Y-87125000D03*
X214550000Y-87625000D03*
X214550000Y-88125000D03*
X214550000Y-88625000D03*
X214550000Y-89125000D03*
X214550000Y-89625000D03*
X214550000Y-90125000D03*
X214550000Y-90625000D03*
X214550000Y-91125000D03*
D36*
X216725000Y-93300000D03*
X217225000Y-93300000D03*
X217725000Y-93300000D03*
X218225000Y-93300000D03*
X218725000Y-93300000D03*
X219225000Y-93300000D03*
X219725000Y-93300000D03*
X220225000Y-93300000D03*
X220725000Y-93300000D03*
X221225000Y-93300000D03*
X221725000Y-93300000D03*
X222225000Y-93300000D03*
X222725000Y-93300000D03*
X223225000Y-93300000D03*
X223725000Y-93300000D03*
X224225000Y-93300000D03*
X224725000Y-93300000D03*
X225225000Y-93300000D03*
X225725000Y-93300000D03*
X226225000Y-93300000D03*
X226725000Y-93300000D03*
X227225000Y-93300000D03*
X227725000Y-93300000D03*
X228225000Y-93300000D03*
X228725000Y-93300000D03*
%TD*%
D37*
%TO.C,C36*%
X198950000Y-59987500D03*
X198950000Y-57912500D03*
%TD*%
D38*
%TO.C,R32*%
X251255000Y-86635000D03*
X251255000Y-83535000D03*
%TD*%
D39*
%TO.C,J3*%
X217224999Y-103899999D03*
X216124999Y-103899999D03*
X215024999Y-103899999D03*
X213924999Y-103899999D03*
X212824999Y-103899999D03*
X211724999Y-103899999D03*
X210624999Y-103899999D03*
X209524999Y-103899999D03*
X208474999Y-103899999D03*
D40*
X207624999Y-114599999D03*
D41*
X206749999Y-103774999D03*
D42*
X207049999Y-118749999D03*
D43*
X218774999Y-103699999D03*
D44*
X221124999Y-119199999D03*
%TD*%
D27*
%TO.C,R50*%
X266015000Y-89015000D03*
X266015000Y-91015000D03*
%TD*%
D45*
%TO.C,L2*%
X179799999Y-81824999D03*
X185299999Y-81824999D03*
%TD*%
D46*
%TO.C,U11*%
X233450000Y-68945000D03*
X233450000Y-70215000D03*
X233450000Y-71485000D03*
X233450000Y-72755000D03*
X240650000Y-72755000D03*
X240650000Y-71485000D03*
X240650000Y-70215000D03*
X240650000Y-68945000D03*
%TD*%
D47*
%TO.C,U12*%
X258504999Y-91329999D03*
X258504999Y-90679999D03*
X258504999Y-90029999D03*
X258504999Y-89379999D03*
X254104999Y-89379999D03*
X254104999Y-90029999D03*
X254104999Y-90679999D03*
X254104999Y-91329999D03*
%TD*%
D48*
%TO.C,C23*%
X190367500Y-93615000D03*
X187242500Y-93615000D03*
%TD*%
D24*
%TO.C,C24*%
X179562500Y-89525000D03*
X182687500Y-89525000D03*
%TD*%
D49*
%TO.C,D19*%
X178485000Y-112717500D03*
X178485000Y-117717500D03*
%TD*%
D50*
%TO.C,D22*%
X178075000Y-47375000D03*
X178075000Y-45325000D03*
%TD*%
D51*
%TO.C,U2*%
X181337500Y-93500000D03*
X180387500Y-93500000D03*
X179437500Y-93500000D03*
X179437500Y-95775000D03*
X180387500Y-95775000D03*
X181337500Y-95775000D03*
%TD*%
D50*
%TO.C,C44*%
X202335000Y-103965000D03*
X202335000Y-101915000D03*
%TD*%
D52*
%TO.C,D1*%
X246945000Y-97057500D03*
X246945000Y-101057500D03*
%TD*%
D10*
%TO.C,R30*%
X203875000Y-108950000D03*
X201875000Y-108950000D03*
%TD*%
D53*
%TO.C,R7*%
X193160000Y-96155000D03*
X191110000Y-96155000D03*
%TD*%
D26*
%TO.C,C28*%
X201950000Y-65550000D03*
X204000000Y-65550000D03*
%TD*%
%TO.C,R20*%
X253200000Y-54750000D03*
X255250000Y-54750000D03*
%TD*%
D27*
%TO.C,R38*%
X178000000Y-49425000D03*
X178000000Y-51425000D03*
%TD*%
D15*
%TO.C,C43*%
X242687500Y-68675000D03*
X244412500Y-68675000D03*
%TD*%
D54*
%TO.C,R3*%
X257645000Y-106275000D03*
X257645000Y-104275000D03*
%TD*%
D15*
%TO.C,C22*%
X202112500Y-106975000D03*
X203837500Y-106975000D03*
%TD*%
D54*
%TO.C,R33*%
X204355000Y-103995000D03*
X204355000Y-101995000D03*
%TD*%
D10*
%TO.C,R34*%
X195525000Y-58150000D03*
X193525000Y-58150000D03*
%TD*%
%TO.C,R44*%
X190975000Y-73250000D03*
X188975000Y-73250000D03*
%TD*%
D18*
%TO.C,C14*%
X200125000Y-91625000D03*
X200125000Y-93675000D03*
%TD*%
D55*
%TO.C,C12*%
X192075000Y-85312500D03*
X192075000Y-79587500D03*
%TD*%
D56*
%TO.C,J5*%
X227812500Y-97475000D03*
X224837500Y-97475000D03*
%TD*%
D27*
%TO.C,R9*%
X189085000Y-96175000D03*
X189085000Y-98175000D03*
%TD*%
D53*
%TO.C,R18*%
X261100000Y-54750000D03*
X259050000Y-54750000D03*
%TD*%
D25*
%TO.C,J1*%
X192895000Y-93782500D03*
X192895000Y-90807500D03*
%TD*%
D57*
%TO.C,C39*%
X183662500Y-74775000D03*
X181587500Y-74775000D03*
%TD*%
D58*
%TO.C,X1*%
X244279999Y-86819999D03*
X244279999Y-81739999D03*
X239879999Y-81739999D03*
X239879999Y-86819999D03*
%TD*%
D59*
%TO.C,C10*%
X214400000Y-92837500D03*
X214400000Y-94912500D03*
%TD*%
D60*
%TO.C,SW2*%
X261354999Y-109374999D03*
X261354999Y-101574999D03*
%TD*%
D24*
%TO.C,C26*%
X179587500Y-87025000D03*
X182712500Y-87025000D03*
%TD*%
D53*
%TO.C,C13*%
X193250000Y-88450000D03*
X191200000Y-88450000D03*
%TD*%
D61*
%TO.C,C21*%
X184187500Y-95562500D03*
X184187500Y-93837500D03*
%TD*%
D12*
%TO.C,R48*%
X211000000Y-72300000D03*
X213000000Y-72300000D03*
%TD*%
D10*
%TO.C,R47*%
X217425000Y-58025000D03*
X215425000Y-58025000D03*
%TD*%
D24*
%TO.C,C9*%
X246367500Y-78610000D03*
X249492500Y-78610000D03*
%TD*%
D10*
%TO.C,R31*%
X197175000Y-109125000D03*
X195175000Y-109125000D03*
%TD*%
D22*
%TO.C,C42*%
X200545000Y-102272500D03*
X200545000Y-103997500D03*
%TD*%
D54*
%TO.C,R2*%
X254515000Y-106275000D03*
X254515000Y-104275000D03*
%TD*%
D15*
%TO.C,C34*%
X189462500Y-58250000D03*
X191187500Y-58250000D03*
%TD*%
D61*
%TO.C,C20*%
X247070000Y-86712500D03*
X247070000Y-84987500D03*
%TD*%
D18*
%TO.C,C29*%
X246225000Y-61570000D03*
X246225000Y-63620000D03*
%TD*%
D10*
%TO.C,R26*%
X232000000Y-100275000D03*
X230000000Y-100275000D03*
%TD*%
D53*
%TO.C,D4*%
X238967500Y-100675000D03*
X236917500Y-100675000D03*
%TD*%
D18*
%TO.C,D8*%
X208585000Y-63232500D03*
X208585000Y-65282500D03*
%TD*%
D54*
%TO.C,R29*%
X223900000Y-109075000D03*
X223900000Y-107075000D03*
%TD*%
D10*
%TO.C,R37*%
X212950000Y-58100000D03*
X210950000Y-58100000D03*
%TD*%
D62*
%TO.C,U6*%
X254455000Y-63765000D03*
X254455000Y-62495000D03*
X254455000Y-61225000D03*
X254455000Y-59955000D03*
X249305000Y-59955000D03*
X249305000Y-61225000D03*
X249305000Y-62495000D03*
X249305000Y-63765000D03*
%TD*%
D12*
%TO.C,R17*%
X259125000Y-57350000D03*
X261125000Y-57350000D03*
%TD*%
D27*
%TO.C,R49*%
X269285000Y-88965000D03*
X269285000Y-90965000D03*
%TD*%
D63*
%TO.C,C15*%
X196625000Y-87562500D03*
X196625000Y-93287500D03*
%TD*%
D54*
%TO.C,R28*%
X226075000Y-109000000D03*
X226075000Y-107000000D03*
%TD*%
D15*
%TO.C,C45*%
X262055000Y-91075000D03*
X263780000Y-91075000D03*
%TD*%
D56*
%TO.C,FB1*%
X244192500Y-76145000D03*
X241217500Y-76145000D03*
%TD*%
M02*
