%TF.GenerationSoftware,KiCad,Pcbnew,(7.0.0)*%
%TF.CreationDate,2025-01-08T17:10:47+03:30*%
%TF.ProjectId,logger,6c6f6767-6572-42e6-9b69-6361645f7063,rev?*%
%TF.SameCoordinates,Original*%
%TF.FileFunction,Paste,Bot*%
%TF.FilePolarity,Positive*%
%FSLAX46Y46*%
G04 Gerber Fmt 4.6, Leading zero omitted, Abs format (unit mm)*
G04 Created by KiCad (PCBNEW (7.0.0)) date 2025-01-08 17:10:47*
%MOMM*%
%LPD*%
G01*
G04 APERTURE LIST*
G04 Aperture macros list*
%AMRoundRect*
0 Rectangle with rounded corners*
0 $1 Rounding radius*
0 $2 $3 $4 $5 $6 $7 $8 $9 X,Y pos of 4 corners*
0 Add a 4 corners polygon primitive as box body*
4,1,4,$2,$3,$4,$5,$6,$7,$8,$9,$2,$3,0*
0 Add four circle primitives for the rounded corners*
1,1,$1+$1,$2,$3*
1,1,$1+$1,$4,$5*
1,1,$1+$1,$6,$7*
1,1,$1+$1,$8,$9*
0 Add four rect primitives between the rounded corners*
20,1,$1+$1,$2,$3,$4,$5,0*
20,1,$1+$1,$4,$5,$6,$7,0*
20,1,$1+$1,$6,$7,$8,$9,0*
20,1,$1+$1,$8,$9,$2,$3,0*%
G04 Aperture macros list end*
%ADD10RoundRect,0.250000X0.450000X-0.350000X0.450000X0.350000X-0.450000X0.350000X-0.450000X-0.350000X0*%
%ADD11RoundRect,0.250000X0.325000X0.450000X-0.325000X0.450000X-0.325000X-0.450000X0.325000X-0.450000X0*%
%ADD12RoundRect,0.237500X-0.300000X-0.237500X0.300000X-0.237500X0.300000X0.237500X-0.300000X0.237500X0*%
%ADD13RoundRect,0.237500X0.300000X0.237500X-0.300000X0.237500X-0.300000X-0.237500X0.300000X-0.237500X0*%
%ADD14RoundRect,0.250000X0.350000X0.450000X-0.350000X0.450000X-0.350000X-0.450000X0.350000X-0.450000X0*%
%ADD15RoundRect,0.250000X-0.337500X-0.475000X0.337500X-0.475000X0.337500X0.475000X-0.337500X0.475000X0*%
%ADD16RoundRect,0.250000X0.250000X-0.250000X0.250000X0.250000X-0.250000X0.250000X-0.250000X-0.250000X0*%
%ADD17RoundRect,0.237500X-0.237500X0.300000X-0.237500X-0.300000X0.237500X-0.300000X0.237500X0.300000X0*%
%ADD18RoundRect,0.250000X-1.000000X-0.650000X1.000000X-0.650000X1.000000X0.650000X-1.000000X0.650000X0*%
%ADD19RoundRect,0.250000X0.650000X-1.000000X0.650000X1.000000X-0.650000X1.000000X-0.650000X-1.000000X0*%
%ADD20RoundRect,0.250000X-0.450000X0.350000X-0.450000X-0.350000X0.450000X-0.350000X0.450000X0.350000X0*%
%ADD21RoundRect,0.250000X-0.475000X0.337500X-0.475000X-0.337500X0.475000X-0.337500X0.475000X0.337500X0*%
%ADD22RoundRect,0.150000X0.150000X-0.825000X0.150000X0.825000X-0.150000X0.825000X-0.150000X-0.825000X0*%
%ADD23RoundRect,0.250000X1.000000X0.650000X-1.000000X0.650000X-1.000000X-0.650000X1.000000X-0.650000X0*%
%ADD24R,1.800000X1.000000*%
%ADD25RoundRect,0.250000X0.450000X-0.325000X0.450000X0.325000X-0.450000X0.325000X-0.450000X-0.325000X0*%
%ADD26RoundRect,0.250000X0.337500X0.475000X-0.337500X0.475000X-0.337500X-0.475000X0.337500X-0.475000X0*%
G04 APERTURE END LIST*
D10*
%TO.C,R19*%
X251850000Y-62750000D03*
X251850000Y-60750000D03*
%TD*%
D11*
%TO.C,C30*%
X221025000Y-102825000D03*
X218975000Y-102825000D03*
%TD*%
D12*
%TO.C,C2*%
X217062500Y-80125000D03*
X218787500Y-80125000D03*
%TD*%
D13*
%TO.C,C47*%
X206897500Y-62095000D03*
X205172500Y-62095000D03*
%TD*%
D10*
%TO.C,R45*%
X211325000Y-107775000D03*
X211325000Y-105775000D03*
%TD*%
D14*
%TO.C,R24*%
X261975000Y-62095000D03*
X259975000Y-62095000D03*
%TD*%
D10*
%TO.C,R39*%
X208850000Y-107775000D03*
X208850000Y-105775000D03*
%TD*%
D13*
%TO.C,C35*%
X213212500Y-75125000D03*
X211487500Y-75125000D03*
%TD*%
D15*
%TO.C,C19*%
X244232500Y-92450000D03*
X246307500Y-92450000D03*
%TD*%
D13*
%TO.C,C4*%
X227662500Y-80075000D03*
X225937500Y-80075000D03*
%TD*%
%TO.C,C3*%
X227737500Y-89950000D03*
X226012500Y-89950000D03*
%TD*%
D10*
%TO.C,R10*%
X197975000Y-57700000D03*
X197975000Y-55700000D03*
%TD*%
D16*
%TO.C,D16*%
X223835000Y-104665000D03*
X223835000Y-102165000D03*
%TD*%
D17*
%TO.C,C46*%
X206725000Y-68712500D03*
X206725000Y-70437500D03*
%TD*%
D18*
%TO.C,D6*%
X190475000Y-57325000D03*
X194475000Y-57325000D03*
%TD*%
D10*
%TO.C,R36*%
X227925000Y-64775000D03*
X227925000Y-62775000D03*
%TD*%
%TO.C,R41*%
X216406250Y-107775000D03*
X216406250Y-105775000D03*
%TD*%
D14*
%TO.C,R4*%
X238935000Y-100665000D03*
X236935000Y-100665000D03*
%TD*%
D10*
%TO.C,R15*%
X197895000Y-65235000D03*
X197895000Y-63235000D03*
%TD*%
D19*
%TO.C,D10*%
X261200000Y-57075000D03*
X261200000Y-53075000D03*
%TD*%
D20*
%TO.C,R46*%
X233125000Y-62975000D03*
X233125000Y-64975000D03*
%TD*%
D21*
%TO.C,C40*%
X180425000Y-63662500D03*
X180425000Y-65737500D03*
%TD*%
D10*
%TO.C,R42*%
X213562500Y-107775000D03*
X213562500Y-105775000D03*
%TD*%
D13*
%TO.C,C1*%
X227737500Y-86100000D03*
X226012500Y-86100000D03*
%TD*%
D12*
%TO.C,C7*%
X246980000Y-76335000D03*
X248705000Y-76335000D03*
%TD*%
D14*
%TO.C,R23*%
X261950000Y-59850000D03*
X259950000Y-59850000D03*
%TD*%
D22*
%TO.C,U13*%
X204880000Y-69320000D03*
X203610000Y-69320000D03*
X202340000Y-69320000D03*
X201070000Y-69320000D03*
X201070000Y-64370000D03*
X202340000Y-64370000D03*
X203610000Y-64370000D03*
X204880000Y-64370000D03*
%TD*%
D23*
%TO.C,D9*%
X215575000Y-56300000D03*
X211575000Y-56300000D03*
%TD*%
D15*
%TO.C,C18*%
X244232500Y-90275000D03*
X246307500Y-90275000D03*
%TD*%
D20*
%TO.C,R6*%
X177175000Y-90825000D03*
X177175000Y-92825000D03*
%TD*%
%TO.C,R14*%
X208225000Y-55675000D03*
X208225000Y-57675000D03*
%TD*%
D24*
%TO.C,U4*%
X241969999Y-92699999D03*
X241969999Y-90199999D03*
%TD*%
D25*
%TO.C,R11*%
X193800000Y-54575000D03*
X193800000Y-52525000D03*
%TD*%
D12*
%TO.C,C8*%
X246917500Y-78610000D03*
X248642500Y-78610000D03*
%TD*%
%TO.C,C27*%
X181592500Y-100295000D03*
X183317500Y-100295000D03*
%TD*%
D10*
%TO.C,R16*%
X209025000Y-65235000D03*
X209025000Y-63235000D03*
%TD*%
D17*
%TO.C,C37*%
X211775000Y-100387500D03*
X211775000Y-102112500D03*
%TD*%
D10*
%TO.C,R40*%
X219250000Y-107775000D03*
X219250000Y-105775000D03*
%TD*%
D14*
%TO.C,R12*%
X203900000Y-54375000D03*
X201900000Y-54375000D03*
%TD*%
%TO.C,R25*%
X261895000Y-64485000D03*
X259895000Y-64485000D03*
%TD*%
D17*
%TO.C,C32*%
X184850000Y-64012500D03*
X184850000Y-65737500D03*
%TD*%
D20*
%TO.C,R35*%
X238500000Y-62700000D03*
X238500000Y-64700000D03*
%TD*%
D19*
%TO.C,D11*%
X252525000Y-57200000D03*
X252525000Y-53200000D03*
%TD*%
D12*
%TO.C,C50*%
X264037500Y-73435000D03*
X262312500Y-73435000D03*
%TD*%
D25*
%TO.C,R13*%
X211075000Y-53275000D03*
X211075000Y-51225000D03*
%TD*%
D23*
%TO.C,D18*%
X201825000Y-115875000D03*
X197825000Y-115875000D03*
%TD*%
D26*
%TO.C,C25*%
X193182500Y-96205000D03*
X191107500Y-96205000D03*
%TD*%
D16*
%TO.C,D5*%
X227125000Y-104645000D03*
X227125000Y-102145000D03*
%TD*%
D20*
%TO.C,R8*%
X177250000Y-95425000D03*
X177250000Y-97425000D03*
%TD*%
D12*
%TO.C,C5*%
X217237500Y-89925000D03*
X218962500Y-89925000D03*
%TD*%
D17*
%TO.C,C31*%
X208850000Y-100412500D03*
X208850000Y-102137500D03*
%TD*%
M02*
