%TF.GenerationSoftware,KiCad,Pcbnew,(7.0.0)*%
%TF.CreationDate,2025-01-08T17:10:47+03:30*%
%TF.ProjectId,logger,6c6f6767-6572-42e6-9b69-6361645f7063,rev?*%
%TF.SameCoordinates,Original*%
%TF.FileFunction,Soldermask,Bot*%
%TF.FilePolarity,Negative*%
%FSLAX46Y46*%
G04 Gerber Fmt 4.6, Leading zero omitted, Abs format (unit mm)*
G04 Created by KiCad (PCBNEW (7.0.0)) date 2025-01-08 17:10:47*
%MOMM*%
%LPD*%
G01*
G04 APERTURE LIST*
G04 Aperture macros list*
%AMRoundRect*
0 Rectangle with rounded corners*
0 $1 Rounding radius*
0 $2 $3 $4 $5 $6 $7 $8 $9 X,Y pos of 4 corners*
0 Add a 4 corners polygon primitive as box body*
4,1,4,$2,$3,$4,$5,$6,$7,$8,$9,$2,$3,0*
0 Add four circle primitives for the rounded corners*
1,1,$1+$1,$2,$3*
1,1,$1+$1,$4,$5*
1,1,$1+$1,$6,$7*
1,1,$1+$1,$8,$9*
0 Add four rect primitives between the rounded corners*
20,1,$1+$1,$2,$3,$4,$5,0*
20,1,$1+$1,$4,$5,$6,$7,0*
20,1,$1+$1,$6,$7,$8,$9,0*
20,1,$1+$1,$8,$9,$2,$3,0*%
G04 Aperture macros list end*
%ADD10R,2.000000X3.000000*%
%ADD11RoundRect,0.500000X-0.500000X-1.000000X0.500000X-1.000000X0.500000X1.000000X-0.500000X1.000000X0*%
%ADD12R,1.600000X1.600000*%
%ADD13C,1.600000*%
%ADD14R,1.000000X1.000000*%
%ADD15C,0.800000*%
%ADD16C,7.000000*%
%ADD17C,0.650000*%
%ADD18O,1.000000X2.100000*%
%ADD19O,1.000000X1.800000*%
%ADD20C,0.600000*%
%ADD21O,2.100000X1.100000*%
%ADD22R,1.270000X1.270000*%
%ADD23C,1.270000*%
%ADD24C,1.200000*%
%ADD25RoundRect,0.250000X-0.600000X-0.725000X0.600000X-0.725000X0.600000X0.725000X-0.600000X0.725000X0*%
%ADD26O,1.700000X1.950000*%
%ADD27C,1.000000*%
%ADD28C,4.000000*%
%ADD29RoundRect,0.250000X-0.650000X-1.550000X0.650000X-1.550000X0.650000X1.550000X-0.650000X1.550000X0*%
%ADD30O,1.800000X3.600000*%
%ADD31RoundRect,0.250000X0.600000X0.725000X-0.600000X0.725000X-0.600000X-0.725000X0.600000X-0.725000X0*%
%ADD32O,3.000000X1.524000*%
%ADD33RoundRect,0.250000X0.450000X-0.350000X0.450000X0.350000X-0.450000X0.350000X-0.450000X-0.350000X0*%
%ADD34RoundRect,0.250000X0.325000X0.450000X-0.325000X0.450000X-0.325000X-0.450000X0.325000X-0.450000X0*%
%ADD35RoundRect,0.237500X-0.300000X-0.237500X0.300000X-0.237500X0.300000X0.237500X-0.300000X0.237500X0*%
%ADD36RoundRect,0.237500X0.300000X0.237500X-0.300000X0.237500X-0.300000X-0.237500X0.300000X-0.237500X0*%
%ADD37RoundRect,0.250000X0.350000X0.450000X-0.350000X0.450000X-0.350000X-0.450000X0.350000X-0.450000X0*%
%ADD38RoundRect,0.250000X-0.337500X-0.475000X0.337500X-0.475000X0.337500X0.475000X-0.337500X0.475000X0*%
%ADD39RoundRect,0.250000X0.250000X-0.250000X0.250000X0.250000X-0.250000X0.250000X-0.250000X-0.250000X0*%
%ADD40RoundRect,0.237500X-0.237500X0.300000X-0.237500X-0.300000X0.237500X-0.300000X0.237500X0.300000X0*%
%ADD41RoundRect,0.250000X-1.000000X-0.650000X1.000000X-0.650000X1.000000X0.650000X-1.000000X0.650000X0*%
%ADD42RoundRect,0.250000X0.650000X-1.000000X0.650000X1.000000X-0.650000X1.000000X-0.650000X-1.000000X0*%
%ADD43RoundRect,0.250000X-0.450000X0.350000X-0.450000X-0.350000X0.450000X-0.350000X0.450000X0.350000X0*%
%ADD44RoundRect,0.250000X-0.475000X0.337500X-0.475000X-0.337500X0.475000X-0.337500X0.475000X0.337500X0*%
%ADD45RoundRect,0.150000X0.150000X-0.825000X0.150000X0.825000X-0.150000X0.825000X-0.150000X-0.825000X0*%
%ADD46RoundRect,0.250000X1.000000X0.650000X-1.000000X0.650000X-1.000000X-0.650000X1.000000X-0.650000X0*%
%ADD47R,1.800000X1.000000*%
%ADD48RoundRect,0.250000X0.450000X-0.325000X0.450000X0.325000X-0.450000X0.325000X-0.450000X-0.325000X0*%
%ADD49RoundRect,0.250000X0.337500X0.475000X-0.337500X0.475000X-0.337500X-0.475000X0.337500X-0.475000X0*%
G04 APERTURE END LIST*
D10*
%TO.C,C48*%
X259124999Y-76514999D03*
X260434999Y-76514999D03*
D11*
X265435000Y-76515000D03*
X266745000Y-76515000D03*
%TD*%
D12*
%TO.C,C41*%
X188099999Y-89324999D03*
D13*
X186100000Y-89325000D03*
%TD*%
D14*
%TO.C,TP2*%
X202374999Y-88274999D03*
%TD*%
D15*
%TO.C,H1*%
X265115000Y-56440000D03*
X265883845Y-54583845D03*
X265883845Y-58296155D03*
X267740000Y-53815000D03*
D16*
X267740000Y-56440000D03*
D15*
X267740000Y-59065000D03*
X269596155Y-54583845D03*
X269596155Y-58296155D03*
X270365000Y-56440000D03*
%TD*%
%TO.C,H2*%
X265115000Y-106440000D03*
X265883845Y-104583845D03*
X265883845Y-108296155D03*
X267740000Y-103815000D03*
D16*
X267740000Y-106440000D03*
D15*
X267740000Y-109065000D03*
X269596155Y-104583845D03*
X269596155Y-108296155D03*
X270365000Y-106440000D03*
%TD*%
D17*
%TO.C,J6*%
X196890000Y-113510000D03*
X202670000Y-113510000D03*
D18*
X195459999Y-112989999D03*
D19*
X195459999Y-117189999D03*
D18*
X204099999Y-112989999D03*
D19*
X204099999Y-117189999D03*
%TD*%
D15*
%TO.C,H4*%
X180115000Y-106440000D03*
X180883845Y-104583845D03*
X180883845Y-108296155D03*
X182740000Y-103815000D03*
D16*
X182740000Y-106440000D03*
D15*
X182740000Y-109065000D03*
X184596155Y-104583845D03*
X184596155Y-108296155D03*
X185365000Y-106440000D03*
%TD*%
D20*
%TO.C,J9*%
X223810000Y-114633814D03*
X224710000Y-114633814D03*
X225610000Y-114633814D03*
X226510000Y-114633814D03*
X227410000Y-114633814D03*
X228760000Y-114633814D03*
X229660000Y-114633814D03*
X229660000Y-115386186D03*
X228760000Y-115386186D03*
X227860000Y-115386186D03*
X226960000Y-115386186D03*
X226060000Y-115386186D03*
X224710000Y-115386186D03*
X223810000Y-115386186D03*
D21*
X229159999Y-116439999D03*
X229159999Y-113579999D03*
X224359999Y-116439999D03*
X224359999Y-113579999D03*
%TD*%
D22*
%TO.C,U9*%
X183604999Y-70504999D03*
D23*
X183605000Y-67965000D03*
X183605000Y-65425000D03*
X183605000Y-62885000D03*
%TD*%
D24*
%TO.C,J10*%
X224375000Y-62425000D03*
D25*
X225975000Y-60425000D03*
D26*
X228474999Y-60424999D03*
X230974999Y-60424999D03*
X233474999Y-60424999D03*
X235974999Y-60424999D03*
X238474999Y-60424999D03*
%TD*%
D27*
%TO.C,J7*%
X239620000Y-92375000D03*
X239620000Y-90475000D03*
%TD*%
D15*
%TO.C,H3*%
X180115000Y-56440000D03*
X180883845Y-54583845D03*
X180883845Y-58296155D03*
X182740000Y-53815000D03*
D16*
X182740000Y-56440000D03*
D15*
X182740000Y-59065000D03*
X184596155Y-54583845D03*
X184596155Y-58296155D03*
X185365000Y-56440000D03*
%TD*%
D14*
%TO.C,TP1*%
X188074999Y-76774999D03*
%TD*%
D28*
%TO.C,U7*%
X247460000Y-50760331D03*
X222460000Y-50760331D03*
D12*
X240499999Y-52180330D03*
D13*
X237730000Y-52180331D03*
X234960000Y-52180331D03*
X232190000Y-52180331D03*
X229420000Y-52180331D03*
X239115000Y-49340331D03*
X236345000Y-49340331D03*
X233575000Y-49340331D03*
X230805000Y-49340331D03*
%TD*%
D14*
%TO.C,TP4*%
X211174999Y-77074999D03*
%TD*%
%TO.C,TP7*%
X203774999Y-80674999D03*
%TD*%
%TO.C,TP5*%
X207374999Y-80674999D03*
%TD*%
%TO.C,TP6*%
X230734999Y-97704999D03*
%TD*%
D29*
%TO.C,J2*%
X187075000Y-112417500D03*
D30*
X190884999Y-112417499D03*
%TD*%
D14*
%TO.C,TP8*%
X235174999Y-108074999D03*
%TD*%
D31*
%TO.C,J11*%
X259575000Y-49200000D03*
D26*
X257074999Y-49199999D03*
X254574999Y-49199999D03*
%TD*%
D25*
%TO.C,J12*%
X239855000Y-105945000D03*
D26*
X242354999Y-105944999D03*
X244854999Y-105944999D03*
X247354999Y-105944999D03*
X249854999Y-105944999D03*
%TD*%
D28*
%TO.C,J8*%
X215040000Y-50760331D03*
X190040000Y-50760331D03*
D12*
X196999999Y-52180330D03*
D13*
X199770000Y-52180331D03*
X202540000Y-52180331D03*
X205310000Y-52180331D03*
X208080000Y-52180331D03*
X198385000Y-49340331D03*
X201155000Y-49340331D03*
X203925000Y-49340331D03*
X206695000Y-49340331D03*
%TD*%
D14*
%TO.C,TP3*%
X203774999Y-77074999D03*
%TD*%
%TO.C,TP10*%
X189374999Y-106774999D03*
%TD*%
%TO.C,TP9*%
X189444999Y-103204999D03*
%TD*%
D32*
%TO.C,C16*%
X259854999Y-94324999D03*
X259854999Y-99324999D03*
%TD*%
D33*
%TO.C,R19*%
X251850000Y-62750000D03*
X251850000Y-60750000D03*
%TD*%
D34*
%TO.C,C30*%
X221025000Y-102825000D03*
X218975000Y-102825000D03*
%TD*%
D35*
%TO.C,C2*%
X217062500Y-80125000D03*
X218787500Y-80125000D03*
%TD*%
D36*
%TO.C,C47*%
X206897500Y-62095000D03*
X205172500Y-62095000D03*
%TD*%
D33*
%TO.C,R45*%
X211325000Y-107775000D03*
X211325000Y-105775000D03*
%TD*%
D37*
%TO.C,R24*%
X261975000Y-62095000D03*
X259975000Y-62095000D03*
%TD*%
D33*
%TO.C,R39*%
X208850000Y-107775000D03*
X208850000Y-105775000D03*
%TD*%
D36*
%TO.C,C35*%
X213212500Y-75125000D03*
X211487500Y-75125000D03*
%TD*%
D38*
%TO.C,C19*%
X244232500Y-92450000D03*
X246307500Y-92450000D03*
%TD*%
D36*
%TO.C,C4*%
X227662500Y-80075000D03*
X225937500Y-80075000D03*
%TD*%
%TO.C,C3*%
X227737500Y-89950000D03*
X226012500Y-89950000D03*
%TD*%
D33*
%TO.C,R10*%
X197975000Y-57700000D03*
X197975000Y-55700000D03*
%TD*%
D39*
%TO.C,D16*%
X223835000Y-104665000D03*
X223835000Y-102165000D03*
%TD*%
D40*
%TO.C,C46*%
X206725000Y-68712500D03*
X206725000Y-70437500D03*
%TD*%
D41*
%TO.C,D6*%
X190475000Y-57325000D03*
X194475000Y-57325000D03*
%TD*%
D33*
%TO.C,R36*%
X227925000Y-64775000D03*
X227925000Y-62775000D03*
%TD*%
%TO.C,R41*%
X216406250Y-107775000D03*
X216406250Y-105775000D03*
%TD*%
D37*
%TO.C,R4*%
X238935000Y-100665000D03*
X236935000Y-100665000D03*
%TD*%
D33*
%TO.C,R15*%
X197895000Y-65235000D03*
X197895000Y-63235000D03*
%TD*%
D42*
%TO.C,D10*%
X261200000Y-57075000D03*
X261200000Y-53075000D03*
%TD*%
D43*
%TO.C,R46*%
X233125000Y-62975000D03*
X233125000Y-64975000D03*
%TD*%
D44*
%TO.C,C40*%
X180425000Y-63662500D03*
X180425000Y-65737500D03*
%TD*%
D33*
%TO.C,R42*%
X213562500Y-107775000D03*
X213562500Y-105775000D03*
%TD*%
D36*
%TO.C,C1*%
X227737500Y-86100000D03*
X226012500Y-86100000D03*
%TD*%
D35*
%TO.C,C7*%
X246980000Y-76335000D03*
X248705000Y-76335000D03*
%TD*%
D37*
%TO.C,R23*%
X261950000Y-59850000D03*
X259950000Y-59850000D03*
%TD*%
D45*
%TO.C,U13*%
X204880000Y-69320000D03*
X203610000Y-69320000D03*
X202340000Y-69320000D03*
X201070000Y-69320000D03*
X201070000Y-64370000D03*
X202340000Y-64370000D03*
X203610000Y-64370000D03*
X204880000Y-64370000D03*
%TD*%
D46*
%TO.C,D9*%
X215575000Y-56300000D03*
X211575000Y-56300000D03*
%TD*%
D38*
%TO.C,C18*%
X244232500Y-90275000D03*
X246307500Y-90275000D03*
%TD*%
D43*
%TO.C,R6*%
X177175000Y-90825000D03*
X177175000Y-92825000D03*
%TD*%
%TO.C,R14*%
X208225000Y-55675000D03*
X208225000Y-57675000D03*
%TD*%
D47*
%TO.C,U4*%
X241969999Y-92699999D03*
X241969999Y-90199999D03*
%TD*%
D48*
%TO.C,R11*%
X193800000Y-54575000D03*
X193800000Y-52525000D03*
%TD*%
D35*
%TO.C,C8*%
X246917500Y-78610000D03*
X248642500Y-78610000D03*
%TD*%
%TO.C,C27*%
X181592500Y-100295000D03*
X183317500Y-100295000D03*
%TD*%
D33*
%TO.C,R16*%
X209025000Y-65235000D03*
X209025000Y-63235000D03*
%TD*%
D40*
%TO.C,C37*%
X211775000Y-100387500D03*
X211775000Y-102112500D03*
%TD*%
D33*
%TO.C,R40*%
X219250000Y-107775000D03*
X219250000Y-105775000D03*
%TD*%
D37*
%TO.C,R12*%
X203900000Y-54375000D03*
X201900000Y-54375000D03*
%TD*%
%TO.C,R25*%
X261895000Y-64485000D03*
X259895000Y-64485000D03*
%TD*%
D40*
%TO.C,C32*%
X184850000Y-64012500D03*
X184850000Y-65737500D03*
%TD*%
D43*
%TO.C,R35*%
X238500000Y-62700000D03*
X238500000Y-64700000D03*
%TD*%
D42*
%TO.C,D11*%
X252525000Y-57200000D03*
X252525000Y-53200000D03*
%TD*%
D35*
%TO.C,C50*%
X264037500Y-73435000D03*
X262312500Y-73435000D03*
%TD*%
D48*
%TO.C,R13*%
X211075000Y-53275000D03*
X211075000Y-51225000D03*
%TD*%
D46*
%TO.C,D18*%
X201825000Y-115875000D03*
X197825000Y-115875000D03*
%TD*%
D49*
%TO.C,C25*%
X193182500Y-96205000D03*
X191107500Y-96205000D03*
%TD*%
D39*
%TO.C,D5*%
X227125000Y-104645000D03*
X227125000Y-102145000D03*
%TD*%
D43*
%TO.C,R8*%
X177250000Y-95425000D03*
X177250000Y-97425000D03*
%TD*%
D35*
%TO.C,C5*%
X217237500Y-89925000D03*
X218962500Y-89925000D03*
%TD*%
D40*
%TO.C,C31*%
X208850000Y-100412500D03*
X208850000Y-102137500D03*
%TD*%
M02*
