<svg version="1.1" xmlns="http://www.w3.org/2000/svg" xmlns:xlink="http://www.w3.org/1999/xlink" width="948" height="436"><defs/><g><g transform="translate(-230,-174) scale(1,1)"><rect fill="#C0C0C0" stroke="none" x="399" y="191" width="496" height="416" opacity="0.2"/></g><g transform="translate(-230,-174) scale(1,1)"><rect fill="#ffffff" stroke="none" x="392" y="184" width="496" height="416"/></g><g transform="translate(-230,-174) scale(1,1)"><path fill="none" stroke="#000000" d="M 392 184 L 888 184 L 888 600 L 392 600 L 392 184 Z Z" stroke-miterlimit="10"/></g><g transform="translate(-230,-174) scale(1,1)"><g><path fill="none" stroke="none"/><text fill="#000000" stroke="none" font-family="Arial" font-size="13px" font-style="normal" font-weight="bold" text-decoration="none" x="617.9736328125" y="202">Logger</text></g></g><g transform="translate(-230,-174) scale(1,1)"><path fill="#ffffff" stroke="none" d="M 256.40935031960225 281.68 C 256.40935031960225 276.886167936 260.29519264454774 273 265.088623046875 273 C 269.88205344920226 273 273.76789577414775 276.886167936 273.76789577414775 281.68 C 273.76789577414775 286.473832064 269.88205344920226 290.36 265.088623046875 290.36 C 260.29519264454774 290.36 256.40935031960225 286.473832064 256.40935031960225 281.68 Z"/></g><g transform="translate(-230,-174) scale(1,1)"><path fill="none" stroke="#000000" d="M 256.40935031960225 281.68 C 256.40935031960225 276.886167936 260.29519264454774 273 265.088623046875 273 C 269.88205344920226 273 273.76789577414775 276.886167936 273.76789577414775 281.68 C 273.76789577414775 286.473832064 269.88205344920226 290.36 265.088623046875 290.36 C 260.29519264454774 290.36 256.40935031960225 286.473832064 256.40935031960225 281.68 Z" stroke-miterlimit="10"/></g><g transform="translate(-230,-174) scale(1,1)"><path fill="none" stroke="#000000" d="M 265.088623046875 290.36 L 265.088623046875 307.64" stroke-miterlimit="10"/></g><g transform="translate(-230,-174) scale(1,1)"><path fill="none" stroke="#000000" d="M 255.89880486505683 296.84 L 274.27844122869317 296.84" stroke-miterlimit="10"/></g><g transform="translate(-230,-174) scale(1,1)"><path fill="none" stroke="#000000" d="M 265.088623046875 307.64 L 252.32498668323865 325" stroke-miterlimit="10"/></g><g transform="translate(-230,-174) scale(1,1)"><path fill="none" stroke="#000000" d="M 265.088623046875 307.64 L 277.85225941051135 325" stroke-miterlimit="10"/></g><g transform="translate(-230,-174) scale(1,1)"><g><path fill="none" stroke="none"/><text fill="#000000" stroke="none" font-family="Arial" font-size="13px" font-style="normal" font-weight="bold" text-decoration="none" x="250.635009765625" y="344">User</text></g></g><g transform="translate(-230,-174) scale(1,1)"><path fill="#C0C0C0" stroke="none" d="M 543 368 C 543 358.6111584 592.9202448 351 654.5 351 C 716.0797552 351 766 358.6111584 766 368 C 766 377.3888416 716.0797552 385 654.5 385 C 592.9202448 385 543 377.3888416 543 368 Z" opacity="0.2"/></g><g transform="translate(-230,-174) scale(1,1)"><path fill="#ffffff" stroke="none" d="M 536 361 C 536 351.6111584 585.9202448 344 647.5 344 C 709.0797552 344 759 351.6111584 759 361 C 759 370.3888416 709.0797552 378 647.5 378 C 585.9202448 378 536 370.3888416 536 361 Z"/></g><g transform="translate(-230,-174) scale(1,1)"><path fill="none" stroke="#000000" d="M 536 361 C 536 351.6111584 585.9202448 344 647.5 344 C 709.0797552 344 759 351.6111584 759 361 C 759 370.3888416 709.0797552 378 647.5 378 C 585.9202448 378 536 370.3888416 536 361 Z" stroke-miterlimit="10"/></g><g transform="translate(-230,-174) scale(1,1)"><g><path fill="none" stroke="none"/><text fill="#000000" stroke="none" font-family="Arial" font-size="13px" font-style="normal" font-weight="bold" text-decoration="none" x="575.266845703125" y="366.5">Disconnect from power</text></g></g><g transform="translate(-230,-174) scale(1,1)"><path fill="#C0C0C0" stroke="none" d="M 551 280 C 551 270.6111584 594.652232 263 648.5 263 C 702.347768 263 746 270.6111584 746 280 C 746 289.3888416 702.347768 297 648.5 297 C 594.652232 297 551 289.3888416 551 280 Z" opacity="0.2"/></g><g transform="translate(-230,-174) scale(1,1)"><path fill="#ffffff" stroke="none" d="M 544 273 C 544 263.6111584 587.652232 256 641.5 256 C 695.347768 256 739 263.6111584 739 273 C 739 282.3888416 695.347768 290 641.5 290 C 587.652232 290 544 282.3888416 544 273 Z"/></g><g transform="translate(-230,-174) scale(1,1)"><path fill="none" stroke="#000000" d="M 544 273 C 544 263.6111584 587.652232 256 641.5 256 C 695.347768 256 739 263.6111584 739 273 C 739 282.3888416 695.347768 290 641.5 290 C 587.652232 290 544 282.3888416 544 273 Z" stroke-miterlimit="10"/></g><g transform="translate(-230,-174) scale(1,1)"><g><path fill="none" stroke="none"/><text fill="#000000" stroke="none" font-family="Arial" font-size="13px" font-style="normal" font-weight="bold" text-decoration="none" x="576.864990234375" y="278.5">Connecting to power</text></g></g><g transform="translate(-230,-174) scale(1,1)"><path fill="none" stroke="#000000" d="M 291 315 L 480 344 L 535 350" stroke-miterlimit="10"/></g><g transform="translate(-230,-174) scale(1,1)"><path fill="none" stroke="#000000" d="M 524.4407510841974 353.08257397869386 L 535 350 L 525.3537745235557 344.71319245124283" stroke-miterlimit="10"/></g><g transform="translate(-230,-174) scale(1,1)"><path fill="#C0C0C0" stroke="none" d="M 567 464 C 567 454.6111584 606.6227952 447 655.5 447 C 704.3772048 447 744 454.6111584 744 464 C 744 473.3888416 704.3772048 481 655.5 481 C 606.6227952 481 567 473.3888416 567 464 Z" opacity="0.2"/></g><g transform="translate(-230,-174) scale(1,1)"><path fill="#ffffff" stroke="none" d="M 560 457 C 560 447.6111584 599.6227952 440 648.5 440 C 697.3772048 440 737 447.6111584 737 457 C 737 466.3888416 697.3772048 474 648.5 474 C 599.6227952 474 560 466.3888416 560 457 Z"/></g><g transform="translate(-230,-174) scale(1,1)"><path fill="none" stroke="#000000" d="M 560 457 C 560 447.6111584 599.6227952 440 648.5 440 C 697.3772048 440 737 447.6111584 737 457 C 737 466.3888416 697.3772048 474 648.5 474 C 599.6227952 474 560 466.3888416 560 457 Z" stroke-miterlimit="10"/></g><g transform="translate(-230,-174) scale(1,1)"><g><path fill="none" stroke="none"/><text fill="#000000" stroke="none" font-family="Arial" font-size="13px" font-style="normal" font-weight="bold" text-decoration="none" x="590.364990234375" y="462.5">Sending online log</text></g></g><g transform="translate(-230,-174) scale(1,1)"><path fill="#C0C0C0" stroke="none" d="M 559 528 C 559 518.6111584 605.3385232 511 662.5 511 C 719.6614768 511 766 518.6111584 766 528 C 766 537.3888416 719.6614768 545 662.5 545 C 605.3385232 545 559 537.3888416 559 528 Z" opacity="0.2"/></g><g transform="translate(-230,-174) scale(1,1)"><path fill="#ffffff" stroke="none" d="M 552 521 C 552 511.6111584 598.3385232 504 655.5 504 C 712.6614768 504 759 511.6111584 759 521 C 759 530.3888416 712.6614768 538 655.5 538 C 598.3385232 538 552 530.3888416 552 521 Z"/></g><g transform="translate(-230,-174) scale(1,1)"><path fill="none" stroke="#000000" d="M 552 521 C 552 511.6111584 598.3385232 504 655.5 504 C 712.6614768 504 759 511.6111584 759 521 C 759 530.3888416 712.6614768 538 655.5 538 C 598.3385232 538 552 530.3888416 552 521 Z" stroke-miterlimit="10"/></g><g transform="translate(-230,-174) scale(1,1)"><g><path fill="none" stroke="none"/><text fill="#000000" stroke="none" font-family="Arial" font-size="13px" font-style="normal" font-weight="bold" text-decoration="none" x="586.885009765625" y="526.5">Change logger setting</text></g></g><g transform="translate(-230,-174) scale(1,1)"><path fill="none" stroke="#000000" d="M 738 468 L 1055 505" stroke-miterlimit="10"/></g><g transform="translate(-230,-174) scale(1,1)"><path fill="none" stroke="#000000" d="M 1044.417832029926 508.0029520564172 L 1055 505 L 1045.393869506035 499.64068503137634" stroke-miterlimit="10"/></g><g transform="translate(-230,-174) scale(1,1)"><path fill="none" stroke="#000000" d="M 1055 512 L 760 519" stroke-miterlimit="10"/></g><g transform="translate(-230,-174) scale(1,1)"><rect fill="#C0C0C0" stroke="none" x="1039" y="423" width="54.40000000000009" height="15" opacity="0.2"/></g><g transform="translate(-230,-174) scale(1,1)"><rect fill="#C0C0C0" stroke="none" x="1039" y="437" width="136" height="138" opacity="0.2"/></g><g transform="translate(-230,-174) scale(1,1)"><rect fill="#ffffff" stroke="none" x="1032" y="431" width="136" height="137"/></g><g transform="translate(-230,-174) scale(1,1)"><path fill="none" stroke="#000000" d="M 1032 431 L 1168 431 L 1168 568 L 1032 568 L 1032 431 Z Z" stroke-miterlimit="10"/></g><g transform="translate(-230,-174) scale(1,1)"><rect fill="#ffffff" stroke="none" x="1032" y="416" width="54.40000000000009" height="15"/></g><g transform="translate(-230,-174) scale(1,1)"><path fill="none" stroke="#000000" d="M 1032 416 L 1086.4 416 L 1086.4 431 L 1032 431 L 1032 416 Z Z" stroke-miterlimit="10"/></g><g transform="translate(-230,-174) scale(1,1)"><rect fill="#ffffff" stroke="none" x="1032" y="430" width="136" height="138"/></g><g transform="translate(-230,-174) scale(1,1)"><path fill="none" stroke="#000000" d="M 1032 430 L 1168 430 L 1168 568 L 1032 568 L 1032 430 Z Z" stroke-miterlimit="10"/></g><g transform="translate(-230,-174) scale(1,1)"><g><path fill="none" stroke="none"/><text fill="#000000" stroke="none" font-family="Arial" font-size="13px" font-style="normal" font-weight="bold" text-decoration="none" x="1069.305908203125" y="449">Computer</text></g></g><g transform="translate(-230,-174) scale(1,1)"><path fill="#ffffff" stroke="none" d="M 1096.9557370383523 481.68 C 1096.9557370383523 476.886167936 1100.8415793632978 473 1105.635009765625 473 C 1110.4284401679522 473 1114.3142824928977 476.886167936 1114.3142824928977 481.68 C 1114.3142824928977 486.473832064 1110.4284401679522 490.36 1105.635009765625 490.36 C 1100.8415793632978 490.36 1096.9557370383523 486.473832064 1096.9557370383523 481.68 Z"/></g><g transform="translate(-230,-174) scale(1,1)"><path fill="none" stroke="#000000" d="M 1096.9557370383523 481.68 C 1096.9557370383523 476.886167936 1100.8415793632978 473 1105.635009765625 473 C 1110.4284401679522 473 1114.3142824928977 476.886167936 1114.3142824928977 481.68 C 1114.3142824928977 486.473832064 1110.4284401679522 490.36 1105.635009765625 490.36 C 1100.8415793632978 490.36 1096.9557370383523 486.473832064 1096.9557370383523 481.68 Z" stroke-miterlimit="10"/></g><g transform="translate(-230,-174) scale(1,1)"><path fill="none" stroke="#000000" d="M 1105.635009765625 490.36 L 1105.635009765625 507.64" stroke-miterlimit="10"/></g><g transform="translate(-230,-174) scale(1,1)"><path fill="none" stroke="#000000" d="M 1096.4451915838067 496.84 L 1114.8248279474433 496.84" stroke-miterlimit="10"/></g><g transform="translate(-230,-174) scale(1,1)"><path fill="none" stroke="#000000" d="M 1105.635009765625 507.64 L 1092.8713734019886 525" stroke-miterlimit="10"/></g><g transform="translate(-230,-174) scale(1,1)"><path fill="none" stroke="#000000" d="M 1105.635009765625 507.64 L 1118.3986461292614 525" stroke-miterlimit="10"/></g><g transform="translate(-230,-174) scale(1,1)"><g><path fill="none" stroke="none"/><text fill="#000000" stroke="none" font-family="Arial" font-size="13px" font-style="normal" font-weight="bold" text-decoration="none" x="1060.5" y="544">Computer App</text></g></g><g transform="translate(-230,-174) scale(1,1)"><path fill="none" stroke="#000000" d="M 291 308 L 543 283" stroke-miterlimit="10"/></g><g transform="translate(-230,-174) scale(1,1)"><path fill="none" stroke="#000000" d="M 533.3025399044268 288.1922314754608 L 543 283 L 532.4713981203457 279.81432229192285" stroke-miterlimit="10"/></g></g></svg>