<svg version="1.1" xmlns="http://www.w3.org/2000/svg" xmlns:xlink="http://www.w3.org/1999/xlink" width="892" height="308"><defs/><g><g transform="translate(-198,-310) scale(1,1)"><path fill="#C0C0C0" stroke="none" d="M 927 337 L 1076 337 L 1076 450 L 927 450" opacity="0.2"/></g><g transform="translate(-198,-310) scale(1,1)"><path fill="#C0C0C0" stroke="none" d="M 927 337 L 937 327 L 1086 327 L 1076 337" opacity="0.2"/></g><g transform="translate(-198,-310) scale(1,1)"><path fill="#C0C0C0" stroke="none" d="M 1086 327 L 1076 337 L 1076 450 L 1086 440" opacity="0.2"/></g><g transform="translate(-198,-310) scale(1,1)"><path fill="#ffffff" stroke="none" d="M 920 330 L 1069 330 L 1069 443 L 920 443"/></g><g transform="translate(-198,-310) scale(1,1)"><path fill="#ffffff" stroke="none" d="M 920 330 L 930 320 L 1079 320 L 1069 330"/></g><g transform="translate(-198,-310) scale(1,1)"><path fill="#ffffff" stroke="none" d="M 1079 320 L 1069 330 L 1069 443 L 1079 433"/></g><g transform="translate(-198,-310) scale(1,1)"><path fill="none" stroke="#000000" d="M 920 330 L 1069 330 L 1069 443 L 920 443 L 920 330" stroke-miterlimit="10"/></g><g transform="translate(-198,-310) scale(1,1)"><path fill="none" stroke="#000000" d="M 920 330 L 930 320 L 1079 320 L 1069 330 L 920 330" stroke-miterlimit="10"/></g><g transform="translate(-198,-310) scale(1,1)"><path fill="none" stroke="#000000" d="M 1079 320 L 1069 330 L 1069 443 L 1079 433 L 1079 320" stroke-miterlimit="10"/></g><g transform="translate(-198,-310) scale(1,1)"><g><path fill="none" stroke="none"/><text fill="#000000" stroke="none" font-family="Arial" font-size="13px" font-style="normal" font-weight="bold" text-decoration="none" x="969.35546875" y="348">SD Card</text></g></g><g transform="translate(-198,-310) scale(1,1)"><path fill="#C0C0C0" stroke="none" d="M 927 497 L 1076 497 L 1076 614 L 927 614" opacity="0.2"/></g><g transform="translate(-198,-310) scale(1,1)"><path fill="#C0C0C0" stroke="none" d="M 927 497 L 937 487 L 1086 487 L 1076 497" opacity="0.2"/></g><g transform="translate(-198,-310) scale(1,1)"><path fill="#C0C0C0" stroke="none" d="M 1086 487 L 1076 497 L 1076 614 L 1086 604" opacity="0.2"/></g><g transform="translate(-198,-310) scale(1,1)"><path fill="#ffffff" stroke="none" d="M 920 490 L 1069 490 L 1069 607 L 920 607"/></g><g transform="translate(-198,-310) scale(1,1)"><path fill="#ffffff" stroke="none" d="M 920 490 L 930 480 L 1079 480 L 1069 490"/></g><g transform="translate(-198,-310) scale(1,1)"><path fill="#ffffff" stroke="none" d="M 1079 480 L 1069 490 L 1069 607 L 1079 597"/></g><g transform="translate(-198,-310) scale(1,1)"><path fill="none" stroke="#000000" d="M 920 490 L 1069 490 L 1069 607 L 920 607 L 920 490" stroke-miterlimit="10"/></g><g transform="translate(-198,-310) scale(1,1)"><path fill="none" stroke="#000000" d="M 920 490 L 930 480 L 1079 480 L 1069 490 L 920 490" stroke-miterlimit="10"/></g><g transform="translate(-198,-310) scale(1,1)"><path fill="none" stroke="#000000" d="M 1079 480 L 1069 490 L 1069 607 L 1079 597 L 1079 480" stroke-miterlimit="10"/></g><g transform="translate(-198,-310) scale(1,1)"><g><path fill="none" stroke="none"/><text fill="#000000" stroke="none" font-family="Arial" font-size="13px" font-style="normal" font-weight="bold" text-decoration="none" x="963.9345703125" y="508">USB Stick</text></g></g><g transform="translate(-198,-310) scale(1,1)"><path fill="#C0C0C0" stroke="none" d="M 519 393 L 750.72998046875 393 L 750.72998046875 546 L 519 546" opacity="0.2"/></g><g transform="translate(-198,-310) scale(1,1)"><path fill="#C0C0C0" stroke="none" d="M 519 393 L 529 383 L 760.72998046875 383 L 750.72998046875 393" opacity="0.2"/></g><g transform="translate(-198,-310) scale(1,1)"><path fill="#C0C0C0" stroke="none" d="M 760.72998046875 383 L 750.72998046875 393 L 750.72998046875 546 L 760.72998046875 536" opacity="0.2"/></g><g transform="translate(-198,-310) scale(1,1)"><path fill="#ffffff" stroke="none" d="M 512 386 L 743.72998046875 386 L 743.72998046875 539 L 512 539"/></g><g transform="translate(-198,-310) scale(1,1)"><path fill="#ffffff" stroke="none" d="M 512 386 L 522 376 L 753.72998046875 376 L 743.72998046875 386"/></g><g transform="translate(-198,-310) scale(1,1)"><path fill="#ffffff" stroke="none" d="M 753.72998046875 376 L 743.72998046875 386 L 743.72998046875 539 L 753.72998046875 529"/></g><g transform="translate(-198,-310) scale(1,1)"><path fill="none" stroke="#000000" d="M 512 386 L 743.72998046875 386 L 743.72998046875 539 L 512 539 L 512 386" stroke-miterlimit="10"/></g><g transform="translate(-198,-310) scale(1,1)"><path fill="none" stroke="#000000" d="M 512 386 L 522 376 L 753.72998046875 376 L 743.72998046875 386 L 512 386" stroke-miterlimit="10"/></g><g transform="translate(-198,-310) scale(1,1)"><path fill="none" stroke="#000000" d="M 753.72998046875 376 L 743.72998046875 386 L 743.72998046875 539 L 753.72998046875 529 L 753.72998046875 376" stroke-miterlimit="10"/></g><g transform="translate(-198,-310) scale(1,1)"><g><path fill="none" stroke="none"/><text fill="#000000" stroke="none" font-family="Arial" font-size="13px" font-style="normal" font-weight="bold" text-decoration="none" x="608.503173828125" y="404">logger</text></g></g><g transform="translate(-198,-310) scale(1,1)"><path fill="#C0C0C0" stroke="none" d="M 215 401 L 380 401 L 380 542 L 215 542" opacity="0.2"/></g><g transform="translate(-198,-310) scale(1,1)"><path fill="#C0C0C0" stroke="none" d="M 215 401 L 225 391 L 390 391 L 380 401" opacity="0.2"/></g><g transform="translate(-198,-310) scale(1,1)"><path fill="#C0C0C0" stroke="none" d="M 390 391 L 380 401 L 380 542 L 390 532" opacity="0.2"/></g><g transform="translate(-198,-310) scale(1,1)"><path fill="#ffffff" stroke="none" d="M 208 394 L 373 394 L 373 535 L 208 535"/></g><g transform="translate(-198,-310) scale(1,1)"><path fill="#ffffff" stroke="none" d="M 208 394 L 218 384 L 383 384 L 373 394"/></g><g transform="translate(-198,-310) scale(1,1)"><path fill="#ffffff" stroke="none" d="M 383 384 L 373 394 L 373 535 L 383 525"/></g><g transform="translate(-198,-310) scale(1,1)"><path fill="none" stroke="#000000" d="M 208 394 L 373 394 L 373 535 L 208 535 L 208 394" stroke-miterlimit="10"/></g><g transform="translate(-198,-310) scale(1,1)"><path fill="none" stroke="#000000" d="M 208 394 L 218 384 L 383 384 L 373 394 L 208 394" stroke-miterlimit="10"/></g><g transform="translate(-198,-310) scale(1,1)"><path fill="none" stroke="#000000" d="M 383 384 L 373 394 L 373 535 L 383 525 L 383 384" stroke-miterlimit="10"/></g><g transform="translate(-198,-310) scale(1,1)"><g><path fill="none" stroke="none"/><text fill="#000000" stroke="none" font-family="Arial" font-size="13px" font-style="normal" font-weight="bold" text-decoration="none" x="260.305908203125" y="412">Computer</text></g></g><g transform="translate(-198,-310) scale(1,1)"><path fill="none" stroke="#000000" d="M 385 459 L 511 459" stroke-miterlimit="10"/></g><g transform="translate(-198,-310) scale(1,1)"><g><path fill="none" stroke="none"/><text fill="#000000" stroke="none" font-family="Arial" font-size="13px" font-style="normal" font-weight="normal" text-decoration="none" x="431.305908203125" y="449">+USB</text></g></g><g transform="translate(-198,-310) scale(1,1)"><path fill="none" stroke="#000000" d="M 919 525 L 756 487" stroke-miterlimit="10"/></g><g transform="translate(-198,-310) scale(1,1)"><g><path fill="none" stroke="none"/><text fill="#000000" stroke="none" font-family="Arial" font-size="13px" font-style="normal" font-weight="normal" text-decoration="none" x="815.5" y="525">+USB</text></g></g><g transform="translate(-198,-310) scale(1,1)"><path fill="#C0C0C0" stroke="none" d="M 978.2681640625 367 L 1005.7081640625 367 L 1017.4681640625 378.76 L 1017.4681640625 416 L 978.2681640625 416" opacity="0.2"/></g><g transform="translate(-198,-310) scale(1,1)"><path fill="#ffffff" stroke="none" d="M 971.2681640625 360 L 998.7081640625 360 L 1010.4681640625 371.76 L 1010.4681640625 409 L 971.2681640625 409"/></g><g transform="translate(-198,-310) scale(1,1)"><path fill="none" stroke="#000000" d="M 971.2681640625 360 L 998.7081640625 360 L 1010.4681640625 371.76 L 1010.4681640625 409 L 971.2681640625 409 L 971.2681640625 360" stroke-miterlimit="10"/></g><g transform="translate(-198,-310) scale(1,1)"><path fill="none" stroke="#000000" d="M 998.7081640625 360 L 998.7081640625 371.76 L 1010.4681640625 371.76 L 998.7081640625 360" stroke-miterlimit="10"/></g><g transform="translate(-198,-310) scale(1,1)"><g><path fill="none" stroke="none"/><text fill="#000000" stroke="none" font-family="Arial" font-size="13px" font-style="normal" font-weight="bold" text-decoration="none" x="968.470458984375" y="427">log.csv</text></g></g><g transform="translate(-198,-310) scale(1,1)"><path fill="#C0C0C0" stroke="none" d="M 978.2681640625 527 L 1005.7081640625 527 L 1017.4681640625 538.76 L 1017.4681640625 576 L 978.2681640625 576" opacity="0.2"/></g><g transform="translate(-198,-310) scale(1,1)"><path fill="#ffffff" stroke="none" d="M 971.2681640625 520 L 998.7081640625 520 L 1010.4681640625 531.76 L 1010.4681640625 569 L 971.2681640625 569"/></g><g transform="translate(-198,-310) scale(1,1)"><path fill="none" stroke="#000000" d="M 971.2681640625 520 L 998.7081640625 520 L 1010.4681640625 531.76 L 1010.4681640625 569 L 971.2681640625 569 L 971.2681640625 520" stroke-miterlimit="10"/></g><g transform="translate(-198,-310) scale(1,1)"><path fill="none" stroke="#000000" d="M 998.7081640625 520 L 998.7081640625 531.76 L 1010.4681640625 531.76 L 998.7081640625 520" stroke-miterlimit="10"/></g><g transform="translate(-198,-310) scale(1,1)"><g><path fill="none" stroke="none"/><text fill="#000000" stroke="none" font-family="Arial" font-size="13px" font-style="normal" font-weight="bold" text-decoration="none" x="968.470458984375" y="587">log.csv</text></g></g><g transform="translate(-198,-310) scale(1,1)"><path fill="none" stroke="#000000" d="M 919 399 L 756 433" stroke-miterlimit="10"/></g><g transform="translate(-198,-310) scale(1,1)"><g><path fill="none" stroke="none"/><text fill="#000000" stroke="none" font-family="Arial" font-size="13px" font-style="normal" font-weight="normal" text-decoration="none" x="820.5" y="435">+SDIO</text></g></g><g transform="translate(-198,-310) scale(1,1)"><rect fill="#C0C0C0" stroke="none" x="585" y="447" width="112.89453125" height="44" opacity="0.2"/></g><g transform="translate(-198,-310) scale(1,1)"><rect fill="#ffffff" stroke="none" x="578" y="440" width="112.89453125" height="44"/></g><g transform="translate(-198,-310) scale(1,1)"><path fill="none" stroke="#000000" d="M 578 440 L 690.89453125 440 L 690.89453125 484 L 578 484 L 578 440 Z Z" stroke-miterlimit="10"/></g><g transform="translate(-198,-310) scale(1,1)"><rect fill="#ffffff" stroke="none" x="568" y="447" width="20" height="10"/></g><g transform="translate(-198,-310) scale(1,1)"><path fill="none" stroke="#000000" d="M 568 447 L 588 447 L 588 457 L 568 457 L 568 447 Z Z" stroke-miterlimit="10"/></g><g transform="translate(-198,-310) scale(1,1)"><rect fill="#ffffff" stroke="none" x="568" y="467" width="20" height="10"/></g><g transform="translate(-198,-310) scale(1,1)"><path fill="none" stroke="#000000" d="M 568 467 L 588 467 L 588 477 L 568 477 L 568 467 Z Z" stroke-miterlimit="10"/></g><g transform="translate(-198,-310) scale(1,1)"><g><path fill="none" stroke="none"/><text fill="#000000" stroke="none" font-family="Arial" font-size="13px" font-style="normal" font-weight="bold" text-decoration="none" x="602.97998046875" y="458">Logger App</text></g></g><g transform="translate(-198,-310) scale(1,1)"><rect fill="#C0C0C0" stroke="none" x="241" y="455" width="114.3291015625" height="44" opacity="0.2"/></g><g transform="translate(-198,-310) scale(1,1)"><rect fill="#ffffff" stroke="none" x="234" y="448" width="114.3291015625" height="44"/></g><g transform="translate(-198,-310) scale(1,1)"><path fill="none" stroke="#000000" d="M 234 448 L 348.3291015625 448 L 348.3291015625 492 L 234 492 L 234 448 Z Z" stroke-miterlimit="10"/></g><g transform="translate(-198,-310) scale(1,1)"><rect fill="#ffffff" stroke="none" x="224" y="455" width="20" height="10"/></g><g transform="translate(-198,-310) scale(1,1)"><path fill="none" stroke="#000000" d="M 224 455 L 244 455 L 244 465 L 224 465 L 224 455 Z Z" stroke-miterlimit="10"/></g><g transform="translate(-198,-310) scale(1,1)"><rect fill="#ffffff" stroke="none" x="224" y="475" width="20" height="10"/></g><g transform="translate(-198,-310) scale(1,1)"><path fill="none" stroke="#000000" d="M 224 475 L 244 475 L 244 485 L 224 485 L 224 475 Z Z" stroke-miterlimit="10"/></g><g transform="translate(-198,-310) scale(1,1)"><g><path fill="none" stroke="none"/><text fill="#000000" stroke="none" font-family="Arial" font-size="13px" font-style="normal" font-weight="bold" text-decoration="none" x="248.5" y="466">logger GUI App</text></g></g></g></svg>