<svg version="1.1" xmlns="http://www.w3.org/2000/svg" xmlns:xlink="http://www.w3.org/1999/xlink" width="2739.767578125" height="2363"><defs/><g><g transform="translate(-294,-206) scale(1,1)"><path fill="#C0C0C0" stroke="none" d="M 1375 232.5 C 1375 227.2532944 1379.2532944 223 1384.5 223 C 1389.7467056 223 1394 227.2532944 1394 232.5 C 1394 237.7467056 1389.7467056 242 1384.5 242 C 1379.2532944 242 1375 237.7467056 1375 232.5 Z" opacity="0.2"/></g><g transform="translate(-294,-206) scale(1,1)"><path fill="#000000" stroke="none" d="M 1368 225.5 C 1368 220.2532944 1372.2532944 216 1377.5 216 C 1382.7467056 216 1387 220.2532944 1387 225.5 C 1387 230.7467056 1382.7467056 235 1377.5 235 C 1372.2532944 235 1368 230.7467056 1368 225.5 Z"/></g><g transform="translate(-294,-206) scale(1,1)"><path fill="#C0C0C0" stroke="none" d="M 689 927 L 880.275390625 927 Q 890.275390625 927 890.275390625 937 L 890.275390625 964 Q 890.275390625 974 880.275390625 974 L 689 974 Q 679 974 679 964 L 679 937 Q 679 927 689 927 Z" opacity="0.2"/></g><g transform="translate(-294,-206) scale(1,1)"><path fill="#ffffff" stroke="none" d="M 682 920 L 873.275390625 920 Q 883.275390625 920 883.275390625 930 L 883.275390625 957 Q 883.275390625 967 873.275390625 967 L 682 967 Q 672 967 672 957 L 672 930 Q 672 920 682 920 Z"/></g><g transform="translate(-294,-206) scale(1,1)"><path fill="none" stroke="#000000" d="M 682 920 L 873.275390625 920 Q 883.275390625 920 883.275390625 930 L 883.275390625 957 Q 883.275390625 967 873.275390625 967 L 682 967 Q 672 967 672 957 L 672 930 Q 672 920 682 920 Z" stroke-miterlimit="10"/></g><g transform="translate(-294,-206) scale(1,1)"><g><path fill="none" stroke="none"/><text fill="#000000" stroke="none" font-family="Arial" font-size="20px" font-style="normal" font-weight="bold" text-decoration="none" x="676.5" y="944">check for logger type</text></g></g><g transform="translate(-294,-206) scale(1,1)"><path fill="#C0C0C0" stroke="none" d="M 728 1086.5 L 784.5 1045 L 840 1086.5 L 784.5 1127 L 728 1086.5" opacity="0.2"/></g><g transform="translate(-294,-206) scale(1,1)"><path fill="#ffffff" stroke="none" d="M 721 1079 L 777 1038 L 833 1079 L 777 1120 L 721 1079"/></g><g transform="translate(-294,-206) scale(1,1)"><path fill="none" stroke="#000000" d="M 721 1079 L 777 1038 L 833 1079 L 777 1120 L 721 1079 L 721 1079" stroke-miterlimit="10"/></g><g transform="translate(-294,-206) scale(1,1)"><path fill="#C0C0C0" stroke="none" d="M 1281 279 L 1487.8125 279 Q 1497.8125 279 1497.8125 289 L 1497.8125 316 Q 1497.8125 326 1487.8125 326 L 1281 326 Q 1271 326 1271 316 L 1271 289 Q 1271 279 1281 279 Z" opacity="0.2"/></g><g transform="translate(-294,-206) scale(1,1)"><path fill="#ffffff" stroke="none" d="M 1274 272 L 1480.8125 272 Q 1490.8125 272 1490.8125 282 L 1490.8125 309 Q 1490.8125 319 1480.8125 319 L 1274 319 Q 1264 319 1264 309 L 1264 282 Q 1264 272 1274 272 Z"/></g><g transform="translate(-294,-206) scale(1,1)"><path fill="none" stroke="#000000" d="M 1274 272 L 1480.8125 272 Q 1490.8125 272 1490.8125 282 L 1490.8125 309 Q 1490.8125 319 1480.8125 319 L 1274 319 Q 1264 319 1264 309 L 1264 282 Q 1264 272 1274 272 Z" stroke-miterlimit="10"/></g><g transform="translate(-294,-206) scale(1,1)"><g><path fill="none" stroke="none"/><text fill="#000000" stroke="none" font-family="Arial" font-size="20px" font-style="normal" font-weight="bold" text-decoration="none" x="1268.5" y="296">peripheral Initialization</text></g></g><g transform="translate(-294,-206) scale(1,1)"><path fill="none" stroke="#000000" d="M 1377 236 L 1377 271" stroke-miterlimit="10"/></g><g transform="translate(-294,-206) scale(1,1)"><path fill="none" stroke="#000000" d="M 1372.7904822439841 260.83732514237585 L 1377 271 L 1381.2095177560159 260.83732514237585" stroke-miterlimit="10"/></g><g transform="translate(-294,-206) scale(1,1)"><path fill="#C0C0C0" stroke="none" d="M 345 1063 L 549 1063 Q 559 1063 559 1073 L 559 1101 Q 559 1111 549 1111 L 345 1111 Q 335 1111 335 1101 L 335 1073 Q 335 1063 345 1063 Z" opacity="0.2"/></g><g transform="translate(-294,-206) scale(1,1)"><path fill="#ffffff" stroke="none" d="M 338 1056 L 542 1056 Q 552 1056 552 1066 L 552 1094 Q 552 1104 542 1104 L 338 1104 Q 328 1104 328 1094 L 328 1066 Q 328 1056 338 1056 Z"/></g><g transform="translate(-294,-206) scale(1,1)"><path fill="none" stroke="#000000" d="M 338 1056 L 542 1056 Q 552 1056 552 1066 L 552 1094 Q 552 1104 542 1104 L 338 1104 Q 328 1104 328 1094 L 328 1066 Q 328 1056 338 1056 Z" stroke-miterlimit="10"/></g><g transform="translate(-294,-206) scale(1,1)"><g><path fill="none" stroke="none"/><text fill="#000000" stroke="none" font-family="Arial" font-size="20px" font-style="normal" font-weight="bold" text-decoration="none" x="336.8505859375" y="1080">Assign USB to FATFS</text></g></g><g transform="translate(-294,-206) scale(1,1)"><path fill="none" stroke="#000000" d="M 720 1079 L 553 1080" stroke-miterlimit="10"/></g><g transform="translate(-294,-206) scale(1,1)"><path fill="none" stroke="#000000" d="M 563.1372864226487 1075.7297044616112 L 553 1080 L 563.1876989051506 1084.14858903942" stroke-miterlimit="10"/></g><g transform="translate(-294,-206) scale(1,1)"><g><path fill="none" stroke="none"/><text fill="#000000" stroke="none" font-family="Arial" font-size="20px" font-style="normal" font-weight="normal" text-decoration="none" x="577.5" y="1099">USB selected</text></g></g><g transform="translate(-294,-206) scale(1,1)"><path fill="#C0C0C0" stroke="none" d="M 1041 1063 L 1267.421875 1063 Q 1277.421875 1063 1277.421875 1073 L 1277.421875 1100 Q 1277.421875 1110 1267.421875 1110 L 1041 1110 Q 1031 1110 1031 1100 L 1031 1073 Q 1031 1063 1041 1063 Z" opacity="0.2"/></g><g transform="translate(-294,-206) scale(1,1)"><path fill="#ffffff" stroke="none" d="M 1034 1056 L 1260.421875 1056 Q 1270.421875 1056 1270.421875 1066 L 1270.421875 1093 Q 1270.421875 1103 1260.421875 1103 L 1034 1103 Q 1024 1103 1024 1093 L 1024 1066 Q 1024 1056 1034 1056 Z"/></g><g transform="translate(-294,-206) scale(1,1)"><path fill="none" stroke="#000000" d="M 1034 1056 L 1260.421875 1056 Q 1270.421875 1056 1270.421875 1066 L 1270.421875 1093 Q 1270.421875 1103 1260.421875 1103 L 1034 1103 Q 1024 1103 1024 1093 L 1024 1066 Q 1024 1056 1034 1056 Z" stroke-miterlimit="10"/></g><g transform="translate(-294,-206) scale(1,1)"><g><path fill="none" stroke="none"/><text fill="#000000" stroke="none" font-family="Arial" font-size="20px" font-style="normal" font-weight="bold" text-decoration="none" x="1028.5" y="1080">Assign SDCard to FATFS</text></g></g><g transform="translate(-294,-206) scale(1,1)"><path fill="none" stroke="#000000" d="M 834 1079 L 1023 1079" stroke-miterlimit="10"/></g><g transform="translate(-294,-206) scale(1,1)"><path fill="none" stroke="#000000" d="M 1012.8373251423759 1083.2095177560159 L 1023 1079 L 1012.8373251423758 1074.7904822439841" stroke-miterlimit="10"/></g><g transform="translate(-294,-206) scale(1,1)"><g><path fill="none" stroke="none"/><text fill="#000000" stroke="none" font-family="Arial" font-size="20px" font-style="normal" font-weight="normal" text-decoration="none" x="852.5" y="1100">SDCard selected</text></g></g><g transform="translate(-294,-206) scale(1,1)"><path fill="#C0C0C0" stroke="none" d="M 721 1215 L 846.318359375 1215 Q 856.318359375 1215 856.318359375 1225 L 856.318359375 1252 Q 856.318359375 1262 846.318359375 1262 L 721 1262 Q 711 1262 711 1252 L 711 1225 Q 711 1215 721 1215 Z" opacity="0.2"/></g><g transform="translate(-294,-206) scale(1,1)"><path fill="#ffffff" stroke="none" d="M 714 1208 L 839.318359375 1208 Q 849.318359375 1208 849.318359375 1218 L 849.318359375 1245 Q 849.318359375 1255 839.318359375 1255 L 714 1255 Q 704 1255 704 1245 L 704 1218 Q 704 1208 714 1208 Z"/></g><g transform="translate(-294,-206) scale(1,1)"><path fill="none" stroke="#000000" d="M 714 1208 L 839.318359375 1208 Q 849.318359375 1208 849.318359375 1218 L 849.318359375 1245 Q 849.318359375 1255 839.318359375 1255 L 714 1255 Q 704 1255 704 1245 L 704 1218 Q 704 1208 714 1208 Z" stroke-miterlimit="10"/></g><g transform="translate(-294,-206) scale(1,1)"><g><path fill="none" stroke="none"/><text fill="#000000" stroke="none" font-family="Arial" font-size="20px" font-style="normal" font-weight="bold" text-decoration="none" x="708.5" y="1232">disable FATFS</text></g></g><g transform="translate(-294,-206) scale(1,1)"><path fill="none" stroke="#000000" d="M 777 1121 L 776 1207" stroke-miterlimit="10"/></g><g transform="translate(-294,-206) scale(1,1)"><path fill="none" stroke="#000000" d="M 771.9089294457003 1196.7890675391645 L 776 1207 L 780.3273958540367 1196.8869566834476" stroke-miterlimit="10"/></g><g transform="translate(-294,-206) scale(1,1)"><g><path fill="none" stroke="none"/><text fill="#000000" stroke="none" font-family="Arial" font-size="20px" font-style="normal" font-weight="normal" text-decoration="none" x="790.5" y="1168">Online log selected</text></g></g><g transform="translate(-294,-206) scale(1,1)"><path fill="#C0C0C0" stroke="none" d="M 743 1328.5 L 783.5 1295 L 823 1328.5 L 783.5 1361 L 743 1328.5" opacity="0.2"/></g><g transform="translate(-294,-206) scale(1,1)"><path fill="#ffffff" stroke="none" d="M 736 1321 L 776 1288 L 816 1321 L 776 1354 L 736 1321"/></g><g transform="translate(-294,-206) scale(1,1)"><path fill="none" stroke="#000000" d="M 736 1321 L 776 1288 L 816 1321 L 776 1354 L 736 1321 L 736 1321" stroke-miterlimit="10"/></g><g transform="translate(-294,-206) scale(1,1)"><path fill="none" stroke="#000000" d="M 776 1256 L 776 1287" stroke-miterlimit="10"/></g><g transform="translate(-294,-206) scale(1,1)"><path fill="none" stroke="#000000" d="M 771.790482243984 1276.837325142376 L 776 1287 L 780.209517756016 1276.837325142376" stroke-miterlimit="10"/></g><g transform="translate(-294,-206) scale(1,1)"><path fill="none" stroke="#000000" d="M 1148 1104 L 1152 1320 L 817 1321" stroke-miterlimit="10"/></g><g transform="translate(-294,-206) scale(1,1)"><path fill="none" stroke="#000000" d="M 827.1500639111424 1316.7601647909707 L 817 1321 L 827.1751952484638 1325.1791627936275" stroke-miterlimit="10"/></g><g transform="translate(-294,-206) scale(1,1)"><path fill="#C0C0C0" stroke="none" d="M 729 1607 L 815.802734375 1607 Q 825.802734375 1607 825.802734375 1617 L 825.802734375 1645 Q 825.802734375 1655 815.802734375 1655 L 729 1655 Q 719 1655 719 1645 L 719 1617 Q 719 1607 729 1607 Z" opacity="0.2"/></g><g transform="translate(-294,-206) scale(1,1)"><path fill="#ffffff" stroke="none" d="M 722 1600 L 808.802734375 1600 Q 818.802734375 1600 818.802734375 1610 L 818.802734375 1638 Q 818.802734375 1648 808.802734375 1648 L 722 1648 Q 712 1648 712 1638 L 712 1610 Q 712 1600 722 1600 Z"/></g><g transform="translate(-294,-206) scale(1,1)"><path fill="none" stroke="#000000" d="M 722 1600 L 808.802734375 1600 Q 818.802734375 1600 818.802734375 1610 L 818.802734375 1638 Q 818.802734375 1648 808.802734375 1648 L 722 1648 Q 712 1648 712 1638 L 712 1610 Q 712 1600 722 1600 Z" stroke-miterlimit="10"/></g><g transform="translate(-294,-206) scale(1,1)"><g><path fill="none" stroke="none"/><text fill="#000000" stroke="none" font-family="Arial" font-size="20px" font-style="normal" font-weight="bold" text-decoration="none" x="716.5" y="1624">Create log</text></g></g><g transform="translate(-294,-206) scale(1,1)"><path fill="#C0C0C0" stroke="none" d="M 1342 475.5 L 1382.5 447 L 1422 475.5 L 1382.5 503 L 1342 475.5" opacity="0.2"/></g><g transform="translate(-294,-206) scale(1,1)"><path fill="#ffffff" stroke="none" d="M 1335 468 L 1375 440 L 1415 468 L 1375 496 L 1335 468"/></g><g transform="translate(-294,-206) scale(1,1)"><path fill="none" stroke="#000000" d="M 1335 468 L 1375 440 L 1415 468 L 1375 496 L 1335 468 L 1335 468" stroke-miterlimit="10"/></g><g transform="translate(-294,-206) scale(1,1)"><path fill="#C0C0C0" stroke="none" d="M 1343 828.5 L 1383.5 799 L 1423 828.5 L 1383.5 857 L 1343 828.5" opacity="0.2"/></g><g transform="translate(-294,-206) scale(1,1)"><path fill="#ffffff" stroke="none" d="M 1336 821 L 1376 792 L 1416 821 L 1376 850 L 1336 821"/></g><g transform="translate(-294,-206) scale(1,1)"><path fill="none" stroke="#000000" d="M 1336 821 L 1376 792 L 1416 821 L 1376 850 L 1336 821 L 1336 821" stroke-miterlimit="10"/></g><g transform="translate(-294,-206) scale(1,1)"><path fill="none" stroke="#000000" d="M 1374 497 L 1373 543" stroke-miterlimit="10"/></g><g transform="translate(-294,-206) scale(1,1)"><path fill="none" stroke="#000000" d="M 1369.0123521078249 532.7482360401718 L 1373 543 L 1377.429398949577 532.9312153193404" stroke-miterlimit="10"/></g><g transform="translate(-294,-206) scale(1,1)"><g><path fill="none" stroke="none"/><text fill="#000000" stroke="none" font-family="Arial" font-size="20px" font-style="normal" font-weight="normal" text-decoration="none" x="1397.5" y="527.5">True</text></g></g><g transform="translate(-294,-206) scale(1,1)"><path fill="none" stroke="#000000" d="M 1335 821 L 776 824 L 777 919" stroke-miterlimit="10"/></g><g transform="translate(-294,-206) scale(1,1)"><path fill="none" stroke="#000000" d="M 772.6837458401975 908.8821963832071 L 777 919 L 781.102314962427 908.7935798661309" stroke-miterlimit="10"/></g><g transform="translate(-294,-206) scale(1,1)"><g><path fill="none" stroke="none"/><text fill="#000000" stroke="none" font-family="Arial" font-size="20px" font-style="normal" font-weight="normal" text-decoration="none" x="875.529296875" y="844">log type has been changed</text></g></g><g transform="translate(-294,-206) scale(1,1)"><path fill="none" stroke="#000000" d="M 777 968 L 777 1037" stroke-miterlimit="10"/></g><g transform="translate(-294,-206) scale(1,1)"><path fill="none" stroke="#000000" d="M 772.790482243984 1026.837325142376 L 777 1037 L 781.209517756016 1026.837325142376" stroke-miterlimit="10"/></g><g transform="translate(-294,-206) scale(1,1)"><path fill="none" stroke="#000000" d="M 1377 320 L 1375 439" stroke-miterlimit="10"/></g><g transform="translate(-294,-206) scale(1,1)"><path fill="none" stroke="#000000" d="M 1370.9618537811857 428.76802193535013 L 1375 439 L 1379.3797004997195 428.90949835078766" stroke-miterlimit="10"/></g><g transform="translate(-294,-206) scale(1,1)"><path fill="#C0C0C0" stroke="none" d="M 1249 359 L 1536.994140625 359 Q 1546.994140625 359 1546.994140625 369 L 1546.994140625 396 Q 1546.994140625 406 1536.994140625 406 L 1249 406 Q 1239 406 1239 396 L 1239 369 Q 1239 359 1249 359 Z" opacity="0.2"/></g><g transform="translate(-294,-206) scale(1,1)"><path fill="#ffffff" stroke="none" d="M 1242 352 L 1529.994140625 352 Q 1539.994140625 352 1539.994140625 362 L 1539.994140625 389 Q 1539.994140625 399 1529.994140625 399 L 1242 399 Q 1232 399 1232 389 L 1232 362 Q 1232 352 1242 352 Z"/></g><g transform="translate(-294,-206) scale(1,1)"><path fill="none" stroke="#000000" d="M 1242 352 L 1529.994140625 352 Q 1539.994140625 352 1539.994140625 362 L 1539.994140625 389 Q 1539.994140625 399 1529.994140625 399 L 1242 399 Q 1232 399 1232 389 L 1232 362 Q 1232 352 1242 352 Z" stroke-miterlimit="10"/></g><g transform="translate(-294,-206) scale(1,1)"><g><path fill="none" stroke="none"/><text fill="#000000" stroke="none" font-family="Arial" font-size="20px" font-style="normal" font-weight="bold" text-decoration="none" x="1236.5" y="376">Create logger starting massage</text></g></g><g transform="translate(-294,-206) scale(1,1)"><path fill="#C0C0C0" stroke="none" d="M 1423 2534.5 C 1423 2527.59644 1428.59644 2522 1435.5 2522 C 1442.40356 2522 1448 2527.59644 1448 2534.5 C 1448 2541.40356 1442.40356 2547 1435.5 2547 C 1428.59644 2547 1423 2541.40356 1423 2534.5 Z" opacity="0.2"/></g><g transform="translate(-294,-206) scale(1,1)"><path fill="none" stroke="#000000" d="M 1416 2527.5 C 1416 2520.59644 1421.59644 2515 1428.5 2515 C 1435.40356 2515 1441 2520.59644 1441 2527.5 C 1441 2534.40356 1435.40356 2540 1428.5 2540 C 1421.59644 2540 1416 2534.40356 1416 2527.5 Z" stroke-miterlimit="10"/></g><g transform="translate(-294,-206) scale(1,1)"><path fill="#000000" stroke="none" d="M 1421 2527.5 C 1421 2523.357864 1424.357864 2520 1428.5 2520 C 1432.642136 2520 1436 2523.357864 1436 2527.5 C 1436 2531.642136 1432.642136 2535 1428.5 2535 C 1424.357864 2535 1421 2531.642136 1421 2527.5 Z"/></g><g transform="translate(-294,-206) scale(1,1)"><path fill="#C0C0C0" stroke="none" d="M 1343 1400.5 L 1379.5 1367 L 1415 1400.5 L 1379.5 1433 L 1343 1400.5" opacity="0.2"/></g><g transform="translate(-294,-206) scale(1,1)"><path fill="#ffffff" stroke="none" d="M 1336 1393 L 1372 1360 L 1408 1393 L 1372 1426 L 1336 1393"/></g><g transform="translate(-294,-206) scale(1,1)"><path fill="none" stroke="#000000" d="M 1336 1393 L 1372 1360 L 1408 1393 L 1372 1426 L 1336 1393 L 1336 1393" stroke-miterlimit="10"/></g><g transform="translate(-294,-206) scale(1,1)"><path fill="none" stroke="#000000" d="M 1376 851 L 1372 1359" stroke-miterlimit="10"/></g><g transform="translate(-294,-206) scale(1,1)"><path fill="none" stroke="#000000" d="M 1367.8706313145562 1348.8044953896497 L 1372 1359 L 1376.2894058481008 1348.8707849529058" stroke-miterlimit="10"/></g><g transform="translate(-294,-206) scale(1,1)"><path fill="none" stroke="#000000" d="M 776 1355 L 776 1392 L 1335 1393" stroke-miterlimit="10"/></g><g transform="translate(-294,-206) scale(1,1)"><path fill="none" stroke="#000000" d="M 1324.8298109724417 1397.1913309513488 L 1335 1393 L 1324.8448718347688 1388.7723089105602" stroke-miterlimit="10"/></g><g transform="translate(-294,-206) scale(1,1)"><path fill="#C0C0C0" stroke="none" d="M 1343 1503.5 L 1379.5 1471 L 1415 1503.5 L 1379.5 1535 L 1343 1503.5" opacity="0.2"/></g><g transform="translate(-294,-206) scale(1,1)"><path fill="#ffffff" stroke="none" d="M 1336 1496 L 1372 1464 L 1408 1496 L 1372 1528 L 1336 1496"/></g><g transform="translate(-294,-206) scale(1,1)"><path fill="none" stroke="#000000" d="M 1336 1496 L 1372 1464 L 1408 1496 L 1372 1528 L 1336 1496 L 1336 1496" stroke-miterlimit="10"/></g><g transform="translate(-294,-206) scale(1,1)"><path fill="none" stroke="#000000" d="M 1372 1427 L 1372 1463" stroke-miterlimit="10"/></g><g transform="translate(-294,-206) scale(1,1)"><path fill="none" stroke="#000000" d="M 1367.7904822439841 1452.837325142376 L 1372 1463 L 1376.2095177560159 1452.837325142376" stroke-miterlimit="10"/></g><g transform="translate(-294,-206) scale(1,1)"><path fill="none" stroke="#000000" d="M 1335 1496 L 768 1496 L 766 1599" stroke-miterlimit="10"/></g><g transform="translate(-294,-206) scale(1,1)"><path fill="none" stroke="#000000" d="M 761.9885718962405 1588.7575176559405 L 766 1599 L 770.4060207072573 1588.9209632639215" stroke-miterlimit="10"/></g><g transform="translate(-294,-206) scale(1,1)"><g><path fill="none" stroke="none"/><text fill="#000000" stroke="none" font-family="Arial" font-size="20px" font-style="normal" font-weight="normal" text-decoration="none" x="822.5" y="1525">Buffer has at least one log</text></g></g><g transform="translate(-294,-206) scale(1,1)"><path fill="#C0C0C0" stroke="none" d="M 1343 2168.5 L 1379.5 2135 L 1415 2168.5 L 1379.5 2201 L 1343 2168.5" opacity="0.2"/></g><g transform="translate(-294,-206) scale(1,1)"><path fill="#ffffff" stroke="none" d="M 1336 2161 L 1372 2128 L 1408 2161 L 1372 2194 L 1336 2161"/></g><g transform="translate(-294,-206) scale(1,1)"><path fill="none" stroke="#000000" d="M 1336 2161 L 1372 2128 L 1408 2161 L 1372 2194 L 1336 2161 L 1336 2161" stroke-miterlimit="10"/></g><g transform="translate(-294,-206) scale(1,1)"><path fill="none" stroke="#000000" d="M 1372 1529 L 1372 2127" stroke-miterlimit="10"/></g><g transform="translate(-294,-206) scale(1,1)"><path fill="none" stroke="#000000" d="M 1367.7904822439841 2116.837325142376 L 1372 2127 L 1376.2095177560159 2116.837325142376" stroke-miterlimit="10"/></g><g transform="translate(-294,-206) scale(1,1)"><g><path fill="none" stroke="none"/><text fill="#000000" stroke="none" font-family="Arial" font-size="20px" font-style="normal" font-weight="normal" text-decoration="none" x="1387.5" y="1862">No log in buffer</text></g></g><g transform="translate(-294,-206) scale(1,1)"><path fill="#C0C0C0" stroke="none" d="M 1343 2271.5 L 1379.5 2239 L 1415 2271.5 L 1379.5 2303 L 1343 2271.5" opacity="0.2"/></g><g transform="translate(-294,-206) scale(1,1)"><path fill="#ffffff" stroke="none" d="M 1336 2264 L 1372 2232 L 1408 2264 L 1372 2296 L 1336 2264"/></g><g transform="translate(-294,-206) scale(1,1)"><path fill="none" stroke="#000000" d="M 1336 2264 L 1372 2232 L 1408 2264 L 1372 2296 L 1336 2264 L 1336 2264" stroke-miterlimit="10"/></g><g transform="translate(-294,-206) scale(1,1)"><path fill="#C0C0C0" stroke="none" d="M 972 2319 L 1042.162109375 2319 Q 1052.162109375 2319 1052.162109375 2329 L 1052.162109375 2365 Q 1052.162109375 2375 1042.162109375 2375 L 972 2375 Q 962 2375 962 2365 L 962 2329 Q 962 2319 972 2319 Z" opacity="0.2"/></g><g transform="translate(-294,-206) scale(1,1)"><path fill="#ffffff" stroke="none" d="M 965 2312 L 1035.162109375 2312 Q 1045.162109375 2312 1045.162109375 2322 L 1045.162109375 2358 Q 1045.162109375 2368 1035.162109375 2368 L 965 2368 Q 955 2368 955 2358 L 955 2322 Q 955 2312 965 2312 Z"/></g><g transform="translate(-294,-206) scale(1,1)"><path fill="none" stroke="#000000" d="M 965 2312 L 1035.162109375 2312 Q 1045.162109375 2312 1045.162109375 2322 L 1045.162109375 2358 Q 1045.162109375 2368 1035.162109375 2368 L 965 2368 Q 955 2368 955 2358 L 955 2322 Q 955 2312 965 2312 Z" stroke-miterlimit="10"/></g><g transform="translate(-294,-206) scale(1,1)"><g><path fill="none" stroke="none"/><text fill="#000000" stroke="none" font-family="Arial" font-size="20px" font-style="normal" font-weight="bold" text-decoration="none" x="959.5" y="2336">Save file</text></g></g><g transform="translate(-294,-206) scale(1,1)"><path fill="none" stroke="#000000" d="M 1335 2264 L 1000 2264 L 1000 2311" stroke-miterlimit="10"/></g><g transform="translate(-294,-206) scale(1,1)"><path fill="none" stroke="#000000" d="M 995.790482243984 2300.837325142376 L 1000 2311 L 1004.209517756016 2300.837325142376" stroke-miterlimit="10"/></g><g transform="translate(-294,-206) scale(1,1)"><g><path fill="none" stroke="none"/><text fill="#000000" stroke="none" font-family="Arial" font-size="20px" font-style="normal" font-weight="normal" text-decoration="none" x="1037.5" y="2296">No writing file &amp;&amp; save request</text></g></g><g transform="translate(-294,-206) scale(1,1)"><path fill="#C0C0C0" stroke="none" d="M 1343 2408.5 L 1379.5 2375 L 1415 2408.5 L 1379.5 2441 L 1343 2408.5" opacity="0.2"/></g><g transform="translate(-294,-206) scale(1,1)"><path fill="#ffffff" stroke="none" d="M 1336 2401 L 1372 2368 L 1408 2401 L 1372 2434 L 1336 2401"/></g><g transform="translate(-294,-206) scale(1,1)"><path fill="none" stroke="#000000" d="M 1336 2401 L 1372 2368 L 1408 2401 L 1372 2434 L 1336 2401 L 1336 2401" stroke-miterlimit="10"/></g><g transform="translate(-294,-206) scale(1,1)"><path fill="none" stroke="#000000" d="M 1000 2369 L 1000 2400 L 1335 2401" stroke-miterlimit="10"/></g><g transform="translate(-294,-206) scale(1,1)"><path fill="none" stroke="#000000" d="M 1324.8248047515362 2405.1791627936277 L 1335 2401 L 1324.8499360888577 2396.7601647909705" stroke-miterlimit="10"/></g><g transform="translate(-294,-206) scale(1,1)"><path fill="none" stroke="#000000" d="M 1372 2297 L 1372 2367" stroke-miterlimit="10"/></g><g transform="translate(-294,-206) scale(1,1)"><path fill="none" stroke="#000000" d="M 1367.7904822439841 2356.837325142376 L 1372 2367 L 1376.2095177560159 2356.837325142376" stroke-miterlimit="10"/></g><g transform="translate(-294,-206) scale(1,1)"><g><path fill="none" stroke="none"/><text fill="#000000" stroke="none" font-family="Arial" font-size="20px" font-style="normal" font-weight="normal" text-decoration="none" x="1383.5" y="2337">saving has not been requested</text></g></g><g transform="translate(-294,-206) scale(1,1)"><path fill="none" stroke="#000000" d="M 1409 2401 L 1712 2400 L 1704 472 L 1416 468" stroke-miterlimit="10"/></g><g transform="translate(-294,-206) scale(1,1)"><path fill="none" stroke="#000000" d="M 1426.2201546893177 463.93202284588324 L 1416 468 L 1426.10323491698 472.3502464542042" stroke-miterlimit="10"/></g><g transform="translate(-294,-206) scale(1,1)"><path fill="#C0C0C0" stroke="none" d="M 1209 2502 L 1314.66015625 2502 Q 1324.66015625 2502 1324.66015625 2512 L 1324.66015625 2556 Q 1324.66015625 2566 1314.66015625 2566 L 1209 2566 Q 1199 2566 1199 2556 L 1199 2512 Q 1199 2502 1209 2502 Z" opacity="0.2"/></g><g transform="translate(-294,-206) scale(1,1)"><path fill="#ffffff" stroke="none" d="M 1202 2495 L 1307.66015625 2495 Q 1317.66015625 2495 1317.66015625 2505 L 1317.66015625 2549 Q 1317.66015625 2559 1307.66015625 2559 L 1202 2559 Q 1192 2559 1192 2549 L 1192 2505 Q 1192 2495 1202 2495 Z"/></g><g transform="translate(-294,-206) scale(1,1)"><path fill="none" stroke="#000000" d="M 1202 2495 L 1307.66015625 2495 Q 1317.66015625 2495 1317.66015625 2505 L 1317.66015625 2549 Q 1317.66015625 2559 1307.66015625 2559 L 1202 2559 Q 1192 2559 1192 2549 L 1192 2505 Q 1192 2495 1202 2495 Z" stroke-miterlimit="10"/></g><g transform="translate(-294,-206) scale(1,1)"><g><path fill="none" stroke="none"/><text fill="#000000" stroke="none" font-family="Arial" font-size="20px" font-style="normal" font-weight="bold" text-decoration="none" x="1196.5" y="2519">power down</text></g></g><g transform="translate(-294,-206) scale(1,1)"><path fill="none" stroke="#000000" d="M 1319 2527 L 1415 2527" stroke-miterlimit="10"/></g><g transform="translate(-294,-206) scale(1,1)"><path fill="none" stroke="#000000" d="M 1404.837325142376 2531.209517756016 L 1415 2527 L 1404.837325142376 2522.790482243984" stroke-miterlimit="10"/></g><g transform="translate(-294,-206) scale(1,1)"><path fill="#C0C0C0" stroke="none" d="M 2257 1039 L 2522.767578125 1039 Q 2532.767578125 1039 2532.767578125 1049 L 2532.767578125 1109 Q 2532.767578125 1119 2522.767578125 1119 L 2257 1119 Q 2247 1119 2247 1109 L 2247 1049 Q 2247 1039 2257 1039 Z" opacity="0.2"/></g><g transform="translate(-294,-206) scale(1,1)"><path fill="#ffffff" stroke="none" d="M 2250 1032 L 2515.767578125 1032 Q 2525.767578125 1032 2525.767578125 1042 L 2525.767578125 1102 Q 2525.767578125 1112 2515.767578125 1112 L 2250 1112 Q 2240 1112 2240 1102 L 2240 1042 Q 2240 1032 2250 1032 Z"/></g><g transform="translate(-294,-206) scale(1,1)"><path fill="none" stroke="#000000" d="M 2250 1032 L 2515.767578125 1032 Q 2525.767578125 1032 2525.767578125 1042 L 2525.767578125 1102 Q 2525.767578125 1112 2515.767578125 1112 L 2250 1112 Q 2240 1112 2240 1102 L 2240 1042 Q 2240 1032 2250 1032 Z" stroke-miterlimit="10"/></g><g transform="translate(-294,-206) scale(1,1)"><g><path fill="none" stroke="none"/><text fill="#000000" stroke="none" font-family="Arial" font-size="20px" font-style="normal" font-weight="bold" text-decoration="none" x="2244.5" y="1056">Get time stamp and massage</text></g></g><g transform="translate(-294,-206) scale(1,1)"><rect fill="#ffffff" stroke="none" x="2223" y="1076" width="17" height="17"/></g><g transform="translate(-294,-206) scale(1,1)"><path fill="none" stroke="#000000" d="M 2223 1076 L 2240 1076 L 2240 1093 L 2223 1093 L 2223 1076 Z Z" stroke-miterlimit="10"/></g><g transform="translate(-294,-206) scale(1,1)"><path fill="none" stroke="#000000" d="M 2225 1084 L 2238 1084" stroke-miterlimit="10"/></g><g transform="translate(-294,-206) scale(1,1)"><path fill="none" stroke="#000000" d="M 2238 1084 L 2235 1081" stroke-miterlimit="10"/></g><g transform="translate(-294,-206) scale(1,1)"><path fill="none" stroke="#000000" d="M 2238 1084 L 2235 1087" stroke-miterlimit="10"/></g><g transform="translate(-294,-206) scale(1,1)"><path fill="none" stroke="#000000" d="M 2005 1078 L 2222 1084" stroke-miterlimit="10"/></g><g transform="translate(-294,-206) scale(1,1)"><path fill="none" stroke="#000000" d="M 2211.7248599183777 1087.9270213015764 L 2222 1084 L 2211.9575553784343 1079.5112021628518" stroke-miterlimit="10"/></g><g transform="translate(-294,-206) scale(1,1)"><path fill="none" stroke="#000000" d="M 2101 1051 L 2125 1051" stroke-miterlimit="10"/></g><g transform="translate(-294,-206) scale(1,1)"><path fill="none" stroke="#000000" d="M 2125 1051 L 2101 1065" stroke-miterlimit="10"/></g><g transform="translate(-294,-206) scale(1,1)"><path fill="none" stroke="#000000" d="M 2101 1065 L 2125 1065" stroke-miterlimit="10"/></g><g transform="translate(-294,-206) scale(1,1)"><path fill="none" stroke="#000000" d="M 2125 1065 L 2120 1070" stroke-miterlimit="10"/></g><g transform="translate(-294,-206) scale(1,1)"><path fill="none" stroke="#000000" d="M 2125 1065 L 2120 1060" stroke-miterlimit="10"/></g><g transform="translate(-294,-206) scale(1,1)"><path fill="#C0C0C0" stroke="none" d="M 1815 1039 L 2011.3984375 1039 L 2011.3984375 1127 L 1815 1127 L 1837.25 1083.5" opacity="0.2"/></g><g transform="translate(-294,-206) scale(1,1)"><path fill="#ffffff" stroke="none" d="M 1808 1032 L 2004.3984375 1032 L 2004.3984375 1120 L 1808 1120 L 1830.25 1076.5"/></g><g transform="translate(-294,-206) scale(1,1)"><path fill="none" stroke="#000000" d="M 1808 1032 L 2004.3984375 1032 L 2004.3984375 1120 L 1808 1120 L 1830.25 1076.5 L 1808 1032" stroke-miterlimit="10"/></g><g transform="translate(-294,-206) scale(1,1)"><g><path fill="none" stroke="none"/><text fill="#000000" stroke="none" font-family="Arial" font-size="20px" font-style="normal" font-weight="bold" text-decoration="none" x="1824.5" y="1056">CAN Receive ISR</text></g></g><g transform="translate(-294,-206) scale(1,1)"><path fill="#C0C0C0" stroke="none" d="M 2617 1047 L 2812 1047 Q 2822 1047 2822 1057 L 2822 1108 Q 2822 1118 2812 1118 L 2617 1118 Q 2607 1118 2607 1108 L 2607 1057 Q 2607 1047 2617 1047 Z" opacity="0.2"/></g><g transform="translate(-294,-206) scale(1,1)"><path fill="#ffffff" stroke="none" d="M 2610 1040 L 2805 1040 Q 2815 1040 2815 1050 L 2815 1101 Q 2815 1111 2805 1111 L 2610 1111 Q 2600 1111 2600 1101 L 2600 1050 Q 2600 1040 2610 1040 Z"/></g><g transform="translate(-294,-206) scale(1,1)"><path fill="none" stroke="#000000" d="M 2610 1040 L 2805 1040 Q 2815 1040 2815 1050 L 2815 1101 Q 2815 1111 2805 1111 L 2610 1111 Q 2600 1111 2600 1101 L 2600 1050 Q 2600 1040 2610 1040 Z" stroke-miterlimit="10"/></g><g transform="translate(-294,-206) scale(1,1)"><g><path fill="none" stroke="none"/><text fill="#000000" stroke="none" font-family="Arial" font-size="20px" font-style="normal" font-weight="bold" text-decoration="none" x="2625.83984375" y="1064">sending to buffer</text></g></g><g transform="translate(-294,-206) scale(1,1)"><path fill="none" stroke="#000000" d="M 2527 1073 L 2599 1074" stroke-miterlimit="10"/></g><g transform="translate(-294,-206) scale(1,1)"><path fill="none" stroke="#000000" d="M 2588.779845310682 1078.0679771541168 L 2599 1074 L 2588.89676508302 1069.6497535457959" stroke-miterlimit="10"/></g><g transform="translate(-294,-206) scale(1,1)"><path fill="#C0C0C0" stroke="none" d="M 735 1803.5 L 771.5 1767 L 807 1803.5 L 771.5 1839 L 735 1803.5" opacity="0.2"/></g><g transform="translate(-294,-206) scale(1,1)"><path fill="#ffffff" stroke="none" d="M 728 1796 L 764 1760 L 800 1796 L 764 1832 L 728 1796"/></g><g transform="translate(-294,-206) scale(1,1)"><path fill="none" stroke="#000000" d="M 728 1796 L 764 1760 L 800 1796 L 764 1832 L 728 1796 L 728 1796" stroke-miterlimit="10"/></g><g transform="translate(-294,-206) scale(1,1)"><path fill="#C0C0C0" stroke="none" d="M 321 1911 L 500.068359375 1911 Q 510.068359375 1911 510.068359375 1921 L 510.068359375 1948 Q 510.068359375 1958 500.068359375 1958 L 321 1958 Q 311 1958 311 1948 L 311 1921 Q 311 1911 321 1911 Z" opacity="0.2"/></g><g transform="translate(-294,-206) scale(1,1)"><path fill="#ffffff" stroke="none" d="M 314 1904 L 493.068359375 1904 Q 503.068359375 1904 503.068359375 1914 L 503.068359375 1941 Q 503.068359375 1951 493.068359375 1951 L 314 1951 Q 304 1951 304 1941 L 304 1914 Q 304 1904 314 1904 Z"/></g><g transform="translate(-294,-206) scale(1,1)"><path fill="none" stroke="#000000" d="M 314 1904 L 493.068359375 1904 Q 503.068359375 1904 503.068359375 1914 L 503.068359375 1941 Q 503.068359375 1951 493.068359375 1951 L 314 1951 Q 304 1951 304 1941 L 304 1914 Q 304 1904 314 1904 Z" stroke-miterlimit="10"/></g><g transform="translate(-294,-206) scale(1,1)"><g><path fill="none" stroke="none"/><text fill="#000000" stroke="none" font-family="Arial" font-size="20px" font-style="normal" font-weight="bold" text-decoration="none" x="308.5" y="1928">Send log over serial</text></g></g><g transform="translate(-294,-206) scale(1,1)"><path fill="#C0C0C0" stroke="none" d="M 1057 1903 L 1223.021484375 1903 Q 1233.021484375 1903 1233.021484375 1913 L 1233.021484375 1940 Q 1233.021484375 1950 1223.021484375 1950 L 1057 1950 Q 1047 1950 1047 1940 L 1047 1913 Q 1047 1903 1057 1903 Z" opacity="0.2"/></g><g transform="translate(-294,-206) scale(1,1)"><path fill="#ffffff" stroke="none" d="M 1050 1896 L 1216.021484375 1896 Q 1226.021484375 1896 1226.021484375 1906 L 1226.021484375 1933 Q 1226.021484375 1943 1216.021484375 1943 L 1050 1943 Q 1040 1943 1040 1933 L 1040 1906 Q 1040 1896 1050 1896 Z"/></g><g transform="translate(-294,-206) scale(1,1)"><path fill="none" stroke="#000000" d="M 1050 1896 L 1216.021484375 1896 Q 1226.021484375 1896 1226.021484375 1906 L 1226.021484375 1933 Q 1226.021484375 1943 1216.021484375 1943 L 1050 1943 Q 1040 1943 1040 1933 L 1040 1906 Q 1040 1896 1050 1896 Z" stroke-miterlimit="10"/></g><g transform="translate(-294,-206) scale(1,1)"><g><path fill="none" stroke="none"/><text fill="#000000" stroke="none" font-family="Arial" font-size="20px" font-style="normal" font-weight="bold" text-decoration="none" x="1044.5" y="1920">Write log to FATFS</text></g></g><g transform="translate(-294,-206) scale(1,1)"><path fill="none" stroke="#000000" d="M 727 1796 L 400 1800 L 402 1903" stroke-miterlimit="10"/></g><g transform="translate(-294,-206) scale(1,1)"><path fill="none" stroke="#000000" d="M 397.5939792927427 1892.9209632639215 L 402 1903 L 406.01142810375944 1892.7575176559405" stroke-miterlimit="10"/></g><g transform="translate(-294,-206) scale(1,1)"><g><path fill="none" stroke="none"/><text fill="#000000" stroke="none" font-family="Arial" font-size="20px" font-style="normal" font-weight="normal" text-decoration="none" x="480.5" y="1826">Online logg selected</text></g></g><g transform="translate(-294,-206) scale(1,1)"><path fill="none" stroke="#000000" d="M 801 1796 L 1136 1792 L 1134 1895" stroke-miterlimit="10"/></g><g transform="translate(-294,-206) scale(1,1)"><path fill="none" stroke="#000000" d="M 1129.9885718962405 1884.7575176559405 L 1134 1895 L 1138.4060207072573 1884.9209632639215" stroke-miterlimit="10"/></g><g transform="translate(-294,-206) scale(1,1)"><g><path fill="none" stroke="none"/><text fill="#000000" stroke="none" font-family="Arial" font-size="20px" font-style="normal" font-weight="normal" text-decoration="none" x="814.5" y="1815">SD Card or USB Flash selected</text></g></g><g transform="translate(-294,-206) scale(1,1)"><path fill="#C0C0C0" stroke="none" d="M 735 2044.5 L 771.5 2007 L 807 2044.5 L 771.5 2081 L 735 2044.5" opacity="0.2"/></g><g transform="translate(-294,-206) scale(1,1)"><path fill="#ffffff" stroke="none" d="M 728 2037 L 764 2000 L 800 2037 L 764 2074 L 728 2037"/></g><g transform="translate(-294,-206) scale(1,1)"><path fill="none" stroke="#000000" d="M 728 2037 L 764 2000 L 800 2037 L 764 2074 L 728 2037 L 728 2037" stroke-miterlimit="10"/></g><g transform="translate(-294,-206) scale(1,1)"><path fill="none" stroke="#000000" d="M 402 1952 L 400 2040 L 727 2037" stroke-miterlimit="10"/></g><g transform="translate(-294,-206) scale(1,1)"><path fill="none" stroke="#000000" d="M 716.8763706051817 2041.3025722395298 L 727 2037 L 716.7991349975881 2032.883891011821" stroke-miterlimit="10"/></g><g transform="translate(-294,-206) scale(1,1)"><path fill="none" stroke="#000000" d="M 765 1649 L 764 1759" stroke-miterlimit="10"/></g><g transform="translate(-294,-206) scale(1,1)"><path fill="none" stroke="#000000" d="M 759.8830403160214 1748.799478299592 L 764 1759 L 768.3017279555861 1748.876011823588" stroke-miterlimit="10"/></g><g transform="translate(-294,-206) scale(1,1)"><path fill="none" stroke="#000000" d="M 1134 1944 L 1136 2040 L 801 2037" stroke-miterlimit="10"/></g><g transform="translate(-294,-206) scale(1,1)"><path fill="none" stroke="#000000" d="M 811.1999630414631 2032.881656406662 L 801 2037 L 811.1245717165762 2041.3003543523653" stroke-miterlimit="10"/></g><g transform="translate(-294,-206) scale(1,1)"><path fill="none" stroke="#000000" d="M 763 2075 L 760 2160 L 1335 2161" stroke-miterlimit="10"/></g><g transform="translate(-294,-206) scale(1,1)"><path fill="none" stroke="#000000" d="M 1324.8300196218515 2165.191837199615 L 1335 2161 L 1324.8446614005993 2156.772814419555" stroke-miterlimit="10"/></g><g transform="translate(-294,-206) scale(1,1)"><path fill="none" stroke="#000000" d="M 1372 2195 L 1372 2231" stroke-miterlimit="10"/></g><g transform="translate(-294,-206) scale(1,1)"><path fill="none" stroke="#000000" d="M 1367.7904822439841 2220.837325142376 L 1372 2231 L 1376.2095177560159 2220.837325142376" stroke-miterlimit="10"/></g><g transform="translate(-294,-206) scale(1,1)"><path fill="#C0C0C0" stroke="none" d="M 985 615 L 1149.615234375 615 Q 1159.615234375 615 1159.615234375 625 L 1159.615234375 652 Q 1159.615234375 662 1149.615234375 662 L 985 662 Q 975 662 975 652 L 975 625 Q 975 615 985 615 Z" opacity="0.2"/></g><g transform="translate(-294,-206) scale(1,1)"><path fill="#ffffff" stroke="none" d="M 978 608 L 1142.615234375 608 Q 1152.615234375 608 1152.615234375 618 L 1152.615234375 645 Q 1152.615234375 655 1142.615234375 655 L 978 655 Q 968 655 968 645 L 968 618 Q 968 608 978 608 Z"/></g><g transform="translate(-294,-206) scale(1,1)"><path fill="none" stroke="#000000" d="M 978 608 L 1142.615234375 608 Q 1152.615234375 608 1152.615234375 618 L 1152.615234375 645 Q 1152.615234375 655 1142.615234375 655 L 978 655 Q 968 655 968 645 L 968 618 Q 968 608 978 608 Z" stroke-miterlimit="10"/></g><g transform="translate(-294,-206) scale(1,1)"><g><path fill="none" stroke="none"/><text fill="#000000" stroke="none" font-family="Arial" font-size="20px" font-style="normal" font-weight="bold" text-decoration="none" x="972.5" y="631.5">USB Host Process</text></g></g><g transform="translate(-294,-206) scale(1,1)"><path fill="none" stroke="#000000" d="M 440 1105 L 440 1232 L 703 1231" stroke-miterlimit="10"/></g><g transform="translate(-294,-206) scale(1,1)"><path fill="none" stroke="#000000" d="M 692.8534042594567 1235.2481283970696 L 703 1231 L 692.8213929489843 1226.8291537428222" stroke-miterlimit="10"/></g><g transform="translate(-294,-206) scale(1,1)"><path fill="#C0C0C0" stroke="none" d="M 1343 584.5 L 1379.5 551 L 1415 584.5 L 1379.5 617 L 1343 584.5" opacity="0.2"/></g><g transform="translate(-294,-206) scale(1,1)"><path fill="#ffffff" stroke="none" d="M 1336 577 L 1372 544 L 1408 577 L 1372 610 L 1336 577"/></g><g transform="translate(-294,-206) scale(1,1)"><path fill="none" stroke="#000000" d="M 1336 577 L 1372 544 L 1408 577 L 1372 610 L 1336 577 L 1336 577" stroke-miterlimit="10"/></g><g transform="translate(-294,-206) scale(1,1)"><path fill="none" stroke="#000000" d="M 1335 577 L 1056 576 L 1058 607" stroke-miterlimit="10"/></g><g transform="translate(-294,-206) scale(1,1)"><path fill="none" stroke="#000000" d="M 1053.144919534833 597.1294278951647 L 1058 607 L 1061.546488149394 596.5873912103542" stroke-miterlimit="10"/></g><g transform="translate(-294,-206) scale(1,1)"><g><path fill="none" stroke="none"/><text fill="#000000" stroke="none" font-family="Arial" font-size="20px" font-style="normal" font-weight="normal" text-decoration="none" x="1167.5" y="568">USB selected</text></g></g><g transform="translate(-294,-206) scale(1,1)"><path fill="#C0C0C0" stroke="none" d="M 1343 704.5 L 1379.5 671 L 1415 704.5 L 1379.5 737 L 1343 704.5" opacity="0.2"/></g><g transform="translate(-294,-206) scale(1,1)"><path fill="#ffffff" stroke="none" d="M 1336 697 L 1372 664 L 1408 697 L 1372 730 L 1336 697"/></g><g transform="translate(-294,-206) scale(1,1)"><path fill="none" stroke="#000000" d="M 1336 697 L 1372 664 L 1408 697 L 1372 730 L 1336 697 L 1336 697" stroke-miterlimit="10"/></g><g transform="translate(-294,-206) scale(1,1)"><path fill="none" stroke="#000000" d="M 1372 611 L 1372 663" stroke-miterlimit="10"/></g><g transform="translate(-294,-206) scale(1,1)"><path fill="none" stroke="#000000" d="M 1367.7904822439841 652.8373251423759 L 1372 663 L 1376.2095177560159 652.8373251423759" stroke-miterlimit="10"/></g><g transform="translate(-294,-206) scale(1,1)"><g><path fill="none" stroke="none"/><text fill="#000000" stroke="none" font-family="Arial" font-size="20px" font-style="normal" font-weight="normal" text-decoration="none" x="1382.5" y="640">USB not selected</text></g></g><g transform="translate(-294,-206) scale(1,1)"><path fill="none" stroke="#000000" d="M 1058 656 L 1056 696 L 1335 697" stroke-miterlimit="10"/></g><g transform="translate(-294,-206) scale(1,1)"><path fill="none" stroke="#000000" d="M 1324.8223026398182 701.173065593128 L 1335 697 L 1324.852478200514 692.754084158988" stroke-miterlimit="10"/></g><g transform="translate(-294,-206) scale(1,1)"><path fill="none" stroke="#000000" d="M 1373 731 L 1375 791" stroke-miterlimit="10"/></g><g transform="translate(-294,-206) scale(1,1)"><path fill="none" stroke="#000000" d="M 1370.4542511303202 780.9832057416654 L 1375 791 L 1378.8686132944972 780.7027270028594" stroke-miterlimit="10"/></g><g transform="translate(-294,-206) scale(1,1)"><path fill="#C0C0C0" stroke="none" d="M 1823 1215 L 2015 1215 L 2015 1295 L 1823 1295 L 1843.25 1255.5" opacity="0.2"/></g><g transform="translate(-294,-206) scale(1,1)"><path fill="#ffffff" stroke="none" d="M 1816 1208 L 2008 1208 L 2008 1288 L 1816 1288 L 1836.25 1248.5"/></g><g transform="translate(-294,-206) scale(1,1)"><path fill="none" stroke="#000000" d="M 1816 1208 L 2008 1208 L 2008 1288 L 1816 1288 L 1836.25 1248.5 L 1816 1208" stroke-miterlimit="10"/></g><g transform="translate(-294,-206) scale(1,1)"><g><path fill="none" stroke="none"/><text fill="#000000" stroke="none" font-family="Arial" font-size="20px" font-style="normal" font-weight="bold" text-decoration="none" x="1875.8818359375" y="1231.5">SCI ISR</text></g></g><g transform="translate(-294,-206) scale(1,1)"><path fill="#C0C0C0" stroke="none" d="M 2265 1223 L 2500 1223 Q 2510 1223 2510 1233 L 2510 1300 Q 2510 1310 2500 1310 L 2265 1310 Q 2255 1310 2255 1300 L 2255 1233 Q 2255 1223 2265 1223 Z" opacity="0.2"/></g><g transform="translate(-294,-206) scale(1,1)"><path fill="#ffffff" stroke="none" d="M 2258 1216 L 2493 1216 Q 2503 1216 2503 1226 L 2503 1293 Q 2503 1303 2493 1303 L 2258 1303 Q 2248 1303 2248 1293 L 2248 1226 Q 2248 1216 2258 1216 Z"/></g><g transform="translate(-294,-206) scale(1,1)"><path fill="none" stroke="#000000" d="M 2258 1216 L 2493 1216 Q 2503 1216 2503 1226 L 2503 1293 Q 2503 1303 2493 1303 L 2258 1303 Q 2248 1303 2248 1293 L 2248 1226 Q 2248 1216 2258 1216 Z" stroke-miterlimit="10"/></g><g transform="translate(-294,-206) scale(1,1)"><g><path fill="none" stroke="none"/><text fill="#000000" stroke="none" font-family="Arial" font-size="20px" font-style="normal" font-weight="bold" text-decoration="none" x="2313.244140625" y="1239.5">Get massage</text></g></g><g transform="translate(-294,-206) scale(1,1)"><rect fill="#ffffff" stroke="none" x="2231" y="1237" width="17" height="17"/></g><g transform="translate(-294,-206) scale(1,1)"><path fill="none" stroke="#000000" d="M 2231 1237 L 2248 1237 L 2248 1254 L 2231 1254 L 2231 1237 Z Z" stroke-miterlimit="10"/></g><g transform="translate(-294,-206) scale(1,1)"><path fill="none" stroke="#000000" d="M 2233 1245 L 2246 1245" stroke-miterlimit="10"/></g><g transform="translate(-294,-206) scale(1,1)"><path fill="none" stroke="#000000" d="M 2246 1245 L 2243 1242" stroke-miterlimit="10"/></g><g transform="translate(-294,-206) scale(1,1)"><path fill="none" stroke="#000000" d="M 2246 1245 L 2243 1248" stroke-miterlimit="10"/></g><g transform="translate(-294,-206) scale(1,1)"><path fill="none" stroke="#000000" d="M 2009 1247 L 2230 1245" stroke-miterlimit="10"/></g><g transform="translate(-294,-206) scale(1,1)"><path fill="none" stroke="#000000" d="M 2219.8758348936876 1249.3013115325589 L 2230 1245 L 2219.799647646806 1240.8826207521424" stroke-miterlimit="10"/></g><g transform="translate(-294,-206) scale(1,1)"><path fill="none" stroke="#000000" d="M 2106 1216 L 2130 1216" stroke-miterlimit="10"/></g><g transform="translate(-294,-206) scale(1,1)"><path fill="none" stroke="#000000" d="M 2130 1216 L 2106 1230" stroke-miterlimit="10"/></g><g transform="translate(-294,-206) scale(1,1)"><path fill="none" stroke="#000000" d="M 2106 1230 L 2130 1230" stroke-miterlimit="10"/></g><g transform="translate(-294,-206) scale(1,1)"><path fill="none" stroke="#000000" d="M 2130 1230 L 2125 1235" stroke-miterlimit="10"/></g><g transform="translate(-294,-206) scale(1,1)"><path fill="none" stroke="#000000" d="M 2130 1230 L 2125 1225" stroke-miterlimit="10"/></g><g transform="translate(-294,-206) scale(1,1)"><path fill="#C0C0C0" stroke="none" d="M 2609 1239 L 2813 1239 Q 2823 1239 2823 1249 L 2823 1293 Q 2823 1303 2813 1303 L 2609 1303 Q 2599 1303 2599 1293 L 2599 1249 Q 2599 1239 2609 1239 Z" opacity="0.2"/></g><g transform="translate(-294,-206) scale(1,1)"><path fill="#ffffff" stroke="none" d="M 2602 1232 L 2806 1232 Q 2816 1232 2816 1242 L 2816 1286 Q 2816 1296 2806 1296 L 2602 1296 Q 2592 1296 2592 1286 L 2592 1242 Q 2592 1232 2602 1232 Z"/></g><g transform="translate(-294,-206) scale(1,1)"><path fill="none" stroke="#000000" d="M 2602 1232 L 2806 1232 Q 2816 1232 2816 1242 L 2816 1286 Q 2816 1296 2806 1296 L 2602 1296 Q 2592 1296 2592 1286 L 2592 1242 Q 2592 1232 2602 1232 Z" stroke-miterlimit="10"/></g><g transform="translate(-294,-206) scale(1,1)"><g><path fill="none" stroke="none"/><text fill="#000000" stroke="none" font-family="Arial" font-size="20px" font-style="normal" font-weight="bold" text-decoration="none" x="2613.4287109375" y="1256">interpret command</text></g></g><g transform="translate(-294,-206) scale(1,1)"><path fill="none" stroke="#000000" d="M 2504 1261 L 2591 1262" stroke-miterlimit="10"/></g><g transform="translate(-294,-206) scale(1,1)"><path fill="none" stroke="#000000" d="M 2580.7896143456314 1266.0924350684 L 2591 1262 L 2580.886378476835 1257.6739556536975" stroke-miterlimit="10"/></g><g transform="translate(-294,-206) scale(1,1)"><path fill="#C0C0C0" stroke="none" d="M 1815 1559 L 2063 1559 L 2063 1646 L 1815 1646 L 1837 1603" opacity="0.2"/></g><g transform="translate(-294,-206) scale(1,1)"><path fill="#ffffff" stroke="none" d="M 1808 1552 L 2056 1552 L 2056 1639 L 1808 1639 L 1830 1596"/></g><g transform="translate(-294,-206) scale(1,1)"><path fill="none" stroke="#000000" d="M 1808 1552 L 2056 1552 L 2056 1639 L 1808 1639 L 1830 1596 L 1808 1552" stroke-miterlimit="10"/></g><g transform="translate(-294,-206) scale(1,1)"><g><path fill="none" stroke="none"/><text fill="#000000" stroke="none" font-family="Arial" font-size="20px" font-style="normal" font-weight="bold" text-decoration="none" x="1824.75390625" y="1576">Power Status changed</text></g></g><g transform="translate(-294,-206) scale(1,1)"><path fill="#C0C0C0" stroke="none" d="M 2265 1551 L 2485 1551 Q 2495 1551 2495 1561 L 2495 1628 Q 2495 1638 2485 1638 L 2265 1638 Q 2255 1638 2255 1628 L 2255 1561 Q 2255 1551 2265 1551 Z" opacity="0.2"/></g><g transform="translate(-294,-206) scale(1,1)"><path fill="#ffffff" stroke="none" d="M 2258 1544 L 2478 1544 Q 2488 1544 2488 1554 L 2488 1621 Q 2488 1631 2478 1631 L 2258 1631 Q 2248 1631 2248 1621 L 2248 1554 Q 2248 1544 2258 1544 Z"/></g><g transform="translate(-294,-206) scale(1,1)"><path fill="none" stroke="#000000" d="M 2258 1544 L 2478 1544 Q 2488 1544 2488 1554 L 2488 1621 Q 2488 1631 2478 1631 L 2258 1631 Q 2248 1631 2248 1621 L 2248 1554 Q 2248 1544 2258 1544 Z" stroke-miterlimit="10"/></g><g transform="translate(-294,-206) scale(1,1)"><g><path fill="none" stroke="none"/><text fill="#000000" stroke="none" font-family="Arial" font-size="20px" font-style="normal" font-weight="bold" text-decoration="none" x="2311.3154296875" y="1568">Read status</text></g></g><g transform="translate(-294,-206) scale(1,1)"><rect fill="#ffffff" stroke="none" x="2231" y="1592" width="17" height="17"/></g><g transform="translate(-294,-206) scale(1,1)"><path fill="none" stroke="#000000" d="M 2231 1592 L 2248 1592 L 2248 1609 L 2231 1609 L 2231 1592 Z Z" stroke-miterlimit="10"/></g><g transform="translate(-294,-206) scale(1,1)"><path fill="none" stroke="#000000" d="M 2233 1600 L 2246 1600" stroke-miterlimit="10"/></g><g transform="translate(-294,-206) scale(1,1)"><path fill="none" stroke="#000000" d="M 2246 1600 L 2243 1597" stroke-miterlimit="10"/></g><g transform="translate(-294,-206) scale(1,1)"><path fill="none" stroke="#000000" d="M 2246 1600 L 2243 1603" stroke-miterlimit="10"/></g><g transform="translate(-294,-206) scale(1,1)"><path fill="none" stroke="#000000" d="M 2057 1597 L 2230 1600" stroke-miterlimit="10"/></g><g transform="translate(-294,-206) scale(1,1)"><path fill="none" stroke="#000000" d="M 2219.7658663707584 1604.0326801086658 L 2230 1600 L 2219.9118392600003 1595.6149101623878" stroke-miterlimit="10"/></g><g transform="translate(-294,-206) scale(1,1)"><path fill="none" stroke="#000000" d="M 2131 1568 L 2155 1568" stroke-miterlimit="10"/></g><g transform="translate(-294,-206) scale(1,1)"><path fill="none" stroke="#000000" d="M 2155 1568 L 2131 1582" stroke-miterlimit="10"/></g><g transform="translate(-294,-206) scale(1,1)"><path fill="none" stroke="#000000" d="M 2131 1582 L 2155 1582" stroke-miterlimit="10"/></g><g transform="translate(-294,-206) scale(1,1)"><path fill="none" stroke="#000000" d="M 2155 1582 L 2150 1587" stroke-miterlimit="10"/></g><g transform="translate(-294,-206) scale(1,1)"><path fill="none" stroke="#000000" d="M 2155 1582 L 2150 1577" stroke-miterlimit="10"/></g><g transform="translate(-294,-206) scale(1,1)"><path fill="#C0C0C0" stroke="none" d="M 2543 1592.5 L 2591.5 1551 L 2639 1592.5 L 2591.5 1633 L 2543 1592.5" opacity="0.2"/></g><g transform="translate(-294,-206) scale(1,1)"><path fill="#ffffff" stroke="none" d="M 2536 1585 L 2584 1544 L 2632 1585 L 2584 1626 L 2536 1585"/></g><g transform="translate(-294,-206) scale(1,1)"><path fill="none" stroke="#000000" d="M 2536 1585 L 2584 1544 L 2632 1585 L 2584 1626 L 2536 1585 L 2536 1585" stroke-miterlimit="10"/></g><g transform="translate(-294,-206) scale(1,1)"><path fill="none" stroke="#000000" d="M 2489 1586 L 2535 1585" stroke-miterlimit="10"/></g><g transform="translate(-294,-206) scale(1,1)"><path fill="none" stroke="#000000" d="M 2524.9312153193405 1589.429398949577 L 2535 1585 L 2524.748236040172 1581.0123521078249" stroke-miterlimit="10"/></g><g transform="translate(-294,-206) scale(1,1)"><path fill="#C0C0C0" stroke="none" d="M 2833 1463 L 3012 1463 Q 3022 1463 3022 1473 L 3022 1517 Q 3022 1527 3012 1527 L 2833 1527 Q 2823 1527 2823 1517 L 2823 1473 Q 2823 1463 2833 1463 Z" opacity="0.2"/></g><g transform="translate(-294,-206) scale(1,1)"><path fill="#ffffff" stroke="none" d="M 2826 1456 L 3005 1456 Q 3015 1456 3015 1466 L 3015 1510 Q 3015 1520 3005 1520 L 2826 1520 Q 2816 1520 2816 1510 L 2816 1466 Q 2816 1456 2826 1456 Z"/></g><g transform="translate(-294,-206) scale(1,1)"><path fill="none" stroke="#000000" d="M 2826 1456 L 3005 1456 Q 3015 1456 3015 1466 L 3015 1510 Q 3015 1520 3005 1520 L 2826 1520 Q 2816 1520 2816 1510 L 2816 1466 Q 2816 1456 2826 1456 Z" stroke-miterlimit="10"/></g><g transform="translate(-294,-206) scale(1,1)"><g><path fill="none" stroke="none"/><text fill="#000000" stroke="none" font-family="Arial" font-size="20px" font-style="normal" font-weight="bold" text-decoration="none" x="2841.5888671875" y="1480">Request saving</text></g></g><g transform="translate(-294,-206) scale(1,1)"><path fill="none" stroke="#000000" d="M 2584 1543 L 2584 1488 L 2815 1488" stroke-miterlimit="10"/></g><g transform="translate(-294,-206) scale(1,1)"><path fill="none" stroke="#000000" d="M 2804.837325142376 1492.2095177560159 L 2815 1488 L 2804.837325142376 1483.7904822439841" stroke-miterlimit="10"/></g><g transform="translate(-294,-206) scale(1,1)"><g><path fill="none" stroke="none"/><text fill="#000000" stroke="none" font-family="Arial" font-size="20px" font-style="normal" font-weight="normal" text-decoration="none" x="2614.5" y="1480">Power down</text></g></g><g transform="translate(-294,-206) scale(1,1)"><path fill="#C0C0C0" stroke="none" d="M 2825 1671 L 3020.767578125 1671 Q 3030.767578125 1671 3030.767578125 1681 L 3030.767578125 1725 Q 3030.767578125 1735 3020.767578125 1735 L 2825 1735 Q 2815 1735 2815 1725 L 2815 1681 Q 2815 1671 2825 1671 Z" opacity="0.2"/></g><g transform="translate(-294,-206) scale(1,1)"><path fill="#ffffff" stroke="none" d="M 2818 1664 L 3013.767578125 1664 Q 3023.767578125 1664 3023.767578125 1674 L 3023.767578125 1718 Q 3023.767578125 1728 3013.767578125 1728 L 2818 1728 Q 2808 1728 2808 1718 L 2808 1674 Q 2808 1664 2818 1664 Z"/></g><g transform="translate(-294,-206) scale(1,1)"><path fill="none" stroke="#000000" d="M 2818 1664 L 3013.767578125 1664 Q 3023.767578125 1664 3023.767578125 1674 L 3023.767578125 1718 Q 3023.767578125 1728 3013.767578125 1728 L 2818 1728 Q 2808 1728 2808 1718 L 2808 1674 Q 2808 1664 2818 1664 Z" stroke-miterlimit="10"/></g><g transform="translate(-294,-206) scale(1,1)"><g><path fill="none" stroke="none"/><text fill="#000000" stroke="none" font-family="Arial" font-size="20px" font-style="normal" font-weight="bold" text-decoration="none" x="2812.5" y="1687.5">Request system reset</text></g></g><g transform="translate(-294,-206) scale(1,1)"><path fill="none" stroke="#000000" d="M 2584 1627 L 2584 1696 L 2807 1696" stroke-miterlimit="10"/></g><g transform="translate(-294,-206) scale(1,1)"><path fill="none" stroke="#000000" d="M 2796.837325142376 1700.2095177560159 L 2807 1696 L 2796.837325142376 1691.7904822439841" stroke-miterlimit="10"/></g><g transform="translate(-294,-206) scale(1,1)"><g><path fill="none" stroke="none"/><text fill="#000000" stroke="none" font-family="Arial" font-size="20px" font-style="normal" font-weight="normal" text-decoration="none" x="2623.5" y="1686.5">Power Up</text></g></g><g transform="translate(-294,-206) scale(1,1)"><path fill="#C0C0C0" stroke="none" d="M 1823 1895 L 2023 1895 L 2023 1974 L 1823 1974 L 1843 1935" opacity="0.2"/></g><g transform="translate(-294,-206) scale(1,1)"><path fill="#ffffff" stroke="none" d="M 1816 1888 L 2016 1888 L 2016 1967 L 1816 1967 L 1836 1928"/></g><g transform="translate(-294,-206) scale(1,1)"><path fill="none" stroke="#000000" d="M 1816 1888 L 2016 1888 L 2016 1967 L 1816 1967 L 1836 1928 L 1816 1888" stroke-miterlimit="10"/></g><g transform="translate(-294,-206) scale(1,1)"><g><path fill="none" stroke="none"/><text fill="#000000" stroke="none" font-family="Arial" font-size="20px" font-style="normal" font-weight="bold" text-decoration="none" x="1839.30078125" y="1912">One day passed</text></g></g><g transform="translate(-294,-206) scale(1,1)"><path fill="#C0C0C0" stroke="none" d="M 2305 1903 L 2437 1903 Q 2447 1903 2447 1913 L 2447 1949 Q 2447 1959 2437 1959 L 2305 1959 Q 2295 1959 2295 1949 L 2295 1913 Q 2295 1903 2305 1903 Z" opacity="0.2"/></g><g transform="translate(-294,-206) scale(1,1)"><path fill="#ffffff" stroke="none" d="M 2298 1896 L 2430 1896 Q 2440 1896 2440 1906 L 2440 1942 Q 2440 1952 2430 1952 L 2298 1952 Q 2288 1952 2288 1942 L 2288 1906 Q 2288 1896 2298 1896 Z"/></g><g transform="translate(-294,-206) scale(1,1)"><path fill="none" stroke="#000000" d="M 2298 1896 L 2430 1896 Q 2440 1896 2440 1906 L 2440 1942 Q 2440 1952 2430 1952 L 2298 1952 Q 2288 1952 2288 1942 L 2288 1906 Q 2288 1896 2298 1896 Z" stroke-miterlimit="10"/></g><g transform="translate(-294,-206) scale(1,1)"><g><path fill="none" stroke="none"/><text fill="#000000" stroke="none" font-family="Arial" font-size="20px" font-style="normal" font-weight="bold" text-decoration="none" x="2295.0791015625" y="1920">create new file</text></g></g><g transform="translate(-294,-206) scale(1,1)"><path fill="#C0C0C0" stroke="none" d="M 2593 1903 L 2733 1903 Q 2743 1903 2743 1913 L 2743 1941 Q 2743 1951 2733 1951 L 2593 1951 Q 2583 1951 2583 1941 L 2583 1913 Q 2583 1903 2593 1903 Z" opacity="0.2"/></g><g transform="translate(-294,-206) scale(1,1)"><path fill="#ffffff" stroke="none" d="M 2586 1896 L 2726 1896 Q 2736 1896 2736 1906 L 2736 1934 Q 2736 1944 2726 1944 L 2586 1944 Q 2576 1944 2576 1934 L 2576 1906 Q 2576 1896 2586 1896 Z"/></g><g transform="translate(-294,-206) scale(1,1)"><path fill="none" stroke="#000000" d="M 2586 1896 L 2726 1896 Q 2736 1896 2736 1906 L 2736 1934 Q 2736 1944 2726 1944 L 2586 1944 Q 2576 1944 2576 1934 L 2576 1906 Q 2576 1896 2586 1896 Z" stroke-miterlimit="10"/></g><g transform="translate(-294,-206) scale(1,1)"><g><path fill="none" stroke="none"/><text fill="#000000" stroke="none" font-family="Arial" font-size="20px" font-style="normal" font-weight="bold" text-decoration="none" x="2582.0888671875" y="1920">Request saving</text></g></g><g transform="translate(-294,-206) scale(1,1)"><rect fill="#ffffff" stroke="none" x="2271" y="1917" width="17" height="17"/></g><g transform="translate(-294,-206) scale(1,1)"><path fill="none" stroke="#000000" d="M 2271 1917 L 2288 1917 L 2288 1934 L 2271 1934 L 2271 1917 Z Z" stroke-miterlimit="10"/></g><g transform="translate(-294,-206) scale(1,1)"><path fill="none" stroke="#000000" d="M 2273 1925 L 2286 1925" stroke-miterlimit="10"/></g><g transform="translate(-294,-206) scale(1,1)"><path fill="none" stroke="#000000" d="M 2286 1925 L 2283 1922" stroke-miterlimit="10"/></g><g transform="translate(-294,-206) scale(1,1)"><path fill="none" stroke="#000000" d="M 2286 1925 L 2283 1928" stroke-miterlimit="10"/></g><g transform="translate(-294,-206) scale(1,1)"><path fill="none" stroke="#000000" d="M 2017 1926 L 2270 1925" stroke-miterlimit="10"/></g><g transform="translate(-294,-206) scale(1,1)"><path fill="none" stroke="#000000" d="M 2259.8540428063147 1929.2496532357245 L 2270 1925 L 2259.8207662460445 1920.8306834873888" stroke-miterlimit="10"/></g><g transform="translate(-294,-206) scale(1,1)"><path fill="none" stroke="#000000" d="M 2131 1895 L 2155 1895" stroke-miterlimit="10"/></g><g transform="translate(-294,-206) scale(1,1)"><path fill="none" stroke="#000000" d="M 2155 1895 L 2131 1909" stroke-miterlimit="10"/></g><g transform="translate(-294,-206) scale(1,1)"><path fill="none" stroke="#000000" d="M 2131 1909 L 2155 1909" stroke-miterlimit="10"/></g><g transform="translate(-294,-206) scale(1,1)"><path fill="none" stroke="#000000" d="M 2155 1909 L 2150 1914" stroke-miterlimit="10"/></g><g transform="translate(-294,-206) scale(1,1)"><path fill="none" stroke="#000000" d="M 2155 1909 L 2150 1904" stroke-miterlimit="10"/></g><g transform="translate(-294,-206) scale(1,1)"><path fill="none" stroke="#000000" d="M 2441 1923 L 2575 1921" stroke-miterlimit="10"/></g><g transform="translate(-294,-206) scale(1,1)"><path fill="none" stroke="#000000" d="M 2564.90127853271 1925.3607137863082 L 2575 1921 L 2564.775635280053 1916.9426158582773" stroke-miterlimit="10"/></g></g></svg>