%TF.GenerationSoftware,KiCad,Pcbnew,(7.0.0)*%
%TF.CreationDate,2024-10-14T13:46:46+03:30*%
%TF.ProjectId,tester,74657374-6572-42e6-9b69-6361645f7063,rev?*%
%TF.SameCoordinates,Original*%
%TF.FileFunction,Paste,Top*%
%TF.FilePolarity,Positive*%
%FSLAX46Y46*%
G04 Gerber Fmt 4.6, Leading zero omitted, Abs format (unit mm)*
G04 Created by KiCad (PCBNEW (7.0.0)) date 2024-10-14 13:46:46*
%MOMM*%
%LPD*%
G01*
G04 APERTURE LIST*
G04 Aperture macros list*
%AMRoundRect*
0 Rectangle with rounded corners*
0 $1 Rounding radius*
0 $2 $3 $4 $5 $6 $7 $8 $9 X,Y pos of 4 corners*
0 Add a 4 corners polygon primitive as box body*
4,1,4,$2,$3,$4,$5,$6,$7,$8,$9,$2,$3,0*
0 Add four circle primitives for the rounded corners*
1,1,$1+$1,$2,$3*
1,1,$1+$1,$4,$5*
1,1,$1+$1,$6,$7*
1,1,$1+$1,$8,$9*
0 Add four rect primitives between the rounded corners*
20,1,$1+$1,$2,$3,$4,$5,0*
20,1,$1+$1,$4,$5,$6,$7,0*
20,1,$1+$1,$6,$7,$8,$9,0*
20,1,$1+$1,$8,$9,$2,$3,0*%
%AMOutline4P*
0 Free polygon, 4 corners , with rotation*
0 The origin of the aperture is its center*
0 number of corners: always 4*
0 $1 to $8 corner X, Y*
0 $9 Rotation angle, in degrees counterclockwise*
0 create outline with 4 corners*
4,1,4,$1,$2,$3,$4,$5,$6,$7,$8,$1,$2,$9*%
G04 Aperture macros list end*
%ADD10RoundRect,0.250000X0.625000X-0.400000X0.625000X0.400000X-0.625000X0.400000X-0.625000X-0.400000X0*%
%ADD11RoundRect,0.250000X0.400000X0.625000X-0.400000X0.625000X-0.400000X-0.625000X0.400000X-0.625000X0*%
%ADD12R,0.700000X2.000000*%
%ADD13RoundRect,0.250000X-0.625000X0.400000X-0.625000X-0.400000X0.625000X-0.400000X0.625000X0.400000X0*%
%ADD14RoundRect,0.250001X0.624999X-0.462499X0.624999X0.462499X-0.624999X0.462499X-0.624999X-0.462499X0*%
%ADD15RoundRect,0.250000X-0.650000X0.412500X-0.650000X-0.412500X0.650000X-0.412500X0.650000X0.412500X0*%
%ADD16RoundRect,0.100000X-0.637500X-0.100000X0.637500X-0.100000X0.637500X0.100000X-0.637500X0.100000X0*%
%ADD17RoundRect,0.250000X0.412500X0.650000X-0.412500X0.650000X-0.412500X-0.650000X0.412500X-0.650000X0*%
%ADD18RoundRect,0.250001X-0.624999X0.462499X-0.624999X-0.462499X0.624999X-0.462499X0.624999X0.462499X0*%
%ADD19RoundRect,0.150000X-0.150000X0.800000X-0.150000X-0.800000X0.150000X-0.800000X0.150000X0.800000X0*%
%ADD20RoundRect,0.150000X0.150000X-0.837500X0.150000X0.837500X-0.150000X0.837500X-0.150000X-0.837500X0*%
%ADD21RoundRect,0.150000X-0.150000X0.825000X-0.150000X-0.825000X0.150000X-0.825000X0.150000X0.825000X0*%
%ADD22RoundRect,0.137500X-0.662500X-0.137500X0.662500X-0.137500X0.662500X0.137500X-0.662500X0.137500X0*%
%ADD23R,2.000000X0.700000*%
%ADD24RoundRect,0.150000X-0.650000X-0.150000X0.650000X-0.150000X0.650000X0.150000X-0.650000X0.150000X0*%
%ADD25RoundRect,0.250000X0.650000X-0.412500X0.650000X0.412500X-0.650000X0.412500X-0.650000X-0.412500X0*%
%ADD26RoundRect,0.250000X0.900000X-1.500000X0.900000X1.500000X-0.900000X1.500000X-0.900000X-1.500000X0*%
%ADD27RoundRect,0.250000X-0.550000X-0.575000X0.550000X-0.575000X0.550000X0.575000X-0.550000X0.575000X0*%
%ADD28RoundRect,0.250000X-0.715000X-0.695000X0.715000X-0.695000X0.715000X0.695000X-0.715000X0.695000X0*%
%ADD29RoundRect,0.100000X-0.687500X-0.100000X0.687500X-0.100000X0.687500X0.100000X-0.687500X0.100000X0*%
%ADD30RoundRect,0.250001X-0.462499X-0.624999X0.462499X-0.624999X0.462499X0.624999X-0.462499X0.624999X0*%
%ADD31RoundRect,0.250000X-0.412500X-0.650000X0.412500X-0.650000X0.412500X0.650000X-0.412500X0.650000X0*%
%ADD32R,1.000000X1.800000*%
%ADD33RoundRect,0.150000X0.837500X0.150000X-0.837500X0.150000X-0.837500X-0.150000X0.837500X-0.150000X0*%
%ADD34RoundRect,0.250000X1.400000X2.000000X-1.400000X2.000000X-1.400000X-2.000000X1.400000X-2.000000X0*%
%ADD35RoundRect,0.150000X-0.150000X0.837500X-0.150000X-0.837500X0.150000X-0.837500X0.150000X0.837500X0*%
%ADD36RoundRect,0.250000X-0.900000X1.500000X-0.900000X-1.500000X0.900000X-1.500000X0.900000X1.500000X0*%
%ADD37RoundRect,0.357000X1.143000X2.368000X-1.143000X2.368000X-1.143000X-2.368000X1.143000X-2.368000X0*%
%ADD38RoundRect,0.357000X-1.143000X-2.368000X1.143000X-2.368000X1.143000X2.368000X-1.143000X2.368000X0*%
%ADD39RoundRect,0.250000X-0.400000X-0.625000X0.400000X-0.625000X0.400000X0.625000X-0.400000X0.625000X0*%
%ADD40RoundRect,0.137500X0.137500X-0.662500X0.137500X0.662500X-0.137500X0.662500X-0.137500X-0.662500X0*%
%ADD41Outline4P,-1.800000X-1.150000X1.800000X-0.550000X1.800000X0.550000X-1.800000X1.150000X0.000000*%
%ADD42Outline4P,-1.800000X-1.150000X1.800000X-0.550000X1.800000X0.550000X-1.800000X1.150000X180.000000*%
%ADD43R,1.700000X1.700000*%
%ADD44RoundRect,0.075000X-1.225000X-0.075000X1.225000X-0.075000X1.225000X0.075000X-1.225000X0.075000X0*%
%ADD45RoundRect,0.075000X-0.075000X-1.225000X0.075000X-1.225000X0.075000X1.225000X-0.075000X1.225000X0*%
%ADD46R,2.000000X1.400000*%
%ADD47R,1.800000X1.300000*%
%ADD48RoundRect,0.250000X-0.350000X0.850000X-0.350000X-0.850000X0.350000X-0.850000X0.350000X0.850000X0*%
%ADD49RoundRect,0.250000X-1.125000X1.275000X-1.125000X-1.275000X1.125000X-1.275000X1.125000X1.275000X0*%
G04 APERTURE END LIST*
D10*
%TO.C,R319*%
X52730244Y-44010000D03*
X52730244Y-40910000D03*
%TD*%
%TO.C,R105*%
X236504160Y-37485000D03*
X236504160Y-34385000D03*
%TD*%
%TO.C,R382*%
X107221500Y-72837064D03*
X107221500Y-69737064D03*
%TD*%
D11*
%TO.C,R10*%
X72015000Y-82885000D03*
X68915000Y-82885000D03*
%TD*%
D12*
%TO.C,Q78*%
X43017201Y-31184999D03*
X44917201Y-31184999D03*
X43967201Y-27784999D03*
%TD*%
D13*
%TO.C,R389*%
X91021500Y-69737064D03*
X91021500Y-72837064D03*
%TD*%
D10*
%TO.C,R145*%
X198780944Y-37485000D03*
X198780944Y-34385000D03*
%TD*%
D14*
%TO.C,R80*%
X128140000Y-149247500D03*
X128140000Y-146272500D03*
%TD*%
D10*
%TO.C,R344*%
X194621500Y-72837064D03*
X194621500Y-69737064D03*
%TD*%
%TO.C,R140*%
X207330229Y-37485000D03*
X207330229Y-34385000D03*
%TD*%
%TO.C,R378*%
X116421500Y-72837064D03*
X116421500Y-69737064D03*
%TD*%
D15*
%TO.C,C72*%
X221765000Y-120322500D03*
X221765000Y-123447500D03*
%TD*%
D10*
%TO.C,R356*%
X167021500Y-72837064D03*
X167021500Y-69737064D03*
%TD*%
D13*
%TO.C,R355*%
X169321500Y-69737064D03*
X169321500Y-72837064D03*
%TD*%
D10*
%TO.C,R313*%
X58572272Y-37485000D03*
X58572272Y-34385000D03*
%TD*%
D16*
%TO.C,U1*%
X48677500Y-141985000D03*
X48677500Y-142635000D03*
X48677500Y-143285000D03*
X48677500Y-143935000D03*
X48677500Y-144585000D03*
X48677500Y-145235000D03*
X48677500Y-145885000D03*
X48677500Y-146535000D03*
X54402500Y-146535000D03*
X54402500Y-145885000D03*
X54402500Y-145235000D03*
X54402500Y-144585000D03*
X54402500Y-143935000D03*
X54402500Y-143285000D03*
X54402500Y-142635000D03*
X54402500Y-141985000D03*
%TD*%
D13*
%TO.C,R361*%
X155521500Y-69737064D03*
X155521500Y-72837064D03*
%TD*%
D10*
%TO.C,R139*%
X204622972Y-31985000D03*
X204622972Y-28885000D03*
%TD*%
D11*
%TO.C,R399*%
X56890000Y-72659999D03*
X53790000Y-72659999D03*
%TD*%
D17*
%TO.C,C69*%
X169927500Y-127735000D03*
X166802500Y-127735000D03*
%TD*%
D18*
%TO.C,D28*%
X185565000Y-141070000D03*
X185565000Y-144045000D03*
%TD*%
D12*
%TO.C,Q17*%
X200751957Y-43584999D03*
X202651957Y-43584999D03*
X201701957Y-40184999D03*
%TD*%
D10*
%TO.C,R305*%
X64414300Y-44010000D03*
X64414300Y-40910000D03*
%TD*%
D11*
%TO.C,R404*%
X49140000Y-72384999D03*
X46040000Y-72384999D03*
%TD*%
%TO.C,R407*%
X43390000Y-69185000D03*
X40290000Y-69185000D03*
%TD*%
D12*
%TO.C,Q25*%
X177383845Y-43584999D03*
X179283845Y-43584999D03*
X178333845Y-40184999D03*
%TD*%
%TO.C,Q67*%
X54701257Y-43584999D03*
X56601257Y-43584999D03*
X55651257Y-40184999D03*
%TD*%
D19*
%TO.C,U22*%
X193175000Y-139960000D03*
X191905000Y-139960000D03*
X190635000Y-139960000D03*
X189365000Y-139960000D03*
X189365000Y-146960000D03*
X190635000Y-146960000D03*
X191905000Y-146960000D03*
X193175000Y-146960000D03*
%TD*%
D11*
%TO.C,R12*%
X40990000Y-83885000D03*
X37890000Y-83885000D03*
%TD*%
D10*
%TO.C,R207*%
X146202692Y-44010000D03*
X146202692Y-40910000D03*
%TD*%
D13*
%TO.C,R8*%
X98840000Y-54110000D03*
X98840000Y-57210000D03*
%TD*%
D20*
%TO.C,U6*%
X74470000Y-86347500D03*
X75740000Y-86347500D03*
X77010000Y-86347500D03*
X78280000Y-86347500D03*
X79550000Y-86347500D03*
X80820000Y-86347500D03*
X82090000Y-86347500D03*
X83360000Y-86347500D03*
X83360000Y-79422500D03*
X82090000Y-79422500D03*
X80820000Y-79422500D03*
X79550000Y-79422500D03*
X78280000Y-79422500D03*
X77010000Y-79422500D03*
X75740000Y-79422500D03*
X74470000Y-79422500D03*
%TD*%
D10*
%TO.C,R421*%
X43956333Y-37485000D03*
X43956333Y-34385000D03*
%TD*%
%TO.C,R200*%
X152044720Y-44010000D03*
X152044720Y-40910000D03*
%TD*%
%TO.C,R306*%
X64414300Y-37485000D03*
X64414300Y-34385000D03*
%TD*%
%TO.C,R123*%
X216307028Y-44010000D03*
X216307028Y-40910000D03*
%TD*%
D11*
%TO.C,R392*%
X76215000Y-72834999D03*
X73115000Y-72834999D03*
%TD*%
D10*
%TO.C,R130*%
X210465000Y-44010000D03*
X210465000Y-40910000D03*
%TD*%
%TO.C,R166*%
X181254860Y-37485000D03*
X181254860Y-34385000D03*
%TD*%
D12*
%TO.C,Q79*%
X37175173Y-43584999D03*
X39075173Y-43584999D03*
X38125173Y-40184999D03*
%TD*%
D13*
%TO.C,R383*%
X104921500Y-69737064D03*
X104921500Y-72837064D03*
%TD*%
D10*
%TO.C,R273*%
X96469371Y-37485000D03*
X96469371Y-34385000D03*
%TD*%
%TO.C,R167*%
X181254860Y-31985000D03*
X181254860Y-28885000D03*
%TD*%
%TO.C,R388*%
X93321500Y-72837064D03*
X93321500Y-69737064D03*
%TD*%
%TO.C,R242*%
X116992552Y-44010000D03*
X116992552Y-40910000D03*
%TD*%
%TO.C,R196*%
X160651973Y-37485000D03*
X160651973Y-34385000D03*
%TD*%
D11*
%TO.C,R390*%
X87465000Y-72834999D03*
X84365000Y-72834999D03*
%TD*%
D10*
%TO.C,R243*%
X116992552Y-37485000D03*
X116992552Y-34385000D03*
%TD*%
%TO.C,R300*%
X70256328Y-31985000D03*
X70256328Y-28885000D03*
%TD*%
D21*
%TO.C,U36*%
X223675000Y-141035000D03*
X222405000Y-141035000D03*
X221135000Y-141035000D03*
X219865000Y-141035000D03*
X219865000Y-145985000D03*
X221135000Y-145985000D03*
X222405000Y-145985000D03*
X223675000Y-145985000D03*
%TD*%
D10*
%TO.C,R214*%
X140360664Y-44010000D03*
X140360664Y-40910000D03*
%TD*%
D13*
%TO.C,R373*%
X127921500Y-69737064D03*
X127921500Y-72837064D03*
%TD*%
D22*
%TO.C,U32*%
X182512000Y-78315000D03*
X182512000Y-79585000D03*
X182512000Y-80855000D03*
X182512000Y-82125000D03*
X182512000Y-83395000D03*
X182512000Y-84665000D03*
X182512000Y-85935000D03*
X182512000Y-87205000D03*
X189012000Y-87205000D03*
X189012000Y-85935000D03*
X189012000Y-84665000D03*
X189012000Y-83395000D03*
X189012000Y-82125000D03*
X189012000Y-80855000D03*
X189012000Y-79585000D03*
X189012000Y-78315000D03*
%TD*%
D10*
%TO.C,R236*%
X122834580Y-37485000D03*
X122834580Y-34385000D03*
%TD*%
%TO.C,R384*%
X102621500Y-72837064D03*
X102621500Y-69737064D03*
%TD*%
D23*
%TO.C,Q69*%
X88264998Y-70584998D03*
X88264998Y-68684998D03*
X84864998Y-69634998D03*
%TD*%
D12*
%TO.C,Q18*%
X200751957Y-31184999D03*
X202651957Y-31184999D03*
X201701957Y-27784999D03*
%TD*%
%TO.C,Q65*%
X60543285Y-43584999D03*
X62443285Y-43584999D03*
X61493285Y-40184999D03*
%TD*%
%TO.C,Q85*%
X146614999Y-126434998D03*
X148514999Y-126434998D03*
X147564999Y-123034998D03*
%TD*%
D10*
%TO.C,R250*%
X111150524Y-37485000D03*
X111150524Y-34385000D03*
%TD*%
D12*
%TO.C,Q30*%
X165699789Y-31184999D03*
X167599789Y-31184999D03*
X166649789Y-27784999D03*
%TD*%
D24*
%TO.C,U10*%
X75615000Y-100680000D03*
X75615000Y-101950000D03*
X75615000Y-103220000D03*
X75615000Y-104490000D03*
X82815000Y-104490000D03*
X82815000Y-103220000D03*
X82815000Y-101950000D03*
X82815000Y-100680000D03*
%TD*%
D10*
%TO.C,R158*%
X187096888Y-44010000D03*
X187096888Y-40910000D03*
%TD*%
D12*
%TO.C,Q48*%
X113121537Y-31184999D03*
X115021537Y-31184999D03*
X114071537Y-27784999D03*
%TD*%
%TO.C,Q45*%
X118963565Y-43584999D03*
X120863565Y-43584999D03*
X119913565Y-40184999D03*
%TD*%
D10*
%TO.C,R376*%
X121021500Y-72837064D03*
X121021500Y-69737064D03*
%TD*%
D13*
%TO.C,R337*%
X210721500Y-69737064D03*
X210721500Y-72837064D03*
%TD*%
D10*
%TO.C,R229*%
X128676608Y-37485000D03*
X128676608Y-34385000D03*
%TD*%
D13*
%TO.C,R345*%
X192321500Y-69737064D03*
X192321500Y-72837064D03*
%TD*%
D10*
%TO.C,R366*%
X144021500Y-72837064D03*
X144021500Y-69737064D03*
%TD*%
D11*
%TO.C,R405*%
X43390000Y-72384999D03*
X40290000Y-72384999D03*
%TD*%
D15*
%TO.C,C3*%
X222165000Y-52497500D03*
X222165000Y-55622500D03*
%TD*%
D10*
%TO.C,R147*%
X201495447Y-37485000D03*
X201495447Y-34385000D03*
%TD*%
D12*
%TO.C,Q55*%
X89753425Y-43584999D03*
X91653425Y-43584999D03*
X90703425Y-40184999D03*
%TD*%
D10*
%TO.C,R175*%
X178156319Y-37485000D03*
X178156319Y-34385000D03*
%TD*%
%TO.C,R286*%
X81940384Y-31985000D03*
X81940384Y-28885000D03*
%TD*%
D13*
%TO.C,R369*%
X137121500Y-69737064D03*
X137121500Y-72837064D03*
%TD*%
D10*
%TO.C,R414*%
X49791115Y-37485000D03*
X49791115Y-34385000D03*
%TD*%
%TO.C,R340*%
X203821500Y-72837064D03*
X203821500Y-69737064D03*
%TD*%
%TO.C,R160*%
X187096888Y-31985000D03*
X187096888Y-28885000D03*
%TD*%
%TO.C,R112*%
X230669357Y-37485000D03*
X230669357Y-34385000D03*
%TD*%
D25*
%TO.C,C13*%
X83665000Y-137322500D03*
X83665000Y-134197500D03*
%TD*%
D26*
%TO.C,D29*%
X227465000Y-148457500D03*
X227465000Y-143057500D03*
%TD*%
D10*
%TO.C,R370*%
X134821500Y-72837064D03*
X134821500Y-69737064D03*
%TD*%
D13*
%TO.C,R375*%
X123321500Y-69737064D03*
X123321500Y-72837064D03*
%TD*%
D10*
%TO.C,R245*%
X119808499Y-37485000D03*
X119808499Y-34385000D03*
%TD*%
D13*
%TO.C,R381*%
X109521500Y-69737064D03*
X109521500Y-72837064D03*
%TD*%
D18*
%TO.C,D26*%
X181565000Y-140970000D03*
X181565000Y-143945000D03*
%TD*%
D10*
%TO.C,R161*%
X189825883Y-37485000D03*
X189825883Y-34385000D03*
%TD*%
D14*
%TO.C,R81*%
X123140000Y-149247500D03*
X123140000Y-146272500D03*
%TD*%
D17*
%TO.C,C126*%
X109827500Y-106985000D03*
X106702500Y-106985000D03*
%TD*%
D10*
%TO.C,R173*%
X175412832Y-37485000D03*
X175412832Y-34385000D03*
%TD*%
D12*
%TO.C,Q49*%
X107279509Y-43584999D03*
X109179509Y-43584999D03*
X108229509Y-40184999D03*
%TD*%
D23*
%TO.C,Q1*%
X23439999Y-135759999D03*
X23439999Y-137659999D03*
X26839999Y-136709999D03*
%TD*%
D10*
%TO.C,R1*%
X204790000Y-55685000D03*
X204790000Y-52585000D03*
%TD*%
D15*
%TO.C,C11*%
X54515000Y-129347500D03*
X54515000Y-132472500D03*
%TD*%
D12*
%TO.C,Q24*%
X183225873Y-31184999D03*
X185125873Y-31184999D03*
X184175873Y-27784999D03*
%TD*%
D10*
%TO.C,R258*%
X105308496Y-31985000D03*
X105308496Y-28885000D03*
%TD*%
D12*
%TO.C,Q80*%
X37175173Y-31184999D03*
X39075173Y-31184999D03*
X38125173Y-27784999D03*
%TD*%
D10*
%TO.C,R2*%
X128915000Y-57110000D03*
X128915000Y-54010000D03*
%TD*%
D27*
%TO.C,D2*%
X71265000Y-94695000D03*
X74115000Y-94695000D03*
%TD*%
D22*
%TO.C,U34*%
X110940000Y-78315000D03*
X110940000Y-79585000D03*
X110940000Y-80855000D03*
X110940000Y-82125000D03*
X110940000Y-83395000D03*
X110940000Y-84665000D03*
X110940000Y-85935000D03*
X110940000Y-87205000D03*
X117440000Y-87205000D03*
X117440000Y-85935000D03*
X117440000Y-84665000D03*
X117440000Y-83395000D03*
X117440000Y-82125000D03*
X117440000Y-80855000D03*
X117440000Y-79585000D03*
X117440000Y-78315000D03*
%TD*%
D27*
%TO.C,D3*%
X71240000Y-97535000D03*
X74090000Y-97535000D03*
%TD*%
D11*
%TO.C,R397*%
X68140000Y-72659999D03*
X65040000Y-72659999D03*
%TD*%
D10*
%TO.C,R146*%
X198780944Y-31985000D03*
X198780944Y-28885000D03*
%TD*%
D13*
%TO.C,R363*%
X150921500Y-69737064D03*
X150921500Y-72837064D03*
%TD*%
D23*
%TO.C,Q71*%
X68939998Y-70409998D03*
X68939998Y-68509998D03*
X65539998Y-69459998D03*
%TD*%
D12*
%TO.C,Q8*%
X229962097Y-31184999D03*
X231862097Y-31184999D03*
X230912097Y-27784999D03*
%TD*%
D28*
%TO.C,U24*%
X232040000Y-124765000D03*
X232040000Y-127105000D03*
D29*
X229177500Y-122360000D03*
X229177500Y-123010000D03*
X229177500Y-123660000D03*
X229177500Y-124310000D03*
X229177500Y-124960000D03*
X229177500Y-125610000D03*
X229177500Y-126260000D03*
X229177500Y-126910000D03*
X229177500Y-127560000D03*
X229177500Y-128210000D03*
X229177500Y-128860000D03*
X229177500Y-129510000D03*
X234902500Y-129510000D03*
X234902500Y-128860000D03*
X234902500Y-128210000D03*
X234902500Y-127560000D03*
X234902500Y-126910000D03*
X234902500Y-126260000D03*
X234902500Y-125610000D03*
X234902500Y-124960000D03*
X234902500Y-124310000D03*
X234902500Y-123660000D03*
X234902500Y-123010000D03*
X234902500Y-122360000D03*
%TD*%
D30*
%TO.C,FB1*%
X49215000Y-126935000D03*
X52190000Y-126935000D03*
%TD*%
D31*
%TO.C,C7*%
X57302500Y-86385000D03*
X60427500Y-86385000D03*
%TD*%
D10*
%TO.C,R257*%
X105308496Y-37485000D03*
X105308496Y-34385000D03*
%TD*%
%TO.C,R251*%
X111150524Y-31985000D03*
X111150524Y-28885000D03*
%TD*%
D12*
%TO.C,Q35*%
X148173705Y-43584999D03*
X150073705Y-43584999D03*
X149123705Y-40184999D03*
%TD*%
%TO.C,Q53*%
X95595453Y-43584999D03*
X97495453Y-43584999D03*
X96545453Y-40184999D03*
%TD*%
%TO.C,Q84*%
X153214998Y-113484999D03*
X155114998Y-113484999D03*
X154164998Y-110084999D03*
%TD*%
D10*
%TO.C,R201*%
X152044720Y-37485000D03*
X152044720Y-34385000D03*
%TD*%
%TO.C,R360*%
X157821500Y-72837064D03*
X157821500Y-69737064D03*
%TD*%
D12*
%TO.C,Q12*%
X218278041Y-31184999D03*
X220178041Y-31184999D03*
X219228041Y-27784999D03*
%TD*%
D10*
%TO.C,R179*%
X169570804Y-44010000D03*
X169570804Y-40910000D03*
%TD*%
%TO.C,R217*%
X143147627Y-37485000D03*
X143147627Y-34385000D03*
%TD*%
%TO.C,R3*%
X96240000Y-57185000D03*
X96240000Y-54085000D03*
%TD*%
D25*
%TO.C,C4*%
X145615000Y-57497500D03*
X145615000Y-54372500D03*
%TD*%
D32*
%TO.C,U11*%
X56414999Y-120834999D03*
X53914999Y-120834999D03*
%TD*%
D10*
%TO.C,R153*%
X192938916Y-31985000D03*
X192938916Y-28885000D03*
%TD*%
D13*
%TO.C,R353*%
X173921500Y-69737064D03*
X173921500Y-72837064D03*
%TD*%
D10*
%TO.C,R449*%
X147564999Y-119885000D03*
X147564999Y-116785000D03*
%TD*%
%TO.C,R71*%
X185590000Y-149535000D03*
X185590000Y-146435000D03*
%TD*%
D25*
%TO.C,C17*%
X56190000Y-118610000D03*
X56190000Y-115485000D03*
%TD*%
D10*
%TO.C,R203*%
X154817191Y-37485000D03*
X154817191Y-34385000D03*
%TD*%
%TO.C,R419*%
X41046188Y-37485000D03*
X41046188Y-34385000D03*
%TD*%
%TO.C,R308*%
X67295461Y-37485000D03*
X67295461Y-34385000D03*
%TD*%
%TO.C,R332*%
X222321500Y-72837064D03*
X222321500Y-69737064D03*
%TD*%
%TO.C,R307*%
X64414300Y-31985000D03*
X64414300Y-28885000D03*
%TD*%
%TO.C,R427*%
X35204160Y-31985000D03*
X35204160Y-28885000D03*
%TD*%
D11*
%TO.C,R398*%
X62390000Y-72659999D03*
X59290000Y-72659999D03*
%TD*%
D12*
%TO.C,Q44*%
X124805593Y-31184999D03*
X126705593Y-31184999D03*
X125755593Y-27784999D03*
%TD*%
D10*
%TO.C,R4*%
X59265000Y-57385000D03*
X59265000Y-54285000D03*
%TD*%
D13*
%TO.C,R365*%
X146321500Y-69737064D03*
X146321500Y-72837064D03*
%TD*%
D10*
%TO.C,R237*%
X122834580Y-31985000D03*
X122834580Y-28885000D03*
%TD*%
D33*
%TO.C,U26*%
X179327500Y-127680000D03*
X179327500Y-126410000D03*
X179327500Y-125140000D03*
X179327500Y-123870000D03*
X179327500Y-122600000D03*
X179327500Y-121330000D03*
X179327500Y-120060000D03*
X179327500Y-118790000D03*
X172402500Y-118790000D03*
X172402500Y-120060000D03*
X172402500Y-121330000D03*
X172402500Y-122600000D03*
X172402500Y-123870000D03*
X172402500Y-125140000D03*
X172402500Y-126410000D03*
X172402500Y-127680000D03*
%TD*%
D15*
%TO.C,C73*%
X237340000Y-119947500D03*
X237340000Y-123072500D03*
%TD*%
D12*
%TO.C,Q57*%
X83911397Y-43584999D03*
X85811397Y-43584999D03*
X84861397Y-40184999D03*
%TD*%
D10*
%TO.C,R208*%
X146202692Y-37485000D03*
X146202692Y-34385000D03*
%TD*%
%TO.C,R426*%
X35204160Y-37485000D03*
X35204160Y-34385000D03*
%TD*%
%TO.C,R428*%
X38121551Y-37485000D03*
X38121551Y-34385000D03*
%TD*%
%TO.C,R180*%
X169570804Y-37485000D03*
X169570804Y-34385000D03*
%TD*%
D25*
%TO.C,C10*%
X46815000Y-129822500D03*
X46815000Y-126697500D03*
%TD*%
D10*
%TO.C,R249*%
X111150524Y-44010000D03*
X111150524Y-40910000D03*
%TD*%
D13*
%TO.C,R79*%
X131265000Y-137235000D03*
X131265000Y-140335000D03*
%TD*%
%TO.C,R327*%
X234165000Y-69727936D03*
X234165000Y-72827936D03*
%TD*%
D10*
%TO.C,R124*%
X216307028Y-37485000D03*
X216307028Y-34385000D03*
%TD*%
D31*
%TO.C,C64*%
X156202500Y-152270000D03*
X159327500Y-152270000D03*
%TD*%
D10*
%TO.C,R321*%
X52730244Y-31985000D03*
X52730244Y-28885000D03*
%TD*%
%TO.C,R126*%
X218999793Y-37485000D03*
X218999793Y-34385000D03*
%TD*%
%TO.C,R252*%
X113973717Y-37485000D03*
X113973717Y-34385000D03*
%TD*%
D34*
%TO.C,D35*%
X118065000Y-148385000D03*
X118065000Y-139585000D03*
%TD*%
D10*
%TO.C,R322*%
X55625897Y-37485000D03*
X55625897Y-34385000D03*
%TD*%
D35*
%TO.C,U7*%
X54910000Y-79422500D03*
X53640000Y-79422500D03*
X52370000Y-79422500D03*
X51100000Y-79422500D03*
X49830000Y-79422500D03*
X48560000Y-79422500D03*
X47290000Y-79422500D03*
X46020000Y-79422500D03*
X46020000Y-86347500D03*
X47290000Y-86347500D03*
X48560000Y-86347500D03*
X49830000Y-86347500D03*
X51100000Y-86347500D03*
X52370000Y-86347500D03*
X53640000Y-86347500D03*
X54910000Y-86347500D03*
%TD*%
D25*
%TO.C,C18*%
X53865000Y-118635000D03*
X53865000Y-115510000D03*
%TD*%
D10*
%TO.C,R259*%
X108138935Y-37485000D03*
X108138935Y-34385000D03*
%TD*%
D22*
%TO.C,U31*%
X218298000Y-78315000D03*
X218298000Y-79585000D03*
X218298000Y-80855000D03*
X218298000Y-82125000D03*
X218298000Y-83395000D03*
X218298000Y-84665000D03*
X218298000Y-85935000D03*
X218298000Y-87205000D03*
X224798000Y-87205000D03*
X224798000Y-85935000D03*
X224798000Y-84665000D03*
X224798000Y-83395000D03*
X224798000Y-82125000D03*
X224798000Y-80855000D03*
X224798000Y-79585000D03*
X224798000Y-78315000D03*
%TD*%
D10*
%TO.C,R5*%
X85790000Y-81960000D03*
X85790000Y-78860000D03*
%TD*%
D12*
%TO.C,Q36*%
X148173705Y-31184999D03*
X150073705Y-31184999D03*
X149123705Y-27784999D03*
%TD*%
D10*
%TO.C,R228*%
X128676608Y-44010000D03*
X128676608Y-40910000D03*
%TD*%
D12*
%TO.C,Q31*%
X159857761Y-43584999D03*
X161757761Y-43584999D03*
X160807761Y-40184999D03*
%TD*%
D10*
%TO.C,R348*%
X185421500Y-72837064D03*
X185421500Y-69737064D03*
%TD*%
%TO.C,R202*%
X152044720Y-31985000D03*
X152044720Y-28885000D03*
%TD*%
%TO.C,R372*%
X130221500Y-72837064D03*
X130221500Y-69737064D03*
%TD*%
D11*
%TO.C,R88*%
X169915000Y-120035000D03*
X166815000Y-120035000D03*
%TD*%
D10*
%TO.C,R293*%
X76098356Y-31985000D03*
X76098356Y-28885000D03*
%TD*%
D12*
%TO.C,Q23*%
X183225873Y-43584999D03*
X185125873Y-43584999D03*
X184175873Y-40184999D03*
%TD*%
D35*
%TO.C,U4*%
X110735000Y-49897500D03*
X109465000Y-49897500D03*
X108195000Y-49897500D03*
X106925000Y-49897500D03*
X105655000Y-49897500D03*
X104385000Y-49897500D03*
X103115000Y-49897500D03*
X101845000Y-49897500D03*
X101845000Y-56822500D03*
X103115000Y-56822500D03*
X104385000Y-56822500D03*
X105655000Y-56822500D03*
X106925000Y-56822500D03*
X108195000Y-56822500D03*
X109465000Y-56822500D03*
X110735000Y-56822500D03*
%TD*%
D13*
%TO.C,R359*%
X160121500Y-69737064D03*
X160121500Y-72837064D03*
%TD*%
D10*
%TO.C,R154*%
X195660665Y-37485000D03*
X195660665Y-34385000D03*
%TD*%
%TO.C,R346*%
X190021500Y-72837064D03*
X190021500Y-69737064D03*
%TD*%
D13*
%TO.C,R77*%
X169865000Y-143120000D03*
X169865000Y-146220000D03*
%TD*%
D10*
%TO.C,R298*%
X70256328Y-44010000D03*
X70256328Y-40910000D03*
%TD*%
D13*
%TO.C,R78*%
X124665000Y-137235000D03*
X124665000Y-140335000D03*
%TD*%
D10*
%TO.C,R368*%
X139421500Y-72837064D03*
X139421500Y-69737064D03*
%TD*%
%TO.C,R420*%
X41046188Y-31985000D03*
X41046188Y-28885000D03*
%TD*%
D36*
%TO.C,D30*%
X232115000Y-143210000D03*
X232115000Y-148610000D03*
%TD*%
D10*
%TO.C,R330*%
X226921500Y-72837064D03*
X226921500Y-69737064D03*
%TD*%
%TO.C,R342*%
X199221500Y-72837064D03*
X199221500Y-69737064D03*
%TD*%
%TO.C,R116*%
X222149056Y-44010000D03*
X222149056Y-40910000D03*
%TD*%
D13*
%TO.C,R367*%
X141721500Y-69737064D03*
X141721500Y-72837064D03*
%TD*%
D15*
%TO.C,C80*%
X207540000Y-120272500D03*
X207540000Y-123397500D03*
%TD*%
%TO.C,C78*%
X224115000Y-120222500D03*
X224115000Y-123347500D03*
%TD*%
D10*
%TO.C,R174*%
X175412832Y-31985000D03*
X175412832Y-28885000D03*
%TD*%
D13*
%TO.C,R379*%
X114121500Y-69737064D03*
X114121500Y-72837064D03*
%TD*%
D12*
%TO.C,Q22*%
X189067901Y-31184999D03*
X190967901Y-31184999D03*
X190017901Y-27784999D03*
%TD*%
D10*
%TO.C,R272*%
X93624440Y-31985000D03*
X93624440Y-28885000D03*
%TD*%
D12*
%TO.C,Q76*%
X48859229Y-31184999D03*
X50759229Y-31184999D03*
X49809229Y-27784999D03*
%TD*%
D37*
%TO.C,J19*%
X127352500Y-131725000D03*
X117377500Y-131775000D03*
%TD*%
D12*
%TO.C,Q34*%
X154015733Y-31184999D03*
X155915733Y-31184999D03*
X154965733Y-27784999D03*
%TD*%
%TO.C,Q20*%
X194909929Y-31184999D03*
X196809929Y-31184999D03*
X195859929Y-27784999D03*
%TD*%
D10*
%TO.C,R328*%
X231615000Y-72830000D03*
X231615000Y-69730000D03*
%TD*%
D31*
%TO.C,C12*%
X54102500Y-126960000D03*
X57227500Y-126960000D03*
%TD*%
D10*
%TO.C,R188*%
X163728776Y-31985000D03*
X163728776Y-28885000D03*
%TD*%
D12*
%TO.C,Q10*%
X224120069Y-31184999D03*
X226020069Y-31184999D03*
X225070069Y-27784999D03*
%TD*%
D17*
%TO.C,C62*%
X223402500Y-137910000D03*
X220277500Y-137910000D03*
%TD*%
D25*
%TO.C,C5*%
X113715000Y-57522500D03*
X113715000Y-54397500D03*
%TD*%
D38*
%TO.C,J25*%
X122295000Y-101960000D03*
X132270000Y-101910000D03*
%TD*%
D10*
%TO.C,R326*%
X236421500Y-72837064D03*
X236421500Y-69737064D03*
%TD*%
%TO.C,R425*%
X35204160Y-44010000D03*
X35204160Y-40910000D03*
%TD*%
%TO.C,R280*%
X90634589Y-37485000D03*
X90634589Y-34385000D03*
%TD*%
D31*
%TO.C,C60*%
X150927500Y-152335000D03*
X154052500Y-152335000D03*
%TD*%
D12*
%TO.C,Q7*%
X229962097Y-43584999D03*
X231862097Y-43584999D03*
X230912097Y-40184999D03*
%TD*%
D25*
%TO.C,C6*%
X75840000Y-57147500D03*
X75840000Y-54022500D03*
%TD*%
D10*
%TO.C,R117*%
X222149056Y-37485000D03*
X222149056Y-34385000D03*
%TD*%
%TO.C,R354*%
X171621500Y-72837064D03*
X171621500Y-69737064D03*
%TD*%
D12*
%TO.C,Q51*%
X101437481Y-43584999D03*
X103337481Y-43584999D03*
X102387481Y-40184999D03*
%TD*%
D13*
%TO.C,R377*%
X118721500Y-69737064D03*
X118721500Y-72837064D03*
%TD*%
%TO.C,R6*%
X207765000Y-52560000D03*
X207765000Y-55660000D03*
%TD*%
D10*
%TO.C,R291*%
X76098356Y-44010000D03*
X76098356Y-40910000D03*
%TD*%
D18*
%TO.C,D24*%
X212365000Y-140932500D03*
X212365000Y-143907500D03*
%TD*%
D15*
%TO.C,C66*%
X149340000Y-146172500D03*
X149340000Y-149297500D03*
%TD*%
D10*
%TO.C,R446*%
X144365000Y-125635000D03*
X144365000Y-122535000D03*
%TD*%
D12*
%TO.C,Q37*%
X142331677Y-43584999D03*
X144231677Y-43584999D03*
X143281677Y-40184999D03*
%TD*%
D23*
%TO.C,Q74*%
X37039999Y-69834999D03*
X37039999Y-67934999D03*
X33639999Y-68884999D03*
%TD*%
D12*
%TO.C,Q28*%
X171541817Y-31184999D03*
X173441817Y-31184999D03*
X172491817Y-27784999D03*
%TD*%
D11*
%TO.C,R70*%
X193495000Y-149757500D03*
X190395000Y-149757500D03*
%TD*%
D13*
%TO.C,R341*%
X201521500Y-69737064D03*
X201521500Y-72837064D03*
%TD*%
D35*
%TO.C,U3*%
X143435000Y-49897500D03*
X142165000Y-49897500D03*
X140895000Y-49897500D03*
X139625000Y-49897500D03*
X138355000Y-49897500D03*
X137085000Y-49897500D03*
X135815000Y-49897500D03*
X134545000Y-49897500D03*
X134545000Y-56822500D03*
X135815000Y-56822500D03*
X137085000Y-56822500D03*
X138355000Y-56822500D03*
X139625000Y-56822500D03*
X140895000Y-56822500D03*
X142165000Y-56822500D03*
X143435000Y-56822500D03*
%TD*%
D12*
%TO.C,Q68*%
X54701257Y-31184999D03*
X56601257Y-31184999D03*
X55651257Y-27784999D03*
%TD*%
%TO.C,Q42*%
X130647621Y-31184999D03*
X132547621Y-31184999D03*
X131597621Y-27784999D03*
%TD*%
D10*
%TO.C,R138*%
X204622972Y-37485000D03*
X204622972Y-34385000D03*
%TD*%
D11*
%TO.C,R400*%
X62390000Y-69460000D03*
X59290000Y-69460000D03*
%TD*%
D12*
%TO.C,Q64*%
X66385313Y-31184999D03*
X68285313Y-31184999D03*
X67335313Y-27784999D03*
%TD*%
%TO.C,Q11*%
X218278041Y-43584999D03*
X220178041Y-43584999D03*
X219228041Y-40184999D03*
%TD*%
%TO.C,Q26*%
X177383845Y-31184999D03*
X179283845Y-31184999D03*
X178333845Y-27784999D03*
%TD*%
D10*
%TO.C,R277*%
X87782412Y-44010000D03*
X87782412Y-40910000D03*
%TD*%
%TO.C,R181*%
X169570804Y-31985000D03*
X169570804Y-28885000D03*
%TD*%
D22*
%TO.C,U33*%
X146726000Y-78315000D03*
X146726000Y-79585000D03*
X146726000Y-80855000D03*
X146726000Y-82125000D03*
X146726000Y-83395000D03*
X146726000Y-84665000D03*
X146726000Y-85935000D03*
X146726000Y-87205000D03*
X153226000Y-87205000D03*
X153226000Y-85935000D03*
X153226000Y-84665000D03*
X153226000Y-83395000D03*
X153226000Y-82125000D03*
X153226000Y-80855000D03*
X153226000Y-79585000D03*
X153226000Y-78315000D03*
%TD*%
D13*
%TO.C,R61*%
X142905000Y-146275000D03*
X142905000Y-149375000D03*
%TD*%
D10*
%TO.C,R144*%
X198780944Y-44010000D03*
X198780944Y-40910000D03*
%TD*%
%TO.C,R103*%
X233833112Y-37485000D03*
X233833112Y-34385000D03*
%TD*%
D18*
%TO.C,D23*%
X177765000Y-141070000D03*
X177765000Y-144045000D03*
%TD*%
D10*
%TO.C,R264*%
X99466468Y-37485000D03*
X99466468Y-34385000D03*
%TD*%
D12*
%TO.C,Q86*%
X146839999Y-113559999D03*
X148739999Y-113559999D03*
X147789999Y-110159999D03*
%TD*%
D10*
%TO.C,R336*%
X213021500Y-72837064D03*
X213021500Y-69737064D03*
%TD*%
D13*
%TO.C,R351*%
X178521500Y-69737064D03*
X178521500Y-72837064D03*
%TD*%
%TO.C,R385*%
X100321500Y-69737064D03*
X100321500Y-72837064D03*
%TD*%
D12*
%TO.C,Q56*%
X89753425Y-31184999D03*
X91653425Y-31184999D03*
X90703425Y-27784999D03*
%TD*%
D13*
%TO.C,R331*%
X224665000Y-69730000D03*
X224665000Y-72830000D03*
%TD*%
D15*
%TO.C,C74*%
X205190000Y-120247500D03*
X205190000Y-123372500D03*
%TD*%
D12*
%TO.C,Q66*%
X60543285Y-31184999D03*
X62443285Y-31184999D03*
X61493285Y-27784999D03*
%TD*%
D13*
%TO.C,R329*%
X229365000Y-69730000D03*
X229365000Y-72830000D03*
%TD*%
D10*
%TO.C,R312*%
X58572272Y-44010000D03*
X58572272Y-40910000D03*
%TD*%
D12*
%TO.C,Q83*%
X152914999Y-126384998D03*
X154814999Y-126384998D03*
X153864999Y-122984998D03*
%TD*%
D10*
%TO.C,R380*%
X111821500Y-72837064D03*
X111821500Y-69737064D03*
%TD*%
D35*
%TO.C,U2*%
X219585000Y-48247500D03*
X218315000Y-48247500D03*
X217045000Y-48247500D03*
X215775000Y-48247500D03*
X214505000Y-48247500D03*
X213235000Y-48247500D03*
X211965000Y-48247500D03*
X210695000Y-48247500D03*
X210695000Y-55172500D03*
X211965000Y-55172500D03*
X213235000Y-55172500D03*
X214505000Y-55172500D03*
X215775000Y-55172500D03*
X217045000Y-55172500D03*
X218315000Y-55172500D03*
X219585000Y-55172500D03*
%TD*%
D10*
%TO.C,R279*%
X87782412Y-31985000D03*
X87782412Y-28885000D03*
%TD*%
%TO.C,R352*%
X176221500Y-72837064D03*
X176221500Y-69737064D03*
%TD*%
D13*
%TO.C,R371*%
X132521500Y-69737064D03*
X132521500Y-72837064D03*
%TD*%
D10*
%TO.C,R433*%
X158065000Y-119835000D03*
X158065000Y-116735000D03*
%TD*%
D12*
%TO.C,Q15*%
X206593985Y-43584999D03*
X208493985Y-43584999D03*
X207543985Y-40184999D03*
%TD*%
D39*
%TO.C,R458*%
X101940000Y-142310000D03*
X105040000Y-142310000D03*
%TD*%
D10*
%TO.C,R231*%
X131478063Y-37485000D03*
X131478063Y-34385000D03*
%TD*%
D11*
%TO.C,R94*%
X169715000Y-109185000D03*
X166615000Y-109185000D03*
%TD*%
D10*
%TO.C,R189*%
X166486755Y-37485000D03*
X166486755Y-34385000D03*
%TD*%
D17*
%TO.C,C84*%
X169727500Y-112985000D03*
X166602500Y-112985000D03*
%TD*%
D13*
%TO.C,R74*%
X197590000Y-142010000D03*
X197590000Y-145110000D03*
%TD*%
D18*
%TO.C,D25*%
X142965000Y-140932500D03*
X142965000Y-143907500D03*
%TD*%
D12*
%TO.C,Q54*%
X95595453Y-31184999D03*
X97495453Y-31184999D03*
X96545453Y-27784999D03*
%TD*%
D10*
%TO.C,R168*%
X183991101Y-37485000D03*
X183991101Y-34385000D03*
%TD*%
%TO.C,R358*%
X162421500Y-72837064D03*
X162421500Y-69737064D03*
%TD*%
%TO.C,R193*%
X157886748Y-44010000D03*
X157886748Y-40910000D03*
%TD*%
%TO.C,R439*%
X150665000Y-125585000D03*
X150665000Y-122485000D03*
%TD*%
D12*
%TO.C,Q82*%
X160614998Y-113484999D03*
X162514998Y-113484999D03*
X161564998Y-110084999D03*
%TD*%
%TO.C,Q77*%
X43017201Y-43584999D03*
X44917201Y-43584999D03*
X43967201Y-40184999D03*
%TD*%
D10*
%TO.C,R299*%
X70256328Y-37485000D03*
X70256328Y-34385000D03*
%TD*%
%TO.C,R413*%
X46888216Y-31985000D03*
X46888216Y-28885000D03*
%TD*%
D13*
%TO.C,R343*%
X196921500Y-69737064D03*
X196921500Y-72837064D03*
%TD*%
D40*
%TO.C,U20*%
X151715000Y-147370000D03*
X152985000Y-147370000D03*
X154255000Y-147370000D03*
X155525000Y-147370000D03*
X156795000Y-147370000D03*
X158065000Y-147370000D03*
X159335000Y-147370000D03*
X160605000Y-147370000D03*
X160605000Y-140870000D03*
X159335000Y-140870000D03*
X158065000Y-140870000D03*
X156795000Y-140870000D03*
X155525000Y-140870000D03*
X154255000Y-140870000D03*
X152985000Y-140870000D03*
X151715000Y-140870000D03*
%TD*%
D10*
%TO.C,R152*%
X192938916Y-37485000D03*
X192938916Y-34385000D03*
%TD*%
D25*
%TO.C,C1*%
X48590000Y-140472500D03*
X48590000Y-137347500D03*
%TD*%
D10*
%TO.C,R278*%
X87782412Y-37485000D03*
X87782412Y-34385000D03*
%TD*%
D12*
%TO.C,Q43*%
X124805593Y-43584999D03*
X126705593Y-43584999D03*
X125755593Y-40184999D03*
%TD*%
D11*
%TO.C,R393*%
X81715000Y-69635000D03*
X78615000Y-69635000D03*
%TD*%
D12*
%TO.C,Q59*%
X78069369Y-43584999D03*
X79969369Y-43584999D03*
X79019369Y-40184999D03*
%TD*%
D13*
%TO.C,R58*%
X146115000Y-146285000D03*
X146115000Y-149385000D03*
%TD*%
D11*
%TO.C,R16*%
X79340000Y-97410000D03*
X76240000Y-97410000D03*
%TD*%
D10*
%TO.C,R374*%
X125621500Y-72837064D03*
X125621500Y-69737064D03*
%TD*%
D12*
%TO.C,Q19*%
X194909929Y-43584999D03*
X196809929Y-43584999D03*
X195859929Y-40184999D03*
%TD*%
D23*
%TO.C,Q72*%
X56039999Y-70109999D03*
X56039999Y-68209999D03*
X52639999Y-69159999D03*
%TD*%
D39*
%TO.C,R65*%
X190715000Y-137085000D03*
X193815000Y-137085000D03*
%TD*%
D10*
%TO.C,R287*%
X84799807Y-37485000D03*
X84799807Y-34385000D03*
%TD*%
D11*
%TO.C,R18*%
X44915000Y-139410000D03*
X41815000Y-139410000D03*
%TD*%
%TO.C,R11*%
X41090000Y-86610000D03*
X37990000Y-86610000D03*
%TD*%
D41*
%TO.C,D1*%
X47595000Y-107460000D03*
D42*
X53395000Y-107460000D03*
%TD*%
D10*
%TO.C,R301*%
X73130243Y-37485000D03*
X73130243Y-34385000D03*
%TD*%
D12*
%TO.C,Q32*%
X159857761Y-31184999D03*
X161757761Y-31184999D03*
X160807761Y-27784999D03*
%TD*%
D10*
%TO.C,R334*%
X217721500Y-72837064D03*
X217721500Y-69737064D03*
%TD*%
%TO.C,R222*%
X134518636Y-37485000D03*
X134518636Y-34385000D03*
%TD*%
%TO.C,R151*%
X192938916Y-44010000D03*
X192938916Y-40910000D03*
%TD*%
D39*
%TO.C,R455*%
X101890000Y-137760000D03*
X104990000Y-137760000D03*
%TD*%
D10*
%TO.C,R224*%
X137312845Y-37485000D03*
X137312845Y-34385000D03*
%TD*%
%TO.C,R159*%
X187096888Y-37485000D03*
X187096888Y-34385000D03*
%TD*%
%TO.C,R215*%
X140360664Y-37485000D03*
X140360664Y-34385000D03*
%TD*%
D12*
%TO.C,Q29*%
X165699789Y-43584999D03*
X167599789Y-43584999D03*
X166649789Y-40184999D03*
%TD*%
%TO.C,Q58*%
X83911397Y-31184999D03*
X85811397Y-31184999D03*
X84861397Y-27784999D03*
%TD*%
%TO.C,Q61*%
X72227341Y-43584999D03*
X74127341Y-43584999D03*
X73177341Y-40184999D03*
%TD*%
D10*
%TO.C,R216*%
X140360664Y-31985000D03*
X140360664Y-28885000D03*
%TD*%
D13*
%TO.C,R335*%
X215421500Y-69737064D03*
X215421500Y-72837064D03*
%TD*%
D12*
%TO.C,Q6*%
X235804159Y-31184999D03*
X237704159Y-31184999D03*
X236754159Y-27784999D03*
%TD*%
D18*
%TO.C,D22*%
X146165000Y-140997500D03*
X146165000Y-143972500D03*
%TD*%
D11*
%TO.C,R15*%
X79490000Y-94785000D03*
X76390000Y-94785000D03*
%TD*%
D10*
%TO.C,R194*%
X157886748Y-37485000D03*
X157886748Y-34385000D03*
%TD*%
D33*
%TO.C,U27*%
X179265000Y-112975000D03*
X179265000Y-111705000D03*
X179265000Y-110435000D03*
X179265000Y-109165000D03*
X179265000Y-107895000D03*
X179265000Y-106625000D03*
X179265000Y-105355000D03*
X179265000Y-104085000D03*
X172340000Y-104085000D03*
X172340000Y-105355000D03*
X172340000Y-106625000D03*
X172340000Y-107895000D03*
X172340000Y-109165000D03*
X172340000Y-110435000D03*
X172340000Y-111705000D03*
X172340000Y-112975000D03*
%TD*%
D10*
%TO.C,R448*%
X144365000Y-114385000D03*
X144365000Y-111285000D03*
%TD*%
D12*
%TO.C,Q21*%
X189067901Y-43584999D03*
X190967901Y-43584999D03*
X190017901Y-40184999D03*
%TD*%
D10*
%TO.C,R447*%
X144365000Y-119885000D03*
X144365000Y-116785000D03*
%TD*%
%TO.C,R315*%
X61460679Y-37485000D03*
X61460679Y-34385000D03*
%TD*%
%TO.C,R386*%
X98021500Y-72837064D03*
X98021500Y-69737064D03*
%TD*%
%TO.C,R119*%
X224834575Y-37485000D03*
X224834575Y-34385000D03*
%TD*%
%TO.C,R434*%
X158065000Y-114335000D03*
X158065000Y-111235000D03*
%TD*%
D17*
%TO.C,C2*%
X72177500Y-80060000D03*
X69052500Y-80060000D03*
%TD*%
D10*
%TO.C,R418*%
X41046188Y-44010000D03*
X41046188Y-40910000D03*
%TD*%
%TO.C,R111*%
X227991084Y-31985000D03*
X227991084Y-28885000D03*
%TD*%
%TO.C,R165*%
X181254860Y-44010000D03*
X181254860Y-40910000D03*
%TD*%
%TO.C,R320*%
X52730244Y-37485000D03*
X52730244Y-34385000D03*
%TD*%
D23*
%TO.C,Q73*%
X49939998Y-70134998D03*
X49939998Y-68234998D03*
X46539998Y-69184998D03*
%TD*%
D10*
%TO.C,R132*%
X210465000Y-31985000D03*
X210465000Y-28885000D03*
%TD*%
D39*
%TO.C,R454*%
X56940000Y-92110000D03*
X60040000Y-92110000D03*
%TD*%
D28*
%TO.C,U25*%
X199615000Y-124765000D03*
X199615000Y-127105000D03*
D29*
X196752500Y-122360000D03*
X196752500Y-123010000D03*
X196752500Y-123660000D03*
X196752500Y-124310000D03*
X196752500Y-124960000D03*
X196752500Y-125610000D03*
X196752500Y-126260000D03*
X196752500Y-126910000D03*
X196752500Y-127560000D03*
X196752500Y-128210000D03*
X196752500Y-128860000D03*
X196752500Y-129510000D03*
X202477500Y-129510000D03*
X202477500Y-128860000D03*
X202477500Y-128210000D03*
X202477500Y-127560000D03*
X202477500Y-126910000D03*
X202477500Y-126260000D03*
X202477500Y-125610000D03*
X202477500Y-124960000D03*
X202477500Y-124310000D03*
X202477500Y-123660000D03*
X202477500Y-123010000D03*
X202477500Y-122360000D03*
%TD*%
D23*
%TO.C,Q70*%
X75364999Y-70284999D03*
X75364999Y-68384999D03*
X71964999Y-69334999D03*
%TD*%
D43*
%TO.C,D4*%
X35839999Y-139459999D03*
X39739999Y-139459999D03*
%TD*%
D13*
%TO.C,R75*%
X202940000Y-142385000D03*
X202940000Y-145485000D03*
%TD*%
D10*
%TO.C,R432*%
X158065000Y-125585000D03*
X158065000Y-122485000D03*
%TD*%
D16*
%TO.C,U30*%
X197052500Y-108295000D03*
X197052500Y-108945000D03*
X197052500Y-109595000D03*
X197052500Y-110245000D03*
X197052500Y-110895000D03*
X197052500Y-111545000D03*
X197052500Y-112195000D03*
X197052500Y-112845000D03*
X202777500Y-112845000D03*
X202777500Y-112195000D03*
X202777500Y-111545000D03*
X202777500Y-110895000D03*
X202777500Y-110245000D03*
X202777500Y-109595000D03*
X202777500Y-108945000D03*
X202777500Y-108295000D03*
%TD*%
D11*
%TO.C,R89*%
X169915000Y-123835000D03*
X166815000Y-123835000D03*
%TD*%
D12*
%TO.C,Q60*%
X78069369Y-31184999D03*
X79969369Y-31184999D03*
X79019369Y-27784999D03*
%TD*%
D10*
%TO.C,R235*%
X122834580Y-44010000D03*
X122834580Y-40910000D03*
%TD*%
%TO.C,R284*%
X81940384Y-44010000D03*
X81940384Y-40910000D03*
%TD*%
%TO.C,R109*%
X227991084Y-44010000D03*
X227991084Y-40910000D03*
%TD*%
D13*
%TO.C,R339*%
X206121500Y-69737064D03*
X206121500Y-72837064D03*
%TD*%
D10*
%TO.C,R131*%
X210465000Y-37485000D03*
X210465000Y-34385000D03*
%TD*%
D15*
%TO.C,C20*%
X40465000Y-119147500D03*
X40465000Y-122272500D03*
%TD*%
D10*
%TO.C,R195*%
X157886748Y-31985000D03*
X157886748Y-28885000D03*
%TD*%
%TO.C,R314*%
X58572272Y-31985000D03*
X58572272Y-28885000D03*
%TD*%
%TO.C,R104*%
X233833112Y-31985000D03*
X233833112Y-28885000D03*
%TD*%
%TO.C,R294*%
X78965025Y-37485000D03*
X78965025Y-34385000D03*
%TD*%
%TO.C,R442*%
X153864999Y-119835000D03*
X153864999Y-116735000D03*
%TD*%
D11*
%TO.C,R406*%
X37890000Y-72384999D03*
X34790000Y-72384999D03*
%TD*%
D12*
%TO.C,Q47*%
X113121537Y-43584999D03*
X115021537Y-43584999D03*
X114071537Y-40184999D03*
%TD*%
D10*
%TO.C,R265*%
X99466468Y-31985000D03*
X99466468Y-28885000D03*
%TD*%
%TO.C,R133*%
X213165011Y-37485000D03*
X213165011Y-34385000D03*
%TD*%
%TO.C,R285*%
X81940384Y-37485000D03*
X81940384Y-34385000D03*
%TD*%
D12*
%TO.C,Q13*%
X212436013Y-43584999D03*
X214336013Y-43584999D03*
X213386013Y-40184999D03*
%TD*%
D10*
%TO.C,R362*%
X153221500Y-72837064D03*
X153221500Y-69737064D03*
%TD*%
D13*
%TO.C,R69*%
X181715000Y-146460000D03*
X181715000Y-149560000D03*
%TD*%
D11*
%TO.C,R93*%
X169715000Y-105385000D03*
X166615000Y-105385000D03*
%TD*%
D10*
%TO.C,R266*%
X102304153Y-37485000D03*
X102304153Y-34385000D03*
%TD*%
%TO.C,R435*%
X161264999Y-119835000D03*
X161264999Y-116735000D03*
%TD*%
D13*
%TO.C,R76*%
X164765000Y-143020000D03*
X164765000Y-146120000D03*
%TD*%
D31*
%TO.C,C65*%
X161502500Y-152370000D03*
X164627500Y-152370000D03*
%TD*%
D12*
%TO.C,Q75*%
X48859229Y-43584999D03*
X50759229Y-43584999D03*
X49809229Y-40184999D03*
%TD*%
D10*
%TO.C,R441*%
X150665000Y-114335000D03*
X150665000Y-111235000D03*
%TD*%
D12*
%TO.C,Q62*%
X72227341Y-31184999D03*
X74127341Y-31184999D03*
X73177341Y-27784999D03*
%TD*%
D10*
%TO.C,R292*%
X76098356Y-37485000D03*
X76098356Y-34385000D03*
%TD*%
%TO.C,R118*%
X222149056Y-31985000D03*
X222149056Y-28885000D03*
%TD*%
%TO.C,R230*%
X128676608Y-31985000D03*
X128676608Y-28885000D03*
%TD*%
D44*
%TO.C,U8*%
X67232500Y-119960000D03*
X67232500Y-120460000D03*
X67232500Y-120960000D03*
X67232500Y-121460000D03*
X67232500Y-121960000D03*
X67232500Y-122460000D03*
X67232500Y-122960000D03*
X67232500Y-123460000D03*
X67232500Y-123960000D03*
X67232500Y-124460000D03*
X67232500Y-124960000D03*
X67232500Y-125460000D03*
X67232500Y-125960000D03*
X67232500Y-126460000D03*
X67232500Y-126960000D03*
X67232500Y-127460000D03*
X67232500Y-127960000D03*
X67232500Y-128460000D03*
X67232500Y-128960000D03*
X67232500Y-129460000D03*
X67232500Y-129960000D03*
X67232500Y-130460000D03*
X67232500Y-130960000D03*
X67232500Y-131460000D03*
X67232500Y-131960000D03*
D45*
X69407500Y-134135000D03*
X69907500Y-134135000D03*
X70407500Y-134135000D03*
X70907500Y-134135000D03*
X71407500Y-134135000D03*
X71907500Y-134135000D03*
X72407500Y-134135000D03*
X72907500Y-134135000D03*
X73407500Y-134135000D03*
X73907500Y-134135000D03*
X74407500Y-134135000D03*
X74907500Y-134135000D03*
X75407500Y-134135000D03*
X75907500Y-134135000D03*
X76407500Y-134135000D03*
X76907500Y-134135000D03*
X77407500Y-134135000D03*
X77907500Y-134135000D03*
X78407500Y-134135000D03*
X78907500Y-134135000D03*
X79407500Y-134135000D03*
X79907500Y-134135000D03*
X80407500Y-134135000D03*
X80907500Y-134135000D03*
X81407500Y-134135000D03*
D44*
X83582500Y-131960000D03*
X83582500Y-131460000D03*
X83582500Y-130960000D03*
X83582500Y-130460000D03*
X83582500Y-129960000D03*
X83582500Y-129460000D03*
X83582500Y-128960000D03*
X83582500Y-128460000D03*
X83582500Y-127960000D03*
X83582500Y-127460000D03*
X83582500Y-126960000D03*
X83582500Y-126460000D03*
X83582500Y-125960000D03*
X83582500Y-125460000D03*
X83582500Y-124960000D03*
X83582500Y-124460000D03*
X83582500Y-123960000D03*
X83582500Y-123460000D03*
X83582500Y-122960000D03*
X83582500Y-122460000D03*
X83582500Y-121960000D03*
X83582500Y-121460000D03*
X83582500Y-120960000D03*
X83582500Y-120460000D03*
X83582500Y-119960000D03*
D45*
X81407500Y-117785000D03*
X80907500Y-117785000D03*
X80407500Y-117785000D03*
X79907500Y-117785000D03*
X79407500Y-117785000D03*
X78907500Y-117785000D03*
X78407500Y-117785000D03*
X77907500Y-117785000D03*
X77407500Y-117785000D03*
X76907500Y-117785000D03*
X76407500Y-117785000D03*
X75907500Y-117785000D03*
X75407500Y-117785000D03*
X74907500Y-117785000D03*
X74407500Y-117785000D03*
X73907500Y-117785000D03*
X73407500Y-117785000D03*
X72907500Y-117785000D03*
X72407500Y-117785000D03*
X71907500Y-117785000D03*
X71407500Y-117785000D03*
X70907500Y-117785000D03*
X70407500Y-117785000D03*
X69907500Y-117785000D03*
X69407500Y-117785000D03*
%TD*%
D12*
%TO.C,Q63*%
X66385313Y-43584999D03*
X68285313Y-43584999D03*
X67335313Y-40184999D03*
%TD*%
%TO.C,Q81*%
X160314999Y-126384998D03*
X162214999Y-126384998D03*
X161264999Y-122984998D03*
%TD*%
D35*
%TO.C,U5*%
X73185000Y-49897500D03*
X71915000Y-49897500D03*
X70645000Y-49897500D03*
X69375000Y-49897500D03*
X68105000Y-49897500D03*
X66835000Y-49897500D03*
X65565000Y-49897500D03*
X64295000Y-49897500D03*
X64295000Y-56822500D03*
X65565000Y-56822500D03*
X66835000Y-56822500D03*
X68105000Y-56822500D03*
X69375000Y-56822500D03*
X70645000Y-56822500D03*
X71915000Y-56822500D03*
X73185000Y-56822500D03*
%TD*%
D10*
%TO.C,R137*%
X204622972Y-44010000D03*
X204622972Y-40910000D03*
%TD*%
D12*
%TO.C,Q39*%
X136489649Y-43584999D03*
X138389649Y-43584999D03*
X137439649Y-40184999D03*
%TD*%
D10*
%TO.C,R440*%
X150665000Y-119835000D03*
X150665000Y-116735000D03*
%TD*%
D12*
%TO.C,Q46*%
X118963565Y-31184999D03*
X120863565Y-31184999D03*
X119913565Y-27784999D03*
%TD*%
D10*
%TO.C,R350*%
X180821500Y-72837064D03*
X180821500Y-69737064D03*
%TD*%
D13*
%TO.C,R387*%
X95721500Y-69737064D03*
X95721500Y-72837064D03*
%TD*%
%TO.C,R66*%
X212365000Y-146207500D03*
X212365000Y-149307500D03*
%TD*%
D28*
%TO.C,U23*%
X216590000Y-124765000D03*
X216590000Y-127105000D03*
D29*
X213727500Y-122360000D03*
X213727500Y-123010000D03*
X213727500Y-123660000D03*
X213727500Y-124310000D03*
X213727500Y-124960000D03*
X213727500Y-125610000D03*
X213727500Y-126260000D03*
X213727500Y-126910000D03*
X213727500Y-127560000D03*
X213727500Y-128210000D03*
X213727500Y-128860000D03*
X213727500Y-129510000D03*
X219452500Y-129510000D03*
X219452500Y-128860000D03*
X219452500Y-128210000D03*
X219452500Y-127560000D03*
X219452500Y-126910000D03*
X219452500Y-126260000D03*
X219452500Y-125610000D03*
X219452500Y-124960000D03*
X219452500Y-124310000D03*
X219452500Y-123660000D03*
X219452500Y-123010000D03*
X219452500Y-122360000D03*
%TD*%
D12*
%TO.C,Q40*%
X136489649Y-31184999D03*
X138389649Y-31184999D03*
X137439649Y-27784999D03*
%TD*%
D10*
%TO.C,R110*%
X227991084Y-37485000D03*
X227991084Y-34385000D03*
%TD*%
%TO.C,R411*%
X46888216Y-44010000D03*
X46888216Y-40910000D03*
%TD*%
D31*
%TO.C,C9*%
X49140000Y-129435000D03*
X52265000Y-129435000D03*
%TD*%
D13*
%TO.C,R347*%
X187721500Y-69737064D03*
X187721500Y-72837064D03*
%TD*%
D39*
%TO.C,R459*%
X68515000Y-100810000D03*
X71615000Y-100810000D03*
%TD*%
D10*
%TO.C,R182*%
X172321537Y-37485000D03*
X172321537Y-34385000D03*
%TD*%
D15*
%TO.C,C79*%
X239690000Y-119922500D03*
X239690000Y-123047500D03*
%TD*%
D10*
%TO.C,R68*%
X216165000Y-149307500D03*
X216165000Y-146207500D03*
%TD*%
D12*
%TO.C,Q14*%
X212436013Y-31184999D03*
X214336013Y-31184999D03*
X213386013Y-27784999D03*
%TD*%
D10*
%TO.C,R270*%
X93624440Y-44010000D03*
X93624440Y-40910000D03*
%TD*%
D11*
%TO.C,R14*%
X25990000Y-133510000D03*
X22890000Y-133510000D03*
%TD*%
D10*
%TO.C,R187*%
X163728776Y-37485000D03*
X163728776Y-34385000D03*
%TD*%
%TO.C,R256*%
X105308496Y-44010000D03*
X105308496Y-40910000D03*
%TD*%
D16*
%TO.C,U29*%
X229315000Y-108295000D03*
X229315000Y-108945000D03*
X229315000Y-109595000D03*
X229315000Y-110245000D03*
X229315000Y-110895000D03*
X229315000Y-111545000D03*
X229315000Y-112195000D03*
X229315000Y-112845000D03*
X235040000Y-112845000D03*
X235040000Y-112195000D03*
X235040000Y-111545000D03*
X235040000Y-110895000D03*
X235040000Y-110245000D03*
X235040000Y-109595000D03*
X235040000Y-108945000D03*
X235040000Y-108295000D03*
%TD*%
D12*
%TO.C,Q52*%
X101437481Y-31184999D03*
X103337481Y-31184999D03*
X102387481Y-27784999D03*
%TD*%
D10*
%TO.C,R238*%
X125643281Y-37485000D03*
X125643281Y-34385000D03*
%TD*%
D12*
%TO.C,Q4*%
X127164999Y-139884999D03*
X129064999Y-139884999D03*
X128114999Y-136484999D03*
%TD*%
D10*
%TO.C,R263*%
X99466468Y-44010000D03*
X99466468Y-40910000D03*
%TD*%
%TO.C,R271*%
X93624440Y-37485000D03*
X93624440Y-34385000D03*
%TD*%
D18*
%TO.C,D27*%
X215965000Y-141032500D03*
X215965000Y-144007500D03*
%TD*%
D12*
%TO.C,Q41*%
X130647621Y-43584999D03*
X132547621Y-43584999D03*
X131597621Y-40184999D03*
%TD*%
D13*
%TO.C,R349*%
X183121500Y-69737064D03*
X183121500Y-72837064D03*
%TD*%
D10*
%TO.C,R172*%
X175412832Y-44010000D03*
X175412832Y-40910000D03*
%TD*%
%TO.C,R102*%
X233815000Y-44010000D03*
X233815000Y-40910000D03*
%TD*%
%TO.C,R125*%
X216307028Y-31985000D03*
X216307028Y-28885000D03*
%TD*%
D18*
%TO.C,R13*%
X57695000Y-105572500D03*
X57695000Y-108547500D03*
%TD*%
D46*
%TO.C,X1*%
X43539999Y-118429999D03*
X43539999Y-123509999D03*
X47939999Y-123509999D03*
X47939999Y-118429999D03*
%TD*%
D12*
%TO.C,Q38*%
X142331677Y-31184999D03*
X144231677Y-31184999D03*
X143281677Y-27784999D03*
%TD*%
D47*
%TO.C,SW1*%
X35139999Y-141729999D03*
X35139999Y-146229999D03*
X43339999Y-141729999D03*
X43339999Y-146229999D03*
%TD*%
D13*
%TO.C,R333*%
X220021500Y-69737064D03*
X220021500Y-72837064D03*
%TD*%
D12*
%TO.C,Q33*%
X154015733Y-43584999D03*
X155915733Y-43584999D03*
X154965733Y-40184999D03*
%TD*%
D10*
%TO.C,R244*%
X116992552Y-31985000D03*
X116992552Y-28885000D03*
%TD*%
D13*
%TO.C,R357*%
X164721500Y-69737064D03*
X164721500Y-72837064D03*
%TD*%
D10*
%TO.C,R210*%
X148982409Y-37485000D03*
X148982409Y-34385000D03*
%TD*%
%TO.C,R338*%
X208421500Y-72837064D03*
X208421500Y-69737064D03*
%TD*%
%TO.C,R223*%
X134518636Y-31985000D03*
X134518636Y-28885000D03*
%TD*%
D12*
%TO.C,Q16*%
X206593985Y-31184999D03*
X208493985Y-31184999D03*
X207543985Y-27784999D03*
%TD*%
%TO.C,Q5*%
X235804159Y-43584999D03*
X237704159Y-43584999D03*
X236754159Y-40184999D03*
%TD*%
%TO.C,Q27*%
X171541817Y-43584999D03*
X173441817Y-43584999D03*
X172491817Y-40184999D03*
%TD*%
D11*
%TO.C,R67*%
X223515000Y-149057500D03*
X220415000Y-149057500D03*
%TD*%
D48*
%TO.C,U35*%
X117670000Y-101610000D03*
D49*
X116915000Y-106235000D03*
X113865000Y-106235000D03*
X116915000Y-109585000D03*
X113865000Y-109585000D03*
D48*
X113110000Y-101610000D03*
%TD*%
D13*
%TO.C,R7*%
X131590000Y-54110000D03*
X131590000Y-57210000D03*
%TD*%
%TO.C,R9*%
X61765000Y-54285000D03*
X61765000Y-57385000D03*
%TD*%
D25*
%TO.C,C14*%
X85965000Y-137347500D03*
X85965000Y-134222500D03*
%TD*%
D12*
%TO.C,Q50*%
X107279509Y-31184999D03*
X109179509Y-31184999D03*
X108229509Y-27784999D03*
%TD*%
D10*
%TO.C,R221*%
X134518636Y-44010000D03*
X134518636Y-40910000D03*
%TD*%
D11*
%TO.C,R391*%
X81715000Y-72834999D03*
X78615000Y-72834999D03*
%TD*%
D10*
%TO.C,R412*%
X46888216Y-37485000D03*
X46888216Y-34385000D03*
%TD*%
D16*
%TO.C,U28*%
X213727500Y-108295000D03*
X213727500Y-108945000D03*
X213727500Y-109595000D03*
X213727500Y-110245000D03*
X213727500Y-110895000D03*
X213727500Y-111545000D03*
X213727500Y-112195000D03*
X213727500Y-112845000D03*
X219452500Y-112845000D03*
X219452500Y-112195000D03*
X219452500Y-111545000D03*
X219452500Y-110895000D03*
X219452500Y-110245000D03*
X219452500Y-109595000D03*
X219452500Y-108945000D03*
X219452500Y-108295000D03*
%TD*%
D12*
%TO.C,Q9*%
X224120069Y-43584999D03*
X226020069Y-43584999D03*
X225070069Y-40184999D03*
%TD*%
D10*
%TO.C,R209*%
X146202692Y-31985000D03*
X146202692Y-28885000D03*
%TD*%
D39*
%TO.C,R457*%
X101890000Y-140010000D03*
X104990000Y-140010000D03*
%TD*%
D10*
%TO.C,R364*%
X148621500Y-72837064D03*
X148621500Y-69737064D03*
%TD*%
%TO.C,R186*%
X163728776Y-44010000D03*
X163728776Y-40910000D03*
%TD*%
M02*
