%TF.GenerationSoftware,KiCad,Pcbnew,(7.0.0)*%
%TF.CreationDate,2024-10-14T13:46:47+03:30*%
%TF.ProjectId,tester,74657374-6572-42e6-9b69-6361645f7063,rev?*%
%TF.SameCoordinates,Original*%
%TF.FileFunction,Soldermask,Bot*%
%TF.FilePolarity,Negative*%
%FSLAX46Y46*%
G04 Gerber Fmt 4.6, Leading zero omitted, Abs format (unit mm)*
G04 Created by KiCad (PCBNEW (7.0.0)) date 2024-10-14 13:46:47*
%MOMM*%
%LPD*%
G01*
G04 APERTURE LIST*
G04 Aperture macros list*
%AMRoundRect*
0 Rectangle with rounded corners*
0 $1 Rounding radius*
0 $2 $3 $4 $5 $6 $7 $8 $9 X,Y pos of 4 corners*
0 Add a 4 corners polygon primitive as box body*
4,1,4,$2,$3,$4,$5,$6,$7,$8,$9,$2,$3,0*
0 Add four circle primitives for the rounded corners*
1,1,$1+$1,$2,$3*
1,1,$1+$1,$4,$5*
1,1,$1+$1,$6,$7*
1,1,$1+$1,$8,$9*
0 Add four rect primitives between the rounded corners*
20,1,$1+$1,$2,$3,$4,$5,0*
20,1,$1+$1,$4,$5,$6,$7,0*
20,1,$1+$1,$6,$7,$8,$9,0*
20,1,$1+$1,$8,$9,$2,$3,0*%
G04 Aperture macros list end*
%ADD10C,0.800000*%
%ADD11C,7.000000*%
%ADD12R,1.300000X0.300000*%
%ADD13R,2.200000X4.000000*%
%ADD14RoundRect,0.250000X-0.600000X-0.600000X0.600000X-0.600000X0.600000X0.600000X-0.600000X0.600000X0*%
%ADD15C,1.700000*%
%ADD16C,8.000000*%
%ADD17R,1.000000X1.000000*%
%ADD18C,0.900000*%
%ADD19C,8.600000*%
%ADD20R,1.700000X1.700000*%
%ADD21O,1.700000X1.700000*%
%ADD22RoundRect,0.250000X-0.725000X0.600000X-0.725000X-0.600000X0.725000X-0.600000X0.725000X0.600000X0*%
%ADD23O,1.950000X1.700000*%
%ADD24R,1.600000X1.600000*%
%ADD25C,1.600000*%
%ADD26R,2.000000X2.000000*%
%ADD27C,2.000000*%
%ADD28RoundRect,0.250000X0.600000X0.600000X-0.600000X0.600000X-0.600000X-0.600000X0.600000X-0.600000X0*%
%ADD29RoundRect,0.250000X-0.600000X0.600000X-0.600000X-0.600000X0.600000X-0.600000X0.600000X0.600000X0*%
%ADD30RoundRect,0.250000X0.600000X0.725000X-0.600000X0.725000X-0.600000X-0.725000X0.600000X-0.725000X0*%
%ADD31O,1.700000X1.950000*%
%ADD32RoundRect,0.250000X0.625000X-0.400000X0.625000X0.400000X-0.625000X0.400000X-0.625000X-0.400000X0*%
%ADD33RoundRect,0.250000X0.412500X0.650000X-0.412500X0.650000X-0.412500X-0.650000X0.412500X-0.650000X0*%
%ADD34RoundRect,0.250000X-0.650000X0.412500X-0.650000X-0.412500X0.650000X-0.412500X0.650000X0.412500X0*%
%ADD35RoundRect,0.250000X-0.900000X1.500000X-0.900000X-1.500000X0.900000X-1.500000X0.900000X1.500000X0*%
%ADD36RoundRect,0.250000X0.400000X0.625000X-0.400000X0.625000X-0.400000X-0.625000X0.400000X-0.625000X0*%
%ADD37RoundRect,0.250000X0.650000X-0.412500X0.650000X0.412500X-0.650000X0.412500X-0.650000X-0.412500X0*%
%ADD38RoundRect,0.250000X-0.412500X-0.650000X0.412500X-0.650000X0.412500X0.650000X-0.412500X0.650000X0*%
%ADD39RoundRect,0.250000X-0.625000X0.400000X-0.625000X-0.400000X0.625000X-0.400000X0.625000X0.400000X0*%
%ADD40RoundRect,0.250000X-0.400000X-0.625000X0.400000X-0.625000X0.400000X0.625000X-0.400000X0.625000X0*%
%ADD41RoundRect,0.250001X-0.624999X0.462499X-0.624999X-0.462499X0.624999X-0.462499X0.624999X0.462499X0*%
%ADD42O,1.524000X3.000000*%
G04 APERTURE END LIST*
D10*
%TO.C,H2*%
X245935000Y-88565000D03*
X247791155Y-89333845D03*
X244078845Y-89333845D03*
X248560000Y-91190000D03*
D11*
X245935000Y-91190000D03*
D10*
X243310000Y-91190000D03*
X247791155Y-93046155D03*
X244078845Y-93046155D03*
X245935000Y-93815000D03*
%TD*%
%TO.C,H1*%
X267560000Y-88560000D03*
X269416155Y-89328845D03*
X265703845Y-89328845D03*
X270185000Y-91185000D03*
D11*
X267560000Y-91185000D03*
D10*
X264935000Y-91185000D03*
X269416155Y-93041155D03*
X265703845Y-93041155D03*
X267560000Y-93810000D03*
%TD*%
%TO.C,H3*%
X267560000Y-154680000D03*
X269416155Y-155448845D03*
X265703845Y-155448845D03*
X270185000Y-157305000D03*
D11*
X267560000Y-157305000D03*
D10*
X264935000Y-157305000D03*
X269416155Y-159161155D03*
X265703845Y-159161155D03*
X267560000Y-159930000D03*
%TD*%
%TO.C,H4*%
X245935000Y-154705000D03*
X247791155Y-155473845D03*
X244078845Y-155473845D03*
X248560000Y-157330000D03*
D11*
X245935000Y-157330000D03*
D10*
X243310000Y-157330000D03*
X247791155Y-159186155D03*
X244078845Y-159186155D03*
X245935000Y-159955000D03*
%TD*%
D12*
%TO.C,J2*%
X248639999Y-133899999D03*
X248639999Y-133399999D03*
X248639999Y-132899999D03*
X248639999Y-132399999D03*
X248639999Y-131899999D03*
X248639999Y-131399999D03*
X248639999Y-130899999D03*
X248639999Y-130399999D03*
X248639999Y-129899999D03*
X248639999Y-129399999D03*
X248639999Y-128899999D03*
X248639999Y-128399999D03*
X248639999Y-127899999D03*
X248639999Y-127399999D03*
X248639999Y-126899999D03*
X248639999Y-126399999D03*
X248639999Y-125899999D03*
X248639999Y-125399999D03*
X248639999Y-124899999D03*
X248639999Y-124399999D03*
X248639999Y-123899999D03*
X248639999Y-123399999D03*
X248639999Y-122899999D03*
X248639999Y-122399999D03*
X248639999Y-121899999D03*
X248639999Y-121399999D03*
X248639999Y-120899999D03*
X248639999Y-120399999D03*
X248639999Y-119899999D03*
X248639999Y-119399999D03*
X248639999Y-118899999D03*
X248639999Y-118399999D03*
X248639999Y-117899999D03*
X248639999Y-117399999D03*
X248639999Y-116899999D03*
X248639999Y-116399999D03*
X248639999Y-115899999D03*
X248639999Y-115399999D03*
X248639999Y-114899999D03*
X248639999Y-114399999D03*
D13*
X245419999Y-136619999D03*
X245419999Y-111679999D03*
%TD*%
D14*
%TO.C,J1*%
X257100000Y-148570000D03*
D15*
X259640000Y-148570000D03*
X257100000Y-146030000D03*
X259640000Y-146030000D03*
X257100000Y-143490000D03*
X259640000Y-143490000D03*
X257100000Y-140950000D03*
X259640000Y-140950000D03*
X257100000Y-138410000D03*
X259640000Y-138410000D03*
X257100000Y-135870000D03*
X259640000Y-135870000D03*
X257100000Y-133330000D03*
X259640000Y-133330000D03*
X257100000Y-130790000D03*
X259640000Y-130790000D03*
X257100000Y-128250000D03*
X259640000Y-128250000D03*
X257100000Y-125710000D03*
X259640000Y-125710000D03*
X257100000Y-123170000D03*
X259640000Y-123170000D03*
X257100000Y-120630000D03*
X259640000Y-120630000D03*
X257100000Y-118090000D03*
X259640000Y-118090000D03*
X257100000Y-115550000D03*
X259640000Y-115550000D03*
X257100000Y-113010000D03*
X259640000Y-113010000D03*
X257100000Y-110470000D03*
X259640000Y-110470000D03*
X257100000Y-107930000D03*
X259640000Y-107930000D03*
X257100000Y-105390000D03*
X259640000Y-105390000D03*
X257100000Y-102850000D03*
X259640000Y-102850000D03*
X257100000Y-100310000D03*
X259640000Y-100310000D03*
D16*
X258120000Y-91370000D03*
X258120000Y-157510000D03*
%TD*%
D10*
%TO.C,H2*%
X245935000Y-11245000D03*
X247791155Y-12013845D03*
X244078845Y-12013845D03*
X248560000Y-13870000D03*
D11*
X245935000Y-13870000D03*
D10*
X243310000Y-13870000D03*
X247791155Y-15726155D03*
X244078845Y-15726155D03*
X245935000Y-16495000D03*
%TD*%
%TO.C,H1*%
X267560000Y-11240000D03*
X269416155Y-12008845D03*
X265703845Y-12008845D03*
X270185000Y-13865000D03*
D11*
X267560000Y-13865000D03*
D10*
X264935000Y-13865000D03*
X269416155Y-15721155D03*
X265703845Y-15721155D03*
X267560000Y-16490000D03*
%TD*%
%TO.C,H3*%
X267560000Y-77360000D03*
X269416155Y-78128845D03*
X265703845Y-78128845D03*
X270185000Y-79985000D03*
D11*
X267560000Y-79985000D03*
D10*
X264935000Y-79985000D03*
X269416155Y-81841155D03*
X265703845Y-81841155D03*
X267560000Y-82610000D03*
%TD*%
%TO.C,H4*%
X245935000Y-77385000D03*
X247791155Y-78153845D03*
X244078845Y-78153845D03*
X248560000Y-80010000D03*
D11*
X245935000Y-80010000D03*
D10*
X243310000Y-80010000D03*
X247791155Y-81866155D03*
X244078845Y-81866155D03*
X245935000Y-82635000D03*
%TD*%
D12*
%TO.C,J2*%
X248639999Y-56579999D03*
X248639999Y-56079999D03*
X248639999Y-55579999D03*
X248639999Y-55079999D03*
X248639999Y-54579999D03*
X248639999Y-54079999D03*
X248639999Y-53579999D03*
X248639999Y-53079999D03*
X248639999Y-52579999D03*
X248639999Y-52079999D03*
X248639999Y-51579999D03*
X248639999Y-51079999D03*
X248639999Y-50579999D03*
X248639999Y-50079999D03*
X248639999Y-49579999D03*
X248639999Y-49079999D03*
X248639999Y-48579999D03*
X248639999Y-48079999D03*
X248639999Y-47579999D03*
X248639999Y-47079999D03*
X248639999Y-46579999D03*
X248639999Y-46079999D03*
X248639999Y-45579999D03*
X248639999Y-45079999D03*
X248639999Y-44579999D03*
X248639999Y-44079999D03*
X248639999Y-43579999D03*
X248639999Y-43079999D03*
X248639999Y-42579999D03*
X248639999Y-42079999D03*
X248639999Y-41579999D03*
X248639999Y-41079999D03*
X248639999Y-40579999D03*
X248639999Y-40079999D03*
X248639999Y-39579999D03*
X248639999Y-39079999D03*
X248639999Y-38579999D03*
X248639999Y-38079999D03*
X248639999Y-37579999D03*
X248639999Y-37079999D03*
D13*
X245419999Y-59299999D03*
X245419999Y-34359999D03*
%TD*%
D14*
%TO.C,J1*%
X257100000Y-71250000D03*
D15*
X259640000Y-71250000D03*
X257100000Y-68710000D03*
X259640000Y-68710000D03*
X257100000Y-66170000D03*
X259640000Y-66170000D03*
X257100000Y-63630000D03*
X259640000Y-63630000D03*
X257100000Y-61090000D03*
X259640000Y-61090000D03*
X257100000Y-58550000D03*
X259640000Y-58550000D03*
X257100000Y-56010000D03*
X259640000Y-56010000D03*
X257100000Y-53470000D03*
X259640000Y-53470000D03*
X257100000Y-50930000D03*
X259640000Y-50930000D03*
X257100000Y-48390000D03*
X259640000Y-48390000D03*
X257100000Y-45850000D03*
X259640000Y-45850000D03*
X257100000Y-43310000D03*
X259640000Y-43310000D03*
X257100000Y-40770000D03*
X259640000Y-40770000D03*
X257100000Y-38230000D03*
X259640000Y-38230000D03*
X257100000Y-35690000D03*
X259640000Y-35690000D03*
X257100000Y-33150000D03*
X259640000Y-33150000D03*
X257100000Y-30610000D03*
X259640000Y-30610000D03*
X257100000Y-28070000D03*
X259640000Y-28070000D03*
X257100000Y-25530000D03*
X259640000Y-25530000D03*
X257100000Y-22990000D03*
X259640000Y-22990000D03*
D16*
X258120000Y-14050000D03*
X258120000Y-80190000D03*
%TD*%
D17*
%TO.C,TP3*%
X239764999Y-125434999D03*
%TD*%
D18*
%TO.C,H2*%
X232775000Y-155755000D03*
X233719581Y-153474581D03*
X233719581Y-158035419D03*
X236000000Y-152530000D03*
D19*
X236000000Y-155755000D03*
D18*
X236000000Y-158980000D03*
X238280419Y-153474581D03*
X238280419Y-158035419D03*
X239225000Y-155755000D03*
%TD*%
D20*
%TO.C,J37*%
X63764999Y-100684999D03*
D21*
X63764999Y-103224999D03*
%TD*%
D17*
%TO.C,TP2*%
X222089999Y-127159999D03*
%TD*%
%TO.C,TP6*%
X204839999Y-126884999D03*
%TD*%
D22*
%TO.C,J3*%
X24540000Y-103360000D03*
D23*
X24539999Y-105859999D03*
X24539999Y-108359999D03*
X24539999Y-110859999D03*
X24539999Y-113359999D03*
X24539999Y-115859999D03*
X24539999Y-118359999D03*
X24539999Y-120859999D03*
%TD*%
D20*
%TO.C,J2*%
X197194999Y-54309999D03*
D21*
X197194999Y-56849999D03*
X194654999Y-54309999D03*
X194654999Y-56849999D03*
X192114999Y-54309999D03*
X192114999Y-56849999D03*
X189574999Y-54309999D03*
X189574999Y-56849999D03*
X187034999Y-54309999D03*
X187034999Y-56849999D03*
X184494999Y-54309999D03*
X184494999Y-56849999D03*
X181954999Y-54309999D03*
X181954999Y-56849999D03*
X179414999Y-54309999D03*
X179414999Y-56849999D03*
X176874999Y-54309999D03*
X176874999Y-56849999D03*
X174334999Y-54309999D03*
X174334999Y-56849999D03*
X171794999Y-54309999D03*
X171794999Y-56849999D03*
X169254999Y-54309999D03*
X169254999Y-56849999D03*
X166714999Y-54309999D03*
X166714999Y-56849999D03*
X164174999Y-54309999D03*
X164174999Y-56849999D03*
X161634999Y-54309999D03*
X161634999Y-56849999D03*
X159094999Y-54309999D03*
X159094999Y-56849999D03*
X156554999Y-54309999D03*
X156554999Y-56849999D03*
X154014999Y-54309999D03*
X154014999Y-56849999D03*
X151474999Y-54309999D03*
X151474999Y-56849999D03*
X148934999Y-54309999D03*
X148934999Y-56849999D03*
%TD*%
D24*
%TO.C,C124*%
X121869999Y-109209999D03*
D25*
X123870000Y-109210000D03*
%TD*%
D20*
%TO.C,J21*%
X217834999Y-94984999D03*
D21*
X217834999Y-97524999D03*
X215294999Y-94984999D03*
X215294999Y-97524999D03*
X212754999Y-94984999D03*
X212754999Y-97524999D03*
X210214999Y-94984999D03*
X210214999Y-97524999D03*
X207674999Y-94984999D03*
X207674999Y-97524999D03*
X205134999Y-94984999D03*
X205134999Y-97524999D03*
X202594999Y-94984999D03*
X202594999Y-97524999D03*
X200054999Y-94984999D03*
X200054999Y-97524999D03*
X197514999Y-94984999D03*
X197514999Y-97524999D03*
X194974999Y-94984999D03*
X194974999Y-97524999D03*
X192434999Y-94984999D03*
X192434999Y-97524999D03*
X189894999Y-94984999D03*
X189894999Y-97524999D03*
X187354999Y-94984999D03*
X187354999Y-97524999D03*
X184814999Y-94984999D03*
X184814999Y-97524999D03*
X182274999Y-94984999D03*
X182274999Y-97524999D03*
%TD*%
D17*
%TO.C,TP4*%
X239789999Y-127459999D03*
%TD*%
%TO.C,TP5*%
X206839999Y-126884999D03*
%TD*%
D26*
%TO.C,U9*%
X31319999Y-145089999D03*
D27*
X23720000Y-145090000D03*
%TD*%
D18*
%TO.C,H4*%
X137815000Y-15060000D03*
X138759581Y-12779581D03*
X138759581Y-17340419D03*
X141040000Y-11835000D03*
D19*
X141040000Y-15060000D03*
D18*
X141040000Y-18285000D03*
X143320419Y-12779581D03*
X143320419Y-17340419D03*
X144265000Y-15060000D03*
%TD*%
D24*
%TO.C,C127*%
X109569999Y-102909999D03*
D25*
X107570000Y-102910000D03*
%TD*%
D20*
%TO.C,J36*%
X197324999Y-13284999D03*
D21*
X197324999Y-15824999D03*
X194784999Y-13284999D03*
X194784999Y-15824999D03*
X192244999Y-13284999D03*
X192244999Y-15824999D03*
X189704999Y-13284999D03*
X189704999Y-15824999D03*
X187164999Y-13284999D03*
X187164999Y-15824999D03*
X184624999Y-13284999D03*
X184624999Y-15824999D03*
X182084999Y-13284999D03*
X182084999Y-15824999D03*
X179544999Y-13284999D03*
X179544999Y-15824999D03*
X177004999Y-13284999D03*
X177004999Y-15824999D03*
X174464999Y-13284999D03*
X174464999Y-15824999D03*
X171924999Y-13284999D03*
X171924999Y-15824999D03*
X169384999Y-13284999D03*
X169384999Y-15824999D03*
X166844999Y-13284999D03*
X166844999Y-15824999D03*
X164304999Y-13284999D03*
X164304999Y-15824999D03*
X161764999Y-13284999D03*
X161764999Y-15824999D03*
X159224999Y-13284999D03*
X159224999Y-15824999D03*
X156684999Y-13284999D03*
X156684999Y-15824999D03*
X154144999Y-13284999D03*
X154144999Y-15824999D03*
X151604999Y-13284999D03*
X151604999Y-15824999D03*
X149064999Y-13284999D03*
X149064999Y-15824999D03*
%TD*%
D17*
%TO.C,TP1*%
X225164999Y-125384999D03*
%TD*%
D28*
%TO.C,J20*%
X26920000Y-87585000D03*
D15*
X24380000Y-87585000D03*
X26920000Y-85045000D03*
X24380000Y-85045000D03*
X26920000Y-82505000D03*
X24380000Y-82505000D03*
X26920000Y-79965000D03*
X24380000Y-79965000D03*
X26920000Y-77425000D03*
X24380000Y-77425000D03*
X26920000Y-74885000D03*
X24380000Y-74885000D03*
X26920000Y-72345000D03*
X24380000Y-72345000D03*
X26920000Y-69805000D03*
X24380000Y-69805000D03*
X26920000Y-67265000D03*
X24380000Y-67265000D03*
X26920000Y-64725000D03*
X24380000Y-64725000D03*
%TD*%
D18*
%TO.C,H5*%
X22815000Y-156060000D03*
X23759581Y-153779581D03*
X23759581Y-158340419D03*
X26040000Y-152835000D03*
D19*
X26040000Y-156060000D03*
D18*
X26040000Y-159285000D03*
X28320419Y-153779581D03*
X28320419Y-158340419D03*
X29265000Y-156060000D03*
%TD*%
D20*
%TO.C,J38*%
X96789999Y-100734999D03*
D21*
X96789999Y-103274999D03*
%TD*%
D18*
%TO.C,H6*%
X137815000Y-156060000D03*
X138759581Y-153779581D03*
X138759581Y-158340419D03*
X141040000Y-152835000D03*
D19*
X141040000Y-156060000D03*
D18*
X141040000Y-159285000D03*
X143320419Y-153779581D03*
X143320419Y-158340419D03*
X144265000Y-156060000D03*
%TD*%
%TO.C,H3*%
X22815000Y-15060000D03*
X23759581Y-12779581D03*
X23759581Y-17340419D03*
X26040000Y-11835000D03*
D19*
X26040000Y-15060000D03*
D18*
X26040000Y-18285000D03*
X28320419Y-12779581D03*
X28320419Y-17340419D03*
X29265000Y-15060000D03*
%TD*%
%TO.C,H1*%
X232815000Y-15060000D03*
X233759581Y-12779581D03*
X233759581Y-17340419D03*
X236040000Y-11835000D03*
D19*
X236040000Y-15060000D03*
D18*
X236040000Y-18285000D03*
X238320419Y-12779581D03*
X238320419Y-17340419D03*
X239265000Y-15060000D03*
%TD*%
D20*
%TO.C,J39*%
X40864999Y-129359999D03*
D21*
X40864999Y-131899999D03*
%TD*%
D29*
%TO.C,J24*%
X200480000Y-154895000D03*
D15*
X200480000Y-157435000D03*
X197940000Y-154895000D03*
X197940000Y-157435000D03*
X195400000Y-154895000D03*
X195400000Y-157435000D03*
X192860000Y-154895000D03*
X192860000Y-157435000D03*
X190320000Y-154895000D03*
X190320000Y-157435000D03*
D16*
X209420000Y-155915000D03*
X181380000Y-155915000D03*
%TD*%
D20*
%TO.C,J14*%
X238539999Y-81059999D03*
D21*
X235999999Y-81059999D03*
X238539999Y-78519999D03*
X235999999Y-78519999D03*
%TD*%
D29*
%TO.C,J22*%
X96500000Y-154520000D03*
D15*
X96500000Y-157060000D03*
X93960000Y-154520000D03*
X93960000Y-157060000D03*
X91420000Y-154520000D03*
X91420000Y-157060000D03*
X88880000Y-154520000D03*
X88880000Y-157060000D03*
X86340000Y-154520000D03*
X86340000Y-157060000D03*
X83800000Y-154520000D03*
X83800000Y-157060000D03*
X81260000Y-154520000D03*
X81260000Y-157060000D03*
X78720000Y-154520000D03*
X78720000Y-157060000D03*
X76180000Y-154520000D03*
X76180000Y-157060000D03*
X73640000Y-154520000D03*
X73640000Y-157060000D03*
X71100000Y-154520000D03*
X71100000Y-157060000D03*
X68560000Y-154520000D03*
X68560000Y-157060000D03*
X66020000Y-154520000D03*
X66020000Y-157060000D03*
X63480000Y-154520000D03*
X63480000Y-157060000D03*
X60940000Y-154520000D03*
X60940000Y-157060000D03*
X58400000Y-154520000D03*
X58400000Y-157060000D03*
X55860000Y-154520000D03*
X55860000Y-157060000D03*
X53320000Y-154520000D03*
X53320000Y-157060000D03*
X50780000Y-154520000D03*
X50780000Y-157060000D03*
X48240000Y-154520000D03*
X48240000Y-157060000D03*
D16*
X105440000Y-155540000D03*
X39300000Y-155540000D03*
%TD*%
D30*
%TO.C,J23*%
X126140000Y-155760000D03*
D31*
X123639999Y-155759999D03*
X121139999Y-155759999D03*
X118639999Y-155759999D03*
%TD*%
D32*
%TO.C,R129*%
X219228042Y-31135000D03*
X219228042Y-28035000D03*
%TD*%
%TO.C,R97*%
X192277500Y-112800000D03*
X192277500Y-109700000D03*
%TD*%
D33*
%TO.C,C16*%
X81140000Y-129960000D03*
X78015000Y-129960000D03*
%TD*%
D34*
%TO.C,C22*%
X40240000Y-143147500D03*
X40240000Y-146272500D03*
%TD*%
D32*
%TO.C,R309*%
X67335314Y-41770280D03*
X67335314Y-38670280D03*
%TD*%
D20*
%TO.C,J29*%
X151039999Y-94059999D03*
D21*
X148499999Y-94059999D03*
X151039999Y-96599999D03*
X148499999Y-96599999D03*
%TD*%
D34*
%TO.C,C99*%
X201521500Y-69754564D03*
X201521500Y-72879564D03*
%TD*%
D35*
%TO.C,D37*%
X123140000Y-143572500D03*
X123140000Y-148972500D03*
%TD*%
D32*
%TO.C,R262*%
X108229510Y-31135000D03*
X108229510Y-28035000D03*
%TD*%
%TO.C,R241*%
X125755594Y-31135000D03*
X125755594Y-28035000D03*
%TD*%
%TO.C,R260*%
X108229510Y-41770280D03*
X108229510Y-38670280D03*
%TD*%
D36*
%TO.C,R409*%
X42190000Y-68485000D03*
X39090000Y-68485000D03*
%TD*%
D32*
%TO.C,R311*%
X67335314Y-31135000D03*
X67335314Y-28035000D03*
%TD*%
D37*
%TO.C,C88*%
X220515000Y-82397500D03*
X220515000Y-79272500D03*
%TD*%
D34*
%TO.C,C115*%
X127921500Y-69724564D03*
X127921500Y-72849564D03*
%TD*%
D35*
%TO.C,D32*%
X202945000Y-141057500D03*
X202945000Y-146457500D03*
%TD*%
D36*
%TO.C,R395*%
X80515000Y-68935000D03*
X77415000Y-68935000D03*
%TD*%
%TO.C,R408*%
X47890000Y-68384999D03*
X44790000Y-68384999D03*
%TD*%
D32*
%TO.C,R317*%
X61493286Y-36452640D03*
X61493286Y-33352640D03*
%TD*%
D34*
%TO.C,C98*%
X206121500Y-69754564D03*
X206121500Y-72879564D03*
%TD*%
D38*
%TO.C,C63*%
X190152500Y-143485000D03*
X193277500Y-143485000D03*
%TD*%
%TO.C,C86*%
X234877500Y-105885000D03*
X238002500Y-105885000D03*
%TD*%
%TO.C,C125*%
X121207500Y-106510000D03*
X124332500Y-106510000D03*
%TD*%
D34*
%TO.C,C97*%
X210721500Y-69754564D03*
X210721500Y-72879564D03*
%TD*%
D32*
%TO.C,R96*%
X226515000Y-112710000D03*
X226515000Y-109610000D03*
%TD*%
%TO.C,R219*%
X143281678Y-36452640D03*
X143281678Y-33352640D03*
%TD*%
D39*
%TO.C,R59*%
X177765000Y-142495000D03*
X177765000Y-145595000D03*
%TD*%
D32*
%TO.C,R438*%
X161964999Y-113435000D03*
X161964999Y-110335000D03*
%TD*%
D34*
%TO.C,C119*%
X109521500Y-69724564D03*
X109521500Y-72849564D03*
%TD*%
D32*
%TO.C,R274*%
X96545454Y-41770280D03*
X96545454Y-38670280D03*
%TD*%
%TO.C,R281*%
X90703426Y-41770280D03*
X90703426Y-38670280D03*
%TD*%
%TO.C,R107*%
X236740000Y-36335000D03*
X236740000Y-33235000D03*
%TD*%
%TO.C,R416*%
X49809230Y-36452640D03*
X49809230Y-33352640D03*
%TD*%
D37*
%TO.C,C67*%
X134290000Y-123972500D03*
X134290000Y-120847500D03*
%TD*%
D32*
%TO.C,R204*%
X154965734Y-41770280D03*
X154965734Y-38670280D03*
%TD*%
D34*
%TO.C,C107*%
X164721500Y-69724564D03*
X164721500Y-72849564D03*
%TD*%
D32*
%TO.C,R289*%
X84861398Y-36452640D03*
X84861398Y-33352640D03*
%TD*%
%TO.C,R310*%
X67335314Y-36452640D03*
X67335314Y-33352640D03*
%TD*%
%TO.C,R290*%
X84861398Y-31135000D03*
X84861398Y-28035000D03*
%TD*%
%TO.C,R431*%
X38125174Y-31135000D03*
X38125174Y-28035000D03*
%TD*%
%TO.C,R121*%
X225070070Y-36452640D03*
X225070070Y-33352640D03*
%TD*%
D36*
%TO.C,R396*%
X75315000Y-68935000D03*
X72215000Y-68935000D03*
%TD*%
D39*
%TO.C,R62*%
X181565000Y-142395000D03*
X181565000Y-145495000D03*
%TD*%
D32*
%TO.C,R303*%
X73177342Y-36452640D03*
X73177342Y-33352640D03*
%TD*%
%TO.C,R275*%
X96545454Y-36452640D03*
X96545454Y-33352640D03*
%TD*%
%TO.C,R234*%
X131597622Y-31135000D03*
X131597622Y-28035000D03*
%TD*%
%TO.C,R171*%
X184175874Y-31135000D03*
X184175874Y-28035000D03*
%TD*%
D34*
%TO.C,C114*%
X132521500Y-69724564D03*
X132521500Y-72849564D03*
%TD*%
D32*
%TO.C,R148*%
X201701958Y-41770280D03*
X201701958Y-38670280D03*
%TD*%
%TO.C,R227*%
X137439650Y-31135000D03*
X137439650Y-28035000D03*
%TD*%
D39*
%TO.C,R100*%
X156440000Y-79635000D03*
X156440000Y-82735000D03*
%TD*%
D32*
%TO.C,R316*%
X61493286Y-41770280D03*
X61493286Y-38670280D03*
%TD*%
%TO.C,R437*%
X161964999Y-118635000D03*
X161964999Y-115535000D03*
%TD*%
%TO.C,R92*%
X202390000Y-132910000D03*
X202390000Y-129810000D03*
%TD*%
%TO.C,R452*%
X148264999Y-113485000D03*
X148264999Y-110385000D03*
%TD*%
D34*
%TO.C,C96*%
X215421500Y-69754564D03*
X215421500Y-72879564D03*
%TD*%
D32*
%TO.C,R246*%
X119913566Y-41770280D03*
X119913566Y-38670280D03*
%TD*%
%TO.C,R114*%
X230912098Y-36452640D03*
X230912098Y-33352640D03*
%TD*%
%TO.C,R295*%
X79019370Y-41770280D03*
X79019370Y-38670280D03*
%TD*%
D37*
%TO.C,C71*%
X190840000Y-121722500D03*
X190840000Y-118597500D03*
%TD*%
D34*
%TO.C,C116*%
X123321500Y-69724564D03*
X123321500Y-72849564D03*
%TD*%
D32*
%TO.C,R120*%
X225070070Y-41770280D03*
X225070070Y-38670280D03*
%TD*%
D34*
%TO.C,C104*%
X178521500Y-69754564D03*
X178521500Y-72879564D03*
%TD*%
D32*
%TO.C,R162*%
X190017902Y-41770280D03*
X190017902Y-38670280D03*
%TD*%
%TO.C,R183*%
X172491818Y-41770280D03*
X172491818Y-38670280D03*
%TD*%
D34*
%TO.C,C101*%
X192321500Y-69754564D03*
X192321500Y-72879564D03*
%TD*%
D32*
%TO.C,R324*%
X55651258Y-36452640D03*
X55651258Y-33352640D03*
%TD*%
%TO.C,R225*%
X137439650Y-41770280D03*
X137439650Y-38670280D03*
%TD*%
D39*
%TO.C,R64*%
X185565000Y-142495000D03*
X185565000Y-145595000D03*
%TD*%
D36*
%TO.C,R83*%
X226915000Y-126760000D03*
X223815000Y-126760000D03*
%TD*%
D32*
%TO.C,R142*%
X207543986Y-36452640D03*
X207543986Y-33352640D03*
%TD*%
D20*
%TO.C,J17*%
X151064999Y-101534999D03*
D21*
X148524999Y-101534999D03*
X151064999Y-104074999D03*
X148524999Y-104074999D03*
%TD*%
D32*
%TO.C,R178*%
X178333846Y-31135000D03*
X178333846Y-28035000D03*
%TD*%
%TO.C,R143*%
X207543986Y-31135000D03*
X207543986Y-28035000D03*
%TD*%
%TO.C,R211*%
X149123706Y-41770280D03*
X149123706Y-38670280D03*
%TD*%
%TO.C,R95*%
X209927500Y-112775000D03*
X209927500Y-109675000D03*
%TD*%
D36*
%TO.C,R394*%
X86215000Y-68834999D03*
X83115000Y-68834999D03*
%TD*%
D35*
%TO.C,D36*%
X128140000Y-143647500D03*
X128140000Y-149047500D03*
%TD*%
%TO.C,D31*%
X197745000Y-141157500D03*
X197745000Y-146557500D03*
%TD*%
D32*
%TO.C,R113*%
X230912098Y-41770280D03*
X230912098Y-38670280D03*
%TD*%
D38*
%TO.C,C23*%
X69515000Y-130760000D03*
X72640000Y-130760000D03*
%TD*%
D39*
%TO.C,R101*%
X120540000Y-79635000D03*
X120540000Y-82735000D03*
%TD*%
D36*
%TO.C,R84*%
X194440000Y-125935000D03*
X191340000Y-125935000D03*
%TD*%
D34*
%TO.C,C123*%
X91021500Y-69724564D03*
X91021500Y-72849564D03*
%TD*%
%TO.C,C120*%
X104921500Y-69724564D03*
X104921500Y-72849564D03*
%TD*%
D32*
%TO.C,R122*%
X225070070Y-31135000D03*
X225070070Y-28035000D03*
%TD*%
%TO.C,R163*%
X190017902Y-36452640D03*
X190017902Y-33352640D03*
%TD*%
D37*
%TO.C,C68*%
X209140000Y-121997500D03*
X209140000Y-118872500D03*
%TD*%
D36*
%TO.C,R402*%
X61190000Y-68760000D03*
X58090000Y-68760000D03*
%TD*%
D34*
%TO.C,C105*%
X173921500Y-69754564D03*
X173921500Y-72879564D03*
%TD*%
D32*
%TO.C,R240*%
X125755594Y-36452640D03*
X125755594Y-33352640D03*
%TD*%
D39*
%TO.C,R63*%
X215965000Y-142470000D03*
X215965000Y-145570000D03*
%TD*%
D35*
%TO.C,D34*%
X169965000Y-142070000D03*
X169965000Y-147470000D03*
%TD*%
D32*
%TO.C,R417*%
X49809230Y-31135000D03*
X49809230Y-28035000D03*
%TD*%
D40*
%TO.C,R86*%
X230540000Y-118285000D03*
X233640000Y-118285000D03*
%TD*%
D32*
%TO.C,R283*%
X90703426Y-31135000D03*
X90703426Y-28035000D03*
%TD*%
%TO.C,R87*%
X193665000Y-121610000D03*
X193665000Y-118510000D03*
%TD*%
%TO.C,R91*%
X235040000Y-132785000D03*
X235040000Y-129685000D03*
%TD*%
%TO.C,R267*%
X102387482Y-41770280D03*
X102387482Y-38670280D03*
%TD*%
%TO.C,R106*%
X236740000Y-41770280D03*
X236740000Y-38670280D03*
%TD*%
%TO.C,R318*%
X61493286Y-31135000D03*
X61493286Y-28035000D03*
%TD*%
%TO.C,R184*%
X172491818Y-36452640D03*
X172491818Y-33352640D03*
%TD*%
%TO.C,R436*%
X162065000Y-124335000D03*
X162065000Y-121235000D03*
%TD*%
%TO.C,R248*%
X119913566Y-31135000D03*
X119913566Y-28035000D03*
%TD*%
D38*
%TO.C,C85*%
X218465000Y-105925000D03*
X221590000Y-105925000D03*
%TD*%
D32*
%TO.C,R135*%
X213304160Y-36452640D03*
X213304160Y-33352640D03*
%TD*%
D36*
%TO.C,R403*%
X55990000Y-68760000D03*
X52890000Y-68760000D03*
%TD*%
D32*
%TO.C,R205*%
X154965734Y-36452640D03*
X154965734Y-33352640D03*
%TD*%
D34*
%TO.C,C92*%
X234165000Y-69747500D03*
X234165000Y-72872500D03*
%TD*%
D32*
%TO.C,R206*%
X154965734Y-31135000D03*
X154965734Y-28035000D03*
%TD*%
%TO.C,R296*%
X79019370Y-36452640D03*
X79019370Y-33352640D03*
%TD*%
%TO.C,R198*%
X160807762Y-36452640D03*
X160807762Y-33352640D03*
%TD*%
D37*
%TO.C,C82*%
X239640000Y-132897500D03*
X239640000Y-129772500D03*
%TD*%
D32*
%TO.C,R430*%
X38125174Y-36452640D03*
X38125174Y-33352640D03*
%TD*%
D35*
%TO.C,D33*%
X164865000Y-141870000D03*
X164865000Y-147270000D03*
%TD*%
D36*
%TO.C,R82*%
X211590000Y-126035000D03*
X208490000Y-126035000D03*
%TD*%
D32*
%TO.C,R261*%
X108229510Y-36452640D03*
X108229510Y-33352640D03*
%TD*%
%TO.C,R444*%
X154564999Y-118635000D03*
X154564999Y-115535000D03*
%TD*%
%TO.C,R134*%
X213304160Y-41770280D03*
X213304160Y-38670280D03*
%TD*%
%TO.C,R254*%
X114071538Y-36452640D03*
X114071538Y-33352640D03*
%TD*%
%TO.C,R255*%
X114071538Y-31135000D03*
X114071538Y-28035000D03*
%TD*%
D34*
%TO.C,C113*%
X137121500Y-69687064D03*
X137121500Y-72812064D03*
%TD*%
D32*
%TO.C,R136*%
X213304160Y-31135000D03*
X213304160Y-28035000D03*
%TD*%
%TO.C,R164*%
X190017902Y-31135000D03*
X190017902Y-28035000D03*
%TD*%
%TO.C,R429*%
X38125174Y-41770280D03*
X38125174Y-38670280D03*
%TD*%
D40*
%TO.C,R453*%
X50815000Y-139785000D03*
X53915000Y-139785000D03*
%TD*%
D32*
%TO.C,R157*%
X195859930Y-31135000D03*
X195859930Y-28035000D03*
%TD*%
%TO.C,R276*%
X96545454Y-31135000D03*
X96545454Y-28035000D03*
%TD*%
D34*
%TO.C,C61*%
X149860000Y-139177500D03*
X149860000Y-142302500D03*
%TD*%
%TO.C,C103*%
X183121500Y-69754564D03*
X183121500Y-72879564D03*
%TD*%
D39*
%TO.C,R60*%
X212365000Y-142357500D03*
X212365000Y-145457500D03*
%TD*%
D41*
%TO.C,R17*%
X36840000Y-143222500D03*
X36840000Y-146197500D03*
%TD*%
D32*
%TO.C,R443*%
X154665000Y-124335000D03*
X154665000Y-121235000D03*
%TD*%
%TO.C,R141*%
X207543986Y-41770280D03*
X207543986Y-38670280D03*
%TD*%
D34*
%TO.C,C93*%
X229365000Y-69747500D03*
X229365000Y-72872500D03*
%TD*%
D20*
%TO.C,J40*%
X238554999Y-85344999D03*
D21*
X236014999Y-85344999D03*
X238554999Y-87884999D03*
X236014999Y-87884999D03*
%TD*%
D32*
%TO.C,R269*%
X102387482Y-31135000D03*
X102387482Y-28035000D03*
%TD*%
%TO.C,R90*%
X219590000Y-132885000D03*
X219590000Y-129785000D03*
%TD*%
%TO.C,R212*%
X149123706Y-36452640D03*
X149123706Y-33352640D03*
%TD*%
D36*
%TO.C,R401*%
X66890000Y-68659999D03*
X63790000Y-68659999D03*
%TD*%
D32*
%TO.C,R199*%
X160807762Y-31135000D03*
X160807762Y-28035000D03*
%TD*%
D37*
%TO.C,C91*%
X113390000Y-81697500D03*
X113390000Y-78572500D03*
%TD*%
D32*
%TO.C,R128*%
X219228042Y-36452640D03*
X219228042Y-33352640D03*
%TD*%
D37*
%TO.C,C76*%
X237340000Y-132897500D03*
X237340000Y-129772500D03*
%TD*%
%TO.C,C75*%
X221890000Y-132922500D03*
X221890000Y-129797500D03*
%TD*%
D32*
%TO.C,R232*%
X131597622Y-41770280D03*
X131597622Y-38670280D03*
%TD*%
%TO.C,R288*%
X84861398Y-41770280D03*
X84861398Y-38670280D03*
%TD*%
%TO.C,R302*%
X73177342Y-41770280D03*
X73177342Y-38670280D03*
%TD*%
%TO.C,R253*%
X114071538Y-41770280D03*
X114071538Y-38670280D03*
%TD*%
%TO.C,R304*%
X73177342Y-31135000D03*
X73177342Y-28035000D03*
%TD*%
%TO.C,R185*%
X172491818Y-31135000D03*
X172491818Y-28035000D03*
%TD*%
D39*
%TO.C,R99*%
X192490000Y-79635000D03*
X192490000Y-82735000D03*
%TD*%
D34*
%TO.C,C121*%
X100321500Y-69724564D03*
X100321500Y-72849564D03*
%TD*%
D40*
%TO.C,R456*%
X65665000Y-97510000D03*
X68765000Y-97510000D03*
%TD*%
D37*
%TO.C,C81*%
X224240000Y-132897500D03*
X224240000Y-129772500D03*
%TD*%
D39*
%TO.C,R98*%
X228440000Y-79660000D03*
X228440000Y-82760000D03*
%TD*%
D32*
%TO.C,R220*%
X143281678Y-31135000D03*
X143281678Y-28035000D03*
%TD*%
D34*
%TO.C,C108*%
X160121500Y-69724564D03*
X160121500Y-72849564D03*
%TD*%
D32*
%TO.C,R155*%
X195859930Y-41770280D03*
X195859930Y-38670280D03*
%TD*%
D39*
%TO.C,R72*%
X227365000Y-145007500D03*
X227365000Y-148107500D03*
%TD*%
D32*
%TO.C,R451*%
X148264999Y-118685000D03*
X148264999Y-115585000D03*
%TD*%
D34*
%TO.C,C110*%
X150921500Y-69724564D03*
X150921500Y-72849564D03*
%TD*%
D32*
%TO.C,R85*%
X211615000Y-121885000D03*
X211615000Y-118785000D03*
%TD*%
%TO.C,R282*%
X90703426Y-36452640D03*
X90703426Y-33352640D03*
%TD*%
D34*
%TO.C,C112*%
X141721500Y-69724564D03*
X141721500Y-72849564D03*
%TD*%
D32*
%TO.C,R325*%
X55651258Y-31135000D03*
X55651258Y-28035000D03*
%TD*%
D20*
%TO.C,J31*%
X151039999Y-155559999D03*
D21*
X148499999Y-155559999D03*
X151039999Y-158099999D03*
X148499999Y-158099999D03*
%TD*%
D37*
%TO.C,C89*%
X185040000Y-81922500D03*
X185040000Y-78797500D03*
%TD*%
D20*
%TO.C,J33*%
X238639999Y-47019999D03*
D21*
X236099999Y-47019999D03*
X238639999Y-49559999D03*
X236099999Y-49559999D03*
%TD*%
D38*
%TO.C,C15*%
X69615000Y-124860000D03*
X72740000Y-124860000D03*
%TD*%
D32*
%TO.C,R247*%
X119913566Y-36452640D03*
X119913566Y-33352640D03*
%TD*%
%TO.C,R213*%
X149123706Y-31135000D03*
X149123706Y-28035000D03*
%TD*%
%TO.C,R268*%
X102387482Y-36452640D03*
X102387482Y-33352640D03*
%TD*%
%TO.C,R191*%
X166649790Y-36452640D03*
X166649790Y-33352640D03*
%TD*%
%TO.C,R127*%
X219228042Y-41770280D03*
X219228042Y-38670280D03*
%TD*%
D34*
%TO.C,C118*%
X114121500Y-69724564D03*
X114121500Y-72849564D03*
%TD*%
D32*
%TO.C,R218*%
X143281678Y-41770280D03*
X143281678Y-38670280D03*
%TD*%
D39*
%TO.C,R73*%
X232115000Y-144760000D03*
X232115000Y-147860000D03*
%TD*%
D34*
%TO.C,C100*%
X196921500Y-69754564D03*
X196921500Y-72879564D03*
%TD*%
%TO.C,C94*%
X224665000Y-69747500D03*
X224665000Y-72872500D03*
%TD*%
D32*
%TO.C,R422*%
X43967202Y-41770280D03*
X43967202Y-38670280D03*
%TD*%
D38*
%TO.C,C70*%
X230527500Y-120635000D03*
X233652500Y-120635000D03*
%TD*%
D32*
%TO.C,R150*%
X201701958Y-31135000D03*
X201701958Y-28035000D03*
%TD*%
%TO.C,R297*%
X79019370Y-31135000D03*
X79019370Y-28035000D03*
%TD*%
D37*
%TO.C,C90*%
X149440000Y-81997500D03*
X149440000Y-78872500D03*
%TD*%
D20*
%TO.C,J30*%
X238539999Y-97059999D03*
D21*
X235999999Y-97059999D03*
X238539999Y-99599999D03*
X235999999Y-99599999D03*
%TD*%
D32*
%TO.C,R226*%
X137439650Y-36452640D03*
X137439650Y-33352640D03*
%TD*%
%TO.C,R197*%
X160807762Y-41770280D03*
X160807762Y-38670280D03*
%TD*%
D34*
%TO.C,C122*%
X95721500Y-69724564D03*
X95721500Y-72849564D03*
%TD*%
D32*
%TO.C,R323*%
X55651258Y-41770280D03*
X55651258Y-38670280D03*
%TD*%
D38*
%TO.C,C21*%
X69615000Y-120760000D03*
X72740000Y-120760000D03*
%TD*%
D32*
%TO.C,R149*%
X201701958Y-36635000D03*
X201701958Y-33535000D03*
%TD*%
D33*
%TO.C,C87*%
X200802500Y-106085000D03*
X197677500Y-106085000D03*
%TD*%
D37*
%TO.C,C77*%
X204690000Y-132897500D03*
X204690000Y-129772500D03*
%TD*%
D32*
%TO.C,R445*%
X154564999Y-113435000D03*
X154564999Y-110335000D03*
%TD*%
D34*
%TO.C,C102*%
X187721500Y-69754564D03*
X187721500Y-72879564D03*
%TD*%
D32*
%TO.C,R170*%
X184175874Y-36452640D03*
X184175874Y-33352640D03*
%TD*%
%TO.C,R177*%
X178333846Y-36452640D03*
X178333846Y-33352640D03*
%TD*%
%TO.C,R108*%
X236740000Y-31135000D03*
X236740000Y-28035000D03*
%TD*%
D34*
%TO.C,C106*%
X169321500Y-69754564D03*
X169321500Y-72879564D03*
%TD*%
%TO.C,C111*%
X146321500Y-69724564D03*
X146321500Y-72849564D03*
%TD*%
D36*
%TO.C,R410*%
X36990000Y-68485000D03*
X33890000Y-68485000D03*
%TD*%
D32*
%TO.C,R115*%
X230912098Y-31135000D03*
X230912098Y-28035000D03*
%TD*%
%TO.C,R424*%
X43967202Y-31135000D03*
X43967202Y-28035000D03*
%TD*%
D34*
%TO.C,C117*%
X118721500Y-69724564D03*
X118721500Y-72849564D03*
%TD*%
D32*
%TO.C,R415*%
X49809230Y-41770280D03*
X49809230Y-38670280D03*
%TD*%
%TO.C,R156*%
X195859930Y-36452640D03*
X195859930Y-33352640D03*
%TD*%
%TO.C,R190*%
X166649790Y-41770280D03*
X166649790Y-38670280D03*
%TD*%
%TO.C,R450*%
X148365000Y-124385000D03*
X148365000Y-121285000D03*
%TD*%
D34*
%TO.C,C109*%
X155521500Y-69724564D03*
X155521500Y-72849564D03*
%TD*%
D37*
%TO.C,C83*%
X207015000Y-132872500D03*
X207015000Y-129747500D03*
%TD*%
D32*
%TO.C,R192*%
X166649790Y-31135000D03*
X166649790Y-28035000D03*
%TD*%
%TO.C,R176*%
X178333846Y-41770280D03*
X178333846Y-38670280D03*
%TD*%
%TO.C,R233*%
X131597622Y-36452640D03*
X131597622Y-33352640D03*
%TD*%
%TO.C,R239*%
X125755594Y-41770280D03*
X125755594Y-38670280D03*
%TD*%
%TO.C,R169*%
X184175874Y-41770280D03*
X184175874Y-38670280D03*
%TD*%
D42*
%TO.C,C8*%
X37439999Y-105979999D03*
X32439999Y-105979999D03*
%TD*%
D32*
%TO.C,R423*%
X43967202Y-36452640D03*
X43967202Y-33352640D03*
%TD*%
D34*
%TO.C,C95*%
X220021500Y-69754564D03*
X220021500Y-72879564D03*
%TD*%
D33*
%TO.C,C19*%
X80940000Y-120660000D03*
X77815000Y-120660000D03*
%TD*%
M02*
