M48
; DRILL file {KiCad (7.0.0)} date Mon Oct 14 13:46:33 2024
; FORMAT={-:-/ absolute / metric / decimal}
; #@! TF.CreationDate,2024-10-14T13:46:33+03:30
; #@! TF.GenerationSoftware,Kicad,Pcbnew,(7.0.0)
; #@! TF.FileFunction,Plated,1,2,PTH
FMAT,2
METRIC
; #@! TA.AperFunction,Plated,PTH,ComponentDrill
T1C0.300
; #@! TA.AperFunction,Plated,PTH,ViaDrill
T2C0.400
; #@! TA.AperFunction,Plated,PTH,ComponentDrill
T3C0.500
; #@! TA.AperFunction,Plated,PTH,ComponentDrill
T4C0.600
; #@! TA.AperFunction,Plated,PTH,ComponentDrill
T5C0.800
; #@! TA.AperFunction,Plated,PTH,ComponentDrill
T6C0.950
; #@! TA.AperFunction,Plated,PTH,ComponentDrill
T7C1.000
; #@! TA.AperFunction,Plated,PTH,ViaDrill
T8C2.500
; #@! TA.AperFunction,Plated,PTH,ComponentDrill
T9C2.690
; #@! TA.AperFunction,Plated,PTH,ComponentDrill
T10C3.500
; #@! TA.AperFunction,Plated,PTH,ComponentDrill
T11C4.300
%
G90
G05
T1
X198.315Y-122.685
X198.315Y-123.985
X198.315Y-125.285
X198.315Y-126.585
X198.315Y-127.885
X198.315Y-129.185
X199.615Y-122.685
X199.615Y-123.985
X199.615Y-125.285
X199.615Y-126.585
X199.615Y-127.885
X199.615Y-129.185
X200.915Y-122.685
X200.915Y-123.985
X200.915Y-125.285
X200.915Y-126.585
X200.915Y-127.885
X200.915Y-129.185
X215.29Y-122.685
X215.29Y-123.985
X215.29Y-125.285
X215.29Y-126.585
X215.29Y-127.885
X215.29Y-129.185
X216.59Y-122.685
X216.59Y-123.985
X216.59Y-125.285
X216.59Y-126.585
X216.59Y-127.885
X216.59Y-129.185
X217.89Y-122.685
X217.89Y-123.985
X217.89Y-125.285
X217.89Y-126.585
X217.89Y-127.885
X217.89Y-129.185
X230.74Y-122.685
X230.74Y-123.985
X230.74Y-125.285
X230.74Y-126.585
X230.74Y-127.885
X230.74Y-129.185
X232.04Y-122.685
X232.04Y-123.985
X232.04Y-125.285
X232.04Y-126.585
X232.04Y-127.885
X232.04Y-129.185
X233.34Y-122.685
X233.34Y-123.985
X233.34Y-125.285
X233.34Y-126.585
X233.34Y-127.885
X233.34Y-129.185
T2
X24.03Y-22.46
X24.03Y-25.524
X24.03Y-28.589
X24.03Y-31.653
X24.03Y-34.717
X24.03Y-37.781
X24.03Y-40.846
X24.03Y-43.91
X26.09Y-22.46
X26.09Y-25.524
X26.09Y-28.589
X26.09Y-31.653
X26.09Y-34.717
X26.09Y-37.781
X26.09Y-40.846
X26.09Y-43.91
X27.19Y-133.66
X27.79Y-128.02
X27.79Y-130.44
X29.55Y-120.68
X29.56Y-119.76
X29.79Y-128.02
X29.79Y-130.44
X31.0Y-98.42
X31.04Y-97.285
X32.015Y-61.26
X32.04Y-43.91
X32.215Y-62.56
X32.69Y-139.435
X32.69Y-140.26
X33.165Y-47.085
X34.465Y-147.685
X34.7Y-130.35
X34.72Y-132.69
X34.75Y-127.98
X34.77Y-135.73
X35.04Y-49.26
X35.04Y-51.26
X35.04Y-53.26
X35.04Y-55.26
X35.04Y-57.26
X35.16Y-77.59
X35.44Y-123.71
X36.02Y-62.33
X36.29Y-119.835
X36.29Y-120.685
X36.29Y-123.71
X36.7Y-130.35
X36.72Y-132.69
X36.75Y-127.98
X36.77Y-135.73
X36.89Y-66.41
X37.04Y-49.26
X37.04Y-51.26
X37.04Y-53.26
X37.04Y-55.26
X37.04Y-57.26
X38.09Y-25.81
X38.51Y-114.32
X38.7Y-15.6
X38.74Y-12.61
X39.04Y-49.26
X39.04Y-51.26
X39.04Y-53.26
X39.04Y-55.26
X39.04Y-57.26
X39.18Y-62.33
X39.24Y-45.81
X39.615Y-26.66
X39.79Y-141.31
X40.415Y-39.385
X40.51Y-114.32
X41.04Y-49.26
X41.04Y-51.26
X41.04Y-53.26
X41.04Y-55.26
X41.04Y-57.26
X41.869Y-15.6
X41.89Y-76.31
X41.909Y-12.61
X42.44Y-62.38
X42.565Y-82.76
X42.58Y-114.26
X43.04Y-49.26
X43.04Y-51.26
X43.04Y-53.26
X43.04Y-55.26
X43.04Y-57.26
X43.24Y-76.135
X43.34Y-81.985
X43.49Y-66.385
X43.6Y-130.71
X43.65Y-126.53
X43.965Y-25.96
X44.065Y-81.06
X44.58Y-114.26
X44.89Y-141.285
X45.038Y-15.6
X45.078Y-12.61
X45.49Y-26.635
X46.215Y-39.435
X46.465Y-141.21
X46.51Y-114.32
X46.94Y-75.83
X47.065Y-51.21
X47.715Y-148.66
X47.89Y-63.91
X48.206Y-15.6
X48.246Y-12.61
X48.51Y-114.32
X48.54Y-80.885
X48.54Y-83.484
X49.39Y-81.56
X49.515Y-66.46
X49.615Y-89.26
X49.64Y-121.33
X49.715Y-26.16
X49.84Y-84.91
X50.815Y-111.986
X50.815Y-119.084
X50.816Y-76.31
X50.965Y-141.16
X51.34Y-26.635
X51.375Y-15.6
X51.415Y-12.61
X51.815Y-39.485
X51.965Y-119.21
X52.065Y-111.385
X52.44Y-90.685
X52.59Y-132.61
X52.665Y-123.035
X52.765Y-136.86
X53.14Y-113.86
X53.265Y-149.935
X53.515Y-63.885
X54.544Y-15.6
X54.584Y-12.61
X55.015Y-139.785
X55.115Y-137.81
X55.64Y-26.185
X56.115Y-66.71
X56.89Y-78.56
X56.89Y-84.46
X56.99Y-129.16
X57.165Y-26.585
X57.37Y-45.95
X57.615Y-138.635
X57.713Y-15.6
X57.753Y-12.61
X57.815Y-39.36
X57.865Y-134.06
X57.89Y-132.86
X57.89Y-135.059
X58.439Y-112.71
X58.44Y-98.03
X58.46Y-122.634
X58.515Y-129.41
X58.54Y-79.01
X58.54Y-140.385
X58.565Y-89.035
X58.565Y-111.51
X58.64Y-113.96
X58.84Y-127.16
X58.94Y-117.71
X58.94Y-121.135
X58.941Y-118.835
X58.941Y-120.035
X59.515Y-84.685
X59.665Y-114.685
X59.665Y-126.184
X60.165Y-149.36
X60.165Y-150.885
X60.24Y-80.285
X60.565Y-109.835
X60.665Y-126.184
X60.74Y-114.06
X60.99Y-97.985
X60.99Y-98.635
X61.165Y-146.91
X61.24Y-148.135
X61.315Y-129.31
X61.54Y-25.96
X61.665Y-126.184
X61.864Y-127.936
X61.94Y-92.11
X62.04Y-93.835
X62.239Y-131.935
X62.39Y-126.96
X62.465Y-128.736
X62.465Y-130.31
X62.49Y-110.985
X62.515Y-67.185
X62.664Y-84.11
X62.664Y-89.21
X62.69Y-83.11
X62.87Y-105.87
X62.965Y-139.31
X63.015Y-26.61
X63.2Y-45.42
X63.265Y-59.885
X63.415Y-39.46
X63.415Y-145.585
X63.432Y-88.571
X63.44Y-136.486
X63.465Y-144.185
X63.515Y-140.46
X63.79Y-119.36
X63.885Y-138.835
X64.05Y-15.6
X64.14Y-59.885
X64.365Y-135.035
X64.94Y-75.635
X64.941Y-84.385
X65.065Y-59.885
X65.69Y-92.16
X65.89Y-116.91
X65.94Y-140.335
X66.115Y-93.985
X66.29Y-114.834
X66.303Y-109.009
X66.39Y-82.235
X66.415Y-85.535
X66.49Y-77.335
X66.515Y-80.785
X66.765Y-141.385
X66.835Y-54.56
X67.14Y-99.66
X67.14Y-100.51
X67.165Y-77.335
X67.165Y-92.985
X67.19Y-79.285
X67.19Y-109.735
X67.215Y-108.36
X67.219Y-15.6
X67.365Y-25.885
X67.44Y-102.41
X67.84Y-77.335
X67.84Y-118.585
X68.09Y-61.21
X68.14Y-55.035
X68.165Y-103.735
X68.365Y-134.16
X68.6Y-149.35
X68.69Y-152.035
X68.71Y-87.39
X68.715Y-147.41
X68.79Y-117.86
X68.89Y-26.585
X68.89Y-115.284
X68.94Y-63.885
X68.94Y-66.96
X69.21Y-46.98
X69.489Y-137.185
X69.54Y-39.46
X69.74Y-113.385
X69.815Y-76.66
X69.831Y-129.492
X69.89Y-153.135
X69.94Y-145.66
X69.965Y-140.96
X70.215Y-99.31
X70.29Y-87.36
X70.388Y-15.6
X70.49Y-126.385
X70.7Y-149.35
X70.74Y-112.635
X70.765Y-54.21
X71.015Y-143.46
X71.153Y-146.822
X71.19Y-122.435
X71.66Y-46.83
X71.93Y-87.41
X72.075Y-137.405
X72.34Y-63.885
X72.449Y-138.332
X72.465Y-153.11
X72.59Y-78.135
X72.64Y-144.935
X72.84Y-122.26
X72.84Y-123.86
X72.84Y-128.86
X72.84Y-131.06
X72.89Y-146.835
X72.99Y-100.735
X73.09Y-141.309
X73.09Y-149.135
X73.183Y-111.372
X73.24Y-25.985
X73.24Y-142.385
X73.29Y-143.46
X73.557Y-15.6
X73.695Y-152.487
X73.765Y-108.41
X74.18Y-62.51
X74.565Y-149.109
X74.84Y-122.26
X74.84Y-123.86
X74.84Y-128.86
X74.84Y-131.06
X74.99Y-26.585
X75.09Y-120.585
X75.54Y-39.46
X75.565Y-147.06
X75.69Y-77.91
X75.84Y-67.26
X75.865Y-111.585
X76.291Y-143.46
X76.715Y-110.935
X76.726Y-15.6
X77.04Y-77.61
X77.04Y-122.26
X77.04Y-123.86
X77.04Y-128.86
X77.04Y-131.06
X77.09Y-142.861
X77.37Y-47.45
X77.49Y-83.185
X77.715Y-110.885
X77.851Y-112.951
X77.865Y-140.511
X77.89Y-148.535
X77.91Y-62.51
X78.515Y-99.135
X78.727Y-81.373
X78.89Y-110.885
X78.89Y-148.535
X79.04Y-122.26
X79.04Y-123.86
X79.04Y-128.86
X79.04Y-131.06
X79.115Y-26.01
X79.14Y-59.885
X79.428Y-139.898
X79.565Y-82.685
X79.79Y-99.21
X79.894Y-15.6
X80.59Y-26.535
X80.94Y-120.66
X81.065Y-39.51
X81.29Y-62.54
X81.34Y-131.835
X81.616Y-144.21
X81.64Y-136.26
X81.74Y-67.535
X82.3Y-56.83
X82.74Y-142.885
X82.95Y-140.18
X83.063Y-15.6
X83.09Y-148.535
X83.103Y-12.61
X83.415Y-98.06
X83.415Y-108.01
X84.14Y-112.135
X84.39Y-141.861
X84.49Y-103.285
X84.51Y-62.54
X84.59Y-152.46
X84.62Y-104.49
X84.861Y-26.385
X84.95Y-56.83
X84.99Y-112.135
X85.34Y-139.96
X85.365Y-47.085
X85.39Y-83.985
X85.515Y-116.885
X85.64Y-118.86
X85.74Y-105.215
X85.84Y-112.135
X86.165Y-140.935
X86.19Y-86.085
X86.215Y-26.66
X86.232Y-15.6
X86.272Y-12.61
X86.74Y-112.135
X86.89Y-39.41
X87.328Y-137.347
X87.44Y-144.86
X87.74Y-119.985
X88.16Y-56.88
X88.477Y-127.223
X88.64Y-98.55
X88.68Y-141.43
X88.765Y-144.96
X89.265Y-106.285
X89.401Y-15.6
X89.441Y-12.61
X89.59Y-90.685
X89.64Y-134.46
X89.64Y-136.46
X89.69Y-127.735
X89.74Y-140.085
X89.765Y-139.01
X89.84Y-74.535
X90.19Y-98.58
X90.215Y-144.91
X90.24Y-146.135
X90.265Y-149.56
X90.29Y-147.21
X90.29Y-148.385
X90.64Y-143.785
X90.665Y-74.535
X90.665Y-83.41
X90.665Y-94.085
X90.665Y-96.385
X90.665Y-128.236
X90.715Y-78.285
X91.44Y-62.885
X91.59Y-149.635
X91.59Y-152.034
X91.915Y-47.16
X91.965Y-67.16
X92.015Y-75.735
X92.115Y-120.672
X92.14Y-26.66
X92.165Y-130.81
X92.57Y-15.6
X92.61Y-12.61
X92.74Y-39.385
X92.89Y-126.585
X93.265Y-117.285
X93.49Y-75.91
X94.09Y-125.585
X94.965Y-127.735
X95.02Y-150.05
X95.05Y-142.24
X95.065Y-140.11
X95.738Y-15.6
X95.778Y-12.61
X95.84Y-75.785
X95.93Y-63.68
X95.94Y-110.81
X95.99Y-92.985
X96.065Y-79.935
X96.465Y-128.736
X96.74Y-67.085
X96.815Y-96.585
X96.89Y-125.185
X97.34Y-46.585
X97.427Y-95.972
X97.84Y-122.535
X97.915Y-119.935
X97.99Y-26.61
X98.09Y-75.81
X98.665Y-39.335
X98.665Y-144.96
X98.907Y-15.6
X98.947Y-12.61
X99.465Y-146.635
X99.615Y-88.435
X99.615Y-92.185
X100.14Y-63.73
X100.29Y-75.76
X100.44Y-138.735
X101.114Y-127.735
X101.14Y-133.61
X101.29Y-119.935
X101.29Y-122.96
X101.415Y-67.16
X101.665Y-91.435
X101.715Y-71.26
X101.74Y-54.21
X101.815Y-115.76
X101.84Y-112.61
X102.076Y-15.6
X102.116Y-12.61
X102.54Y-134.935
X102.74Y-75.935
X103.065Y-111.885
X103.065Y-115.035
X103.34Y-45.485
X103.49Y-26.535
X103.665Y-91.535
X103.727Y-124.445
X103.74Y-123.36
X103.74Y-126.61
X103.751Y-125.453
X103.765Y-71.26
X103.79Y-127.66
X103.84Y-93.01
X104.04Y-100.46
X104.04Y-102.46
X104.385Y-53.935
X104.415Y-95.535
X104.54Y-39.51
X104.74Y-75.735
X105.215Y-145.91
X105.24Y-95.535
X105.245Y-15.6
X105.285Y-12.61
X105.31Y-63.71
X105.655Y-54.995
X106.04Y-67.11
X106.04Y-100.46
X106.04Y-102.46
X106.09Y-86.81
X106.24Y-142.81
X106.84Y-75.96
X107.99Y-71.26
X108.215Y-75.735
X108.24Y-45.21
X108.265Y-54.235
X108.414Y-15.6
X108.454Y-12.61
X108.865Y-78.36
X109.415Y-26.56
X109.69Y-63.635
X110.34Y-39.585
X110.59Y-67.16
X111.17Y-133.69
X111.24Y-131.51
X111.27Y-129.55
X111.582Y-15.6
X111.622Y-12.61
X111.64Y-95.06
X112.34Y-138.49
X112.34Y-141.18
X112.34Y-143.63
X112.37Y-146.25
X112.44Y-148.84
X112.64Y-90.96
X112.665Y-87.51
X113.17Y-133.69
X113.24Y-131.51
X113.27Y-129.55
X113.345Y-106.265
X113.345Y-107.79
X113.345Y-109.615
X113.64Y-95.06
X114.19Y-63.52
X114.72Y-106.265
X114.72Y-107.79
X114.72Y-109.615
X114.751Y-15.6
X114.791Y-12.61
X114.99Y-45.785
X115.14Y-26.535
X115.165Y-67.21
X115.165Y-78.535
X115.64Y-95.06
X115.98Y-107.85
X116.01Y-106.23
X116.01Y-109.6
X116.115Y-57.56
X116.19Y-39.61
X117.26Y-109.61
X117.29Y-107.87
X117.31Y-106.2
X117.64Y-95.06
X117.92Y-15.6
X117.96Y-12.61
X118.81Y-63.79
X118.965Y-79.635
X119.19Y-49.31
X119.29Y-75.885
X119.64Y-78.135
X119.64Y-95.06
X119.84Y-67.26
X120.09Y-71.235
X120.5Y-56.92
X120.865Y-45.835
X121.29Y-26.46
X121.64Y-95.06
X121.74Y-39.61
X122.04Y-75.835
X122.476Y-125.285
X123.14Y-124.41
X123.29Y-56.92
X123.49Y-64.48
X123.615Y-75.91
X123.64Y-95.06
X124.465Y-67.26
X124.59Y-125.985
X124.74Y-71.31
X125.065Y-149.285
X125.64Y-95.06
X125.79Y-75.835
X126.09Y-87.285
X126.09Y-142.66
X126.44Y-84.885
X126.715Y-45.885
X126.81Y-65.75
X126.965Y-78.435
X127.315Y-26.535
X127.365Y-124.535
X127.39Y-125.285
X127.64Y-107.785
X127.84Y-39.31
X128.065Y-75.685
X128.49Y-107.785
X129.04Y-67.36
X129.29Y-107.785
X129.315Y-71.285
X129.565Y-78.435
X129.62Y-110.18
X129.765Y-135.61
X130.115Y-107.785
X130.365Y-75.835
X130.565Y-135.61
X131.23Y-132.55
X131.27Y-66.85
X131.565Y-128.835
X131.59Y-45.235
X131.62Y-110.18
X131.89Y-48.085
X132.24Y-95.56
X132.24Y-129.635
X132.39Y-75.76
X132.715Y-82.36
X132.815Y-130.66
X132.94Y-26.51
X133.19Y-95.56
X133.465Y-38.985
X133.565Y-67.385
X133.74Y-131.585
X134.09Y-95.56
X134.17Y-108.06
X134.17Y-110.06
X134.49Y-142.41
X134.516Y-132.81
X134.54Y-143.16
X134.54Y-149.86
X134.615Y-53.81
X134.765Y-75.735
X135.24Y-133.709
X135.34Y-149.86
X135.69Y-115.235
X135.79Y-45.56
X136.09Y-66.85
X136.115Y-149.86
X136.165Y-135.86
X136.815Y-81.61
X136.915Y-134.585
X137.085Y-53.735
X137.14Y-100.56
X137.14Y-102.56
X137.315Y-75.76
X137.315Y-136.485
X138.34Y-67.41
X138.615Y-55.06
X138.84Y-26.56
X139.39Y-39.36
X139.615Y-75.735
X139.76Y-100.59
X139.76Y-102.59
X140.12Y-113.74
X140.161Y-131.463
X140.165Y-126.41
X140.165Y-127.435
X140.165Y-128.435
X140.187Y-129.467
X140.19Y-133.46
X140.2Y-120.76
X140.215Y-106.885
X140.219Y-132.461
X140.224Y-130.466
X140.24Y-107.96
X140.269Y-135.555
X140.288Y-134.476
X140.465Y-136.535
X140.66Y-67.17
X141.315Y-89.16
X141.315Y-92.16
X141.74Y-75.71
X142.14Y-80.56
X142.59Y-92.035
X142.665Y-89.135
X142.965Y-138.885
X143.04Y-67.085
X143.29Y-45.235
X143.765Y-58.435
X143.865Y-104.335
X143.88Y-92.034
X144.01Y-88.95
X144.04Y-75.66
X144.815Y-86.035
X145.04Y-78.435
X145.065Y-26.585
X145.1Y-68.04
X145.24Y-39.41
X145.865Y-119.91
X146.315Y-75.735
X147.3Y-45.55
X147.465Y-66.985
X147.64Y-71.285
X147.89Y-138.86
X147.99Y-89.46
X149.465Y-109.06
X149.71Y-68.04
X150.115Y-89.435
X150.37Y-26.16
X151.065Y-78.835
X151.165Y-39.535
X151.54Y-142.89
X151.965Y-66.835
X152.24Y-71.285
X152.34Y-120.16
X153.39Y-45.81
X153.615Y-75.61
X154.19Y-100.785
X154.38Y-68.14
X154.615Y-79.585
X154.7Y-95.84
X154.75Y-93.96
X155.09Y-88.885
X155.16Y-156.38
X155.16Y-158.38
X156.04Y-109.285
X156.49Y-26.66
X156.7Y-95.84
X156.715Y-67.26
X156.75Y-93.96
X157.04Y-71.285
X157.065Y-39.585
X157.29Y-75.61
X157.41Y-156.45
X157.41Y-158.45
X158.23Y-86.08
X158.94Y-93.91
X158.95Y-95.84
X159.18Y-45.61
X159.465Y-75.485
X159.62Y-156.42
X159.62Y-158.42
X159.665Y-119.985
X160.94Y-93.91
X160.95Y-95.84
X161.14Y-67.71
X161.19Y-75.41
X161.365Y-71.285
X161.7Y-86.05
X161.85Y-156.4
X161.85Y-158.4
X162.18Y-145.6
X162.28Y-147.84
X162.315Y-26.81
X162.515Y-108.96
X162.94Y-75.435
X163.065Y-39.185
X164.2Y-156.35
X164.2Y-158.35
X164.79Y-75.76
X164.815Y-101.035
X164.815Y-101.86
X164.815Y-108.96
X164.815Y-109.86
X164.83Y-86.1
X165.99Y-68.085
X166.43Y-156.35
X166.43Y-158.35
X166.465Y-71.26
X166.665Y-142.46
X166.89Y-75.41
X166.96Y-93.79
X166.96Y-95.79
X167.98Y-26.91
X168.23Y-46.08
X168.39Y-150.935
X168.51Y-86.05
X168.7Y-156.33
X168.7Y-158.33
X168.74Y-39.485
X169.1Y-93.82
X169.1Y-95.82
X169.29Y-75.735
X169.615Y-111.41
X169.615Y-126.21
X170.465Y-68.434
X170.69Y-71.285
X170.715Y-110.685
X170.715Y-118.21
X171.1Y-93.79
X171.1Y-95.79
X171.71Y-86.05
X171.815Y-75.41
X171.99Y-142.635
X172.9Y-148.87
X173.388Y-129.938
X173.39Y-128.939
X173.487Y-130.933
X173.49Y-132.96
X173.513Y-131.932
X173.565Y-98.685
X173.565Y-99.96
X173.615Y-97.46
X173.76Y-26.985
X173.84Y-94.26
X173.865Y-106.635
X173.885Y-111.705
X173.89Y-126.41
X173.94Y-125.16
X173.965Y-121.36
X173.99Y-75.76
X174.05Y-47.11
X174.69Y-39.435
X174.84Y-148.82
X174.97Y-86.05
X175.39Y-71.26
X175.415Y-125.16
X176.215Y-106.635
X176.215Y-121.36
X176.29Y-144.06
X176.49Y-75.485
X176.84Y-148.82
X177.415Y-126.41
X177.515Y-111.685
X177.665Y-79.385
X177.765Y-139.46
X177.94Y-132.485
X178.0Y-94.34
X178.415Y-75.76
X179.54Y-48.02
X179.765Y-143.91
X179.79Y-116.36
X179.825Y-27.334
X180.14Y-78.36
X180.156Y-39.485
X180.715Y-75.76
X180.765Y-71.235
X181.565Y-137.085
X181.915Y-66.335
X183.065Y-67.06
X183.84Y-144.01
X184.515Y-71.31
X184.715Y-75.71
X184.84Y-131.736
X185.29Y-26.41
X185.39Y-68.21
X185.615Y-130.96
X185.71Y-48.02
X185.75Y-109.34
X186.015Y-88.96
X186.09Y-39.485
X186.09Y-51.11
X186.289Y-128.76
X186.315Y-137.085
X186.69Y-78.735
X187.065Y-145.61
X187.14Y-81.76
X187.165Y-129.935
X187.84Y-63.85
X188.59Y-67.585
X188.74Y-99.885
X188.99Y-75.435
X189.165Y-71.26
X190.44Y-79.585
X191.19Y-26.285
X191.31Y-48.01
X191.965Y-39.46
X191.97Y-129.7
X191.97Y-132.834
X192.04Y-64.06
X192.815Y-75.36
X193.265Y-67.685
X193.615Y-145.485
X193.715Y-71.285
X194.24Y-109.63
X194.44Y-124.66
X194.715Y-139.835
X194.75Y-128.73
X194.79Y-75.335
X194.89Y-123.66
X195.02Y-109.63
X195.16Y-112.55
X195.24Y-105.735
X195.34Y-120.06
X195.79Y-136.1
X195.815Y-71.285
X195.96Y-47.46
X196.765Y-26.26
X196.84Y-75.334
X197.04Y-64.06
X197.79Y-39.385
X197.79Y-136.1
X198.065Y-67.935
X198.09Y-80.96
X199.315Y-75.36
X199.59Y-104.535
X199.615Y-142.01
X199.94Y-136.1
X200.44Y-130.735
X200.99Y-141.885
X201.74Y-45.56
X201.92Y-80.07
X201.94Y-136.1
X202.04Y-14.06
X202.04Y-18.06
X202.04Y-64.06
X202.04Y-100.51
X202.54Y-68.06
X202.665Y-26.26
X202.94Y-71.285
X203.64Y-121.46
X203.74Y-39.285
X204.05Y-136.11
X204.09Y-75.435
X204.09Y-125.585
X204.565Y-128.71
X204.915Y-125.585
X206.04Y-64.06
X206.05Y-136.11
X206.53Y-80.12
X207.015Y-128.535
X207.24Y-67.985
X207.49Y-71.31
X208.09Y-136.17
X208.489Y-129.129
X208.5Y-26.31
X208.515Y-45.16
X208.565Y-127.685
X208.79Y-75.485
X209.265Y-39.285
X210.09Y-136.17
X210.315Y-145.635
X210.34Y-143.885
X210.564Y-130.06
X210.59Y-132.335
X210.715Y-53.485
X211.03Y-80.12
X211.04Y-64.06
X211.564Y-124.688
X211.865Y-67.96
X211.902Y-123.748
X212.04Y-71.31
X212.065Y-128.36
X212.365Y-136.11
X212.62Y-100.764
X213.215Y-56.985
X213.315Y-75.51
X213.59Y-120.91
X213.765Y-130.335
X214.29Y-143.935
X214.515Y-56.685
X214.64Y-79.535
X214.665Y-26.36
X214.915Y-113.885
X215.015Y-75.685
X215.04Y-64.06
X215.14Y-39.585
X215.32Y-45.59
X215.325Y-109.665
X215.39Y-88.71
X216.15Y-109.64
X216.265Y-78.335
X216.44Y-85.935
X216.64Y-68.06
X216.99Y-56.885
X217.38Y-156.63
X217.38Y-158.63
X217.915Y-130.435
X218.29Y-107.435
X218.34Y-138.585
X219.215Y-45.31
X219.515Y-88.735
X219.79Y-156.63
X219.79Y-158.63
X220.04Y-64.06
X220.41Y-20.54
X220.64Y-26.31
X221.065Y-39.585
X221.24Y-68.235
X221.622Y-125.659
X221.915Y-129.01
X222.07Y-156.63
X222.07Y-158.63
X222.115Y-79.135
X222.44Y-125.66
X223.615Y-142.81
X223.64Y-128.385
X223.88Y-96.28
X224.04Y-64.06
X224.41Y-156.63
X224.41Y-158.63
X224.765Y-128.335
X224.79Y-52.535
X224.79Y-90.835
X224.84Y-45.835
X225.59Y-120.51
X225.865Y-68.385
X225.88Y-96.28
X225.99Y-71.235
X226.02Y-26.31
X226.115Y-75.485
X226.415Y-120.485
X226.42Y-55.31
X226.59Y-156.66
X226.59Y-158.66
X226.74Y-39.61
X226.865Y-79.56
X227.54Y-128.46
X227.565Y-124.985
X228.08Y-20.57
X228.34Y-120.485
X228.44Y-121.485
X228.94Y-118.884
X229.04Y-64.06
X229.165Y-120.46
X229.49Y-148.51
X229.53Y-55.33
X229.99Y-143.26
X230.44Y-68.31
X230.441Y-76.101
X230.59Y-109.61
X230.66Y-90.46
X230.765Y-45.91
X231.39Y-109.61
X231.862Y-26.31
X231.89Y-76.06
X232.24Y-39.585
X232.315Y-113.26
X232.72Y-55.33
X233.04Y-64.06
X233.29Y-76.085
X233.39Y-130.61
X234.165Y-68.435
X234.17Y-90.46
X234.99Y-107.36
X236.965Y-128.91
X237.24Y-125.535
X237.24Y-126.235
X237.3Y-146.69
X237.33Y-144.42
X237.4Y-142.01
X237.47Y-139.49
X237.5Y-135.11
X237.5Y-137.145
X237.69Y-71.26
X237.704Y-26.26
X238.315Y-40.46
X239.07Y-52.29
X239.3Y-146.69
X239.33Y-144.42
X239.4Y-142.01
X239.44Y-128.835
X239.47Y-139.49
X239.5Y-135.11
X239.5Y-137.145
T3
X204.84Y-126.885
X206.84Y-126.885
X222.09Y-127.16
X225.165Y-125.385
X239.765Y-125.435
X239.79Y-127.46
X243.31Y-13.87
X243.31Y-80.01
X243.31Y-91.19
X243.31Y-157.33
X244.079Y-12.014
X244.079Y-15.726
X244.079Y-78.154
X244.079Y-81.866
X244.079Y-89.334
X244.079Y-93.046
X244.079Y-155.474
X244.079Y-159.186
X245.935Y-11.245
X245.935Y-16.495
X245.935Y-77.385
X245.935Y-82.635
X245.935Y-88.565
X245.935Y-93.815
X245.935Y-154.705
X245.935Y-159.955
X247.791Y-12.014
X247.791Y-15.726
X247.791Y-78.154
X247.791Y-81.866
X247.791Y-89.334
X247.791Y-93.046
X247.791Y-155.474
X247.791Y-159.186
X248.56Y-13.87
X248.56Y-80.01
X248.56Y-91.19
X248.56Y-157.33
X264.935Y-13.865
X264.935Y-79.985
X264.935Y-91.185
X264.935Y-157.305
X265.704Y-12.009
X265.704Y-15.721
X265.704Y-78.129
X265.704Y-81.841
X265.704Y-89.329
X265.704Y-93.041
X265.704Y-155.449
X265.704Y-159.161
X267.56Y-11.24
X267.56Y-16.49
X267.56Y-77.36
X267.56Y-82.61
X267.56Y-88.56
X267.56Y-93.81
X267.56Y-154.68
X267.56Y-159.93
X269.416Y-12.009
X269.416Y-15.721
X269.416Y-78.129
X269.416Y-81.841
X269.416Y-89.329
X269.416Y-93.041
X269.416Y-155.449
X269.416Y-159.161
X270.185Y-13.865
X270.185Y-79.985
X270.185Y-91.185
X270.185Y-157.305
T4
X22.815Y-15.06
X22.815Y-156.06
X23.76Y-12.78
X23.76Y-17.34
X23.76Y-153.78
X23.76Y-158.34
X26.04Y-11.835
X26.04Y-18.285
X26.04Y-152.835
X26.04Y-159.285
X28.32Y-12.78
X28.32Y-17.34
X28.32Y-153.78
X28.32Y-158.34
X29.265Y-15.06
X29.265Y-156.06
X137.815Y-15.06
X137.815Y-156.06
X138.76Y-12.78
X138.76Y-17.34
X138.76Y-153.78
X138.76Y-158.34
X141.04Y-11.835
X141.04Y-18.285
X141.04Y-152.835
X141.04Y-159.285
X143.32Y-12.78
X143.32Y-17.34
X143.32Y-153.78
X143.32Y-158.34
X144.265Y-15.06
X144.265Y-156.06
X232.775Y-155.755
X232.815Y-15.06
X233.72Y-153.475
X233.72Y-158.035
X233.76Y-12.78
X233.76Y-17.34
X236.0Y-152.53
X236.0Y-158.98
X236.04Y-11.835
X236.04Y-18.285
X238.28Y-153.475
X238.28Y-158.035
X238.32Y-12.78
X238.32Y-17.34
X239.225Y-155.755
X239.265Y-15.06
T5
X107.57Y-102.91
X109.57Y-102.91
X121.87Y-109.21
X123.87Y-109.21
T6
X24.54Y-103.36
X24.54Y-105.86
X24.54Y-108.36
X24.54Y-110.86
X24.54Y-113.36
X24.54Y-115.86
X24.54Y-118.36
X24.54Y-120.86
X118.64Y-155.76
X121.14Y-155.76
X123.64Y-155.76
X126.14Y-155.76
T7
X23.72Y-145.09
X24.38Y-64.725
X24.38Y-67.265
X24.38Y-69.805
X24.38Y-72.345
X24.38Y-74.885
X24.38Y-77.425
X24.38Y-79.965
X24.38Y-82.505
X24.38Y-85.045
X24.38Y-87.585
X26.92Y-64.725
X26.92Y-67.265
X26.92Y-69.805
X26.92Y-72.345
X26.92Y-74.885
X26.92Y-77.425
X26.92Y-79.965
X26.92Y-82.505
X26.92Y-85.045
X26.92Y-87.585
X31.32Y-145.09
X32.44Y-105.98
X37.44Y-105.98
X40.865Y-129.36
X40.865Y-131.9
X48.24Y-154.52
X48.24Y-157.06
X50.78Y-154.52
X50.78Y-157.06
X53.32Y-154.52
X53.32Y-157.06
X55.86Y-154.52
X55.86Y-157.06
X58.4Y-154.52
X58.4Y-157.06
X60.94Y-154.52
X60.94Y-157.06
X63.48Y-154.52
X63.48Y-157.06
X63.765Y-100.685
X63.765Y-103.225
X66.02Y-154.52
X66.02Y-157.06
X68.56Y-154.52
X68.56Y-157.06
X71.1Y-154.52
X71.1Y-157.06
X73.64Y-154.52
X73.64Y-157.06
X76.18Y-154.52
X76.18Y-157.06
X78.72Y-154.52
X78.72Y-157.06
X81.26Y-154.52
X81.26Y-157.06
X83.8Y-154.52
X83.8Y-157.06
X86.34Y-154.52
X86.34Y-157.06
X88.88Y-154.52
X88.88Y-157.06
X91.42Y-154.52
X91.42Y-157.06
X93.96Y-154.52
X93.96Y-157.06
X96.5Y-154.52
X96.5Y-157.06
X96.79Y-100.735
X96.79Y-103.275
X148.5Y-94.06
X148.5Y-96.6
X148.5Y-155.56
X148.5Y-158.1
X148.525Y-101.535
X148.525Y-104.075
X148.935Y-54.31
X148.935Y-56.85
X149.065Y-13.285
X149.065Y-15.825
X151.04Y-94.06
X151.04Y-96.6
X151.04Y-155.56
X151.04Y-158.1
X151.065Y-101.535
X151.065Y-104.075
X151.475Y-54.31
X151.475Y-56.85
X151.605Y-13.285
X151.605Y-15.825
X154.015Y-54.31
X154.015Y-56.85
X154.145Y-13.285
X154.145Y-15.825
X156.555Y-54.31
X156.555Y-56.85
X156.685Y-13.285
X156.685Y-15.825
X159.095Y-54.31
X159.095Y-56.85
X159.225Y-13.285
X159.225Y-15.825
X161.635Y-54.31
X161.635Y-56.85
X161.765Y-13.285
X161.765Y-15.825
X164.175Y-54.31
X164.175Y-56.85
X164.305Y-13.285
X164.305Y-15.825
X166.715Y-54.31
X166.715Y-56.85
X166.845Y-13.285
X166.845Y-15.825
X169.255Y-54.31
X169.255Y-56.85
X169.385Y-13.285
X169.385Y-15.825
X171.795Y-54.31
X171.795Y-56.85
X171.925Y-13.285
X171.925Y-15.825
X174.335Y-54.31
X174.335Y-56.85
X174.465Y-13.285
X174.465Y-15.825
X176.875Y-54.31
X176.875Y-56.85
X177.005Y-13.285
X177.005Y-15.825
X179.415Y-54.31
X179.415Y-56.85
X179.545Y-13.285
X179.545Y-15.825
X181.955Y-54.31
X181.955Y-56.85
X182.085Y-13.285
X182.085Y-15.825
X182.275Y-94.985
X182.275Y-97.525
X184.495Y-54.31
X184.495Y-56.85
X184.625Y-13.285
X184.625Y-15.825
X184.815Y-94.985
X184.815Y-97.525
X187.035Y-54.31
X187.035Y-56.85
X187.165Y-13.285
X187.165Y-15.825
X187.355Y-94.985
X187.355Y-97.525
X189.575Y-54.31
X189.575Y-56.85
X189.705Y-13.285
X189.705Y-15.825
X189.895Y-94.985
X189.895Y-97.525
X190.32Y-154.895
X190.32Y-157.435
X192.115Y-54.31
X192.115Y-56.85
X192.245Y-13.285
X192.245Y-15.825
X192.435Y-94.985
X192.435Y-97.525
X192.86Y-154.895
X192.86Y-157.435
X194.655Y-54.31
X194.655Y-56.85
X194.785Y-13.285
X194.785Y-15.825
X194.975Y-94.985
X194.975Y-97.525
X195.4Y-154.895
X195.4Y-157.435
X197.195Y-54.31
X197.195Y-56.85
X197.325Y-13.285
X197.325Y-15.825
X197.515Y-94.985
X197.515Y-97.525
X197.94Y-154.895
X197.94Y-157.435
X200.055Y-94.985
X200.055Y-97.525
X200.48Y-154.895
X200.48Y-157.435
X202.595Y-94.985
X202.595Y-97.525
X205.135Y-94.985
X205.135Y-97.525
X207.675Y-94.985
X207.675Y-97.525
X210.215Y-94.985
X210.215Y-97.525
X212.755Y-94.985
X212.755Y-97.525
X215.295Y-94.985
X215.295Y-97.525
X217.835Y-94.985
X217.835Y-97.525
X236.0Y-78.52
X236.0Y-81.06
X236.0Y-97.06
X236.0Y-99.6
X236.015Y-85.345
X236.015Y-87.885
X236.1Y-47.02
X236.1Y-49.56
X238.54Y-78.52
X238.54Y-81.06
X238.54Y-97.06
X238.54Y-99.6
X238.555Y-85.345
X238.555Y-87.885
X238.64Y-47.02
X238.64Y-49.56
X257.1Y-22.99
X257.1Y-25.53
X257.1Y-28.07
X257.1Y-30.61
X257.1Y-33.15
X257.1Y-35.69
X257.1Y-38.23
X257.1Y-40.77
X257.1Y-43.31
X257.1Y-45.85
X257.1Y-48.39
X257.1Y-50.93
X257.1Y-53.47
X257.1Y-56.01
X257.1Y-58.55
X257.1Y-61.09
X257.1Y-63.63
X257.1Y-66.17
X257.1Y-68.71
X257.1Y-71.25
X257.1Y-100.31
X257.1Y-102.85
X257.1Y-105.39
X257.1Y-107.93
X257.1Y-110.47
X257.1Y-113.01
X257.1Y-115.55
X257.1Y-118.09
X257.1Y-120.63
X257.1Y-123.17
X257.1Y-125.71
X257.1Y-128.25
X257.1Y-130.79
X257.1Y-133.33
X257.1Y-135.87
X257.1Y-138.41
X257.1Y-140.95
X257.1Y-143.49
X257.1Y-146.03
X257.1Y-148.57
X259.64Y-22.99
X259.64Y-25.53
X259.64Y-28.07
X259.64Y-30.61
X259.64Y-33.15
X259.64Y-35.69
X259.64Y-38.23
X259.64Y-40.77
X259.64Y-43.31
X259.64Y-45.85
X259.64Y-48.39
X259.64Y-50.93
X259.64Y-53.47
X259.64Y-56.01
X259.64Y-58.55
X259.64Y-61.09
X259.64Y-63.63
X259.64Y-66.17
X259.64Y-68.71
X259.64Y-71.25
X259.64Y-100.31
X259.64Y-102.85
X259.64Y-105.39
X259.64Y-107.93
X259.64Y-110.47
X259.64Y-113.01
X259.64Y-115.55
X259.64Y-118.09
X259.64Y-120.63
X259.64Y-123.17
X259.64Y-125.71
X259.64Y-128.25
X259.64Y-130.79
X259.64Y-133.33
X259.64Y-135.87
X259.64Y-138.41
X259.64Y-140.95
X259.64Y-143.49
X259.64Y-146.03
X259.64Y-148.57
T8
X75.34Y-125.89
T9
X39.3Y-155.54
X105.44Y-155.54
X181.38Y-155.915
X209.42Y-155.915
X258.12Y-14.05
X258.12Y-80.19
X258.12Y-91.37
X258.12Y-157.51
T10
X245.935Y-13.87
X245.935Y-80.01
X245.935Y-91.19
X245.935Y-157.33
X267.56Y-13.865
X267.56Y-79.985
X267.56Y-91.185
X267.56Y-157.305
T11
X26.04Y-15.06
X26.04Y-156.06
X141.04Y-15.06
X141.04Y-156.06
X236.0Y-155.755
X236.04Y-15.06
T0
M30
