M48
; DRILL file {KiCad (7.0.0)} date Wed Oct 30 08:50:38 2024
; FORMAT={-:-/ absolute / metric / decimal}
; #@! TF.CreationDate,2024-10-30T08:50:38+03:30
; #@! TF.GenerationSoftware,Kicad,Pcbnew,(7.0.0)
; #@! TF.FileFunction,Plated,1,2,PTH
FMAT,2
METRIC
; #@! TA.AperFunction,Plated,PTH,ComponentDrill
T1C0.200
; #@! TA.AperFunction,Plated,PTH,ViaDrill
T2C0.400
; #@! TA.AperFunction,Plated,PTH,ComponentDrill
T3C0.500
; #@! TA.AperFunction,Plated,PTH,ComponentDrill
T4C0.600
; #@! TA.AperFunction,Plated,PTH,ComponentDrill
T5C0.800
; #@! TA.AperFunction,Plated,PTH,ComponentDrill
T6C1.000
; #@! TA.AperFunction,Plated,PTH,ComponentDrill
T7C1.200
; #@! TA.AperFunction,Plated,PTH,ComponentDrill
T8C1.300
; #@! TA.AperFunction,Plated,PTH,ComponentDrill
T9C2.690
; #@! TA.AperFunction,Plated,PTH,ComponentDrill
T10C3.500
; #@! TA.AperFunction,Plated,PTH,ComponentDrill
T11C4.300
%
G90
G05
T1
X227.08Y-39.64
X227.08Y-40.74
X227.08Y-41.84
X227.08Y-42.94
X227.08Y-44.04
X228.18Y-39.64
X228.18Y-40.74
X228.18Y-41.84
X228.18Y-42.94
X228.18Y-44.04
X229.28Y-39.64
X229.28Y-40.74
X229.28Y-41.84
X229.28Y-42.94
X229.28Y-44.04
X237.38Y-82.66
X237.38Y-83.76
X238.68Y-82.66
X238.68Y-83.76
X252.542Y-36.645
X252.542Y-37.945
X253.642Y-36.645
X253.642Y-37.945
T2
X162.5Y-36.48
X164.2Y-94.48
X164.2Y-96.68
X164.2Y-102.78
X164.2Y-105.28
X164.7Y-127.88
X164.7Y-130.58
X164.7Y-133.18
X164.7Y-135.58
X164.7Y-138.38
X164.7Y-141.08
X164.7Y-143.68
X164.7Y-146.08
X164.9Y-36.48
X165.3Y-34.08
X165.4Y-113.035
X165.4Y-115.72
X166.6Y-94.48
X166.6Y-96.68
X166.6Y-102.78
X166.6Y-105.28
X166.75Y-115.77
X166.76Y-113.035
X167.3Y-127.98
X167.3Y-130.68
X167.3Y-133.28
X167.3Y-135.68
X167.3Y-138.48
X167.3Y-141.18
X167.3Y-143.78
X167.3Y-146.18
X167.5Y-36.48
X167.7Y-34.08
X168.0Y-31.58
X168.6Y-87.58
X169.2Y-94.48
X169.2Y-96.68
X169.2Y-102.78
X169.2Y-105.28
X170.2Y-36.48
X170.3Y-34.08
X170.4Y-31.58
X170.7Y-26.48
X170.7Y-28.88
X171.0Y-87.58
X171.9Y-94.48
X171.9Y-96.68
X171.9Y-102.78
X171.9Y-105.28
X173.0Y-31.58
X173.0Y-34.08
X173.1Y-26.48
X173.1Y-28.88
X173.6Y-87.58
X175.7Y-26.48
X175.7Y-28.88
X175.7Y-31.58
X176.3Y-87.58
X176.4Y-67.98
X176.4Y-69.28
X176.4Y-70.48
X176.4Y-71.78
X176.4Y-72.98
X176.4Y-74.38
X176.4Y-75.68
X176.4Y-76.98
X177.8Y-67.98
X177.8Y-69.28
X177.8Y-70.48
X177.8Y-71.78
X177.8Y-72.98
X177.8Y-74.38
X177.8Y-75.68
X177.8Y-76.98
X178.4Y-26.48
X178.4Y-28.88
X179.0Y-67.98
X179.0Y-69.28
X179.0Y-70.48
X179.0Y-71.78
X179.0Y-72.98
X179.0Y-74.38
X179.0Y-75.68
X179.0Y-76.98
X179.1Y-87.58
X180.2Y-67.98
X180.2Y-69.28
X180.2Y-70.48
X180.2Y-71.78
X180.2Y-72.98
X180.2Y-74.38
X180.2Y-75.68
X180.2Y-76.98
X181.1Y-26.48
X181.1Y-28.68
X181.4Y-67.98
X181.4Y-69.28
X181.4Y-70.48
X181.4Y-71.78
X181.4Y-72.98
X181.4Y-74.38
X181.4Y-75.68
X181.4Y-76.98
X181.5Y-87.58
X182.7Y-67.98
X182.7Y-69.28
X182.7Y-70.48
X182.7Y-71.78
X182.7Y-72.98
X182.7Y-74.38
X182.7Y-75.68
X182.7Y-76.98
X183.0Y-126.38
X183.2Y-122.18
X183.2Y-124.28
X183.5Y-26.48
X183.5Y-28.68
X184.0Y-67.98
X184.0Y-69.28
X184.0Y-70.48
X184.0Y-71.78
X184.0Y-72.98
X184.0Y-74.38
X184.0Y-75.68
X184.0Y-76.98
X184.1Y-87.58
X185.3Y-67.98
X185.3Y-69.28
X185.3Y-70.48
X185.3Y-71.78
X185.3Y-72.98
X185.3Y-74.38
X185.3Y-75.68
X185.3Y-76.98
X185.4Y-126.38
X185.6Y-122.18
X185.6Y-124.28
X186.1Y-26.48
X186.1Y-28.68
X186.8Y-87.58
X187.9Y-97.08
X188.0Y-126.38
X188.2Y-122.18
X188.2Y-124.28
X188.8Y-26.48
X188.8Y-28.68
X189.49Y-141.13
X189.56Y-143.13
X189.63Y-145.07
X190.3Y-97.08
X190.37Y-140.32
X190.38Y-142.14
X190.38Y-146.04
X190.41Y-144.07
X190.7Y-126.38
X190.9Y-122.18
X190.9Y-124.28
X192.11Y-158.8
X192.12Y-154.4
X192.43Y-70.75
X192.9Y-97.08
X193.5Y-53.38
X193.5Y-54.38
X193.5Y-55.38
X193.5Y-56.38
X193.5Y-57.38
X193.5Y-58.38
X193.58Y-150.39
X193.58Y-151.73
X194.5Y-46.38
X194.5Y-47.38
X194.5Y-53.38
X194.5Y-54.38
X194.5Y-55.38
X194.5Y-56.38
X194.5Y-57.38
X194.5Y-58.38
X194.71Y-150.44
X194.71Y-151.73
X195.3Y-29.08
X195.5Y-53.38
X195.5Y-54.38
X195.5Y-55.38
X195.5Y-56.38
X195.5Y-57.38
X195.5Y-58.38
X195.6Y-97.08
X195.85Y-151.67
X195.86Y-150.37
X196.0Y-46.38
X196.0Y-47.38
X196.5Y-53.38
X196.5Y-54.38
X196.5Y-55.38
X196.5Y-56.38
X196.5Y-57.38
X196.5Y-58.38
X197.5Y-29.08
X197.5Y-46.38
X197.5Y-47.38
X197.5Y-53.38
X197.5Y-54.38
X197.5Y-55.38
X197.5Y-56.38
X197.5Y-57.38
X197.5Y-58.38
X198.5Y-53.38
X198.5Y-54.38
X198.5Y-55.38
X198.5Y-56.38
X198.5Y-57.38
X198.5Y-58.38
X198.5Y-97.08
X199.0Y-46.38
X199.0Y-47.38
X199.9Y-29.08
X200.2Y-100.18
X200.2Y-101.48
X200.2Y-102.68
X200.2Y-103.98
X200.2Y-105.18
X200.2Y-106.58
X200.2Y-107.88
X200.2Y-109.18
X200.5Y-46.38
X200.5Y-47.38
X200.5Y-48.38
X200.6Y-161.28
X200.7Y-163.78
X200.9Y-97.08
X201.6Y-100.18
X201.6Y-101.48
X201.6Y-102.68
X201.6Y-103.98
X201.6Y-105.18
X201.6Y-106.58
X201.6Y-107.88
X201.6Y-109.18
X202.0Y-46.38
X202.0Y-47.38
X202.0Y-48.38
X202.44Y-81.66
X202.5Y-29.38
X202.5Y-30.88
X202.5Y-32.38
X202.5Y-34.38
X202.5Y-36.38
X202.5Y-38.38
X202.8Y-100.18
X202.8Y-101.48
X202.8Y-102.68
X202.8Y-103.98
X202.8Y-105.18
X202.8Y-106.58
X202.8Y-107.88
X202.8Y-109.18
X203.3Y-161.28
X203.4Y-163.78
X203.5Y-46.38
X203.5Y-47.38
X203.5Y-48.38
X203.5Y-97.08
X204.0Y-29.38
X204.0Y-30.88
X204.0Y-32.38
X204.0Y-34.38
X204.0Y-36.38
X204.0Y-38.38
X204.0Y-100.18
X204.0Y-101.48
X204.0Y-102.68
X204.0Y-103.98
X204.0Y-105.18
X204.0Y-106.58
X204.0Y-107.88
X204.0Y-109.18
X204.5Y-55.38
X204.5Y-56.88
X204.5Y-58.38
X205.2Y-100.18
X205.2Y-101.48
X205.2Y-102.68
X205.2Y-103.98
X205.2Y-105.18
X205.2Y-106.58
X205.2Y-107.88
X205.2Y-109.18
X205.5Y-29.38
X205.5Y-30.88
X205.5Y-32.38
X205.5Y-34.38
X205.5Y-36.38
X205.5Y-38.38
X205.9Y-161.28
X206.0Y-163.78
X206.2Y-97.08
X206.5Y-100.18
X206.5Y-101.48
X206.5Y-102.68
X206.5Y-103.98
X206.5Y-105.18
X206.5Y-106.58
X206.5Y-107.88
X206.5Y-109.18
X207.0Y-29.38
X207.0Y-30.88
X207.5Y-49.38
X207.8Y-100.18
X207.8Y-101.48
X207.8Y-102.68
X207.8Y-103.98
X207.8Y-105.18
X207.8Y-106.58
X207.8Y-107.88
X207.8Y-109.18
X208.3Y-161.28
X208.4Y-163.78
X208.5Y-29.38
X208.5Y-30.88
X209.1Y-100.18
X209.1Y-101.48
X209.1Y-102.68
X209.1Y-103.98
X209.1Y-105.18
X209.1Y-106.58
X209.1Y-107.88
X209.1Y-109.18
X209.423Y-49.38
X209.5Y-55.38
X209.5Y-56.88
X209.5Y-58.38
X210.0Y-29.38
X210.0Y-30.88
X210.0Y-53.38
X211.1Y-161.28
X211.2Y-32.73
X211.2Y-33.78
X211.2Y-34.93
X211.2Y-35.98
X211.2Y-163.78
X211.346Y-49.38
X211.5Y-29.38
X211.5Y-30.88
X211.5Y-55.38
X211.5Y-56.88
X211.5Y-58.38
X211.923Y-53.38
X212.17Y-32.73
X212.17Y-33.78
X212.17Y-34.93
X212.17Y-35.98
X213.0Y-29.38
X213.0Y-30.88
X213.08Y-84.91
X213.17Y-32.73
X213.17Y-33.78
X213.17Y-34.93
X213.17Y-35.98
X213.269Y-49.38
X213.5Y-55.38
X213.5Y-56.88
X213.5Y-58.38
X213.8Y-161.28
X213.846Y-53.38
X213.9Y-163.78
X214.17Y-32.73
X214.17Y-33.78
X214.17Y-34.93
X214.17Y-35.98
X214.5Y-29.38
X214.5Y-30.88
X214.5Y-128.68
X214.5Y-130.88
X215.192Y-49.38
X215.34Y-64.39
X215.5Y-55.38
X215.5Y-56.88
X215.5Y-58.38
X215.57Y-80.54
X215.769Y-53.38
X216.0Y-29.38
X216.0Y-30.88
X216.0Y-32.38
X216.4Y-161.28
X216.5Y-163.78
X216.9Y-128.68
X216.9Y-130.88
X217.115Y-49.38
X217.5Y-29.38
X217.5Y-30.88
X217.5Y-32.38
X217.692Y-53.38
X217.8Y-46.68
X217.9Y-35.58
X218.8Y-161.28
X218.9Y-163.78
X219.0Y-29.38
X219.0Y-30.88
X219.0Y-32.38
X219.038Y-49.38
X219.5Y-46.68
X219.5Y-128.68
X219.5Y-130.88
X219.615Y-53.38
X220.0Y-27.32
X220.5Y-55.38
X220.5Y-56.88
X220.5Y-58.38
X220.95Y-91.54
X220.962Y-49.38
X221.1Y-27.32
X221.1Y-46.68
X221.465Y-82.345
X221.538Y-53.38
X221.94Y-168.329
X222.2Y-128.68
X222.2Y-130.88
X222.38Y-77.2
X222.5Y-55.38
X222.5Y-56.88
X222.5Y-58.38
X222.885Y-49.38
X223.0Y-45.38
X223.0Y-46.68
X223.462Y-53.38
X223.7Y-38.41
X224.5Y-55.38
X224.5Y-56.88
X224.5Y-58.38
X224.7Y-45.38
X224.7Y-46.68
X224.8Y-171.78
X224.808Y-49.38
X224.9Y-173.68
X225.28Y-38.23
X225.385Y-53.38
X225.96Y-84.86
X226.3Y-45.38
X226.3Y-46.68
X226.5Y-55.38
X226.5Y-56.88
X226.5Y-58.38
X226.731Y-49.38
X227.05Y-78.1
X227.06Y-77.09
X227.25Y-157.75
X227.308Y-53.38
X227.5Y-171.78
X227.6Y-173.68
X228.654Y-49.38
X229.231Y-53.38
X230.1Y-171.78
X230.2Y-173.68
X230.577Y-49.38
X230.94Y-148.39
X230.95Y-149.67
X231.154Y-53.38
X231.5Y-55.38
X231.5Y-56.88
X231.5Y-58.38
X231.63Y-158.0
X231.88Y-148.37
X231.93Y-149.62
X232.5Y-49.38
X232.5Y-132.38
X232.5Y-171.78
X232.6Y-173.68
X232.8Y-126.08
X232.9Y-128.98
X233.077Y-53.38
X233.17Y-42.325
X233.5Y-55.38
X233.5Y-56.88
X233.5Y-58.38
X234.28Y-158.74
X234.29Y-157.81
X234.32Y-164.35
X234.32Y-165.24
X234.9Y-132.38
X235.0Y-53.38
X235.2Y-126.08
X235.3Y-128.98
X235.3Y-171.78
X235.4Y-173.68
X235.5Y-55.38
X235.5Y-56.88
X235.5Y-58.38
X235.7Y-29.88
X235.7Y-31.38
X235.7Y-32.78
X235.7Y-34.28
X235.77Y-140.3
X235.87Y-141.6
X235.93Y-142.79
X235.96Y-144.07
X236.01Y-145.13
X236.85Y-140.29
X236.87Y-141.6
X236.9Y-142.79
X236.91Y-145.16
X236.96Y-144.0
X237.4Y-29.88
X237.4Y-31.38
X237.4Y-32.78
X237.4Y-34.28
X237.5Y-132.38
X237.8Y-126.08
X237.9Y-128.98
X238.0Y-171.78
X238.1Y-173.68
X238.9Y-39.98
X238.9Y-41.08
X239.0Y-29.88
X239.0Y-31.38
X239.0Y-32.78
X239.0Y-34.28
X239.0Y-35.58
X239.0Y-36.68
X240.2Y-132.38
X240.5Y-126.08
X240.6Y-39.98
X240.6Y-41.08
X240.6Y-128.98
X240.6Y-171.78
X240.7Y-35.58
X240.7Y-36.68
X240.7Y-173.68
X241.74Y-79.57
X242.0Y-29.18
X242.2Y-39.98
X242.2Y-41.08
X242.3Y-35.58
X242.3Y-36.68
X242.65Y-79.59
X243.0Y-132.38
X243.0Y-171.78
X243.1Y-173.68
X243.3Y-126.08
X243.397Y-38.83
X243.4Y-128.98
X244.2Y-29.18
X244.627Y-43.94
X245.4Y-132.38
X245.61Y-92.62
X245.7Y-126.08
X245.8Y-128.98
X246.248Y-40.64
X246.4Y-29.18
X246.6Y-37.28
X247.1Y-42.78
X248.0Y-132.38
X248.205Y-44.578
X248.3Y-126.08
X248.4Y-128.98
X249.2Y-41.85
X249.4Y-45.48
X250.007Y-41.83
X250.1Y-35.18
X250.7Y-132.38
X251.0Y-126.08
X251.1Y-128.98
X251.8Y-35.18
X253.0Y-39.28
X253.4Y-35.18
X255.8Y-35.38
X256.5Y-40.89
X256.7Y-43.28
X260.3Y-126.08
X260.3Y-128.48
X260.3Y-131.08
X260.3Y-133.78
X260.3Y-136.58
X260.3Y-138.98
X260.3Y-141.58
X260.3Y-144.28
T3
X127.715Y-105.555
X127.715Y-171.675
X128.07Y-28.49
X128.07Y-94.63
X128.484Y-103.699
X128.484Y-107.411
X128.484Y-169.819
X128.484Y-173.531
X128.839Y-26.634
X128.839Y-30.346
X128.839Y-92.774
X128.839Y-96.486
X130.34Y-102.93
X130.34Y-108.18
X130.34Y-169.05
X130.34Y-174.3
X130.695Y-25.865
X130.695Y-31.115
X130.695Y-92.005
X130.695Y-97.255
X132.196Y-103.699
X132.196Y-107.411
X132.196Y-169.819
X132.196Y-173.531
X132.551Y-26.634
X132.551Y-30.346
X132.551Y-92.774
X132.551Y-96.486
X132.965Y-105.555
X132.965Y-171.675
X133.32Y-28.49
X133.32Y-94.63
X149.34Y-105.53
X149.34Y-171.67
X149.695Y-28.485
X149.695Y-94.605
X150.109Y-103.674
X150.109Y-107.386
X150.109Y-169.814
X150.109Y-173.526
X150.464Y-26.629
X150.464Y-30.341
X150.464Y-92.749
X150.464Y-96.461
X151.965Y-102.905
X151.965Y-108.155
X151.965Y-169.045
X151.965Y-174.295
X152.32Y-25.86
X152.32Y-31.11
X152.32Y-91.98
X152.32Y-97.23
X153.821Y-103.674
X153.821Y-107.386
X153.821Y-169.814
X153.821Y-173.526
X154.176Y-26.629
X154.176Y-30.341
X154.176Y-92.749
X154.176Y-96.461
X154.59Y-105.53
X154.59Y-171.67
X154.945Y-28.485
X154.945Y-94.605
T4
X159.175Y-29.48
X159.175Y-170.48
X160.12Y-27.2
X160.12Y-31.76
X160.12Y-168.2
X160.12Y-172.76
X162.4Y-26.255
X162.4Y-32.705
X162.4Y-167.255
X162.4Y-173.705
X164.68Y-27.2
X164.68Y-31.76
X164.68Y-168.2
X164.68Y-172.76
X165.625Y-29.48
X165.625Y-170.48
X210.343Y-69.21
X210.45Y-74.26
X212.343Y-69.21
X212.45Y-74.26
X254.135Y-170.175
X254.175Y-29.48
X255.08Y-167.895
X255.08Y-172.455
X255.12Y-27.2
X255.12Y-31.76
X257.36Y-166.95
X257.36Y-173.4
X257.4Y-26.255
X257.4Y-32.705
X259.64Y-167.895
X259.64Y-172.455
X259.68Y-27.2
X259.68Y-31.76
X260.585Y-170.175
X260.625Y-29.48
T5
X177.752Y-154.87
X181.552Y-154.87
X245.01Y-154.69
X248.81Y-154.69
T6
X138.14Y-114.79
X138.14Y-117.33
X138.14Y-119.87
X138.14Y-122.41
X138.14Y-124.95
X138.14Y-127.49
X138.14Y-130.03
X138.14Y-132.57
X138.14Y-135.11
X138.14Y-137.65
X138.14Y-140.19
X138.14Y-142.73
X138.14Y-145.27
X138.14Y-147.81
X138.14Y-150.35
X138.14Y-152.89
X138.14Y-155.43
X138.14Y-157.97
X138.14Y-160.51
X138.14Y-163.05
X140.68Y-114.79
X140.68Y-117.33
X140.68Y-119.87
X140.68Y-122.41
X140.68Y-124.95
X140.68Y-127.49
X140.68Y-130.03
X140.68Y-132.57
X140.68Y-135.11
X140.68Y-137.65
X140.68Y-140.19
X140.68Y-142.73
X140.68Y-145.27
X140.68Y-147.81
X140.68Y-150.35
X140.68Y-152.89
X140.68Y-155.43
X140.68Y-157.97
X140.68Y-160.51
X140.68Y-163.05
X141.98Y-37.11
X141.98Y-39.65
X141.98Y-42.19
X141.98Y-44.73
X141.98Y-47.27
X141.98Y-49.81
X141.98Y-52.35
X141.98Y-54.89
X141.98Y-57.43
X141.98Y-59.97
X141.98Y-62.51
X141.98Y-65.05
X141.98Y-67.59
X141.98Y-70.13
X141.98Y-72.67
X141.98Y-75.21
X141.98Y-77.75
X141.98Y-80.29
X141.98Y-82.83
X141.98Y-85.37
X144.52Y-37.11
X144.52Y-39.65
X144.52Y-42.19
X144.52Y-44.73
X144.52Y-47.27
X144.52Y-49.81
X144.52Y-52.35
X144.52Y-54.89
X144.52Y-57.43
X144.52Y-59.97
X144.52Y-62.51
X144.52Y-65.05
X144.52Y-67.59
X144.52Y-70.13
X144.52Y-72.67
X144.52Y-75.21
X144.52Y-77.75
X144.52Y-80.29
X144.52Y-82.83
X144.52Y-85.37
X166.7Y-155.98
X166.8Y-148.58
X169.86Y-108.48
X169.86Y-111.02
X169.86Y-169.98
X169.86Y-172.52
X169.885Y-115.955
X169.885Y-118.495
X172.4Y-108.48
X172.4Y-111.02
X172.4Y-169.98
X172.4Y-172.52
X172.425Y-115.955
X172.425Y-118.495
X207.35Y-51.148
X207.35Y-56.148
X208.4Y-89.48
X217.9Y-63.28
X218.35Y-51.148
X218.35Y-56.148
X223.7Y-92.18
X223.732Y-70.653
X227.482Y-70.653
X229.35Y-50.915
X229.35Y-55.915
X240.35Y-50.715
X240.35Y-55.715
X241.0Y-99.88
X243.577Y-32.64
X245.8Y-105.48
X248.6Y-78.58
X248.6Y-85.98
X251.7Y-47.68
X252.4Y-162.28
X257.0Y-47.78
X257.36Y-92.94
X257.36Y-95.48
X257.36Y-111.48
X257.36Y-114.02
X257.375Y-99.765
X257.375Y-102.305
X257.46Y-61.44
X257.46Y-63.98
X258.9Y-162.28
X259.9Y-92.94
X259.9Y-95.48
X259.9Y-111.48
X259.9Y-114.02
X259.915Y-99.765
X259.915Y-102.305
X260.0Y-61.44
X260.0Y-63.98
T7
X166.132Y-40.725
X166.132Y-44.535
X166.132Y-48.345
X176.44Y-37.14
X182.73Y-83.307
X182.73Y-90.807
X183.94Y-37.14
X203.53Y-115.79
X203.53Y-123.29
X233.04Y-116.658
X233.04Y-121.658
T8
X213.59Y-139.59
X213.59Y-154.83
X238.732Y-70.653
X243.732Y-70.653
X248.732Y-70.653
T9
X139.16Y-105.85
X139.16Y-171.99
X143.5Y-28.17
X143.5Y-94.31
T10
X130.34Y-105.555
X130.34Y-171.675
X130.695Y-28.49
X130.695Y-94.63
X151.965Y-105.53
X151.965Y-171.67
X152.32Y-28.485
X152.32Y-94.605
T11
X162.4Y-29.48
X162.4Y-170.48
X257.36Y-170.175
X257.4Y-29.48
T0
M30
