%TF.GenerationSoftware,KiCad,Pcbnew,(7.0.0)*%
%TF.CreationDate,2024-10-30T08:51:02+03:30*%
%TF.ProjectId,tester supply,74657374-6572-4207-9375-70706c792e6b,rev?*%
%TF.SameCoordinates,Original*%
%TF.FileFunction,Soldermask,Bot*%
%TF.FilePolarity,Negative*%
%FSLAX46Y46*%
G04 Gerber Fmt 4.6, Leading zero omitted, Abs format (unit mm)*
G04 Created by KiCad (PCBNEW (7.0.0)) date 2024-10-30 08:51:02*
%MOMM*%
%LPD*%
G01*
G04 APERTURE LIST*
G04 Aperture macros list*
%AMRoundRect*
0 Rectangle with rounded corners*
0 $1 Rounding radius*
0 $2 $3 $4 $5 $6 $7 $8 $9 X,Y pos of 4 corners*
0 Add a 4 corners polygon primitive as box body*
4,1,4,$2,$3,$4,$5,$6,$7,$8,$9,$2,$3,0*
0 Add four circle primitives for the rounded corners*
1,1,$1+$1,$2,$3*
1,1,$1+$1,$4,$5*
1,1,$1+$1,$6,$7*
1,1,$1+$1,$8,$9*
0 Add four rect primitives between the rounded corners*
20,1,$1+$1,$2,$3,$4,$5,0*
20,1,$1+$1,$4,$5,$6,$7,0*
20,1,$1+$1,$6,$7,$8,$9,0*
20,1,$1+$1,$8,$9,$2,$3,0*%
G04 Aperture macros list end*
%ADD10C,0.800000*%
%ADD11C,7.000000*%
%ADD12RoundRect,0.250000X-0.600000X-0.600000X0.600000X-0.600000X0.600000X0.600000X-0.600000X0.600000X0*%
%ADD13C,1.700000*%
%ADD14C,8.000000*%
%ADD15RoundRect,0.250000X0.600000X0.600000X-0.600000X0.600000X-0.600000X-0.600000X0.600000X-0.600000X0*%
%ADD16C,2.000000*%
%ADD17R,1.700000X1.700000*%
%ADD18O,1.700000X1.700000*%
%ADD19C,0.900000*%
%ADD20C,8.600000*%
%ADD21R,2.600000X2.600000*%
%ADD22O,2.600000X2.600000*%
%ADD23RoundRect,0.250000X-1.550000X0.650000X-1.550000X-0.650000X1.550000X-0.650000X1.550000X0.650000X0*%
%ADD24O,3.600000X1.800000*%
%ADD25R,1.200000X1.200000*%
%ADD26C,1.200000*%
%ADD27RoundRect,0.250000X0.650000X-0.412500X0.650000X0.412500X-0.650000X0.412500X-0.650000X-0.412500X0*%
%ADD28R,2.400000X2.400000*%
%ADD29C,2.400000*%
%ADD30RoundRect,0.250000X-0.412500X-0.650000X0.412500X-0.650000X0.412500X0.650000X-0.412500X0.650000X0*%
%ADD31R,2.000000X2.000000*%
%ADD32R,1.600000X1.600000*%
%ADD33C,1.600000*%
%ADD34RoundRect,0.250000X0.625000X-0.400000X0.625000X0.400000X-0.625000X0.400000X-0.625000X-0.400000X0*%
%ADD35RoundRect,0.250000X-0.650000X0.412500X-0.650000X-0.412500X0.650000X-0.412500X0.650000X0.412500X0*%
G04 APERTURE END LIST*
D10*
%TO.C,H2*%
X151965000Y-174295000D03*
X150108845Y-173526155D03*
X153821155Y-173526155D03*
X149340000Y-171670000D03*
D11*
X151965000Y-171670000D03*
D10*
X154590000Y-171670000D03*
X150108845Y-169813845D03*
X153821155Y-169813845D03*
X151965000Y-169045000D03*
%TD*%
%TO.C,H1*%
X130340000Y-174300000D03*
X128483845Y-173531155D03*
X132196155Y-173531155D03*
X127715000Y-171675000D03*
D11*
X130340000Y-171675000D03*
D10*
X132965000Y-171675000D03*
X128483845Y-169818845D03*
X132196155Y-169818845D03*
X130340000Y-169050000D03*
%TD*%
%TO.C,H3*%
X130340000Y-108180000D03*
X128483845Y-107411155D03*
X132196155Y-107411155D03*
X127715000Y-105555000D03*
D11*
X130340000Y-105555000D03*
D10*
X132965000Y-105555000D03*
X128483845Y-103698845D03*
X132196155Y-103698845D03*
X130340000Y-102930000D03*
%TD*%
%TO.C,H4*%
X151965000Y-108155000D03*
X150108845Y-107386155D03*
X153821155Y-107386155D03*
X149340000Y-105530000D03*
D11*
X151965000Y-105530000D03*
D10*
X154590000Y-105530000D03*
X150108845Y-103673845D03*
X153821155Y-103673845D03*
X151965000Y-102905000D03*
%TD*%
D12*
%TO.C,J1*%
X138140000Y-114790000D03*
D13*
X140680000Y-114790000D03*
X138140000Y-117330000D03*
X140680000Y-117330000D03*
X138140000Y-119870000D03*
X140680000Y-119870000D03*
X138140000Y-122410000D03*
X140680000Y-122410000D03*
X138140000Y-124950000D03*
X140680000Y-124950000D03*
X138140000Y-127490000D03*
X140680000Y-127490000D03*
X138140000Y-130030000D03*
X140680000Y-130030000D03*
X138140000Y-132570000D03*
X140680000Y-132570000D03*
X138140000Y-135110000D03*
X140680000Y-135110000D03*
X138140000Y-137650000D03*
X140680000Y-137650000D03*
X138140000Y-140190000D03*
X140680000Y-140190000D03*
X138140000Y-142730000D03*
X140680000Y-142730000D03*
X138140000Y-145270000D03*
X140680000Y-145270000D03*
X138140000Y-147810000D03*
X140680000Y-147810000D03*
X138140000Y-150350000D03*
X140680000Y-150350000D03*
X138140000Y-152890000D03*
X140680000Y-152890000D03*
X138140000Y-155430000D03*
X140680000Y-155430000D03*
X138140000Y-157970000D03*
X140680000Y-157970000D03*
X138140000Y-160510000D03*
X140680000Y-160510000D03*
X138140000Y-163050000D03*
X140680000Y-163050000D03*
D14*
X139160000Y-105850000D03*
X139160000Y-171990000D03*
%TD*%
D10*
%TO.C,H2*%
X130695000Y-25865000D03*
X132551155Y-26633845D03*
X128838845Y-26633845D03*
X133320000Y-28490000D03*
D11*
X130695000Y-28490000D03*
D10*
X128070000Y-28490000D03*
X132551155Y-30346155D03*
X128838845Y-30346155D03*
X130695000Y-31115000D03*
%TD*%
%TO.C,H1*%
X152320000Y-25860000D03*
X154176155Y-26628845D03*
X150463845Y-26628845D03*
X154945000Y-28485000D03*
D11*
X152320000Y-28485000D03*
D10*
X149695000Y-28485000D03*
X154176155Y-30341155D03*
X150463845Y-30341155D03*
X152320000Y-31110000D03*
%TD*%
%TO.C,H3*%
X152320000Y-91980000D03*
X154176155Y-92748845D03*
X150463845Y-92748845D03*
X154945000Y-94605000D03*
D11*
X152320000Y-94605000D03*
D10*
X149695000Y-94605000D03*
X154176155Y-96461155D03*
X150463845Y-96461155D03*
X152320000Y-97230000D03*
%TD*%
%TO.C,H4*%
X130695000Y-92005000D03*
X132551155Y-92773845D03*
X128838845Y-92773845D03*
X133320000Y-94630000D03*
D11*
X130695000Y-94630000D03*
D10*
X128070000Y-94630000D03*
X132551155Y-96486155D03*
X128838845Y-96486155D03*
X130695000Y-97255000D03*
%TD*%
D15*
%TO.C,J1*%
X144520000Y-85370000D03*
D13*
X141980000Y-85370000D03*
X144520000Y-82830000D03*
X141980000Y-82830000D03*
X144520000Y-80290000D03*
X141980000Y-80290000D03*
X144520000Y-77750000D03*
X141980000Y-77750000D03*
X144520000Y-75210000D03*
X141980000Y-75210000D03*
X144520000Y-72670000D03*
X141980000Y-72670000D03*
X144520000Y-70130000D03*
X141980000Y-70130000D03*
X144520000Y-67590000D03*
X141980000Y-67590000D03*
X144520000Y-65050000D03*
X141980000Y-65050000D03*
X144520000Y-62510000D03*
X141980000Y-62510000D03*
X144520000Y-59970000D03*
X141980000Y-59970000D03*
X144520000Y-57430000D03*
X141980000Y-57430000D03*
X144520000Y-54890000D03*
X141980000Y-54890000D03*
X144520000Y-52350000D03*
X141980000Y-52350000D03*
X144520000Y-49810000D03*
X141980000Y-49810000D03*
X144520000Y-47270000D03*
X141980000Y-47270000D03*
X144520000Y-44730000D03*
X141980000Y-44730000D03*
X144520000Y-42190000D03*
X141980000Y-42190000D03*
X144520000Y-39650000D03*
X141980000Y-39650000D03*
X144520000Y-37110000D03*
X141980000Y-37110000D03*
D14*
X143500000Y-94310000D03*
X143500000Y-28170000D03*
%TD*%
D16*
%TO.C,TP10*%
X166800000Y-148580000D03*
%TD*%
D17*
%TO.C,J16*%
X259914999Y-99764999D03*
D18*
X257374999Y-99764999D03*
X259914999Y-102304999D03*
X257374999Y-102304999D03*
%TD*%
D19*
%TO.C,H3*%
X159175000Y-170480000D03*
X160119581Y-168199581D03*
X160119581Y-172760419D03*
X162400000Y-167255000D03*
D20*
X162400000Y-170480000D03*
D19*
X162400000Y-173705000D03*
X164680419Y-168199581D03*
X164680419Y-172760419D03*
X165625000Y-170480000D03*
%TD*%
%TO.C,H1*%
X254175000Y-29480000D03*
X255119581Y-27199581D03*
X255119581Y-31760419D03*
X257400000Y-26255000D03*
D20*
X257400000Y-29480000D03*
D19*
X257400000Y-32705000D03*
X259680419Y-27199581D03*
X259680419Y-31760419D03*
X260625000Y-29480000D03*
%TD*%
D16*
%TO.C,TP4*%
X251700000Y-47680000D03*
%TD*%
D19*
%TO.C,H2*%
X254135000Y-170175000D03*
X255079581Y-167894581D03*
X255079581Y-172455419D03*
X257360000Y-166950000D03*
D20*
X257360000Y-170175000D03*
D19*
X257360000Y-173400000D03*
X259640419Y-167894581D03*
X259640419Y-172455419D03*
X260585000Y-170175000D03*
%TD*%
D17*
%TO.C,J20*%
X172399999Y-108479999D03*
D18*
X169859999Y-108479999D03*
X172399999Y-111019999D03*
X169859999Y-111019999D03*
%TD*%
D17*
%TO.C,J19*%
X172399999Y-169979999D03*
D18*
X169859999Y-169979999D03*
X172399999Y-172519999D03*
X169859999Y-172519999D03*
%TD*%
D21*
%TO.C,D17*%
X213589999Y-154829999D03*
D22*
X213589999Y-139589999D03*
%TD*%
D16*
%TO.C,TP6*%
X257000000Y-47780000D03*
%TD*%
%TO.C,TP13*%
X208400000Y-89480000D03*
%TD*%
%TO.C,TP12*%
X223700000Y-92180000D03*
%TD*%
%TO.C,TP9*%
X258900000Y-162280000D03*
%TD*%
%TO.C,TP3*%
X248600000Y-78580000D03*
%TD*%
%TO.C,TP5*%
X252400000Y-162280000D03*
%TD*%
%TO.C,TP7*%
X248600000Y-85980000D03*
%TD*%
D19*
%TO.C,H4*%
X159175000Y-29480000D03*
X160119581Y-27199581D03*
X160119581Y-31760419D03*
X162400000Y-26255000D03*
D20*
X162400000Y-29480000D03*
D19*
X162400000Y-32705000D03*
X164680419Y-27199581D03*
X164680419Y-31760419D03*
X165625000Y-29480000D03*
%TD*%
D23*
%TO.C,J6*%
X166132500Y-40725000D03*
D24*
X166132499Y-44534999D03*
X166132499Y-48344999D03*
%TD*%
D16*
%TO.C,TP2*%
X166700000Y-155980000D03*
%TD*%
%TO.C,TP14*%
X217900000Y-63280000D03*
%TD*%
%TO.C,TP11*%
X243577500Y-32640000D03*
%TD*%
D17*
%TO.C,J15*%
X259899999Y-92939999D03*
D18*
X257359999Y-92939999D03*
X259899999Y-95479999D03*
X257359999Y-95479999D03*
%TD*%
D17*
%TO.C,J2*%
X259899999Y-111479999D03*
D18*
X257359999Y-111479999D03*
X259899999Y-114019999D03*
X257359999Y-114019999D03*
%TD*%
D16*
%TO.C,TP1*%
X245800000Y-105480000D03*
%TD*%
%TO.C,TP8*%
X241000000Y-99880000D03*
%TD*%
D17*
%TO.C,J18*%
X259999999Y-61439999D03*
D18*
X257459999Y-61439999D03*
X259999999Y-63979999D03*
X257459999Y-63979999D03*
%TD*%
D17*
%TO.C,J17*%
X172424999Y-115954999D03*
D18*
X169884999Y-115954999D03*
X172424999Y-118494999D03*
X169884999Y-118494999D03*
%TD*%
D25*
%TO.C,C12*%
X212449999Y-74259999D03*
D26*
X210450000Y-74260000D03*
%TD*%
D27*
%TO.C,C7*%
X221150000Y-38710000D03*
X221150000Y-35585000D03*
%TD*%
D28*
%TO.C,C13*%
X233039999Y-116657538D03*
D29*
X233040000Y-121657539D03*
%TD*%
D30*
%TO.C,C45*%
X233797500Y-46140000D03*
X236922500Y-46140000D03*
%TD*%
D31*
%TO.C,C24*%
X207349999Y-56147499D03*
D16*
X207350000Y-51147500D03*
%TD*%
D25*
%TO.C,C11*%
X212342599Y-69209999D03*
D26*
X210342600Y-69210000D03*
%TD*%
D28*
%TO.C,C6*%
X183939999Y-37139999D03*
D29*
X176440000Y-37140000D03*
%TD*%
D28*
%TO.C,C5*%
X182729999Y-83307245D03*
D29*
X182730000Y-90807246D03*
%TD*%
D32*
%TO.C,C34*%
X248809999Y-154689999D03*
D33*
X245010000Y-154690000D03*
%TD*%
D31*
%TO.C,C26*%
X240349999Y-55715176D03*
D16*
X240350000Y-50715177D03*
%TD*%
D34*
%TO.C,R5*%
X221150000Y-33497500D03*
X221150000Y-30397500D03*
%TD*%
D35*
%TO.C,C8*%
X223750000Y-40985000D03*
X223750000Y-44110000D03*
%TD*%
D29*
%TO.C,SW1*%
X243732500Y-70652500D03*
X238732500Y-70652500D03*
X248732500Y-70652500D03*
D31*
X227482499Y-70652499D03*
D16*
X223732500Y-70652500D03*
%TD*%
D35*
%TO.C,C46*%
X194710000Y-67425000D03*
X194710000Y-70550000D03*
%TD*%
D31*
%TO.C,C25*%
X229349999Y-55915176D03*
D16*
X229350000Y-50915177D03*
%TD*%
D32*
%TO.C,C22*%
X177752499Y-154869999D03*
D33*
X181552500Y-154870000D03*
%TD*%
D31*
%TO.C,C28*%
X218349999Y-56147499D03*
D16*
X218350000Y-51147500D03*
%TD*%
D28*
%TO.C,C4*%
X203529999Y-115789999D03*
D29*
X203530000Y-123290000D03*
%TD*%
G36*
X239138000Y-82196613D02*
G01*
X239183387Y-82242000D01*
X239200000Y-82304000D01*
X239200000Y-84156000D01*
X239183387Y-84218000D01*
X239138000Y-84263387D01*
X239076000Y-84280000D01*
X237024000Y-84280000D01*
X236962000Y-84263387D01*
X236916613Y-84218000D01*
X236900000Y-84156000D01*
X236900000Y-82304000D01*
X236916613Y-82242000D01*
X236962000Y-82196613D01*
X237024000Y-82180000D01*
X239076000Y-82180000D01*
X239138000Y-82196613D01*
G37*
G36*
X254038000Y-35996613D02*
G01*
X254083387Y-36042000D01*
X254100000Y-36104000D01*
X254100000Y-38256000D01*
X254083387Y-38318000D01*
X254038000Y-38363387D01*
X253976000Y-38380000D01*
X252124000Y-38380000D01*
X252062000Y-38363387D01*
X252016613Y-38318000D01*
X252000000Y-38256000D01*
X252000000Y-36104000D01*
X252016613Y-36042000D01*
X252062000Y-35996613D01*
X252124000Y-35980000D01*
X253976000Y-35980000D01*
X254038000Y-35996613D01*
G37*
G36*
X216038000Y-28296613D02*
G01*
X216083387Y-28342000D01*
X216100000Y-28404000D01*
X216100000Y-37028638D01*
X216090561Y-37076091D01*
X216063681Y-37116319D01*
X216036319Y-37143681D01*
X215996091Y-37170561D01*
X215948638Y-37180000D01*
X208524000Y-37180000D01*
X208462000Y-37163387D01*
X208416613Y-37118000D01*
X208400000Y-37056000D01*
X208400000Y-28404000D01*
X208416613Y-28342000D01*
X208462000Y-28296613D01*
X208524000Y-28280000D01*
X215976000Y-28280000D01*
X216038000Y-28296613D01*
G37*
G36*
X229838000Y-39196613D02*
G01*
X229883387Y-39242000D01*
X229900000Y-39304000D01*
X229900000Y-44356000D01*
X229883387Y-44418000D01*
X229838000Y-44463387D01*
X229776000Y-44480000D01*
X226624000Y-44480000D01*
X226562000Y-44463387D01*
X226516613Y-44418000D01*
X226500000Y-44356000D01*
X226500000Y-39304000D01*
X226516613Y-39242000D01*
X226562000Y-39196613D01*
X226624000Y-39180000D01*
X229776000Y-39180000D01*
X229838000Y-39196613D01*
G37*
G36*
X201796091Y-52589439D02*
G01*
X201836319Y-52616319D01*
X204263681Y-55043681D01*
X204290561Y-55083909D01*
X204300000Y-55131362D01*
X204300000Y-59356000D01*
X204283387Y-59418000D01*
X204238000Y-59463387D01*
X204176000Y-59480000D01*
X192424000Y-59480000D01*
X192362000Y-59463387D01*
X192316613Y-59418000D01*
X192300000Y-59356000D01*
X192300000Y-52704000D01*
X192316613Y-52642000D01*
X192362000Y-52596613D01*
X192424000Y-52580000D01*
X201748638Y-52580000D01*
X201796091Y-52589439D01*
G37*
M02*
