%TF.GenerationSoftware,KiCad,Pcbnew,(7.0.0)*%
%TF.CreationDate,2024-10-30T08:51:02+03:30*%
%TF.ProjectId,tester supply,74657374-6572-4207-9375-70706c792e6b,rev?*%
%TF.SameCoordinates,Original*%
%TF.FileFunction,Soldermask,Top*%
%TF.FilePolarity,Negative*%
%FSLAX46Y46*%
G04 Gerber Fmt 4.6, Leading zero omitted, Abs format (unit mm)*
G04 Created by KiCad (PCBNEW (7.0.0)) date 2024-10-30 08:51:02*
%MOMM*%
%LPD*%
G01*
G04 APERTURE LIST*
G04 Aperture macros list*
%AMRoundRect*
0 Rectangle with rounded corners*
0 $1 Rounding radius*
0 $2 $3 $4 $5 $6 $7 $8 $9 X,Y pos of 4 corners*
0 Add a 4 corners polygon primitive as box body*
4,1,4,$2,$3,$4,$5,$6,$7,$8,$9,$2,$3,0*
0 Add four circle primitives for the rounded corners*
1,1,$1+$1,$2,$3*
1,1,$1+$1,$4,$5*
1,1,$1+$1,$6,$7*
1,1,$1+$1,$8,$9*
0 Add four rect primitives between the rounded corners*
20,1,$1+$1,$2,$3,$4,$5,0*
20,1,$1+$1,$4,$5,$6,$7,0*
20,1,$1+$1,$6,$7,$8,$9,0*
20,1,$1+$1,$8,$9,$2,$3,0*%
%AMFreePoly0*
4,1,19,0.500000,-0.750000,0.000000,-0.750000,0.000000,-0.744911,-0.071157,-0.744911,-0.207708,-0.704816,-0.327430,-0.627875,-0.420627,-0.520320,-0.479746,-0.390866,-0.500000,-0.250000,-0.500000,0.250000,-0.479746,0.390866,-0.420627,0.520320,-0.327430,0.627875,-0.207708,0.704816,-0.071157,0.744911,0.000000,0.744911,0.000000,0.750000,0.500000,0.750000,0.500000,-0.750000,0.500000,-0.750000,
$1*%
%AMFreePoly1*
4,1,19,0.000000,0.744911,0.071157,0.744911,0.207708,0.704816,0.327430,0.627875,0.420627,0.520320,0.479746,0.390866,0.500000,0.250000,0.500000,-0.250000,0.479746,-0.390866,0.420627,-0.520320,0.327430,-0.627875,0.207708,-0.704816,0.071157,-0.744911,0.000000,-0.744911,0.000000,-0.750000,-0.500000,-0.750000,-0.500000,0.750000,0.000000,0.750000,0.000000,0.744911,0.000000,0.744911,
$1*%
%AMFreePoly2*
4,1,17,2.675000,1.605000,1.875000,1.605000,1.875000,0.935000,2.675000,0.935000,2.675000,0.335000,1.875000,0.335000,1.875000,-0.335000,2.675000,-0.335000,2.675000,-0.935000,1.875000,-0.935000,1.875000,-1.605000,2.675000,-1.605000,2.675000,-2.205000,-1.875000,-2.205000,-1.875000,2.205000,2.675000,2.205000,2.675000,1.605000,2.675000,1.605000,$1*%
G04 Aperture macros list end*
%ADD10C,0.010000*%
%ADD11C,0.800000*%
%ADD12C,7.000000*%
%ADD13R,1.300000X0.300000*%
%ADD14R,2.200000X1.800000*%
%ADD15RoundRect,0.250000X-0.600000X-0.600000X0.600000X-0.600000X0.600000X0.600000X-0.600000X0.600000X0*%
%ADD16C,1.700000*%
%ADD17C,8.000000*%
%ADD18RoundRect,0.250000X0.600000X0.600000X-0.600000X0.600000X-0.600000X-0.600000X0.600000X-0.600000X0*%
%ADD19RoundRect,0.250000X0.625000X-0.400000X0.625000X0.400000X-0.625000X0.400000X-0.625000X-0.400000X0*%
%ADD20RoundRect,0.250000X-1.400000X-1.000000X1.400000X-1.000000X1.400000X1.000000X-1.400000X1.000000X0*%
%ADD21C,2.000000*%
%ADD22RoundRect,0.250000X0.400000X0.625000X-0.400000X0.625000X-0.400000X-0.625000X0.400000X-0.625000X0*%
%ADD23RoundRect,0.250000X1.000000X-1.400000X1.000000X1.400000X-1.000000X1.400000X-1.000000X-1.400000X0*%
%ADD24R,1.700000X1.700000*%
%ADD25O,1.700000X1.700000*%
%ADD26RoundRect,0.250000X-0.350000X-0.450000X0.350000X-0.450000X0.350000X0.450000X-0.350000X0.450000X0*%
%ADD27RoundRect,0.357000X2.368000X-1.143000X2.368000X1.143000X-2.368000X1.143000X-2.368000X-1.143000X0*%
%ADD28C,0.900000*%
%ADD29C,8.600000*%
%ADD30RoundRect,0.100000X-0.100000X0.637500X-0.100000X-0.637500X0.100000X-0.637500X0.100000X0.637500X0*%
%ADD31RoundRect,0.250000X0.550000X0.575000X-0.550000X0.575000X-0.550000X-0.575000X0.550000X-0.575000X0*%
%ADD32RoundRect,0.250000X-0.550000X-0.575000X0.550000X-0.575000X0.550000X0.575000X-0.550000X0.575000X0*%
%ADD33RoundRect,0.250000X-0.412500X-0.650000X0.412500X-0.650000X0.412500X0.650000X-0.412500X0.650000X0*%
%ADD34R,0.700000X2.000000*%
%ADD35RoundRect,0.250000X-0.400000X-0.625000X0.400000X-0.625000X0.400000X0.625000X-0.400000X0.625000X0*%
%ADD36RoundRect,0.250000X-0.337500X-0.475000X0.337500X-0.475000X0.337500X0.475000X-0.337500X0.475000X0*%
%ADD37RoundRect,0.150000X-0.512500X-0.150000X0.512500X-0.150000X0.512500X0.150000X-0.512500X0.150000X0*%
%ADD38RoundRect,0.250000X0.412500X0.650000X-0.412500X0.650000X-0.412500X-0.650000X0.412500X-0.650000X0*%
%ADD39RoundRect,0.250000X-0.650000X0.412500X-0.650000X-0.412500X0.650000X-0.412500X0.650000X0.412500X0*%
%ADD40R,2.900000X5.400000*%
%ADD41RoundRect,0.250000X-0.350000X0.850000X-0.350000X-0.850000X0.350000X-0.850000X0.350000X0.850000X0*%
%ADD42RoundRect,0.249997X-2.650003X2.950003X-2.650003X-2.950003X2.650003X-2.950003X2.650003X2.950003X0*%
%ADD43RoundRect,0.250000X0.250000X0.250000X-0.250000X0.250000X-0.250000X-0.250000X0.250000X-0.250000X0*%
%ADD44R,4.000000X6.000000*%
%ADD45RoundRect,0.250000X-0.625000X0.400000X-0.625000X-0.400000X0.625000X-0.400000X0.625000X0.400000X0*%
%ADD46RoundRect,0.250000X2.050000X0.300000X-2.050000X0.300000X-2.050000X-0.300000X2.050000X-0.300000X0*%
%ADD47RoundRect,0.250002X4.449998X5.149998X-4.449998X5.149998X-4.449998X-5.149998X4.449998X-5.149998X0*%
%ADD48RoundRect,0.250001X0.624999X-0.462499X0.624999X0.462499X-0.624999X0.462499X-0.624999X-0.462499X0*%
%ADD49R,2.600000X2.600000*%
%ADD50O,2.600000X2.600000*%
%ADD51RoundRect,0.250000X0.650000X-0.412500X0.650000X0.412500X-0.650000X0.412500X-0.650000X-0.412500X0*%
%ADD52RoundRect,0.100000X0.612500X0.100000X-0.612500X0.100000X-0.612500X-0.100000X0.612500X-0.100000X0*%
%ADD53R,1.730000X1.850000*%
%ADD54RoundRect,0.250000X-1.000000X-0.650000X1.000000X-0.650000X1.000000X0.650000X-1.000000X0.650000X0*%
%ADD55RoundRect,0.250000X0.337500X0.475000X-0.337500X0.475000X-0.337500X-0.475000X0.337500X-0.475000X0*%
%ADD56RoundRect,0.100000X-0.100000X0.612500X-0.100000X-0.612500X0.100000X-0.612500X0.100000X0.612500X0*%
%ADD57R,1.850000X1.730000*%
%ADD58RoundRect,0.250000X-1.550000X0.650000X-1.550000X-0.650000X1.550000X-0.650000X1.550000X0.650000X0*%
%ADD59O,3.600000X1.800000*%
%ADD60R,0.650000X1.560000*%
%ADD61RoundRect,0.250000X0.350000X0.450000X-0.350000X0.450000X-0.350000X-0.450000X0.350000X-0.450000X0*%
%ADD62RoundRect,0.250000X-1.000000X1.400000X-1.000000X-1.400000X1.000000X-1.400000X1.000000X1.400000X0*%
%ADD63FreePoly0,270.000000*%
%ADD64FreePoly1,270.000000*%
%ADD65RoundRect,0.357000X1.143000X2.368000X-1.143000X2.368000X-1.143000X-2.368000X1.143000X-2.368000X0*%
%ADD66RoundRect,0.250000X-0.450000X0.350000X-0.450000X-0.350000X0.450000X-0.350000X0.450000X0.350000X0*%
%ADD67R,5.400000X2.900000*%
%ADD68FreePoly2,90.000000*%
%ADD69R,0.550000X1.300000*%
%ADD70RoundRect,0.250000X1.400000X1.000000X-1.400000X1.000000X-1.400000X-1.000000X1.400000X-1.000000X0*%
%ADD71R,1.200000X1.200000*%
%ADD72C,1.200000*%
%ADD73R,2.400000X2.400000*%
%ADD74C,2.400000*%
%ADD75R,2.000000X2.000000*%
%ADD76R,1.600000X1.600000*%
%ADD77C,1.600000*%
G04 APERTURE END LIST*
%TO.C,U1*%
G36*
X229090000Y-43270000D02*
G01*
X227270000Y-43270000D01*
X227270000Y-40410000D01*
X229090000Y-40410000D01*
X229090000Y-43270000D01*
G37*
D10*
X229090000Y-43270000D02*
X227270000Y-43270000D01*
X227270000Y-40410000D01*
X229090000Y-40410000D01*
X229090000Y-43270000D01*
G36*
X225990000Y-39616000D02*
G01*
X225996000Y-39616000D01*
X226001000Y-39617000D01*
X226006000Y-39618000D01*
X226011000Y-39620000D01*
X226016000Y-39622000D01*
X226021000Y-39624000D01*
X226025000Y-39626000D01*
X226030000Y-39628000D01*
X226034000Y-39631000D01*
X226039000Y-39634000D01*
X226043000Y-39637000D01*
X226047000Y-39641000D01*
X226051000Y-39644000D01*
X226054000Y-39648000D01*
X226058000Y-39652000D01*
X226061000Y-39656000D01*
X226064000Y-39661000D01*
X226067000Y-39665000D01*
X226069000Y-39670000D01*
X226071000Y-39674000D01*
X226073000Y-39679000D01*
X226075000Y-39684000D01*
X226077000Y-39689000D01*
X226078000Y-39694000D01*
X226079000Y-39699000D01*
X226079000Y-39705000D01*
X226080000Y-39710000D01*
X226080000Y-39715000D01*
X226080000Y-40065000D01*
X226080000Y-40070000D01*
X226079000Y-40075000D01*
X226079000Y-40081000D01*
X226078000Y-40086000D01*
X226077000Y-40091000D01*
X226075000Y-40096000D01*
X226073000Y-40101000D01*
X226071000Y-40106000D01*
X226069000Y-40110000D01*
X226067000Y-40115000D01*
X226064000Y-40119000D01*
X226061000Y-40124000D01*
X226058000Y-40128000D01*
X226054000Y-40132000D01*
X226051000Y-40136000D01*
X226047000Y-40139000D01*
X226043000Y-40143000D01*
X226039000Y-40146000D01*
X226034000Y-40149000D01*
X226030000Y-40152000D01*
X226025000Y-40154000D01*
X226021000Y-40156000D01*
X226016000Y-40158000D01*
X226011000Y-40160000D01*
X226006000Y-40162000D01*
X226001000Y-40163000D01*
X225996000Y-40164000D01*
X225990000Y-40164000D01*
X225985000Y-40165000D01*
X225980000Y-40165000D01*
X224580000Y-40165000D01*
X224575000Y-40165000D01*
X224570000Y-40164000D01*
X224564000Y-40164000D01*
X224559000Y-40163000D01*
X224554000Y-40162000D01*
X224549000Y-40160000D01*
X224544000Y-40158000D01*
X224539000Y-40156000D01*
X224535000Y-40154000D01*
X224530000Y-40152000D01*
X224526000Y-40149000D01*
X224521000Y-40146000D01*
X224517000Y-40143000D01*
X224513000Y-40139000D01*
X224509000Y-40136000D01*
X224506000Y-40132000D01*
X224502000Y-40128000D01*
X224499000Y-40124000D01*
X224496000Y-40119000D01*
X224493000Y-40115000D01*
X224491000Y-40110000D01*
X224489000Y-40106000D01*
X224487000Y-40101000D01*
X224485000Y-40096000D01*
X224483000Y-40091000D01*
X224482000Y-40086000D01*
X224481000Y-40081000D01*
X224481000Y-40075000D01*
X224480000Y-40070000D01*
X224480000Y-40065000D01*
X224480000Y-39715000D01*
X224480000Y-39710000D01*
X224481000Y-39705000D01*
X224481000Y-39699000D01*
X224482000Y-39694000D01*
X224483000Y-39689000D01*
X224485000Y-39684000D01*
X224487000Y-39679000D01*
X224489000Y-39674000D01*
X224491000Y-39670000D01*
X224493000Y-39665000D01*
X224496000Y-39661000D01*
X224499000Y-39656000D01*
X224502000Y-39652000D01*
X224506000Y-39648000D01*
X224509000Y-39644000D01*
X224513000Y-39641000D01*
X224517000Y-39637000D01*
X224521000Y-39634000D01*
X224526000Y-39631000D01*
X224530000Y-39628000D01*
X224535000Y-39626000D01*
X224539000Y-39624000D01*
X224544000Y-39622000D01*
X224549000Y-39620000D01*
X224554000Y-39618000D01*
X224559000Y-39617000D01*
X224564000Y-39616000D01*
X224570000Y-39616000D01*
X224575000Y-39615000D01*
X224580000Y-39615000D01*
X225980000Y-39615000D01*
X225985000Y-39615000D01*
X225990000Y-39616000D01*
G37*
X225990000Y-39616000D02*
X225996000Y-39616000D01*
X226001000Y-39617000D01*
X226006000Y-39618000D01*
X226011000Y-39620000D01*
X226016000Y-39622000D01*
X226021000Y-39624000D01*
X226025000Y-39626000D01*
X226030000Y-39628000D01*
X226034000Y-39631000D01*
X226039000Y-39634000D01*
X226043000Y-39637000D01*
X226047000Y-39641000D01*
X226051000Y-39644000D01*
X226054000Y-39648000D01*
X226058000Y-39652000D01*
X226061000Y-39656000D01*
X226064000Y-39661000D01*
X226067000Y-39665000D01*
X226069000Y-39670000D01*
X226071000Y-39674000D01*
X226073000Y-39679000D01*
X226075000Y-39684000D01*
X226077000Y-39689000D01*
X226078000Y-39694000D01*
X226079000Y-39699000D01*
X226079000Y-39705000D01*
X226080000Y-39710000D01*
X226080000Y-39715000D01*
X226080000Y-40065000D01*
X226080000Y-40070000D01*
X226079000Y-40075000D01*
X226079000Y-40081000D01*
X226078000Y-40086000D01*
X226077000Y-40091000D01*
X226075000Y-40096000D01*
X226073000Y-40101000D01*
X226071000Y-40106000D01*
X226069000Y-40110000D01*
X226067000Y-40115000D01*
X226064000Y-40119000D01*
X226061000Y-40124000D01*
X226058000Y-40128000D01*
X226054000Y-40132000D01*
X226051000Y-40136000D01*
X226047000Y-40139000D01*
X226043000Y-40143000D01*
X226039000Y-40146000D01*
X226034000Y-40149000D01*
X226030000Y-40152000D01*
X226025000Y-40154000D01*
X226021000Y-40156000D01*
X226016000Y-40158000D01*
X226011000Y-40160000D01*
X226006000Y-40162000D01*
X226001000Y-40163000D01*
X225996000Y-40164000D01*
X225990000Y-40164000D01*
X225985000Y-40165000D01*
X225980000Y-40165000D01*
X224580000Y-40165000D01*
X224575000Y-40165000D01*
X224570000Y-40164000D01*
X224564000Y-40164000D01*
X224559000Y-40163000D01*
X224554000Y-40162000D01*
X224549000Y-40160000D01*
X224544000Y-40158000D01*
X224539000Y-40156000D01*
X224535000Y-40154000D01*
X224530000Y-40152000D01*
X224526000Y-40149000D01*
X224521000Y-40146000D01*
X224517000Y-40143000D01*
X224513000Y-40139000D01*
X224509000Y-40136000D01*
X224506000Y-40132000D01*
X224502000Y-40128000D01*
X224499000Y-40124000D01*
X224496000Y-40119000D01*
X224493000Y-40115000D01*
X224491000Y-40110000D01*
X224489000Y-40106000D01*
X224487000Y-40101000D01*
X224485000Y-40096000D01*
X224483000Y-40091000D01*
X224482000Y-40086000D01*
X224481000Y-40081000D01*
X224481000Y-40075000D01*
X224480000Y-40070000D01*
X224480000Y-40065000D01*
X224480000Y-39715000D01*
X224480000Y-39710000D01*
X224481000Y-39705000D01*
X224481000Y-39699000D01*
X224482000Y-39694000D01*
X224483000Y-39689000D01*
X224485000Y-39684000D01*
X224487000Y-39679000D01*
X224489000Y-39674000D01*
X224491000Y-39670000D01*
X224493000Y-39665000D01*
X224496000Y-39661000D01*
X224499000Y-39656000D01*
X224502000Y-39652000D01*
X224506000Y-39648000D01*
X224509000Y-39644000D01*
X224513000Y-39641000D01*
X224517000Y-39637000D01*
X224521000Y-39634000D01*
X224526000Y-39631000D01*
X224530000Y-39628000D01*
X224535000Y-39626000D01*
X224539000Y-39624000D01*
X224544000Y-39622000D01*
X224549000Y-39620000D01*
X224554000Y-39618000D01*
X224559000Y-39617000D01*
X224564000Y-39616000D01*
X224570000Y-39616000D01*
X224575000Y-39615000D01*
X224580000Y-39615000D01*
X225980000Y-39615000D01*
X225985000Y-39615000D01*
X225990000Y-39616000D01*
G36*
X225990000Y-40266000D02*
G01*
X225996000Y-40266000D01*
X226001000Y-40267000D01*
X226006000Y-40268000D01*
X226011000Y-40270000D01*
X226016000Y-40272000D01*
X226021000Y-40274000D01*
X226025000Y-40276000D01*
X226030000Y-40278000D01*
X226034000Y-40281000D01*
X226039000Y-40284000D01*
X226043000Y-40287000D01*
X226047000Y-40291000D01*
X226051000Y-40294000D01*
X226054000Y-40298000D01*
X226058000Y-40302000D01*
X226061000Y-40306000D01*
X226064000Y-40311000D01*
X226067000Y-40315000D01*
X226069000Y-40320000D01*
X226071000Y-40324000D01*
X226073000Y-40329000D01*
X226075000Y-40334000D01*
X226077000Y-40339000D01*
X226078000Y-40344000D01*
X226079000Y-40349000D01*
X226079000Y-40355000D01*
X226080000Y-40360000D01*
X226080000Y-40365000D01*
X226080000Y-40715000D01*
X226080000Y-40720000D01*
X226079000Y-40725000D01*
X226079000Y-40731000D01*
X226078000Y-40736000D01*
X226077000Y-40741000D01*
X226075000Y-40746000D01*
X226073000Y-40751000D01*
X226071000Y-40756000D01*
X226069000Y-40760000D01*
X226067000Y-40765000D01*
X226064000Y-40769000D01*
X226061000Y-40774000D01*
X226058000Y-40778000D01*
X226054000Y-40782000D01*
X226051000Y-40786000D01*
X226047000Y-40789000D01*
X226043000Y-40793000D01*
X226039000Y-40796000D01*
X226034000Y-40799000D01*
X226030000Y-40802000D01*
X226025000Y-40804000D01*
X226021000Y-40806000D01*
X226016000Y-40808000D01*
X226011000Y-40810000D01*
X226006000Y-40812000D01*
X226001000Y-40813000D01*
X225996000Y-40814000D01*
X225990000Y-40814000D01*
X225985000Y-40815000D01*
X225980000Y-40815000D01*
X224580000Y-40815000D01*
X224575000Y-40815000D01*
X224570000Y-40814000D01*
X224564000Y-40814000D01*
X224559000Y-40813000D01*
X224554000Y-40812000D01*
X224549000Y-40810000D01*
X224544000Y-40808000D01*
X224539000Y-40806000D01*
X224535000Y-40804000D01*
X224530000Y-40802000D01*
X224526000Y-40799000D01*
X224521000Y-40796000D01*
X224517000Y-40793000D01*
X224513000Y-40789000D01*
X224509000Y-40786000D01*
X224506000Y-40782000D01*
X224502000Y-40778000D01*
X224499000Y-40774000D01*
X224496000Y-40769000D01*
X224493000Y-40765000D01*
X224491000Y-40760000D01*
X224489000Y-40756000D01*
X224487000Y-40751000D01*
X224485000Y-40746000D01*
X224483000Y-40741000D01*
X224482000Y-40736000D01*
X224481000Y-40731000D01*
X224481000Y-40725000D01*
X224480000Y-40720000D01*
X224480000Y-40715000D01*
X224480000Y-40365000D01*
X224480000Y-40360000D01*
X224481000Y-40355000D01*
X224481000Y-40349000D01*
X224482000Y-40344000D01*
X224483000Y-40339000D01*
X224485000Y-40334000D01*
X224487000Y-40329000D01*
X224489000Y-40324000D01*
X224491000Y-40320000D01*
X224493000Y-40315000D01*
X224496000Y-40311000D01*
X224499000Y-40306000D01*
X224502000Y-40302000D01*
X224506000Y-40298000D01*
X224509000Y-40294000D01*
X224513000Y-40291000D01*
X224517000Y-40287000D01*
X224521000Y-40284000D01*
X224526000Y-40281000D01*
X224530000Y-40278000D01*
X224535000Y-40276000D01*
X224539000Y-40274000D01*
X224544000Y-40272000D01*
X224549000Y-40270000D01*
X224554000Y-40268000D01*
X224559000Y-40267000D01*
X224564000Y-40266000D01*
X224570000Y-40266000D01*
X224575000Y-40265000D01*
X224580000Y-40265000D01*
X225980000Y-40265000D01*
X225985000Y-40265000D01*
X225990000Y-40266000D01*
G37*
X225990000Y-40266000D02*
X225996000Y-40266000D01*
X226001000Y-40267000D01*
X226006000Y-40268000D01*
X226011000Y-40270000D01*
X226016000Y-40272000D01*
X226021000Y-40274000D01*
X226025000Y-40276000D01*
X226030000Y-40278000D01*
X226034000Y-40281000D01*
X226039000Y-40284000D01*
X226043000Y-40287000D01*
X226047000Y-40291000D01*
X226051000Y-40294000D01*
X226054000Y-40298000D01*
X226058000Y-40302000D01*
X226061000Y-40306000D01*
X226064000Y-40311000D01*
X226067000Y-40315000D01*
X226069000Y-40320000D01*
X226071000Y-40324000D01*
X226073000Y-40329000D01*
X226075000Y-40334000D01*
X226077000Y-40339000D01*
X226078000Y-40344000D01*
X226079000Y-40349000D01*
X226079000Y-40355000D01*
X226080000Y-40360000D01*
X226080000Y-40365000D01*
X226080000Y-40715000D01*
X226080000Y-40720000D01*
X226079000Y-40725000D01*
X226079000Y-40731000D01*
X226078000Y-40736000D01*
X226077000Y-40741000D01*
X226075000Y-40746000D01*
X226073000Y-40751000D01*
X226071000Y-40756000D01*
X226069000Y-40760000D01*
X226067000Y-40765000D01*
X226064000Y-40769000D01*
X226061000Y-40774000D01*
X226058000Y-40778000D01*
X226054000Y-40782000D01*
X226051000Y-40786000D01*
X226047000Y-40789000D01*
X226043000Y-40793000D01*
X226039000Y-40796000D01*
X226034000Y-40799000D01*
X226030000Y-40802000D01*
X226025000Y-40804000D01*
X226021000Y-40806000D01*
X226016000Y-40808000D01*
X226011000Y-40810000D01*
X226006000Y-40812000D01*
X226001000Y-40813000D01*
X225996000Y-40814000D01*
X225990000Y-40814000D01*
X225985000Y-40815000D01*
X225980000Y-40815000D01*
X224580000Y-40815000D01*
X224575000Y-40815000D01*
X224570000Y-40814000D01*
X224564000Y-40814000D01*
X224559000Y-40813000D01*
X224554000Y-40812000D01*
X224549000Y-40810000D01*
X224544000Y-40808000D01*
X224539000Y-40806000D01*
X224535000Y-40804000D01*
X224530000Y-40802000D01*
X224526000Y-40799000D01*
X224521000Y-40796000D01*
X224517000Y-40793000D01*
X224513000Y-40789000D01*
X224509000Y-40786000D01*
X224506000Y-40782000D01*
X224502000Y-40778000D01*
X224499000Y-40774000D01*
X224496000Y-40769000D01*
X224493000Y-40765000D01*
X224491000Y-40760000D01*
X224489000Y-40756000D01*
X224487000Y-40751000D01*
X224485000Y-40746000D01*
X224483000Y-40741000D01*
X224482000Y-40736000D01*
X224481000Y-40731000D01*
X224481000Y-40725000D01*
X224480000Y-40720000D01*
X224480000Y-40715000D01*
X224480000Y-40365000D01*
X224480000Y-40360000D01*
X224481000Y-40355000D01*
X224481000Y-40349000D01*
X224482000Y-40344000D01*
X224483000Y-40339000D01*
X224485000Y-40334000D01*
X224487000Y-40329000D01*
X224489000Y-40324000D01*
X224491000Y-40320000D01*
X224493000Y-40315000D01*
X224496000Y-40311000D01*
X224499000Y-40306000D01*
X224502000Y-40302000D01*
X224506000Y-40298000D01*
X224509000Y-40294000D01*
X224513000Y-40291000D01*
X224517000Y-40287000D01*
X224521000Y-40284000D01*
X224526000Y-40281000D01*
X224530000Y-40278000D01*
X224535000Y-40276000D01*
X224539000Y-40274000D01*
X224544000Y-40272000D01*
X224549000Y-40270000D01*
X224554000Y-40268000D01*
X224559000Y-40267000D01*
X224564000Y-40266000D01*
X224570000Y-40266000D01*
X224575000Y-40265000D01*
X224580000Y-40265000D01*
X225980000Y-40265000D01*
X225985000Y-40265000D01*
X225990000Y-40266000D01*
G36*
X225990000Y-40916000D02*
G01*
X225996000Y-40916000D01*
X226001000Y-40917000D01*
X226006000Y-40918000D01*
X226011000Y-40920000D01*
X226016000Y-40922000D01*
X226021000Y-40924000D01*
X226025000Y-40926000D01*
X226030000Y-40928000D01*
X226034000Y-40931000D01*
X226039000Y-40934000D01*
X226043000Y-40937000D01*
X226047000Y-40941000D01*
X226051000Y-40944000D01*
X226054000Y-40948000D01*
X226058000Y-40952000D01*
X226061000Y-40956000D01*
X226064000Y-40961000D01*
X226067000Y-40965000D01*
X226069000Y-40970000D01*
X226071000Y-40974000D01*
X226073000Y-40979000D01*
X226075000Y-40984000D01*
X226077000Y-40989000D01*
X226078000Y-40994000D01*
X226079000Y-40999000D01*
X226079000Y-41005000D01*
X226080000Y-41010000D01*
X226080000Y-41015000D01*
X226080000Y-41365000D01*
X226080000Y-41370000D01*
X226079000Y-41375000D01*
X226079000Y-41381000D01*
X226078000Y-41386000D01*
X226077000Y-41391000D01*
X226075000Y-41396000D01*
X226073000Y-41401000D01*
X226071000Y-41406000D01*
X226069000Y-41410000D01*
X226067000Y-41415000D01*
X226064000Y-41419000D01*
X226061000Y-41424000D01*
X226058000Y-41428000D01*
X226054000Y-41432000D01*
X226051000Y-41436000D01*
X226047000Y-41439000D01*
X226043000Y-41443000D01*
X226039000Y-41446000D01*
X226034000Y-41449000D01*
X226030000Y-41452000D01*
X226025000Y-41454000D01*
X226021000Y-41456000D01*
X226016000Y-41458000D01*
X226011000Y-41460000D01*
X226006000Y-41462000D01*
X226001000Y-41463000D01*
X225996000Y-41464000D01*
X225990000Y-41464000D01*
X225985000Y-41465000D01*
X225980000Y-41465000D01*
X224580000Y-41465000D01*
X224575000Y-41465000D01*
X224570000Y-41464000D01*
X224564000Y-41464000D01*
X224559000Y-41463000D01*
X224554000Y-41462000D01*
X224549000Y-41460000D01*
X224544000Y-41458000D01*
X224539000Y-41456000D01*
X224535000Y-41454000D01*
X224530000Y-41452000D01*
X224526000Y-41449000D01*
X224521000Y-41446000D01*
X224517000Y-41443000D01*
X224513000Y-41439000D01*
X224509000Y-41436000D01*
X224506000Y-41432000D01*
X224502000Y-41428000D01*
X224499000Y-41424000D01*
X224496000Y-41419000D01*
X224493000Y-41415000D01*
X224491000Y-41410000D01*
X224489000Y-41406000D01*
X224487000Y-41401000D01*
X224485000Y-41396000D01*
X224483000Y-41391000D01*
X224482000Y-41386000D01*
X224481000Y-41381000D01*
X224481000Y-41375000D01*
X224480000Y-41370000D01*
X224480000Y-41365000D01*
X224480000Y-41015000D01*
X224480000Y-41010000D01*
X224481000Y-41005000D01*
X224481000Y-40999000D01*
X224482000Y-40994000D01*
X224483000Y-40989000D01*
X224485000Y-40984000D01*
X224487000Y-40979000D01*
X224489000Y-40974000D01*
X224491000Y-40970000D01*
X224493000Y-40965000D01*
X224496000Y-40961000D01*
X224499000Y-40956000D01*
X224502000Y-40952000D01*
X224506000Y-40948000D01*
X224509000Y-40944000D01*
X224513000Y-40941000D01*
X224517000Y-40937000D01*
X224521000Y-40934000D01*
X224526000Y-40931000D01*
X224530000Y-40928000D01*
X224535000Y-40926000D01*
X224539000Y-40924000D01*
X224544000Y-40922000D01*
X224549000Y-40920000D01*
X224554000Y-40918000D01*
X224559000Y-40917000D01*
X224564000Y-40916000D01*
X224570000Y-40916000D01*
X224575000Y-40915000D01*
X224580000Y-40915000D01*
X225980000Y-40915000D01*
X225985000Y-40915000D01*
X225990000Y-40916000D01*
G37*
X225990000Y-40916000D02*
X225996000Y-40916000D01*
X226001000Y-40917000D01*
X226006000Y-40918000D01*
X226011000Y-40920000D01*
X226016000Y-40922000D01*
X226021000Y-40924000D01*
X226025000Y-40926000D01*
X226030000Y-40928000D01*
X226034000Y-40931000D01*
X226039000Y-40934000D01*
X226043000Y-40937000D01*
X226047000Y-40941000D01*
X226051000Y-40944000D01*
X226054000Y-40948000D01*
X226058000Y-40952000D01*
X226061000Y-40956000D01*
X226064000Y-40961000D01*
X226067000Y-40965000D01*
X226069000Y-40970000D01*
X226071000Y-40974000D01*
X226073000Y-40979000D01*
X226075000Y-40984000D01*
X226077000Y-40989000D01*
X226078000Y-40994000D01*
X226079000Y-40999000D01*
X226079000Y-41005000D01*
X226080000Y-41010000D01*
X226080000Y-41015000D01*
X226080000Y-41365000D01*
X226080000Y-41370000D01*
X226079000Y-41375000D01*
X226079000Y-41381000D01*
X226078000Y-41386000D01*
X226077000Y-41391000D01*
X226075000Y-41396000D01*
X226073000Y-41401000D01*
X226071000Y-41406000D01*
X226069000Y-41410000D01*
X226067000Y-41415000D01*
X226064000Y-41419000D01*
X226061000Y-41424000D01*
X226058000Y-41428000D01*
X226054000Y-41432000D01*
X226051000Y-41436000D01*
X226047000Y-41439000D01*
X226043000Y-41443000D01*
X226039000Y-41446000D01*
X226034000Y-41449000D01*
X226030000Y-41452000D01*
X226025000Y-41454000D01*
X226021000Y-41456000D01*
X226016000Y-41458000D01*
X226011000Y-41460000D01*
X226006000Y-41462000D01*
X226001000Y-41463000D01*
X225996000Y-41464000D01*
X225990000Y-41464000D01*
X225985000Y-41465000D01*
X225980000Y-41465000D01*
X224580000Y-41465000D01*
X224575000Y-41465000D01*
X224570000Y-41464000D01*
X224564000Y-41464000D01*
X224559000Y-41463000D01*
X224554000Y-41462000D01*
X224549000Y-41460000D01*
X224544000Y-41458000D01*
X224539000Y-41456000D01*
X224535000Y-41454000D01*
X224530000Y-41452000D01*
X224526000Y-41449000D01*
X224521000Y-41446000D01*
X224517000Y-41443000D01*
X224513000Y-41439000D01*
X224509000Y-41436000D01*
X224506000Y-41432000D01*
X224502000Y-41428000D01*
X224499000Y-41424000D01*
X224496000Y-41419000D01*
X224493000Y-41415000D01*
X224491000Y-41410000D01*
X224489000Y-41406000D01*
X224487000Y-41401000D01*
X224485000Y-41396000D01*
X224483000Y-41391000D01*
X224482000Y-41386000D01*
X224481000Y-41381000D01*
X224481000Y-41375000D01*
X224480000Y-41370000D01*
X224480000Y-41365000D01*
X224480000Y-41015000D01*
X224480000Y-41010000D01*
X224481000Y-41005000D01*
X224481000Y-40999000D01*
X224482000Y-40994000D01*
X224483000Y-40989000D01*
X224485000Y-40984000D01*
X224487000Y-40979000D01*
X224489000Y-40974000D01*
X224491000Y-40970000D01*
X224493000Y-40965000D01*
X224496000Y-40961000D01*
X224499000Y-40956000D01*
X224502000Y-40952000D01*
X224506000Y-40948000D01*
X224509000Y-40944000D01*
X224513000Y-40941000D01*
X224517000Y-40937000D01*
X224521000Y-40934000D01*
X224526000Y-40931000D01*
X224530000Y-40928000D01*
X224535000Y-40926000D01*
X224539000Y-40924000D01*
X224544000Y-40922000D01*
X224549000Y-40920000D01*
X224554000Y-40918000D01*
X224559000Y-40917000D01*
X224564000Y-40916000D01*
X224570000Y-40916000D01*
X224575000Y-40915000D01*
X224580000Y-40915000D01*
X225980000Y-40915000D01*
X225985000Y-40915000D01*
X225990000Y-40916000D01*
G36*
X225990000Y-41566000D02*
G01*
X225996000Y-41566000D01*
X226001000Y-41567000D01*
X226006000Y-41568000D01*
X226011000Y-41570000D01*
X226016000Y-41572000D01*
X226021000Y-41574000D01*
X226025000Y-41576000D01*
X226030000Y-41578000D01*
X226034000Y-41581000D01*
X226039000Y-41584000D01*
X226043000Y-41587000D01*
X226047000Y-41591000D01*
X226051000Y-41594000D01*
X226054000Y-41598000D01*
X226058000Y-41602000D01*
X226061000Y-41606000D01*
X226064000Y-41611000D01*
X226067000Y-41615000D01*
X226069000Y-41620000D01*
X226071000Y-41624000D01*
X226073000Y-41629000D01*
X226075000Y-41634000D01*
X226077000Y-41639000D01*
X226078000Y-41644000D01*
X226079000Y-41649000D01*
X226079000Y-41655000D01*
X226080000Y-41660000D01*
X226080000Y-41665000D01*
X226080000Y-42015000D01*
X226080000Y-42020000D01*
X226079000Y-42025000D01*
X226079000Y-42031000D01*
X226078000Y-42036000D01*
X226077000Y-42041000D01*
X226075000Y-42046000D01*
X226073000Y-42051000D01*
X226071000Y-42056000D01*
X226069000Y-42060000D01*
X226067000Y-42065000D01*
X226064000Y-42069000D01*
X226061000Y-42074000D01*
X226058000Y-42078000D01*
X226054000Y-42082000D01*
X226051000Y-42086000D01*
X226047000Y-42089000D01*
X226043000Y-42093000D01*
X226039000Y-42096000D01*
X226034000Y-42099000D01*
X226030000Y-42102000D01*
X226025000Y-42104000D01*
X226021000Y-42106000D01*
X226016000Y-42108000D01*
X226011000Y-42110000D01*
X226006000Y-42112000D01*
X226001000Y-42113000D01*
X225996000Y-42114000D01*
X225990000Y-42114000D01*
X225985000Y-42115000D01*
X225980000Y-42115000D01*
X224580000Y-42115000D01*
X224575000Y-42115000D01*
X224570000Y-42114000D01*
X224564000Y-42114000D01*
X224559000Y-42113000D01*
X224554000Y-42112000D01*
X224549000Y-42110000D01*
X224544000Y-42108000D01*
X224539000Y-42106000D01*
X224535000Y-42104000D01*
X224530000Y-42102000D01*
X224526000Y-42099000D01*
X224521000Y-42096000D01*
X224517000Y-42093000D01*
X224513000Y-42089000D01*
X224509000Y-42086000D01*
X224506000Y-42082000D01*
X224502000Y-42078000D01*
X224499000Y-42074000D01*
X224496000Y-42069000D01*
X224493000Y-42065000D01*
X224491000Y-42060000D01*
X224489000Y-42056000D01*
X224487000Y-42051000D01*
X224485000Y-42046000D01*
X224483000Y-42041000D01*
X224482000Y-42036000D01*
X224481000Y-42031000D01*
X224481000Y-42025000D01*
X224480000Y-42020000D01*
X224480000Y-42015000D01*
X224480000Y-41665000D01*
X224480000Y-41660000D01*
X224481000Y-41655000D01*
X224481000Y-41649000D01*
X224482000Y-41644000D01*
X224483000Y-41639000D01*
X224485000Y-41634000D01*
X224487000Y-41629000D01*
X224489000Y-41624000D01*
X224491000Y-41620000D01*
X224493000Y-41615000D01*
X224496000Y-41611000D01*
X224499000Y-41606000D01*
X224502000Y-41602000D01*
X224506000Y-41598000D01*
X224509000Y-41594000D01*
X224513000Y-41591000D01*
X224517000Y-41587000D01*
X224521000Y-41584000D01*
X224526000Y-41581000D01*
X224530000Y-41578000D01*
X224535000Y-41576000D01*
X224539000Y-41574000D01*
X224544000Y-41572000D01*
X224549000Y-41570000D01*
X224554000Y-41568000D01*
X224559000Y-41567000D01*
X224564000Y-41566000D01*
X224570000Y-41566000D01*
X224575000Y-41565000D01*
X224580000Y-41565000D01*
X225980000Y-41565000D01*
X225985000Y-41565000D01*
X225990000Y-41566000D01*
G37*
X225990000Y-41566000D02*
X225996000Y-41566000D01*
X226001000Y-41567000D01*
X226006000Y-41568000D01*
X226011000Y-41570000D01*
X226016000Y-41572000D01*
X226021000Y-41574000D01*
X226025000Y-41576000D01*
X226030000Y-41578000D01*
X226034000Y-41581000D01*
X226039000Y-41584000D01*
X226043000Y-41587000D01*
X226047000Y-41591000D01*
X226051000Y-41594000D01*
X226054000Y-41598000D01*
X226058000Y-41602000D01*
X226061000Y-41606000D01*
X226064000Y-41611000D01*
X226067000Y-41615000D01*
X226069000Y-41620000D01*
X226071000Y-41624000D01*
X226073000Y-41629000D01*
X226075000Y-41634000D01*
X226077000Y-41639000D01*
X226078000Y-41644000D01*
X226079000Y-41649000D01*
X226079000Y-41655000D01*
X226080000Y-41660000D01*
X226080000Y-41665000D01*
X226080000Y-42015000D01*
X226080000Y-42020000D01*
X226079000Y-42025000D01*
X226079000Y-42031000D01*
X226078000Y-42036000D01*
X226077000Y-42041000D01*
X226075000Y-42046000D01*
X226073000Y-42051000D01*
X226071000Y-42056000D01*
X226069000Y-42060000D01*
X226067000Y-42065000D01*
X226064000Y-42069000D01*
X226061000Y-42074000D01*
X226058000Y-42078000D01*
X226054000Y-42082000D01*
X226051000Y-42086000D01*
X226047000Y-42089000D01*
X226043000Y-42093000D01*
X226039000Y-42096000D01*
X226034000Y-42099000D01*
X226030000Y-42102000D01*
X226025000Y-42104000D01*
X226021000Y-42106000D01*
X226016000Y-42108000D01*
X226011000Y-42110000D01*
X226006000Y-42112000D01*
X226001000Y-42113000D01*
X225996000Y-42114000D01*
X225990000Y-42114000D01*
X225985000Y-42115000D01*
X225980000Y-42115000D01*
X224580000Y-42115000D01*
X224575000Y-42115000D01*
X224570000Y-42114000D01*
X224564000Y-42114000D01*
X224559000Y-42113000D01*
X224554000Y-42112000D01*
X224549000Y-42110000D01*
X224544000Y-42108000D01*
X224539000Y-42106000D01*
X224535000Y-42104000D01*
X224530000Y-42102000D01*
X224526000Y-42099000D01*
X224521000Y-42096000D01*
X224517000Y-42093000D01*
X224513000Y-42089000D01*
X224509000Y-42086000D01*
X224506000Y-42082000D01*
X224502000Y-42078000D01*
X224499000Y-42074000D01*
X224496000Y-42069000D01*
X224493000Y-42065000D01*
X224491000Y-42060000D01*
X224489000Y-42056000D01*
X224487000Y-42051000D01*
X224485000Y-42046000D01*
X224483000Y-42041000D01*
X224482000Y-42036000D01*
X224481000Y-42031000D01*
X224481000Y-42025000D01*
X224480000Y-42020000D01*
X224480000Y-42015000D01*
X224480000Y-41665000D01*
X224480000Y-41660000D01*
X224481000Y-41655000D01*
X224481000Y-41649000D01*
X224482000Y-41644000D01*
X224483000Y-41639000D01*
X224485000Y-41634000D01*
X224487000Y-41629000D01*
X224489000Y-41624000D01*
X224491000Y-41620000D01*
X224493000Y-41615000D01*
X224496000Y-41611000D01*
X224499000Y-41606000D01*
X224502000Y-41602000D01*
X224506000Y-41598000D01*
X224509000Y-41594000D01*
X224513000Y-41591000D01*
X224517000Y-41587000D01*
X224521000Y-41584000D01*
X224526000Y-41581000D01*
X224530000Y-41578000D01*
X224535000Y-41576000D01*
X224539000Y-41574000D01*
X224544000Y-41572000D01*
X224549000Y-41570000D01*
X224554000Y-41568000D01*
X224559000Y-41567000D01*
X224564000Y-41566000D01*
X224570000Y-41566000D01*
X224575000Y-41565000D01*
X224580000Y-41565000D01*
X225980000Y-41565000D01*
X225985000Y-41565000D01*
X225990000Y-41566000D01*
G36*
X225990000Y-42216000D02*
G01*
X225996000Y-42216000D01*
X226001000Y-42217000D01*
X226006000Y-42218000D01*
X226011000Y-42220000D01*
X226016000Y-42222000D01*
X226021000Y-42224000D01*
X226025000Y-42226000D01*
X226030000Y-42228000D01*
X226034000Y-42231000D01*
X226039000Y-42234000D01*
X226043000Y-42237000D01*
X226047000Y-42241000D01*
X226051000Y-42244000D01*
X226054000Y-42248000D01*
X226058000Y-42252000D01*
X226061000Y-42256000D01*
X226064000Y-42261000D01*
X226067000Y-42265000D01*
X226069000Y-42270000D01*
X226071000Y-42274000D01*
X226073000Y-42279000D01*
X226075000Y-42284000D01*
X226077000Y-42289000D01*
X226078000Y-42294000D01*
X226079000Y-42299000D01*
X226079000Y-42305000D01*
X226080000Y-42310000D01*
X226080000Y-42315000D01*
X226080000Y-42665000D01*
X226080000Y-42670000D01*
X226079000Y-42675000D01*
X226079000Y-42681000D01*
X226078000Y-42686000D01*
X226077000Y-42691000D01*
X226075000Y-42696000D01*
X226073000Y-42701000D01*
X226071000Y-42706000D01*
X226069000Y-42710000D01*
X226067000Y-42715000D01*
X226064000Y-42719000D01*
X226061000Y-42724000D01*
X226058000Y-42728000D01*
X226054000Y-42732000D01*
X226051000Y-42736000D01*
X226047000Y-42739000D01*
X226043000Y-42743000D01*
X226039000Y-42746000D01*
X226034000Y-42749000D01*
X226030000Y-42752000D01*
X226025000Y-42754000D01*
X226021000Y-42756000D01*
X226016000Y-42758000D01*
X226011000Y-42760000D01*
X226006000Y-42762000D01*
X226001000Y-42763000D01*
X225996000Y-42764000D01*
X225990000Y-42764000D01*
X225985000Y-42765000D01*
X225980000Y-42765000D01*
X224580000Y-42765000D01*
X224575000Y-42765000D01*
X224570000Y-42764000D01*
X224564000Y-42764000D01*
X224559000Y-42763000D01*
X224554000Y-42762000D01*
X224549000Y-42760000D01*
X224544000Y-42758000D01*
X224539000Y-42756000D01*
X224535000Y-42754000D01*
X224530000Y-42752000D01*
X224526000Y-42749000D01*
X224521000Y-42746000D01*
X224517000Y-42743000D01*
X224513000Y-42739000D01*
X224509000Y-42736000D01*
X224506000Y-42732000D01*
X224502000Y-42728000D01*
X224499000Y-42724000D01*
X224496000Y-42719000D01*
X224493000Y-42715000D01*
X224491000Y-42710000D01*
X224489000Y-42706000D01*
X224487000Y-42701000D01*
X224485000Y-42696000D01*
X224483000Y-42691000D01*
X224482000Y-42686000D01*
X224481000Y-42681000D01*
X224481000Y-42675000D01*
X224480000Y-42670000D01*
X224480000Y-42665000D01*
X224480000Y-42315000D01*
X224480000Y-42310000D01*
X224481000Y-42305000D01*
X224481000Y-42299000D01*
X224482000Y-42294000D01*
X224483000Y-42289000D01*
X224485000Y-42284000D01*
X224487000Y-42279000D01*
X224489000Y-42274000D01*
X224491000Y-42270000D01*
X224493000Y-42265000D01*
X224496000Y-42261000D01*
X224499000Y-42256000D01*
X224502000Y-42252000D01*
X224506000Y-42248000D01*
X224509000Y-42244000D01*
X224513000Y-42241000D01*
X224517000Y-42237000D01*
X224521000Y-42234000D01*
X224526000Y-42231000D01*
X224530000Y-42228000D01*
X224535000Y-42226000D01*
X224539000Y-42224000D01*
X224544000Y-42222000D01*
X224549000Y-42220000D01*
X224554000Y-42218000D01*
X224559000Y-42217000D01*
X224564000Y-42216000D01*
X224570000Y-42216000D01*
X224575000Y-42215000D01*
X224580000Y-42215000D01*
X225980000Y-42215000D01*
X225985000Y-42215000D01*
X225990000Y-42216000D01*
G37*
X225990000Y-42216000D02*
X225996000Y-42216000D01*
X226001000Y-42217000D01*
X226006000Y-42218000D01*
X226011000Y-42220000D01*
X226016000Y-42222000D01*
X226021000Y-42224000D01*
X226025000Y-42226000D01*
X226030000Y-42228000D01*
X226034000Y-42231000D01*
X226039000Y-42234000D01*
X226043000Y-42237000D01*
X226047000Y-42241000D01*
X226051000Y-42244000D01*
X226054000Y-42248000D01*
X226058000Y-42252000D01*
X226061000Y-42256000D01*
X226064000Y-42261000D01*
X226067000Y-42265000D01*
X226069000Y-42270000D01*
X226071000Y-42274000D01*
X226073000Y-42279000D01*
X226075000Y-42284000D01*
X226077000Y-42289000D01*
X226078000Y-42294000D01*
X226079000Y-42299000D01*
X226079000Y-42305000D01*
X226080000Y-42310000D01*
X226080000Y-42315000D01*
X226080000Y-42665000D01*
X226080000Y-42670000D01*
X226079000Y-42675000D01*
X226079000Y-42681000D01*
X226078000Y-42686000D01*
X226077000Y-42691000D01*
X226075000Y-42696000D01*
X226073000Y-42701000D01*
X226071000Y-42706000D01*
X226069000Y-42710000D01*
X226067000Y-42715000D01*
X226064000Y-42719000D01*
X226061000Y-42724000D01*
X226058000Y-42728000D01*
X226054000Y-42732000D01*
X226051000Y-42736000D01*
X226047000Y-42739000D01*
X226043000Y-42743000D01*
X226039000Y-42746000D01*
X226034000Y-42749000D01*
X226030000Y-42752000D01*
X226025000Y-42754000D01*
X226021000Y-42756000D01*
X226016000Y-42758000D01*
X226011000Y-42760000D01*
X226006000Y-42762000D01*
X226001000Y-42763000D01*
X225996000Y-42764000D01*
X225990000Y-42764000D01*
X225985000Y-42765000D01*
X225980000Y-42765000D01*
X224580000Y-42765000D01*
X224575000Y-42765000D01*
X224570000Y-42764000D01*
X224564000Y-42764000D01*
X224559000Y-42763000D01*
X224554000Y-42762000D01*
X224549000Y-42760000D01*
X224544000Y-42758000D01*
X224539000Y-42756000D01*
X224535000Y-42754000D01*
X224530000Y-42752000D01*
X224526000Y-42749000D01*
X224521000Y-42746000D01*
X224517000Y-42743000D01*
X224513000Y-42739000D01*
X224509000Y-42736000D01*
X224506000Y-42732000D01*
X224502000Y-42728000D01*
X224499000Y-42724000D01*
X224496000Y-42719000D01*
X224493000Y-42715000D01*
X224491000Y-42710000D01*
X224489000Y-42706000D01*
X224487000Y-42701000D01*
X224485000Y-42696000D01*
X224483000Y-42691000D01*
X224482000Y-42686000D01*
X224481000Y-42681000D01*
X224481000Y-42675000D01*
X224480000Y-42670000D01*
X224480000Y-42665000D01*
X224480000Y-42315000D01*
X224480000Y-42310000D01*
X224481000Y-42305000D01*
X224481000Y-42299000D01*
X224482000Y-42294000D01*
X224483000Y-42289000D01*
X224485000Y-42284000D01*
X224487000Y-42279000D01*
X224489000Y-42274000D01*
X224491000Y-42270000D01*
X224493000Y-42265000D01*
X224496000Y-42261000D01*
X224499000Y-42256000D01*
X224502000Y-42252000D01*
X224506000Y-42248000D01*
X224509000Y-42244000D01*
X224513000Y-42241000D01*
X224517000Y-42237000D01*
X224521000Y-42234000D01*
X224526000Y-42231000D01*
X224530000Y-42228000D01*
X224535000Y-42226000D01*
X224539000Y-42224000D01*
X224544000Y-42222000D01*
X224549000Y-42220000D01*
X224554000Y-42218000D01*
X224559000Y-42217000D01*
X224564000Y-42216000D01*
X224570000Y-42216000D01*
X224575000Y-42215000D01*
X224580000Y-42215000D01*
X225980000Y-42215000D01*
X225985000Y-42215000D01*
X225990000Y-42216000D01*
G36*
X225990000Y-42866000D02*
G01*
X225996000Y-42866000D01*
X226001000Y-42867000D01*
X226006000Y-42868000D01*
X226011000Y-42870000D01*
X226016000Y-42872000D01*
X226021000Y-42874000D01*
X226025000Y-42876000D01*
X226030000Y-42878000D01*
X226034000Y-42881000D01*
X226039000Y-42884000D01*
X226043000Y-42887000D01*
X226047000Y-42891000D01*
X226051000Y-42894000D01*
X226054000Y-42898000D01*
X226058000Y-42902000D01*
X226061000Y-42906000D01*
X226064000Y-42911000D01*
X226067000Y-42915000D01*
X226069000Y-42920000D01*
X226071000Y-42924000D01*
X226073000Y-42929000D01*
X226075000Y-42934000D01*
X226077000Y-42939000D01*
X226078000Y-42944000D01*
X226079000Y-42949000D01*
X226079000Y-42955000D01*
X226080000Y-42960000D01*
X226080000Y-42965000D01*
X226080000Y-43315000D01*
X226080000Y-43320000D01*
X226079000Y-43325000D01*
X226079000Y-43331000D01*
X226078000Y-43336000D01*
X226077000Y-43341000D01*
X226075000Y-43346000D01*
X226073000Y-43351000D01*
X226071000Y-43356000D01*
X226069000Y-43360000D01*
X226067000Y-43365000D01*
X226064000Y-43369000D01*
X226061000Y-43374000D01*
X226058000Y-43378000D01*
X226054000Y-43382000D01*
X226051000Y-43386000D01*
X226047000Y-43389000D01*
X226043000Y-43393000D01*
X226039000Y-43396000D01*
X226034000Y-43399000D01*
X226030000Y-43402000D01*
X226025000Y-43404000D01*
X226021000Y-43406000D01*
X226016000Y-43408000D01*
X226011000Y-43410000D01*
X226006000Y-43412000D01*
X226001000Y-43413000D01*
X225996000Y-43414000D01*
X225990000Y-43414000D01*
X225985000Y-43415000D01*
X225980000Y-43415000D01*
X224580000Y-43415000D01*
X224575000Y-43415000D01*
X224570000Y-43414000D01*
X224564000Y-43414000D01*
X224559000Y-43413000D01*
X224554000Y-43412000D01*
X224549000Y-43410000D01*
X224544000Y-43408000D01*
X224539000Y-43406000D01*
X224535000Y-43404000D01*
X224530000Y-43402000D01*
X224526000Y-43399000D01*
X224521000Y-43396000D01*
X224517000Y-43393000D01*
X224513000Y-43389000D01*
X224509000Y-43386000D01*
X224506000Y-43382000D01*
X224502000Y-43378000D01*
X224499000Y-43374000D01*
X224496000Y-43369000D01*
X224493000Y-43365000D01*
X224491000Y-43360000D01*
X224489000Y-43356000D01*
X224487000Y-43351000D01*
X224485000Y-43346000D01*
X224483000Y-43341000D01*
X224482000Y-43336000D01*
X224481000Y-43331000D01*
X224481000Y-43325000D01*
X224480000Y-43320000D01*
X224480000Y-43315000D01*
X224480000Y-42965000D01*
X224480000Y-42960000D01*
X224481000Y-42955000D01*
X224481000Y-42949000D01*
X224482000Y-42944000D01*
X224483000Y-42939000D01*
X224485000Y-42934000D01*
X224487000Y-42929000D01*
X224489000Y-42924000D01*
X224491000Y-42920000D01*
X224493000Y-42915000D01*
X224496000Y-42911000D01*
X224499000Y-42906000D01*
X224502000Y-42902000D01*
X224506000Y-42898000D01*
X224509000Y-42894000D01*
X224513000Y-42891000D01*
X224517000Y-42887000D01*
X224521000Y-42884000D01*
X224526000Y-42881000D01*
X224530000Y-42878000D01*
X224535000Y-42876000D01*
X224539000Y-42874000D01*
X224544000Y-42872000D01*
X224549000Y-42870000D01*
X224554000Y-42868000D01*
X224559000Y-42867000D01*
X224564000Y-42866000D01*
X224570000Y-42866000D01*
X224575000Y-42865000D01*
X224580000Y-42865000D01*
X225980000Y-42865000D01*
X225985000Y-42865000D01*
X225990000Y-42866000D01*
G37*
X225990000Y-42866000D02*
X225996000Y-42866000D01*
X226001000Y-42867000D01*
X226006000Y-42868000D01*
X226011000Y-42870000D01*
X226016000Y-42872000D01*
X226021000Y-42874000D01*
X226025000Y-42876000D01*
X226030000Y-42878000D01*
X226034000Y-42881000D01*
X226039000Y-42884000D01*
X226043000Y-42887000D01*
X226047000Y-42891000D01*
X226051000Y-42894000D01*
X226054000Y-42898000D01*
X226058000Y-42902000D01*
X226061000Y-42906000D01*
X226064000Y-42911000D01*
X226067000Y-42915000D01*
X226069000Y-42920000D01*
X226071000Y-42924000D01*
X226073000Y-42929000D01*
X226075000Y-42934000D01*
X226077000Y-42939000D01*
X226078000Y-42944000D01*
X226079000Y-42949000D01*
X226079000Y-42955000D01*
X226080000Y-42960000D01*
X226080000Y-42965000D01*
X226080000Y-43315000D01*
X226080000Y-43320000D01*
X226079000Y-43325000D01*
X226079000Y-43331000D01*
X226078000Y-43336000D01*
X226077000Y-43341000D01*
X226075000Y-43346000D01*
X226073000Y-43351000D01*
X226071000Y-43356000D01*
X226069000Y-43360000D01*
X226067000Y-43365000D01*
X226064000Y-43369000D01*
X226061000Y-43374000D01*
X226058000Y-43378000D01*
X226054000Y-43382000D01*
X226051000Y-43386000D01*
X226047000Y-43389000D01*
X226043000Y-43393000D01*
X226039000Y-43396000D01*
X226034000Y-43399000D01*
X226030000Y-43402000D01*
X226025000Y-43404000D01*
X226021000Y-43406000D01*
X226016000Y-43408000D01*
X226011000Y-43410000D01*
X226006000Y-43412000D01*
X226001000Y-43413000D01*
X225996000Y-43414000D01*
X225990000Y-43414000D01*
X225985000Y-43415000D01*
X225980000Y-43415000D01*
X224580000Y-43415000D01*
X224575000Y-43415000D01*
X224570000Y-43414000D01*
X224564000Y-43414000D01*
X224559000Y-43413000D01*
X224554000Y-43412000D01*
X224549000Y-43410000D01*
X224544000Y-43408000D01*
X224539000Y-43406000D01*
X224535000Y-43404000D01*
X224530000Y-43402000D01*
X224526000Y-43399000D01*
X224521000Y-43396000D01*
X224517000Y-43393000D01*
X224513000Y-43389000D01*
X224509000Y-43386000D01*
X224506000Y-43382000D01*
X224502000Y-43378000D01*
X224499000Y-43374000D01*
X224496000Y-43369000D01*
X224493000Y-43365000D01*
X224491000Y-43360000D01*
X224489000Y-43356000D01*
X224487000Y-43351000D01*
X224485000Y-43346000D01*
X224483000Y-43341000D01*
X224482000Y-43336000D01*
X224481000Y-43331000D01*
X224481000Y-43325000D01*
X224480000Y-43320000D01*
X224480000Y-43315000D01*
X224480000Y-42965000D01*
X224480000Y-42960000D01*
X224481000Y-42955000D01*
X224481000Y-42949000D01*
X224482000Y-42944000D01*
X224483000Y-42939000D01*
X224485000Y-42934000D01*
X224487000Y-42929000D01*
X224489000Y-42924000D01*
X224491000Y-42920000D01*
X224493000Y-42915000D01*
X224496000Y-42911000D01*
X224499000Y-42906000D01*
X224502000Y-42902000D01*
X224506000Y-42898000D01*
X224509000Y-42894000D01*
X224513000Y-42891000D01*
X224517000Y-42887000D01*
X224521000Y-42884000D01*
X224526000Y-42881000D01*
X224530000Y-42878000D01*
X224535000Y-42876000D01*
X224539000Y-42874000D01*
X224544000Y-42872000D01*
X224549000Y-42870000D01*
X224554000Y-42868000D01*
X224559000Y-42867000D01*
X224564000Y-42866000D01*
X224570000Y-42866000D01*
X224575000Y-42865000D01*
X224580000Y-42865000D01*
X225980000Y-42865000D01*
X225985000Y-42865000D01*
X225990000Y-42866000D01*
G36*
X225990000Y-43516000D02*
G01*
X225996000Y-43516000D01*
X226001000Y-43517000D01*
X226006000Y-43518000D01*
X226011000Y-43520000D01*
X226016000Y-43522000D01*
X226021000Y-43524000D01*
X226025000Y-43526000D01*
X226030000Y-43528000D01*
X226034000Y-43531000D01*
X226039000Y-43534000D01*
X226043000Y-43537000D01*
X226047000Y-43541000D01*
X226051000Y-43544000D01*
X226054000Y-43548000D01*
X226058000Y-43552000D01*
X226061000Y-43556000D01*
X226064000Y-43561000D01*
X226067000Y-43565000D01*
X226069000Y-43570000D01*
X226071000Y-43574000D01*
X226073000Y-43579000D01*
X226075000Y-43584000D01*
X226077000Y-43589000D01*
X226078000Y-43594000D01*
X226079000Y-43599000D01*
X226079000Y-43605000D01*
X226080000Y-43610000D01*
X226080000Y-43615000D01*
X226080000Y-43965000D01*
X226080000Y-43970000D01*
X226079000Y-43975000D01*
X226079000Y-43981000D01*
X226078000Y-43986000D01*
X226077000Y-43991000D01*
X226075000Y-43996000D01*
X226073000Y-44001000D01*
X226071000Y-44006000D01*
X226069000Y-44010000D01*
X226067000Y-44015000D01*
X226064000Y-44019000D01*
X226061000Y-44024000D01*
X226058000Y-44028000D01*
X226054000Y-44032000D01*
X226051000Y-44036000D01*
X226047000Y-44039000D01*
X226043000Y-44043000D01*
X226039000Y-44046000D01*
X226034000Y-44049000D01*
X226030000Y-44052000D01*
X226025000Y-44054000D01*
X226021000Y-44056000D01*
X226016000Y-44058000D01*
X226011000Y-44060000D01*
X226006000Y-44062000D01*
X226001000Y-44063000D01*
X225996000Y-44064000D01*
X225990000Y-44064000D01*
X225985000Y-44065000D01*
X225980000Y-44065000D01*
X224580000Y-44065000D01*
X224575000Y-44065000D01*
X224570000Y-44064000D01*
X224564000Y-44064000D01*
X224559000Y-44063000D01*
X224554000Y-44062000D01*
X224549000Y-44060000D01*
X224544000Y-44058000D01*
X224539000Y-44056000D01*
X224535000Y-44054000D01*
X224530000Y-44052000D01*
X224526000Y-44049000D01*
X224521000Y-44046000D01*
X224517000Y-44043000D01*
X224513000Y-44039000D01*
X224509000Y-44036000D01*
X224506000Y-44032000D01*
X224502000Y-44028000D01*
X224499000Y-44024000D01*
X224496000Y-44019000D01*
X224493000Y-44015000D01*
X224491000Y-44010000D01*
X224489000Y-44006000D01*
X224487000Y-44001000D01*
X224485000Y-43996000D01*
X224483000Y-43991000D01*
X224482000Y-43986000D01*
X224481000Y-43981000D01*
X224481000Y-43975000D01*
X224480000Y-43970000D01*
X224480000Y-43965000D01*
X224480000Y-43615000D01*
X224480000Y-43610000D01*
X224481000Y-43605000D01*
X224481000Y-43599000D01*
X224482000Y-43594000D01*
X224483000Y-43589000D01*
X224485000Y-43584000D01*
X224487000Y-43579000D01*
X224489000Y-43574000D01*
X224491000Y-43570000D01*
X224493000Y-43565000D01*
X224496000Y-43561000D01*
X224499000Y-43556000D01*
X224502000Y-43552000D01*
X224506000Y-43548000D01*
X224509000Y-43544000D01*
X224513000Y-43541000D01*
X224517000Y-43537000D01*
X224521000Y-43534000D01*
X224526000Y-43531000D01*
X224530000Y-43528000D01*
X224535000Y-43526000D01*
X224539000Y-43524000D01*
X224544000Y-43522000D01*
X224549000Y-43520000D01*
X224554000Y-43518000D01*
X224559000Y-43517000D01*
X224564000Y-43516000D01*
X224570000Y-43516000D01*
X224575000Y-43515000D01*
X224580000Y-43515000D01*
X225980000Y-43515000D01*
X225985000Y-43515000D01*
X225990000Y-43516000D01*
G37*
X225990000Y-43516000D02*
X225996000Y-43516000D01*
X226001000Y-43517000D01*
X226006000Y-43518000D01*
X226011000Y-43520000D01*
X226016000Y-43522000D01*
X226021000Y-43524000D01*
X226025000Y-43526000D01*
X226030000Y-43528000D01*
X226034000Y-43531000D01*
X226039000Y-43534000D01*
X226043000Y-43537000D01*
X226047000Y-43541000D01*
X226051000Y-43544000D01*
X226054000Y-43548000D01*
X226058000Y-43552000D01*
X226061000Y-43556000D01*
X226064000Y-43561000D01*
X226067000Y-43565000D01*
X226069000Y-43570000D01*
X226071000Y-43574000D01*
X226073000Y-43579000D01*
X226075000Y-43584000D01*
X226077000Y-43589000D01*
X226078000Y-43594000D01*
X226079000Y-43599000D01*
X226079000Y-43605000D01*
X226080000Y-43610000D01*
X226080000Y-43615000D01*
X226080000Y-43965000D01*
X226080000Y-43970000D01*
X226079000Y-43975000D01*
X226079000Y-43981000D01*
X226078000Y-43986000D01*
X226077000Y-43991000D01*
X226075000Y-43996000D01*
X226073000Y-44001000D01*
X226071000Y-44006000D01*
X226069000Y-44010000D01*
X226067000Y-44015000D01*
X226064000Y-44019000D01*
X226061000Y-44024000D01*
X226058000Y-44028000D01*
X226054000Y-44032000D01*
X226051000Y-44036000D01*
X226047000Y-44039000D01*
X226043000Y-44043000D01*
X226039000Y-44046000D01*
X226034000Y-44049000D01*
X226030000Y-44052000D01*
X226025000Y-44054000D01*
X226021000Y-44056000D01*
X226016000Y-44058000D01*
X226011000Y-44060000D01*
X226006000Y-44062000D01*
X226001000Y-44063000D01*
X225996000Y-44064000D01*
X225990000Y-44064000D01*
X225985000Y-44065000D01*
X225980000Y-44065000D01*
X224580000Y-44065000D01*
X224575000Y-44065000D01*
X224570000Y-44064000D01*
X224564000Y-44064000D01*
X224559000Y-44063000D01*
X224554000Y-44062000D01*
X224549000Y-44060000D01*
X224544000Y-44058000D01*
X224539000Y-44056000D01*
X224535000Y-44054000D01*
X224530000Y-44052000D01*
X224526000Y-44049000D01*
X224521000Y-44046000D01*
X224517000Y-44043000D01*
X224513000Y-44039000D01*
X224509000Y-44036000D01*
X224506000Y-44032000D01*
X224502000Y-44028000D01*
X224499000Y-44024000D01*
X224496000Y-44019000D01*
X224493000Y-44015000D01*
X224491000Y-44010000D01*
X224489000Y-44006000D01*
X224487000Y-44001000D01*
X224485000Y-43996000D01*
X224483000Y-43991000D01*
X224482000Y-43986000D01*
X224481000Y-43981000D01*
X224481000Y-43975000D01*
X224480000Y-43970000D01*
X224480000Y-43965000D01*
X224480000Y-43615000D01*
X224480000Y-43610000D01*
X224481000Y-43605000D01*
X224481000Y-43599000D01*
X224482000Y-43594000D01*
X224483000Y-43589000D01*
X224485000Y-43584000D01*
X224487000Y-43579000D01*
X224489000Y-43574000D01*
X224491000Y-43570000D01*
X224493000Y-43565000D01*
X224496000Y-43561000D01*
X224499000Y-43556000D01*
X224502000Y-43552000D01*
X224506000Y-43548000D01*
X224509000Y-43544000D01*
X224513000Y-43541000D01*
X224517000Y-43537000D01*
X224521000Y-43534000D01*
X224526000Y-43531000D01*
X224530000Y-43528000D01*
X224535000Y-43526000D01*
X224539000Y-43524000D01*
X224544000Y-43522000D01*
X224549000Y-43520000D01*
X224554000Y-43518000D01*
X224559000Y-43517000D01*
X224564000Y-43516000D01*
X224570000Y-43516000D01*
X224575000Y-43515000D01*
X224580000Y-43515000D01*
X225980000Y-43515000D01*
X225985000Y-43515000D01*
X225990000Y-43516000D01*
G36*
X231790000Y-39616000D02*
G01*
X231796000Y-39616000D01*
X231801000Y-39617000D01*
X231806000Y-39618000D01*
X231811000Y-39620000D01*
X231816000Y-39622000D01*
X231821000Y-39624000D01*
X231825000Y-39626000D01*
X231830000Y-39628000D01*
X231834000Y-39631000D01*
X231839000Y-39634000D01*
X231843000Y-39637000D01*
X231847000Y-39641000D01*
X231851000Y-39644000D01*
X231854000Y-39648000D01*
X231858000Y-39652000D01*
X231861000Y-39656000D01*
X231864000Y-39661000D01*
X231867000Y-39665000D01*
X231869000Y-39670000D01*
X231871000Y-39674000D01*
X231873000Y-39679000D01*
X231875000Y-39684000D01*
X231877000Y-39689000D01*
X231878000Y-39694000D01*
X231879000Y-39699000D01*
X231879000Y-39705000D01*
X231880000Y-39710000D01*
X231880000Y-39715000D01*
X231880000Y-40065000D01*
X231880000Y-40070000D01*
X231879000Y-40075000D01*
X231879000Y-40081000D01*
X231878000Y-40086000D01*
X231877000Y-40091000D01*
X231875000Y-40096000D01*
X231873000Y-40101000D01*
X231871000Y-40106000D01*
X231869000Y-40110000D01*
X231867000Y-40115000D01*
X231864000Y-40119000D01*
X231861000Y-40124000D01*
X231858000Y-40128000D01*
X231854000Y-40132000D01*
X231851000Y-40136000D01*
X231847000Y-40139000D01*
X231843000Y-40143000D01*
X231839000Y-40146000D01*
X231834000Y-40149000D01*
X231830000Y-40152000D01*
X231825000Y-40154000D01*
X231821000Y-40156000D01*
X231816000Y-40158000D01*
X231811000Y-40160000D01*
X231806000Y-40162000D01*
X231801000Y-40163000D01*
X231796000Y-40164000D01*
X231790000Y-40164000D01*
X231785000Y-40165000D01*
X231780000Y-40165000D01*
X230380000Y-40165000D01*
X230375000Y-40165000D01*
X230370000Y-40164000D01*
X230364000Y-40164000D01*
X230359000Y-40163000D01*
X230354000Y-40162000D01*
X230349000Y-40160000D01*
X230344000Y-40158000D01*
X230339000Y-40156000D01*
X230335000Y-40154000D01*
X230330000Y-40152000D01*
X230326000Y-40149000D01*
X230321000Y-40146000D01*
X230317000Y-40143000D01*
X230313000Y-40139000D01*
X230309000Y-40136000D01*
X230306000Y-40132000D01*
X230302000Y-40128000D01*
X230299000Y-40124000D01*
X230296000Y-40119000D01*
X230293000Y-40115000D01*
X230291000Y-40110000D01*
X230289000Y-40106000D01*
X230287000Y-40101000D01*
X230285000Y-40096000D01*
X230283000Y-40091000D01*
X230282000Y-40086000D01*
X230281000Y-40081000D01*
X230281000Y-40075000D01*
X230280000Y-40070000D01*
X230280000Y-40065000D01*
X230280000Y-39715000D01*
X230280000Y-39710000D01*
X230281000Y-39705000D01*
X230281000Y-39699000D01*
X230282000Y-39694000D01*
X230283000Y-39689000D01*
X230285000Y-39684000D01*
X230287000Y-39679000D01*
X230289000Y-39674000D01*
X230291000Y-39670000D01*
X230293000Y-39665000D01*
X230296000Y-39661000D01*
X230299000Y-39656000D01*
X230302000Y-39652000D01*
X230306000Y-39648000D01*
X230309000Y-39644000D01*
X230313000Y-39641000D01*
X230317000Y-39637000D01*
X230321000Y-39634000D01*
X230326000Y-39631000D01*
X230330000Y-39628000D01*
X230335000Y-39626000D01*
X230339000Y-39624000D01*
X230344000Y-39622000D01*
X230349000Y-39620000D01*
X230354000Y-39618000D01*
X230359000Y-39617000D01*
X230364000Y-39616000D01*
X230370000Y-39616000D01*
X230375000Y-39615000D01*
X230380000Y-39615000D01*
X231780000Y-39615000D01*
X231785000Y-39615000D01*
X231790000Y-39616000D01*
G37*
X231790000Y-39616000D02*
X231796000Y-39616000D01*
X231801000Y-39617000D01*
X231806000Y-39618000D01*
X231811000Y-39620000D01*
X231816000Y-39622000D01*
X231821000Y-39624000D01*
X231825000Y-39626000D01*
X231830000Y-39628000D01*
X231834000Y-39631000D01*
X231839000Y-39634000D01*
X231843000Y-39637000D01*
X231847000Y-39641000D01*
X231851000Y-39644000D01*
X231854000Y-39648000D01*
X231858000Y-39652000D01*
X231861000Y-39656000D01*
X231864000Y-39661000D01*
X231867000Y-39665000D01*
X231869000Y-39670000D01*
X231871000Y-39674000D01*
X231873000Y-39679000D01*
X231875000Y-39684000D01*
X231877000Y-39689000D01*
X231878000Y-39694000D01*
X231879000Y-39699000D01*
X231879000Y-39705000D01*
X231880000Y-39710000D01*
X231880000Y-39715000D01*
X231880000Y-40065000D01*
X231880000Y-40070000D01*
X231879000Y-40075000D01*
X231879000Y-40081000D01*
X231878000Y-40086000D01*
X231877000Y-40091000D01*
X231875000Y-40096000D01*
X231873000Y-40101000D01*
X231871000Y-40106000D01*
X231869000Y-40110000D01*
X231867000Y-40115000D01*
X231864000Y-40119000D01*
X231861000Y-40124000D01*
X231858000Y-40128000D01*
X231854000Y-40132000D01*
X231851000Y-40136000D01*
X231847000Y-40139000D01*
X231843000Y-40143000D01*
X231839000Y-40146000D01*
X231834000Y-40149000D01*
X231830000Y-40152000D01*
X231825000Y-40154000D01*
X231821000Y-40156000D01*
X231816000Y-40158000D01*
X231811000Y-40160000D01*
X231806000Y-40162000D01*
X231801000Y-40163000D01*
X231796000Y-40164000D01*
X231790000Y-40164000D01*
X231785000Y-40165000D01*
X231780000Y-40165000D01*
X230380000Y-40165000D01*
X230375000Y-40165000D01*
X230370000Y-40164000D01*
X230364000Y-40164000D01*
X230359000Y-40163000D01*
X230354000Y-40162000D01*
X230349000Y-40160000D01*
X230344000Y-40158000D01*
X230339000Y-40156000D01*
X230335000Y-40154000D01*
X230330000Y-40152000D01*
X230326000Y-40149000D01*
X230321000Y-40146000D01*
X230317000Y-40143000D01*
X230313000Y-40139000D01*
X230309000Y-40136000D01*
X230306000Y-40132000D01*
X230302000Y-40128000D01*
X230299000Y-40124000D01*
X230296000Y-40119000D01*
X230293000Y-40115000D01*
X230291000Y-40110000D01*
X230289000Y-40106000D01*
X230287000Y-40101000D01*
X230285000Y-40096000D01*
X230283000Y-40091000D01*
X230282000Y-40086000D01*
X230281000Y-40081000D01*
X230281000Y-40075000D01*
X230280000Y-40070000D01*
X230280000Y-40065000D01*
X230280000Y-39715000D01*
X230280000Y-39710000D01*
X230281000Y-39705000D01*
X230281000Y-39699000D01*
X230282000Y-39694000D01*
X230283000Y-39689000D01*
X230285000Y-39684000D01*
X230287000Y-39679000D01*
X230289000Y-39674000D01*
X230291000Y-39670000D01*
X230293000Y-39665000D01*
X230296000Y-39661000D01*
X230299000Y-39656000D01*
X230302000Y-39652000D01*
X230306000Y-39648000D01*
X230309000Y-39644000D01*
X230313000Y-39641000D01*
X230317000Y-39637000D01*
X230321000Y-39634000D01*
X230326000Y-39631000D01*
X230330000Y-39628000D01*
X230335000Y-39626000D01*
X230339000Y-39624000D01*
X230344000Y-39622000D01*
X230349000Y-39620000D01*
X230354000Y-39618000D01*
X230359000Y-39617000D01*
X230364000Y-39616000D01*
X230370000Y-39616000D01*
X230375000Y-39615000D01*
X230380000Y-39615000D01*
X231780000Y-39615000D01*
X231785000Y-39615000D01*
X231790000Y-39616000D01*
G36*
X231790000Y-40266000D02*
G01*
X231796000Y-40266000D01*
X231801000Y-40267000D01*
X231806000Y-40268000D01*
X231811000Y-40270000D01*
X231816000Y-40272000D01*
X231821000Y-40274000D01*
X231825000Y-40276000D01*
X231830000Y-40278000D01*
X231834000Y-40281000D01*
X231839000Y-40284000D01*
X231843000Y-40287000D01*
X231847000Y-40291000D01*
X231851000Y-40294000D01*
X231854000Y-40298000D01*
X231858000Y-40302000D01*
X231861000Y-40306000D01*
X231864000Y-40311000D01*
X231867000Y-40315000D01*
X231869000Y-40320000D01*
X231871000Y-40324000D01*
X231873000Y-40329000D01*
X231875000Y-40334000D01*
X231877000Y-40339000D01*
X231878000Y-40344000D01*
X231879000Y-40349000D01*
X231879000Y-40355000D01*
X231880000Y-40360000D01*
X231880000Y-40365000D01*
X231880000Y-40715000D01*
X231880000Y-40720000D01*
X231879000Y-40725000D01*
X231879000Y-40731000D01*
X231878000Y-40736000D01*
X231877000Y-40741000D01*
X231875000Y-40746000D01*
X231873000Y-40751000D01*
X231871000Y-40756000D01*
X231869000Y-40760000D01*
X231867000Y-40765000D01*
X231864000Y-40769000D01*
X231861000Y-40774000D01*
X231858000Y-40778000D01*
X231854000Y-40782000D01*
X231851000Y-40786000D01*
X231847000Y-40789000D01*
X231843000Y-40793000D01*
X231839000Y-40796000D01*
X231834000Y-40799000D01*
X231830000Y-40802000D01*
X231825000Y-40804000D01*
X231821000Y-40806000D01*
X231816000Y-40808000D01*
X231811000Y-40810000D01*
X231806000Y-40812000D01*
X231801000Y-40813000D01*
X231796000Y-40814000D01*
X231790000Y-40814000D01*
X231785000Y-40815000D01*
X231780000Y-40815000D01*
X230380000Y-40815000D01*
X230375000Y-40815000D01*
X230370000Y-40814000D01*
X230364000Y-40814000D01*
X230359000Y-40813000D01*
X230354000Y-40812000D01*
X230349000Y-40810000D01*
X230344000Y-40808000D01*
X230339000Y-40806000D01*
X230335000Y-40804000D01*
X230330000Y-40802000D01*
X230326000Y-40799000D01*
X230321000Y-40796000D01*
X230317000Y-40793000D01*
X230313000Y-40789000D01*
X230309000Y-40786000D01*
X230306000Y-40782000D01*
X230302000Y-40778000D01*
X230299000Y-40774000D01*
X230296000Y-40769000D01*
X230293000Y-40765000D01*
X230291000Y-40760000D01*
X230289000Y-40756000D01*
X230287000Y-40751000D01*
X230285000Y-40746000D01*
X230283000Y-40741000D01*
X230282000Y-40736000D01*
X230281000Y-40731000D01*
X230281000Y-40725000D01*
X230280000Y-40720000D01*
X230280000Y-40715000D01*
X230280000Y-40365000D01*
X230280000Y-40360000D01*
X230281000Y-40355000D01*
X230281000Y-40349000D01*
X230282000Y-40344000D01*
X230283000Y-40339000D01*
X230285000Y-40334000D01*
X230287000Y-40329000D01*
X230289000Y-40324000D01*
X230291000Y-40320000D01*
X230293000Y-40315000D01*
X230296000Y-40311000D01*
X230299000Y-40306000D01*
X230302000Y-40302000D01*
X230306000Y-40298000D01*
X230309000Y-40294000D01*
X230313000Y-40291000D01*
X230317000Y-40287000D01*
X230321000Y-40284000D01*
X230326000Y-40281000D01*
X230330000Y-40278000D01*
X230335000Y-40276000D01*
X230339000Y-40274000D01*
X230344000Y-40272000D01*
X230349000Y-40270000D01*
X230354000Y-40268000D01*
X230359000Y-40267000D01*
X230364000Y-40266000D01*
X230370000Y-40266000D01*
X230375000Y-40265000D01*
X230380000Y-40265000D01*
X231780000Y-40265000D01*
X231785000Y-40265000D01*
X231790000Y-40266000D01*
G37*
X231790000Y-40266000D02*
X231796000Y-40266000D01*
X231801000Y-40267000D01*
X231806000Y-40268000D01*
X231811000Y-40270000D01*
X231816000Y-40272000D01*
X231821000Y-40274000D01*
X231825000Y-40276000D01*
X231830000Y-40278000D01*
X231834000Y-40281000D01*
X231839000Y-40284000D01*
X231843000Y-40287000D01*
X231847000Y-40291000D01*
X231851000Y-40294000D01*
X231854000Y-40298000D01*
X231858000Y-40302000D01*
X231861000Y-40306000D01*
X231864000Y-40311000D01*
X231867000Y-40315000D01*
X231869000Y-40320000D01*
X231871000Y-40324000D01*
X231873000Y-40329000D01*
X231875000Y-40334000D01*
X231877000Y-40339000D01*
X231878000Y-40344000D01*
X231879000Y-40349000D01*
X231879000Y-40355000D01*
X231880000Y-40360000D01*
X231880000Y-40365000D01*
X231880000Y-40715000D01*
X231880000Y-40720000D01*
X231879000Y-40725000D01*
X231879000Y-40731000D01*
X231878000Y-40736000D01*
X231877000Y-40741000D01*
X231875000Y-40746000D01*
X231873000Y-40751000D01*
X231871000Y-40756000D01*
X231869000Y-40760000D01*
X231867000Y-40765000D01*
X231864000Y-40769000D01*
X231861000Y-40774000D01*
X231858000Y-40778000D01*
X231854000Y-40782000D01*
X231851000Y-40786000D01*
X231847000Y-40789000D01*
X231843000Y-40793000D01*
X231839000Y-40796000D01*
X231834000Y-40799000D01*
X231830000Y-40802000D01*
X231825000Y-40804000D01*
X231821000Y-40806000D01*
X231816000Y-40808000D01*
X231811000Y-40810000D01*
X231806000Y-40812000D01*
X231801000Y-40813000D01*
X231796000Y-40814000D01*
X231790000Y-40814000D01*
X231785000Y-40815000D01*
X231780000Y-40815000D01*
X230380000Y-40815000D01*
X230375000Y-40815000D01*
X230370000Y-40814000D01*
X230364000Y-40814000D01*
X230359000Y-40813000D01*
X230354000Y-40812000D01*
X230349000Y-40810000D01*
X230344000Y-40808000D01*
X230339000Y-40806000D01*
X230335000Y-40804000D01*
X230330000Y-40802000D01*
X230326000Y-40799000D01*
X230321000Y-40796000D01*
X230317000Y-40793000D01*
X230313000Y-40789000D01*
X230309000Y-40786000D01*
X230306000Y-40782000D01*
X230302000Y-40778000D01*
X230299000Y-40774000D01*
X230296000Y-40769000D01*
X230293000Y-40765000D01*
X230291000Y-40760000D01*
X230289000Y-40756000D01*
X230287000Y-40751000D01*
X230285000Y-40746000D01*
X230283000Y-40741000D01*
X230282000Y-40736000D01*
X230281000Y-40731000D01*
X230281000Y-40725000D01*
X230280000Y-40720000D01*
X230280000Y-40715000D01*
X230280000Y-40365000D01*
X230280000Y-40360000D01*
X230281000Y-40355000D01*
X230281000Y-40349000D01*
X230282000Y-40344000D01*
X230283000Y-40339000D01*
X230285000Y-40334000D01*
X230287000Y-40329000D01*
X230289000Y-40324000D01*
X230291000Y-40320000D01*
X230293000Y-40315000D01*
X230296000Y-40311000D01*
X230299000Y-40306000D01*
X230302000Y-40302000D01*
X230306000Y-40298000D01*
X230309000Y-40294000D01*
X230313000Y-40291000D01*
X230317000Y-40287000D01*
X230321000Y-40284000D01*
X230326000Y-40281000D01*
X230330000Y-40278000D01*
X230335000Y-40276000D01*
X230339000Y-40274000D01*
X230344000Y-40272000D01*
X230349000Y-40270000D01*
X230354000Y-40268000D01*
X230359000Y-40267000D01*
X230364000Y-40266000D01*
X230370000Y-40266000D01*
X230375000Y-40265000D01*
X230380000Y-40265000D01*
X231780000Y-40265000D01*
X231785000Y-40265000D01*
X231790000Y-40266000D01*
G36*
X231790000Y-40916000D02*
G01*
X231796000Y-40916000D01*
X231801000Y-40917000D01*
X231806000Y-40918000D01*
X231811000Y-40920000D01*
X231816000Y-40922000D01*
X231821000Y-40924000D01*
X231825000Y-40926000D01*
X231830000Y-40928000D01*
X231834000Y-40931000D01*
X231839000Y-40934000D01*
X231843000Y-40937000D01*
X231847000Y-40941000D01*
X231851000Y-40944000D01*
X231854000Y-40948000D01*
X231858000Y-40952000D01*
X231861000Y-40956000D01*
X231864000Y-40961000D01*
X231867000Y-40965000D01*
X231869000Y-40970000D01*
X231871000Y-40974000D01*
X231873000Y-40979000D01*
X231875000Y-40984000D01*
X231877000Y-40989000D01*
X231878000Y-40994000D01*
X231879000Y-40999000D01*
X231879000Y-41005000D01*
X231880000Y-41010000D01*
X231880000Y-41015000D01*
X231880000Y-41365000D01*
X231880000Y-41370000D01*
X231879000Y-41375000D01*
X231879000Y-41381000D01*
X231878000Y-41386000D01*
X231877000Y-41391000D01*
X231875000Y-41396000D01*
X231873000Y-41401000D01*
X231871000Y-41406000D01*
X231869000Y-41410000D01*
X231867000Y-41415000D01*
X231864000Y-41419000D01*
X231861000Y-41424000D01*
X231858000Y-41428000D01*
X231854000Y-41432000D01*
X231851000Y-41436000D01*
X231847000Y-41439000D01*
X231843000Y-41443000D01*
X231839000Y-41446000D01*
X231834000Y-41449000D01*
X231830000Y-41452000D01*
X231825000Y-41454000D01*
X231821000Y-41456000D01*
X231816000Y-41458000D01*
X231811000Y-41460000D01*
X231806000Y-41462000D01*
X231801000Y-41463000D01*
X231796000Y-41464000D01*
X231790000Y-41464000D01*
X231785000Y-41465000D01*
X231780000Y-41465000D01*
X230380000Y-41465000D01*
X230375000Y-41465000D01*
X230370000Y-41464000D01*
X230364000Y-41464000D01*
X230359000Y-41463000D01*
X230354000Y-41462000D01*
X230349000Y-41460000D01*
X230344000Y-41458000D01*
X230339000Y-41456000D01*
X230335000Y-41454000D01*
X230330000Y-41452000D01*
X230326000Y-41449000D01*
X230321000Y-41446000D01*
X230317000Y-41443000D01*
X230313000Y-41439000D01*
X230309000Y-41436000D01*
X230306000Y-41432000D01*
X230302000Y-41428000D01*
X230299000Y-41424000D01*
X230296000Y-41419000D01*
X230293000Y-41415000D01*
X230291000Y-41410000D01*
X230289000Y-41406000D01*
X230287000Y-41401000D01*
X230285000Y-41396000D01*
X230283000Y-41391000D01*
X230282000Y-41386000D01*
X230281000Y-41381000D01*
X230281000Y-41375000D01*
X230280000Y-41370000D01*
X230280000Y-41365000D01*
X230280000Y-41015000D01*
X230280000Y-41010000D01*
X230281000Y-41005000D01*
X230281000Y-40999000D01*
X230282000Y-40994000D01*
X230283000Y-40989000D01*
X230285000Y-40984000D01*
X230287000Y-40979000D01*
X230289000Y-40974000D01*
X230291000Y-40970000D01*
X230293000Y-40965000D01*
X230296000Y-40961000D01*
X230299000Y-40956000D01*
X230302000Y-40952000D01*
X230306000Y-40948000D01*
X230309000Y-40944000D01*
X230313000Y-40941000D01*
X230317000Y-40937000D01*
X230321000Y-40934000D01*
X230326000Y-40931000D01*
X230330000Y-40928000D01*
X230335000Y-40926000D01*
X230339000Y-40924000D01*
X230344000Y-40922000D01*
X230349000Y-40920000D01*
X230354000Y-40918000D01*
X230359000Y-40917000D01*
X230364000Y-40916000D01*
X230370000Y-40916000D01*
X230375000Y-40915000D01*
X230380000Y-40915000D01*
X231780000Y-40915000D01*
X231785000Y-40915000D01*
X231790000Y-40916000D01*
G37*
X231790000Y-40916000D02*
X231796000Y-40916000D01*
X231801000Y-40917000D01*
X231806000Y-40918000D01*
X231811000Y-40920000D01*
X231816000Y-40922000D01*
X231821000Y-40924000D01*
X231825000Y-40926000D01*
X231830000Y-40928000D01*
X231834000Y-40931000D01*
X231839000Y-40934000D01*
X231843000Y-40937000D01*
X231847000Y-40941000D01*
X231851000Y-40944000D01*
X231854000Y-40948000D01*
X231858000Y-40952000D01*
X231861000Y-40956000D01*
X231864000Y-40961000D01*
X231867000Y-40965000D01*
X231869000Y-40970000D01*
X231871000Y-40974000D01*
X231873000Y-40979000D01*
X231875000Y-40984000D01*
X231877000Y-40989000D01*
X231878000Y-40994000D01*
X231879000Y-40999000D01*
X231879000Y-41005000D01*
X231880000Y-41010000D01*
X231880000Y-41015000D01*
X231880000Y-41365000D01*
X231880000Y-41370000D01*
X231879000Y-41375000D01*
X231879000Y-41381000D01*
X231878000Y-41386000D01*
X231877000Y-41391000D01*
X231875000Y-41396000D01*
X231873000Y-41401000D01*
X231871000Y-41406000D01*
X231869000Y-41410000D01*
X231867000Y-41415000D01*
X231864000Y-41419000D01*
X231861000Y-41424000D01*
X231858000Y-41428000D01*
X231854000Y-41432000D01*
X231851000Y-41436000D01*
X231847000Y-41439000D01*
X231843000Y-41443000D01*
X231839000Y-41446000D01*
X231834000Y-41449000D01*
X231830000Y-41452000D01*
X231825000Y-41454000D01*
X231821000Y-41456000D01*
X231816000Y-41458000D01*
X231811000Y-41460000D01*
X231806000Y-41462000D01*
X231801000Y-41463000D01*
X231796000Y-41464000D01*
X231790000Y-41464000D01*
X231785000Y-41465000D01*
X231780000Y-41465000D01*
X230380000Y-41465000D01*
X230375000Y-41465000D01*
X230370000Y-41464000D01*
X230364000Y-41464000D01*
X230359000Y-41463000D01*
X230354000Y-41462000D01*
X230349000Y-41460000D01*
X230344000Y-41458000D01*
X230339000Y-41456000D01*
X230335000Y-41454000D01*
X230330000Y-41452000D01*
X230326000Y-41449000D01*
X230321000Y-41446000D01*
X230317000Y-41443000D01*
X230313000Y-41439000D01*
X230309000Y-41436000D01*
X230306000Y-41432000D01*
X230302000Y-41428000D01*
X230299000Y-41424000D01*
X230296000Y-41419000D01*
X230293000Y-41415000D01*
X230291000Y-41410000D01*
X230289000Y-41406000D01*
X230287000Y-41401000D01*
X230285000Y-41396000D01*
X230283000Y-41391000D01*
X230282000Y-41386000D01*
X230281000Y-41381000D01*
X230281000Y-41375000D01*
X230280000Y-41370000D01*
X230280000Y-41365000D01*
X230280000Y-41015000D01*
X230280000Y-41010000D01*
X230281000Y-41005000D01*
X230281000Y-40999000D01*
X230282000Y-40994000D01*
X230283000Y-40989000D01*
X230285000Y-40984000D01*
X230287000Y-40979000D01*
X230289000Y-40974000D01*
X230291000Y-40970000D01*
X230293000Y-40965000D01*
X230296000Y-40961000D01*
X230299000Y-40956000D01*
X230302000Y-40952000D01*
X230306000Y-40948000D01*
X230309000Y-40944000D01*
X230313000Y-40941000D01*
X230317000Y-40937000D01*
X230321000Y-40934000D01*
X230326000Y-40931000D01*
X230330000Y-40928000D01*
X230335000Y-40926000D01*
X230339000Y-40924000D01*
X230344000Y-40922000D01*
X230349000Y-40920000D01*
X230354000Y-40918000D01*
X230359000Y-40917000D01*
X230364000Y-40916000D01*
X230370000Y-40916000D01*
X230375000Y-40915000D01*
X230380000Y-40915000D01*
X231780000Y-40915000D01*
X231785000Y-40915000D01*
X231790000Y-40916000D01*
G36*
X231790000Y-41566000D02*
G01*
X231796000Y-41566000D01*
X231801000Y-41567000D01*
X231806000Y-41568000D01*
X231811000Y-41570000D01*
X231816000Y-41572000D01*
X231821000Y-41574000D01*
X231825000Y-41576000D01*
X231830000Y-41578000D01*
X231834000Y-41581000D01*
X231839000Y-41584000D01*
X231843000Y-41587000D01*
X231847000Y-41591000D01*
X231851000Y-41594000D01*
X231854000Y-41598000D01*
X231858000Y-41602000D01*
X231861000Y-41606000D01*
X231864000Y-41611000D01*
X231867000Y-41615000D01*
X231869000Y-41620000D01*
X231871000Y-41624000D01*
X231873000Y-41629000D01*
X231875000Y-41634000D01*
X231877000Y-41639000D01*
X231878000Y-41644000D01*
X231879000Y-41649000D01*
X231879000Y-41655000D01*
X231880000Y-41660000D01*
X231880000Y-41665000D01*
X231880000Y-42015000D01*
X231880000Y-42020000D01*
X231879000Y-42025000D01*
X231879000Y-42031000D01*
X231878000Y-42036000D01*
X231877000Y-42041000D01*
X231875000Y-42046000D01*
X231873000Y-42051000D01*
X231871000Y-42056000D01*
X231869000Y-42060000D01*
X231867000Y-42065000D01*
X231864000Y-42069000D01*
X231861000Y-42074000D01*
X231858000Y-42078000D01*
X231854000Y-42082000D01*
X231851000Y-42086000D01*
X231847000Y-42089000D01*
X231843000Y-42093000D01*
X231839000Y-42096000D01*
X231834000Y-42099000D01*
X231830000Y-42102000D01*
X231825000Y-42104000D01*
X231821000Y-42106000D01*
X231816000Y-42108000D01*
X231811000Y-42110000D01*
X231806000Y-42112000D01*
X231801000Y-42113000D01*
X231796000Y-42114000D01*
X231790000Y-42114000D01*
X231785000Y-42115000D01*
X231780000Y-42115000D01*
X230380000Y-42115000D01*
X230375000Y-42115000D01*
X230370000Y-42114000D01*
X230364000Y-42114000D01*
X230359000Y-42113000D01*
X230354000Y-42112000D01*
X230349000Y-42110000D01*
X230344000Y-42108000D01*
X230339000Y-42106000D01*
X230335000Y-42104000D01*
X230330000Y-42102000D01*
X230326000Y-42099000D01*
X230321000Y-42096000D01*
X230317000Y-42093000D01*
X230313000Y-42089000D01*
X230309000Y-42086000D01*
X230306000Y-42082000D01*
X230302000Y-42078000D01*
X230299000Y-42074000D01*
X230296000Y-42069000D01*
X230293000Y-42065000D01*
X230291000Y-42060000D01*
X230289000Y-42056000D01*
X230287000Y-42051000D01*
X230285000Y-42046000D01*
X230283000Y-42041000D01*
X230282000Y-42036000D01*
X230281000Y-42031000D01*
X230281000Y-42025000D01*
X230280000Y-42020000D01*
X230280000Y-42015000D01*
X230280000Y-41665000D01*
X230280000Y-41660000D01*
X230281000Y-41655000D01*
X230281000Y-41649000D01*
X230282000Y-41644000D01*
X230283000Y-41639000D01*
X230285000Y-41634000D01*
X230287000Y-41629000D01*
X230289000Y-41624000D01*
X230291000Y-41620000D01*
X230293000Y-41615000D01*
X230296000Y-41611000D01*
X230299000Y-41606000D01*
X230302000Y-41602000D01*
X230306000Y-41598000D01*
X230309000Y-41594000D01*
X230313000Y-41591000D01*
X230317000Y-41587000D01*
X230321000Y-41584000D01*
X230326000Y-41581000D01*
X230330000Y-41578000D01*
X230335000Y-41576000D01*
X230339000Y-41574000D01*
X230344000Y-41572000D01*
X230349000Y-41570000D01*
X230354000Y-41568000D01*
X230359000Y-41567000D01*
X230364000Y-41566000D01*
X230370000Y-41566000D01*
X230375000Y-41565000D01*
X230380000Y-41565000D01*
X231780000Y-41565000D01*
X231785000Y-41565000D01*
X231790000Y-41566000D01*
G37*
X231790000Y-41566000D02*
X231796000Y-41566000D01*
X231801000Y-41567000D01*
X231806000Y-41568000D01*
X231811000Y-41570000D01*
X231816000Y-41572000D01*
X231821000Y-41574000D01*
X231825000Y-41576000D01*
X231830000Y-41578000D01*
X231834000Y-41581000D01*
X231839000Y-41584000D01*
X231843000Y-41587000D01*
X231847000Y-41591000D01*
X231851000Y-41594000D01*
X231854000Y-41598000D01*
X231858000Y-41602000D01*
X231861000Y-41606000D01*
X231864000Y-41611000D01*
X231867000Y-41615000D01*
X231869000Y-41620000D01*
X231871000Y-41624000D01*
X231873000Y-41629000D01*
X231875000Y-41634000D01*
X231877000Y-41639000D01*
X231878000Y-41644000D01*
X231879000Y-41649000D01*
X231879000Y-41655000D01*
X231880000Y-41660000D01*
X231880000Y-41665000D01*
X231880000Y-42015000D01*
X231880000Y-42020000D01*
X231879000Y-42025000D01*
X231879000Y-42031000D01*
X231878000Y-42036000D01*
X231877000Y-42041000D01*
X231875000Y-42046000D01*
X231873000Y-42051000D01*
X231871000Y-42056000D01*
X231869000Y-42060000D01*
X231867000Y-42065000D01*
X231864000Y-42069000D01*
X231861000Y-42074000D01*
X231858000Y-42078000D01*
X231854000Y-42082000D01*
X231851000Y-42086000D01*
X231847000Y-42089000D01*
X231843000Y-42093000D01*
X231839000Y-42096000D01*
X231834000Y-42099000D01*
X231830000Y-42102000D01*
X231825000Y-42104000D01*
X231821000Y-42106000D01*
X231816000Y-42108000D01*
X231811000Y-42110000D01*
X231806000Y-42112000D01*
X231801000Y-42113000D01*
X231796000Y-42114000D01*
X231790000Y-42114000D01*
X231785000Y-42115000D01*
X231780000Y-42115000D01*
X230380000Y-42115000D01*
X230375000Y-42115000D01*
X230370000Y-42114000D01*
X230364000Y-42114000D01*
X230359000Y-42113000D01*
X230354000Y-42112000D01*
X230349000Y-42110000D01*
X230344000Y-42108000D01*
X230339000Y-42106000D01*
X230335000Y-42104000D01*
X230330000Y-42102000D01*
X230326000Y-42099000D01*
X230321000Y-42096000D01*
X230317000Y-42093000D01*
X230313000Y-42089000D01*
X230309000Y-42086000D01*
X230306000Y-42082000D01*
X230302000Y-42078000D01*
X230299000Y-42074000D01*
X230296000Y-42069000D01*
X230293000Y-42065000D01*
X230291000Y-42060000D01*
X230289000Y-42056000D01*
X230287000Y-42051000D01*
X230285000Y-42046000D01*
X230283000Y-42041000D01*
X230282000Y-42036000D01*
X230281000Y-42031000D01*
X230281000Y-42025000D01*
X230280000Y-42020000D01*
X230280000Y-42015000D01*
X230280000Y-41665000D01*
X230280000Y-41660000D01*
X230281000Y-41655000D01*
X230281000Y-41649000D01*
X230282000Y-41644000D01*
X230283000Y-41639000D01*
X230285000Y-41634000D01*
X230287000Y-41629000D01*
X230289000Y-41624000D01*
X230291000Y-41620000D01*
X230293000Y-41615000D01*
X230296000Y-41611000D01*
X230299000Y-41606000D01*
X230302000Y-41602000D01*
X230306000Y-41598000D01*
X230309000Y-41594000D01*
X230313000Y-41591000D01*
X230317000Y-41587000D01*
X230321000Y-41584000D01*
X230326000Y-41581000D01*
X230330000Y-41578000D01*
X230335000Y-41576000D01*
X230339000Y-41574000D01*
X230344000Y-41572000D01*
X230349000Y-41570000D01*
X230354000Y-41568000D01*
X230359000Y-41567000D01*
X230364000Y-41566000D01*
X230370000Y-41566000D01*
X230375000Y-41565000D01*
X230380000Y-41565000D01*
X231780000Y-41565000D01*
X231785000Y-41565000D01*
X231790000Y-41566000D01*
G36*
X231790000Y-42216000D02*
G01*
X231796000Y-42216000D01*
X231801000Y-42217000D01*
X231806000Y-42218000D01*
X231811000Y-42220000D01*
X231816000Y-42222000D01*
X231821000Y-42224000D01*
X231825000Y-42226000D01*
X231830000Y-42228000D01*
X231834000Y-42231000D01*
X231839000Y-42234000D01*
X231843000Y-42237000D01*
X231847000Y-42241000D01*
X231851000Y-42244000D01*
X231854000Y-42248000D01*
X231858000Y-42252000D01*
X231861000Y-42256000D01*
X231864000Y-42261000D01*
X231867000Y-42265000D01*
X231869000Y-42270000D01*
X231871000Y-42274000D01*
X231873000Y-42279000D01*
X231875000Y-42284000D01*
X231877000Y-42289000D01*
X231878000Y-42294000D01*
X231879000Y-42299000D01*
X231879000Y-42305000D01*
X231880000Y-42310000D01*
X231880000Y-42315000D01*
X231880000Y-42665000D01*
X231880000Y-42670000D01*
X231879000Y-42675000D01*
X231879000Y-42681000D01*
X231878000Y-42686000D01*
X231877000Y-42691000D01*
X231875000Y-42696000D01*
X231873000Y-42701000D01*
X231871000Y-42706000D01*
X231869000Y-42710000D01*
X231867000Y-42715000D01*
X231864000Y-42719000D01*
X231861000Y-42724000D01*
X231858000Y-42728000D01*
X231854000Y-42732000D01*
X231851000Y-42736000D01*
X231847000Y-42739000D01*
X231843000Y-42743000D01*
X231839000Y-42746000D01*
X231834000Y-42749000D01*
X231830000Y-42752000D01*
X231825000Y-42754000D01*
X231821000Y-42756000D01*
X231816000Y-42758000D01*
X231811000Y-42760000D01*
X231806000Y-42762000D01*
X231801000Y-42763000D01*
X231796000Y-42764000D01*
X231790000Y-42764000D01*
X231785000Y-42765000D01*
X231780000Y-42765000D01*
X230380000Y-42765000D01*
X230375000Y-42765000D01*
X230370000Y-42764000D01*
X230364000Y-42764000D01*
X230359000Y-42763000D01*
X230354000Y-42762000D01*
X230349000Y-42760000D01*
X230344000Y-42758000D01*
X230339000Y-42756000D01*
X230335000Y-42754000D01*
X230330000Y-42752000D01*
X230326000Y-42749000D01*
X230321000Y-42746000D01*
X230317000Y-42743000D01*
X230313000Y-42739000D01*
X230309000Y-42736000D01*
X230306000Y-42732000D01*
X230302000Y-42728000D01*
X230299000Y-42724000D01*
X230296000Y-42719000D01*
X230293000Y-42715000D01*
X230291000Y-42710000D01*
X230289000Y-42706000D01*
X230287000Y-42701000D01*
X230285000Y-42696000D01*
X230283000Y-42691000D01*
X230282000Y-42686000D01*
X230281000Y-42681000D01*
X230281000Y-42675000D01*
X230280000Y-42670000D01*
X230280000Y-42665000D01*
X230280000Y-42315000D01*
X230280000Y-42310000D01*
X230281000Y-42305000D01*
X230281000Y-42299000D01*
X230282000Y-42294000D01*
X230283000Y-42289000D01*
X230285000Y-42284000D01*
X230287000Y-42279000D01*
X230289000Y-42274000D01*
X230291000Y-42270000D01*
X230293000Y-42265000D01*
X230296000Y-42261000D01*
X230299000Y-42256000D01*
X230302000Y-42252000D01*
X230306000Y-42248000D01*
X230309000Y-42244000D01*
X230313000Y-42241000D01*
X230317000Y-42237000D01*
X230321000Y-42234000D01*
X230326000Y-42231000D01*
X230330000Y-42228000D01*
X230335000Y-42226000D01*
X230339000Y-42224000D01*
X230344000Y-42222000D01*
X230349000Y-42220000D01*
X230354000Y-42218000D01*
X230359000Y-42217000D01*
X230364000Y-42216000D01*
X230370000Y-42216000D01*
X230375000Y-42215000D01*
X230380000Y-42215000D01*
X231780000Y-42215000D01*
X231785000Y-42215000D01*
X231790000Y-42216000D01*
G37*
X231790000Y-42216000D02*
X231796000Y-42216000D01*
X231801000Y-42217000D01*
X231806000Y-42218000D01*
X231811000Y-42220000D01*
X231816000Y-42222000D01*
X231821000Y-42224000D01*
X231825000Y-42226000D01*
X231830000Y-42228000D01*
X231834000Y-42231000D01*
X231839000Y-42234000D01*
X231843000Y-42237000D01*
X231847000Y-42241000D01*
X231851000Y-42244000D01*
X231854000Y-42248000D01*
X231858000Y-42252000D01*
X231861000Y-42256000D01*
X231864000Y-42261000D01*
X231867000Y-42265000D01*
X231869000Y-42270000D01*
X231871000Y-42274000D01*
X231873000Y-42279000D01*
X231875000Y-42284000D01*
X231877000Y-42289000D01*
X231878000Y-42294000D01*
X231879000Y-42299000D01*
X231879000Y-42305000D01*
X231880000Y-42310000D01*
X231880000Y-42315000D01*
X231880000Y-42665000D01*
X231880000Y-42670000D01*
X231879000Y-42675000D01*
X231879000Y-42681000D01*
X231878000Y-42686000D01*
X231877000Y-42691000D01*
X231875000Y-42696000D01*
X231873000Y-42701000D01*
X231871000Y-42706000D01*
X231869000Y-42710000D01*
X231867000Y-42715000D01*
X231864000Y-42719000D01*
X231861000Y-42724000D01*
X231858000Y-42728000D01*
X231854000Y-42732000D01*
X231851000Y-42736000D01*
X231847000Y-42739000D01*
X231843000Y-42743000D01*
X231839000Y-42746000D01*
X231834000Y-42749000D01*
X231830000Y-42752000D01*
X231825000Y-42754000D01*
X231821000Y-42756000D01*
X231816000Y-42758000D01*
X231811000Y-42760000D01*
X231806000Y-42762000D01*
X231801000Y-42763000D01*
X231796000Y-42764000D01*
X231790000Y-42764000D01*
X231785000Y-42765000D01*
X231780000Y-42765000D01*
X230380000Y-42765000D01*
X230375000Y-42765000D01*
X230370000Y-42764000D01*
X230364000Y-42764000D01*
X230359000Y-42763000D01*
X230354000Y-42762000D01*
X230349000Y-42760000D01*
X230344000Y-42758000D01*
X230339000Y-42756000D01*
X230335000Y-42754000D01*
X230330000Y-42752000D01*
X230326000Y-42749000D01*
X230321000Y-42746000D01*
X230317000Y-42743000D01*
X230313000Y-42739000D01*
X230309000Y-42736000D01*
X230306000Y-42732000D01*
X230302000Y-42728000D01*
X230299000Y-42724000D01*
X230296000Y-42719000D01*
X230293000Y-42715000D01*
X230291000Y-42710000D01*
X230289000Y-42706000D01*
X230287000Y-42701000D01*
X230285000Y-42696000D01*
X230283000Y-42691000D01*
X230282000Y-42686000D01*
X230281000Y-42681000D01*
X230281000Y-42675000D01*
X230280000Y-42670000D01*
X230280000Y-42665000D01*
X230280000Y-42315000D01*
X230280000Y-42310000D01*
X230281000Y-42305000D01*
X230281000Y-42299000D01*
X230282000Y-42294000D01*
X230283000Y-42289000D01*
X230285000Y-42284000D01*
X230287000Y-42279000D01*
X230289000Y-42274000D01*
X230291000Y-42270000D01*
X230293000Y-42265000D01*
X230296000Y-42261000D01*
X230299000Y-42256000D01*
X230302000Y-42252000D01*
X230306000Y-42248000D01*
X230309000Y-42244000D01*
X230313000Y-42241000D01*
X230317000Y-42237000D01*
X230321000Y-42234000D01*
X230326000Y-42231000D01*
X230330000Y-42228000D01*
X230335000Y-42226000D01*
X230339000Y-42224000D01*
X230344000Y-42222000D01*
X230349000Y-42220000D01*
X230354000Y-42218000D01*
X230359000Y-42217000D01*
X230364000Y-42216000D01*
X230370000Y-42216000D01*
X230375000Y-42215000D01*
X230380000Y-42215000D01*
X231780000Y-42215000D01*
X231785000Y-42215000D01*
X231790000Y-42216000D01*
G36*
X231790000Y-42866000D02*
G01*
X231796000Y-42866000D01*
X231801000Y-42867000D01*
X231806000Y-42868000D01*
X231811000Y-42870000D01*
X231816000Y-42872000D01*
X231821000Y-42874000D01*
X231825000Y-42876000D01*
X231830000Y-42878000D01*
X231834000Y-42881000D01*
X231839000Y-42884000D01*
X231843000Y-42887000D01*
X231847000Y-42891000D01*
X231851000Y-42894000D01*
X231854000Y-42898000D01*
X231858000Y-42902000D01*
X231861000Y-42906000D01*
X231864000Y-42911000D01*
X231867000Y-42915000D01*
X231869000Y-42920000D01*
X231871000Y-42924000D01*
X231873000Y-42929000D01*
X231875000Y-42934000D01*
X231877000Y-42939000D01*
X231878000Y-42944000D01*
X231879000Y-42949000D01*
X231879000Y-42955000D01*
X231880000Y-42960000D01*
X231880000Y-42965000D01*
X231880000Y-43315000D01*
X231880000Y-43320000D01*
X231879000Y-43325000D01*
X231879000Y-43331000D01*
X231878000Y-43336000D01*
X231877000Y-43341000D01*
X231875000Y-43346000D01*
X231873000Y-43351000D01*
X231871000Y-43356000D01*
X231869000Y-43360000D01*
X231867000Y-43365000D01*
X231864000Y-43369000D01*
X231861000Y-43374000D01*
X231858000Y-43378000D01*
X231854000Y-43382000D01*
X231851000Y-43386000D01*
X231847000Y-43389000D01*
X231843000Y-43393000D01*
X231839000Y-43396000D01*
X231834000Y-43399000D01*
X231830000Y-43402000D01*
X231825000Y-43404000D01*
X231821000Y-43406000D01*
X231816000Y-43408000D01*
X231811000Y-43410000D01*
X231806000Y-43412000D01*
X231801000Y-43413000D01*
X231796000Y-43414000D01*
X231790000Y-43414000D01*
X231785000Y-43415000D01*
X231780000Y-43415000D01*
X230380000Y-43415000D01*
X230375000Y-43415000D01*
X230370000Y-43414000D01*
X230364000Y-43414000D01*
X230359000Y-43413000D01*
X230354000Y-43412000D01*
X230349000Y-43410000D01*
X230344000Y-43408000D01*
X230339000Y-43406000D01*
X230335000Y-43404000D01*
X230330000Y-43402000D01*
X230326000Y-43399000D01*
X230321000Y-43396000D01*
X230317000Y-43393000D01*
X230313000Y-43389000D01*
X230309000Y-43386000D01*
X230306000Y-43382000D01*
X230302000Y-43378000D01*
X230299000Y-43374000D01*
X230296000Y-43369000D01*
X230293000Y-43365000D01*
X230291000Y-43360000D01*
X230289000Y-43356000D01*
X230287000Y-43351000D01*
X230285000Y-43346000D01*
X230283000Y-43341000D01*
X230282000Y-43336000D01*
X230281000Y-43331000D01*
X230281000Y-43325000D01*
X230280000Y-43320000D01*
X230280000Y-43315000D01*
X230280000Y-42965000D01*
X230280000Y-42960000D01*
X230281000Y-42955000D01*
X230281000Y-42949000D01*
X230282000Y-42944000D01*
X230283000Y-42939000D01*
X230285000Y-42934000D01*
X230287000Y-42929000D01*
X230289000Y-42924000D01*
X230291000Y-42920000D01*
X230293000Y-42915000D01*
X230296000Y-42911000D01*
X230299000Y-42906000D01*
X230302000Y-42902000D01*
X230306000Y-42898000D01*
X230309000Y-42894000D01*
X230313000Y-42891000D01*
X230317000Y-42887000D01*
X230321000Y-42884000D01*
X230326000Y-42881000D01*
X230330000Y-42878000D01*
X230335000Y-42876000D01*
X230339000Y-42874000D01*
X230344000Y-42872000D01*
X230349000Y-42870000D01*
X230354000Y-42868000D01*
X230359000Y-42867000D01*
X230364000Y-42866000D01*
X230370000Y-42866000D01*
X230375000Y-42865000D01*
X230380000Y-42865000D01*
X231780000Y-42865000D01*
X231785000Y-42865000D01*
X231790000Y-42866000D01*
G37*
X231790000Y-42866000D02*
X231796000Y-42866000D01*
X231801000Y-42867000D01*
X231806000Y-42868000D01*
X231811000Y-42870000D01*
X231816000Y-42872000D01*
X231821000Y-42874000D01*
X231825000Y-42876000D01*
X231830000Y-42878000D01*
X231834000Y-42881000D01*
X231839000Y-42884000D01*
X231843000Y-42887000D01*
X231847000Y-42891000D01*
X231851000Y-42894000D01*
X231854000Y-42898000D01*
X231858000Y-42902000D01*
X231861000Y-42906000D01*
X231864000Y-42911000D01*
X231867000Y-42915000D01*
X231869000Y-42920000D01*
X231871000Y-42924000D01*
X231873000Y-42929000D01*
X231875000Y-42934000D01*
X231877000Y-42939000D01*
X231878000Y-42944000D01*
X231879000Y-42949000D01*
X231879000Y-42955000D01*
X231880000Y-42960000D01*
X231880000Y-42965000D01*
X231880000Y-43315000D01*
X231880000Y-43320000D01*
X231879000Y-43325000D01*
X231879000Y-43331000D01*
X231878000Y-43336000D01*
X231877000Y-43341000D01*
X231875000Y-43346000D01*
X231873000Y-43351000D01*
X231871000Y-43356000D01*
X231869000Y-43360000D01*
X231867000Y-43365000D01*
X231864000Y-43369000D01*
X231861000Y-43374000D01*
X231858000Y-43378000D01*
X231854000Y-43382000D01*
X231851000Y-43386000D01*
X231847000Y-43389000D01*
X231843000Y-43393000D01*
X231839000Y-43396000D01*
X231834000Y-43399000D01*
X231830000Y-43402000D01*
X231825000Y-43404000D01*
X231821000Y-43406000D01*
X231816000Y-43408000D01*
X231811000Y-43410000D01*
X231806000Y-43412000D01*
X231801000Y-43413000D01*
X231796000Y-43414000D01*
X231790000Y-43414000D01*
X231785000Y-43415000D01*
X231780000Y-43415000D01*
X230380000Y-43415000D01*
X230375000Y-43415000D01*
X230370000Y-43414000D01*
X230364000Y-43414000D01*
X230359000Y-43413000D01*
X230354000Y-43412000D01*
X230349000Y-43410000D01*
X230344000Y-43408000D01*
X230339000Y-43406000D01*
X230335000Y-43404000D01*
X230330000Y-43402000D01*
X230326000Y-43399000D01*
X230321000Y-43396000D01*
X230317000Y-43393000D01*
X230313000Y-43389000D01*
X230309000Y-43386000D01*
X230306000Y-43382000D01*
X230302000Y-43378000D01*
X230299000Y-43374000D01*
X230296000Y-43369000D01*
X230293000Y-43365000D01*
X230291000Y-43360000D01*
X230289000Y-43356000D01*
X230287000Y-43351000D01*
X230285000Y-43346000D01*
X230283000Y-43341000D01*
X230282000Y-43336000D01*
X230281000Y-43331000D01*
X230281000Y-43325000D01*
X230280000Y-43320000D01*
X230280000Y-43315000D01*
X230280000Y-42965000D01*
X230280000Y-42960000D01*
X230281000Y-42955000D01*
X230281000Y-42949000D01*
X230282000Y-42944000D01*
X230283000Y-42939000D01*
X230285000Y-42934000D01*
X230287000Y-42929000D01*
X230289000Y-42924000D01*
X230291000Y-42920000D01*
X230293000Y-42915000D01*
X230296000Y-42911000D01*
X230299000Y-42906000D01*
X230302000Y-42902000D01*
X230306000Y-42898000D01*
X230309000Y-42894000D01*
X230313000Y-42891000D01*
X230317000Y-42887000D01*
X230321000Y-42884000D01*
X230326000Y-42881000D01*
X230330000Y-42878000D01*
X230335000Y-42876000D01*
X230339000Y-42874000D01*
X230344000Y-42872000D01*
X230349000Y-42870000D01*
X230354000Y-42868000D01*
X230359000Y-42867000D01*
X230364000Y-42866000D01*
X230370000Y-42866000D01*
X230375000Y-42865000D01*
X230380000Y-42865000D01*
X231780000Y-42865000D01*
X231785000Y-42865000D01*
X231790000Y-42866000D01*
G36*
X231790000Y-43516000D02*
G01*
X231796000Y-43516000D01*
X231801000Y-43517000D01*
X231806000Y-43518000D01*
X231811000Y-43520000D01*
X231816000Y-43522000D01*
X231821000Y-43524000D01*
X231825000Y-43526000D01*
X231830000Y-43528000D01*
X231834000Y-43531000D01*
X231839000Y-43534000D01*
X231843000Y-43537000D01*
X231847000Y-43541000D01*
X231851000Y-43544000D01*
X231854000Y-43548000D01*
X231858000Y-43552000D01*
X231861000Y-43556000D01*
X231864000Y-43561000D01*
X231867000Y-43565000D01*
X231869000Y-43570000D01*
X231871000Y-43574000D01*
X231873000Y-43579000D01*
X231875000Y-43584000D01*
X231877000Y-43589000D01*
X231878000Y-43594000D01*
X231879000Y-43599000D01*
X231879000Y-43605000D01*
X231880000Y-43610000D01*
X231880000Y-43615000D01*
X231880000Y-43965000D01*
X231880000Y-43970000D01*
X231879000Y-43975000D01*
X231879000Y-43981000D01*
X231878000Y-43986000D01*
X231877000Y-43991000D01*
X231875000Y-43996000D01*
X231873000Y-44001000D01*
X231871000Y-44006000D01*
X231869000Y-44010000D01*
X231867000Y-44015000D01*
X231864000Y-44019000D01*
X231861000Y-44024000D01*
X231858000Y-44028000D01*
X231854000Y-44032000D01*
X231851000Y-44036000D01*
X231847000Y-44039000D01*
X231843000Y-44043000D01*
X231839000Y-44046000D01*
X231834000Y-44049000D01*
X231830000Y-44052000D01*
X231825000Y-44054000D01*
X231821000Y-44056000D01*
X231816000Y-44058000D01*
X231811000Y-44060000D01*
X231806000Y-44062000D01*
X231801000Y-44063000D01*
X231796000Y-44064000D01*
X231790000Y-44064000D01*
X231785000Y-44065000D01*
X231780000Y-44065000D01*
X230380000Y-44065000D01*
X230375000Y-44065000D01*
X230370000Y-44064000D01*
X230364000Y-44064000D01*
X230359000Y-44063000D01*
X230354000Y-44062000D01*
X230349000Y-44060000D01*
X230344000Y-44058000D01*
X230339000Y-44056000D01*
X230335000Y-44054000D01*
X230330000Y-44052000D01*
X230326000Y-44049000D01*
X230321000Y-44046000D01*
X230317000Y-44043000D01*
X230313000Y-44039000D01*
X230309000Y-44036000D01*
X230306000Y-44032000D01*
X230302000Y-44028000D01*
X230299000Y-44024000D01*
X230296000Y-44019000D01*
X230293000Y-44015000D01*
X230291000Y-44010000D01*
X230289000Y-44006000D01*
X230287000Y-44001000D01*
X230285000Y-43996000D01*
X230283000Y-43991000D01*
X230282000Y-43986000D01*
X230281000Y-43981000D01*
X230281000Y-43975000D01*
X230280000Y-43970000D01*
X230280000Y-43965000D01*
X230280000Y-43615000D01*
X230280000Y-43610000D01*
X230281000Y-43605000D01*
X230281000Y-43599000D01*
X230282000Y-43594000D01*
X230283000Y-43589000D01*
X230285000Y-43584000D01*
X230287000Y-43579000D01*
X230289000Y-43574000D01*
X230291000Y-43570000D01*
X230293000Y-43565000D01*
X230296000Y-43561000D01*
X230299000Y-43556000D01*
X230302000Y-43552000D01*
X230306000Y-43548000D01*
X230309000Y-43544000D01*
X230313000Y-43541000D01*
X230317000Y-43537000D01*
X230321000Y-43534000D01*
X230326000Y-43531000D01*
X230330000Y-43528000D01*
X230335000Y-43526000D01*
X230339000Y-43524000D01*
X230344000Y-43522000D01*
X230349000Y-43520000D01*
X230354000Y-43518000D01*
X230359000Y-43517000D01*
X230364000Y-43516000D01*
X230370000Y-43516000D01*
X230375000Y-43515000D01*
X230380000Y-43515000D01*
X231780000Y-43515000D01*
X231785000Y-43515000D01*
X231790000Y-43516000D01*
G37*
X231790000Y-43516000D02*
X231796000Y-43516000D01*
X231801000Y-43517000D01*
X231806000Y-43518000D01*
X231811000Y-43520000D01*
X231816000Y-43522000D01*
X231821000Y-43524000D01*
X231825000Y-43526000D01*
X231830000Y-43528000D01*
X231834000Y-43531000D01*
X231839000Y-43534000D01*
X231843000Y-43537000D01*
X231847000Y-43541000D01*
X231851000Y-43544000D01*
X231854000Y-43548000D01*
X231858000Y-43552000D01*
X231861000Y-43556000D01*
X231864000Y-43561000D01*
X231867000Y-43565000D01*
X231869000Y-43570000D01*
X231871000Y-43574000D01*
X231873000Y-43579000D01*
X231875000Y-43584000D01*
X231877000Y-43589000D01*
X231878000Y-43594000D01*
X231879000Y-43599000D01*
X231879000Y-43605000D01*
X231880000Y-43610000D01*
X231880000Y-43615000D01*
X231880000Y-43965000D01*
X231880000Y-43970000D01*
X231879000Y-43975000D01*
X231879000Y-43981000D01*
X231878000Y-43986000D01*
X231877000Y-43991000D01*
X231875000Y-43996000D01*
X231873000Y-44001000D01*
X231871000Y-44006000D01*
X231869000Y-44010000D01*
X231867000Y-44015000D01*
X231864000Y-44019000D01*
X231861000Y-44024000D01*
X231858000Y-44028000D01*
X231854000Y-44032000D01*
X231851000Y-44036000D01*
X231847000Y-44039000D01*
X231843000Y-44043000D01*
X231839000Y-44046000D01*
X231834000Y-44049000D01*
X231830000Y-44052000D01*
X231825000Y-44054000D01*
X231821000Y-44056000D01*
X231816000Y-44058000D01*
X231811000Y-44060000D01*
X231806000Y-44062000D01*
X231801000Y-44063000D01*
X231796000Y-44064000D01*
X231790000Y-44064000D01*
X231785000Y-44065000D01*
X231780000Y-44065000D01*
X230380000Y-44065000D01*
X230375000Y-44065000D01*
X230370000Y-44064000D01*
X230364000Y-44064000D01*
X230359000Y-44063000D01*
X230354000Y-44062000D01*
X230349000Y-44060000D01*
X230344000Y-44058000D01*
X230339000Y-44056000D01*
X230335000Y-44054000D01*
X230330000Y-44052000D01*
X230326000Y-44049000D01*
X230321000Y-44046000D01*
X230317000Y-44043000D01*
X230313000Y-44039000D01*
X230309000Y-44036000D01*
X230306000Y-44032000D01*
X230302000Y-44028000D01*
X230299000Y-44024000D01*
X230296000Y-44019000D01*
X230293000Y-44015000D01*
X230291000Y-44010000D01*
X230289000Y-44006000D01*
X230287000Y-44001000D01*
X230285000Y-43996000D01*
X230283000Y-43991000D01*
X230282000Y-43986000D01*
X230281000Y-43981000D01*
X230281000Y-43975000D01*
X230280000Y-43970000D01*
X230280000Y-43965000D01*
X230280000Y-43615000D01*
X230280000Y-43610000D01*
X230281000Y-43605000D01*
X230281000Y-43599000D01*
X230282000Y-43594000D01*
X230283000Y-43589000D01*
X230285000Y-43584000D01*
X230287000Y-43579000D01*
X230289000Y-43574000D01*
X230291000Y-43570000D01*
X230293000Y-43565000D01*
X230296000Y-43561000D01*
X230299000Y-43556000D01*
X230302000Y-43552000D01*
X230306000Y-43548000D01*
X230309000Y-43544000D01*
X230313000Y-43541000D01*
X230317000Y-43537000D01*
X230321000Y-43534000D01*
X230326000Y-43531000D01*
X230330000Y-43528000D01*
X230335000Y-43526000D01*
X230339000Y-43524000D01*
X230344000Y-43522000D01*
X230349000Y-43520000D01*
X230354000Y-43518000D01*
X230359000Y-43517000D01*
X230364000Y-43516000D01*
X230370000Y-43516000D01*
X230375000Y-43515000D01*
X230380000Y-43515000D01*
X231780000Y-43515000D01*
X231785000Y-43515000D01*
X231790000Y-43516000D01*
%TD*%
D11*
%TO.C,H2*%
X151965000Y-174295000D03*
X150108845Y-173526155D03*
X153821155Y-173526155D03*
X149340000Y-171670000D03*
D12*
X151965000Y-171670000D03*
D11*
X154590000Y-171670000D03*
X150108845Y-169813845D03*
X153821155Y-169813845D03*
X151965000Y-169045000D03*
%TD*%
%TO.C,H1*%
X130340000Y-174300000D03*
X128483845Y-173531155D03*
X132196155Y-173531155D03*
X127715000Y-171675000D03*
D12*
X130340000Y-171675000D03*
D11*
X132965000Y-171675000D03*
X128483845Y-169818845D03*
X132196155Y-169818845D03*
X130340000Y-169050000D03*
%TD*%
%TO.C,H3*%
X130340000Y-108180000D03*
X128483845Y-107411155D03*
X132196155Y-107411155D03*
X127715000Y-105555000D03*
D12*
X130340000Y-105555000D03*
D11*
X132965000Y-105555000D03*
X128483845Y-103698845D03*
X132196155Y-103698845D03*
X130340000Y-102930000D03*
%TD*%
D13*
%TO.C,J2*%
X149439999Y-127739999D03*
X149439999Y-128239999D03*
X149439999Y-128739999D03*
X149439999Y-129239999D03*
X149439999Y-129739999D03*
X149439999Y-130239999D03*
X149439999Y-130739999D03*
X149439999Y-131239999D03*
X149439999Y-131739999D03*
X149439999Y-132239999D03*
X149439999Y-132739999D03*
X149439999Y-133239999D03*
X149439999Y-133739999D03*
X149439999Y-134239999D03*
X149439999Y-134739999D03*
X149439999Y-135239999D03*
X149439999Y-135739999D03*
X149439999Y-136239999D03*
X149439999Y-136739999D03*
X149439999Y-137239999D03*
X149439999Y-137739999D03*
X149439999Y-138239999D03*
X149439999Y-138739999D03*
X149439999Y-139239999D03*
X149439999Y-139739999D03*
X149439999Y-140239999D03*
X149439999Y-140739999D03*
X149439999Y-141239999D03*
X149439999Y-141739999D03*
X149439999Y-142239999D03*
X149439999Y-142739999D03*
X149439999Y-143239999D03*
X149439999Y-143739999D03*
X149439999Y-144239999D03*
X149439999Y-144739999D03*
X149439999Y-145239999D03*
X149439999Y-145739999D03*
X149439999Y-146239999D03*
X149439999Y-146739999D03*
X149439999Y-147239999D03*
D14*
X152689999Y-149139999D03*
X152689999Y-125839999D03*
%TD*%
D11*
%TO.C,H4*%
X151965000Y-108155000D03*
X150108845Y-107386155D03*
X153821155Y-107386155D03*
X149340000Y-105530000D03*
D12*
X151965000Y-105530000D03*
D11*
X154590000Y-105530000D03*
X150108845Y-103673845D03*
X153821155Y-103673845D03*
X151965000Y-102905000D03*
%TD*%
D15*
%TO.C,J1*%
X138140000Y-114790000D03*
D16*
X140680000Y-114790000D03*
X138140000Y-117330000D03*
X140680000Y-117330000D03*
X138140000Y-119870000D03*
X140680000Y-119870000D03*
X138140000Y-122410000D03*
X140680000Y-122410000D03*
X138140000Y-124950000D03*
X140680000Y-124950000D03*
X138140000Y-127490000D03*
X140680000Y-127490000D03*
X138140000Y-130030000D03*
X140680000Y-130030000D03*
X138140000Y-132570000D03*
X140680000Y-132570000D03*
X138140000Y-135110000D03*
X140680000Y-135110000D03*
X138140000Y-137650000D03*
X140680000Y-137650000D03*
X138140000Y-140190000D03*
X140680000Y-140190000D03*
X138140000Y-142730000D03*
X140680000Y-142730000D03*
X138140000Y-145270000D03*
X140680000Y-145270000D03*
X138140000Y-147810000D03*
X140680000Y-147810000D03*
X138140000Y-150350000D03*
X140680000Y-150350000D03*
X138140000Y-152890000D03*
X140680000Y-152890000D03*
X138140000Y-155430000D03*
X140680000Y-155430000D03*
X138140000Y-157970000D03*
X140680000Y-157970000D03*
X138140000Y-160510000D03*
X140680000Y-160510000D03*
X138140000Y-163050000D03*
X140680000Y-163050000D03*
D17*
X139160000Y-105850000D03*
X139160000Y-171990000D03*
%TD*%
D11*
%TO.C,H2*%
X130695000Y-25865000D03*
X132551155Y-26633845D03*
X128838845Y-26633845D03*
X133320000Y-28490000D03*
D12*
X130695000Y-28490000D03*
D11*
X128070000Y-28490000D03*
X132551155Y-30346155D03*
X128838845Y-30346155D03*
X130695000Y-31115000D03*
%TD*%
%TO.C,H1*%
X152320000Y-25860000D03*
X154176155Y-26628845D03*
X150463845Y-26628845D03*
X154945000Y-28485000D03*
D12*
X152320000Y-28485000D03*
D11*
X149695000Y-28485000D03*
X154176155Y-30341155D03*
X150463845Y-30341155D03*
X152320000Y-31110000D03*
%TD*%
%TO.C,H3*%
X152320000Y-91980000D03*
X154176155Y-92748845D03*
X150463845Y-92748845D03*
X154945000Y-94605000D03*
D12*
X152320000Y-94605000D03*
D11*
X149695000Y-94605000D03*
X154176155Y-96461155D03*
X150463845Y-96461155D03*
X152320000Y-97230000D03*
%TD*%
D13*
%TO.C,J2*%
X133219999Y-72419999D03*
X133219999Y-71919999D03*
X133219999Y-71419999D03*
X133219999Y-70919999D03*
X133219999Y-70419999D03*
X133219999Y-69919999D03*
X133219999Y-69419999D03*
X133219999Y-68919999D03*
X133219999Y-68419999D03*
X133219999Y-67919999D03*
X133219999Y-67419999D03*
X133219999Y-66919999D03*
X133219999Y-66419999D03*
X133219999Y-65919999D03*
X133219999Y-65419999D03*
X133219999Y-64919999D03*
X133219999Y-64419999D03*
X133219999Y-63919999D03*
X133219999Y-63419999D03*
X133219999Y-62919999D03*
X133219999Y-62419999D03*
X133219999Y-61919999D03*
X133219999Y-61419999D03*
X133219999Y-60919999D03*
X133219999Y-60419999D03*
X133219999Y-59919999D03*
X133219999Y-59419999D03*
X133219999Y-58919999D03*
X133219999Y-58419999D03*
X133219999Y-57919999D03*
X133219999Y-57419999D03*
X133219999Y-56919999D03*
X133219999Y-56419999D03*
X133219999Y-55919999D03*
X133219999Y-55419999D03*
X133219999Y-54919999D03*
X133219999Y-54419999D03*
X133219999Y-53919999D03*
X133219999Y-53419999D03*
X133219999Y-52919999D03*
D14*
X129969999Y-51019999D03*
X129969999Y-74319999D03*
%TD*%
D11*
%TO.C,H4*%
X130695000Y-92005000D03*
X132551155Y-92773845D03*
X128838845Y-92773845D03*
X133320000Y-94630000D03*
D12*
X130695000Y-94630000D03*
D11*
X128070000Y-94630000D03*
X132551155Y-96486155D03*
X128838845Y-96486155D03*
X130695000Y-97255000D03*
%TD*%
D18*
%TO.C,J1*%
X144520000Y-85370000D03*
D16*
X141980000Y-85370000D03*
X144520000Y-82830000D03*
X141980000Y-82830000D03*
X144520000Y-80290000D03*
X141980000Y-80290000D03*
X144520000Y-77750000D03*
X141980000Y-77750000D03*
X144520000Y-75210000D03*
X141980000Y-75210000D03*
X144520000Y-72670000D03*
X141980000Y-72670000D03*
X144520000Y-70130000D03*
X141980000Y-70130000D03*
X144520000Y-67590000D03*
X141980000Y-67590000D03*
X144520000Y-65050000D03*
X141980000Y-65050000D03*
X144520000Y-62510000D03*
X141980000Y-62510000D03*
X144520000Y-59970000D03*
X141980000Y-59970000D03*
X144520000Y-57430000D03*
X141980000Y-57430000D03*
X144520000Y-54890000D03*
X141980000Y-54890000D03*
X144520000Y-52350000D03*
X141980000Y-52350000D03*
X144520000Y-49810000D03*
X141980000Y-49810000D03*
X144520000Y-47270000D03*
X141980000Y-47270000D03*
X144520000Y-44730000D03*
X141980000Y-44730000D03*
X144520000Y-42190000D03*
X141980000Y-42190000D03*
X144520000Y-39650000D03*
X141980000Y-39650000D03*
X144520000Y-37110000D03*
X141980000Y-37110000D03*
D17*
X143500000Y-94310000D03*
X143500000Y-28170000D03*
%TD*%
D19*
%TO.C,R14*%
X218220000Y-100460000D03*
X218220000Y-97360000D03*
%TD*%
D20*
%TO.C,D15*%
X185510000Y-51070000D03*
X185510000Y-57870000D03*
%TD*%
D21*
%TO.C,TP10*%
X166800000Y-148580000D03*
%TD*%
D22*
%TO.C,R7*%
X233100000Y-36197500D03*
X230000000Y-36197500D03*
%TD*%
D23*
%TO.C,D6*%
X218600000Y-107610000D03*
X225400000Y-107610000D03*
%TD*%
D24*
%TO.C,J16*%
X259914999Y-99764999D03*
D25*
X257374999Y-99764999D03*
X259914999Y-102304999D03*
X257374999Y-102304999D03*
%TD*%
D26*
%TO.C,R45*%
X242550000Y-78230000D03*
X244550000Y-78230000D03*
%TD*%
D27*
%TO.C,J5*%
X245640000Y-121435000D03*
X245590000Y-111460000D03*
%TD*%
D28*
%TO.C,H3*%
X159175000Y-170480000D03*
X160119581Y-168199581D03*
X160119581Y-172760419D03*
X162400000Y-167255000D03*
D29*
X162400000Y-170480000D03*
D28*
X162400000Y-173705000D03*
X164680419Y-168199581D03*
X164680419Y-172760419D03*
X165625000Y-170480000D03*
%TD*%
D30*
%TO.C,U6*%
X229505000Y-80027500D03*
X228855000Y-80027500D03*
X228205000Y-80027500D03*
X227555000Y-80027500D03*
X227555000Y-85752500D03*
X228205000Y-85752500D03*
X228855000Y-85752500D03*
X229505000Y-85752500D03*
%TD*%
D31*
%TO.C,D4*%
X227375000Y-36197500D03*
X224525000Y-36197500D03*
%TD*%
D32*
%TO.C,D8*%
X169595000Y-128500000D03*
X172445000Y-128500000D03*
%TD*%
D33*
%TO.C,C18*%
X251807500Y-44380000D03*
X254932500Y-44380000D03*
%TD*%
D28*
%TO.C,H1*%
X254175000Y-29480000D03*
X255119581Y-27199581D03*
X255119581Y-31760419D03*
X257400000Y-26255000D03*
D29*
X257400000Y-29480000D03*
D28*
X257400000Y-32705000D03*
X259680419Y-27199581D03*
X259680419Y-31760419D03*
X260625000Y-29480000D03*
%TD*%
D34*
%TO.C,Q2*%
X217679999Y-70359999D03*
X219579999Y-70359999D03*
X218629999Y-66959999D03*
%TD*%
D35*
%TO.C,R2*%
X230000000Y-30597500D03*
X233100000Y-30597500D03*
%TD*%
D36*
%TO.C,C38*%
X247962500Y-32980000D03*
X250037500Y-32980000D03*
%TD*%
D32*
%TO.C,D11*%
X257155000Y-85170000D03*
X260005000Y-85170000D03*
%TD*%
D33*
%TO.C,C36*%
X186200000Y-158420000D03*
X189325000Y-158420000D03*
%TD*%
D37*
%TO.C,U5*%
X245930000Y-41830000D03*
X245930000Y-42780000D03*
X245930000Y-43730000D03*
X248205000Y-43730000D03*
X248205000Y-41830000D03*
%TD*%
D38*
%TO.C,C49*%
X240202500Y-78220000D03*
X237077500Y-78220000D03*
%TD*%
D39*
%TO.C,C48*%
X241770000Y-80957500D03*
X241770000Y-84082500D03*
%TD*%
D40*
%TO.C,L5*%
X239519999Y-143029999D03*
X249419999Y-143029999D03*
%TD*%
D20*
%TO.C,D5*%
X197030000Y-80032500D03*
X197030000Y-86832500D03*
%TD*%
D33*
%TO.C,C23*%
X178177500Y-152260000D03*
X181302500Y-152260000D03*
%TD*%
D22*
%TO.C,R32*%
X189312500Y-163940000D03*
X186212500Y-163940000D03*
%TD*%
D21*
%TO.C,TP4*%
X251700000Y-47680000D03*
%TD*%
D41*
%TO.C,D9*%
X198230000Y-49547500D03*
D42*
X195950000Y-55847500D03*
D41*
X193670000Y-49547500D03*
%TD*%
D43*
%TO.C,D16*%
X220860000Y-89610000D03*
X218360000Y-89610000D03*
%TD*%
D28*
%TO.C,H2*%
X254135000Y-170175000D03*
X255079581Y-167894581D03*
X255079581Y-172455419D03*
X257360000Y-166950000D03*
D29*
X257360000Y-170175000D03*
D28*
X257360000Y-173400000D03*
X259640419Y-167894581D03*
X259640419Y-172455419D03*
X260585000Y-170175000D03*
%TD*%
D44*
%TO.C,L3*%
X192059999Y-37529999D03*
X203159999Y-37529999D03*
%TD*%
D45*
%TO.C,R36*%
X231730000Y-159990000D03*
X231730000Y-163090000D03*
%TD*%
D24*
%TO.C,J20*%
X172399999Y-108479999D03*
D25*
X169859999Y-108479999D03*
X172399999Y-111019999D03*
X169859999Y-111019999D03*
%TD*%
D46*
%TO.C,U3*%
X189065000Y-75782246D03*
X189065000Y-74082246D03*
X189065000Y-72382246D03*
D47*
X179915000Y-72382246D03*
D46*
X189065000Y-70682246D03*
X189065000Y-68982246D03*
%TD*%
D22*
%TO.C,R26*%
X252800000Y-60910000D03*
X249700000Y-60910000D03*
%TD*%
D35*
%TO.C,R6*%
X233300000Y-43880000D03*
X236400000Y-43880000D03*
%TD*%
D48*
%TO.C,R11*%
X215350000Y-44235000D03*
X215350000Y-41260000D03*
%TD*%
D22*
%TO.C,R40*%
X242990000Y-160040000D03*
X239890000Y-160040000D03*
%TD*%
D24*
%TO.C,J19*%
X172399999Y-169979999D03*
D25*
X169859999Y-169979999D03*
X172399999Y-172519999D03*
X169859999Y-172519999D03*
%TD*%
D33*
%TO.C,C31*%
X229970000Y-140270000D03*
X233095000Y-140270000D03*
%TD*%
D22*
%TO.C,R41*%
X237320000Y-162890000D03*
X234220000Y-162890000D03*
%TD*%
%TO.C,R33*%
X227050000Y-156030000D03*
X223950000Y-156030000D03*
%TD*%
D31*
%TO.C,D10*%
X234065000Y-106430000D03*
X231215000Y-106430000D03*
%TD*%
D38*
%TO.C,C42*%
X254832500Y-41200000D03*
X251707500Y-41200000D03*
%TD*%
D33*
%TO.C,C10*%
X217657500Y-77340000D03*
X220782500Y-77340000D03*
%TD*%
D49*
%TO.C,D17*%
X213589999Y-154829999D03*
D50*
X213589999Y-139589999D03*
%TD*%
D39*
%TO.C,C17*%
X203890000Y-153457500D03*
X203890000Y-156582500D03*
%TD*%
D21*
%TO.C,TP6*%
X257000000Y-47780000D03*
%TD*%
D45*
%TO.C,R30*%
X215230000Y-67620000D03*
X215230000Y-70720000D03*
%TD*%
D32*
%TO.C,D12*%
X158685000Y-53590000D03*
X161535000Y-53590000D03*
%TD*%
D26*
%TO.C,R46*%
X258380000Y-42720000D03*
X260380000Y-42720000D03*
%TD*%
D37*
%TO.C,U4*%
X217942500Y-80600000D03*
X217942500Y-81550000D03*
X217942500Y-82500000D03*
X220217500Y-82500000D03*
X220217500Y-80600000D03*
%TD*%
D45*
%TO.C,R13*%
X220820000Y-97380000D03*
X220820000Y-100480000D03*
%TD*%
D21*
%TO.C,TP13*%
X208400000Y-89480000D03*
%TD*%
%TO.C,TP12*%
X223700000Y-92180000D03*
%TD*%
%TO.C,TP9*%
X258900000Y-162280000D03*
%TD*%
D39*
%TO.C,C47*%
X236920000Y-117125000D03*
X236920000Y-120250000D03*
%TD*%
D51*
%TO.C,C21*%
X199220000Y-156522500D03*
X199220000Y-153397500D03*
%TD*%
D22*
%TO.C,R42*%
X243060000Y-162860000D03*
X239960000Y-162860000D03*
%TD*%
%TO.C,R37*%
X237410000Y-160070000D03*
X234310000Y-160070000D03*
%TD*%
%TO.C,R28*%
X247340000Y-46100000D03*
X244240000Y-46100000D03*
%TD*%
D21*
%TO.C,TP3*%
X248600000Y-78580000D03*
%TD*%
D51*
%TO.C,C14*%
X218150000Y-44310000D03*
X218150000Y-41185000D03*
%TD*%
D21*
%TO.C,TP5*%
X252400000Y-162280000D03*
%TD*%
%TO.C,TP7*%
X248600000Y-85980000D03*
%TD*%
D51*
%TO.C,C33*%
X237760000Y-156212500D03*
X237760000Y-153087500D03*
%TD*%
D52*
%TO.C,U10*%
X255255000Y-38270000D03*
X255255000Y-37620000D03*
X255255000Y-36970000D03*
X255255000Y-36320000D03*
X250930000Y-36320000D03*
X250930000Y-36970000D03*
X250930000Y-37620000D03*
X250930000Y-38270000D03*
D53*
X253092499Y-37294999D03*
%TD*%
D27*
%TO.C,J4*%
X184310000Y-110337500D03*
X184260000Y-100362500D03*
%TD*%
D35*
%TO.C,R18*%
X250140000Y-117650000D03*
X253240000Y-117650000D03*
%TD*%
D54*
%TO.C,D14*%
X227422500Y-68190000D03*
X231422500Y-68190000D03*
%TD*%
D35*
%TO.C,R31*%
X186272500Y-160960000D03*
X189372500Y-160960000D03*
%TD*%
D45*
%TO.C,R16*%
X205000000Y-78810000D03*
X205000000Y-81910000D03*
%TD*%
D32*
%TO.C,D1*%
X253750000Y-157320000D03*
X256600000Y-157320000D03*
%TD*%
D35*
%TO.C,R24*%
X193240000Y-160850000D03*
X196340000Y-160850000D03*
%TD*%
D27*
%TO.C,J12*%
X224760000Y-147377500D03*
X224710000Y-137402500D03*
%TD*%
D19*
%TO.C,R9*%
X212000000Y-81800000D03*
X212000000Y-78700000D03*
%TD*%
D51*
%TO.C,C30*%
X210220000Y-55315000D03*
X210220000Y-52190000D03*
%TD*%
D28*
%TO.C,H4*%
X159175000Y-29480000D03*
X160119581Y-27199581D03*
X160119581Y-31760419D03*
X162400000Y-26255000D03*
D29*
X162400000Y-29480000D03*
D28*
X162400000Y-32705000D03*
X164680419Y-27199581D03*
X164680419Y-31760419D03*
X165625000Y-29480000D03*
%TD*%
D39*
%TO.C,C20*%
X208510000Y-78727500D03*
X208510000Y-81852500D03*
%TD*%
D55*
%TO.C,C39*%
X239437500Y-92080000D03*
X237362500Y-92080000D03*
%TD*%
D56*
%TO.C,U8*%
X239005000Y-81047500D03*
X238355000Y-81047500D03*
X237705000Y-81047500D03*
X237055000Y-81047500D03*
X237055000Y-85372500D03*
X237705000Y-85372500D03*
X238355000Y-85372500D03*
X239005000Y-85372500D03*
D57*
X238029999Y-83209999D03*
%TD*%
D58*
%TO.C,J6*%
X166132500Y-40725000D03*
D59*
X166132499Y-44534999D03*
X166132499Y-48344999D03*
%TD*%
D60*
%TO.C,U7*%
X195699999Y-153559999D03*
X194749999Y-153559999D03*
X193799999Y-153559999D03*
X193799999Y-156259999D03*
X194749999Y-156259999D03*
X195699999Y-156259999D03*
%TD*%
D45*
%TO.C,R8*%
X220950000Y-41197500D03*
X220950000Y-44297500D03*
%TD*%
D35*
%TO.C,R27*%
X244987500Y-38830000D03*
X248087500Y-38830000D03*
%TD*%
D61*
%TO.C,R47*%
X260400000Y-44780000D03*
X258400000Y-44780000D03*
%TD*%
D22*
%TO.C,R22*%
X260180000Y-88490000D03*
X257080000Y-88490000D03*
%TD*%
D51*
%TO.C,C19*%
X224140000Y-84932500D03*
X224140000Y-81807500D03*
%TD*%
D35*
%TO.C,R4*%
X235860000Y-37990000D03*
X238960000Y-37990000D03*
%TD*%
D22*
%TO.C,R39*%
X229530000Y-89510000D03*
X226430000Y-89510000D03*
%TD*%
D21*
%TO.C,TP2*%
X166700000Y-155980000D03*
%TD*%
%TO.C,TP14*%
X217900000Y-63280000D03*
%TD*%
D31*
%TO.C,D7*%
X253185000Y-114360000D03*
X250335000Y-114360000D03*
%TD*%
D38*
%TO.C,C35*%
X248712500Y-157740000D03*
X245587500Y-157740000D03*
%TD*%
D19*
%TO.C,R12*%
X225470000Y-100600000D03*
X225470000Y-97500000D03*
%TD*%
D32*
%TO.C,D13*%
X243815000Y-60990000D03*
X246665000Y-60990000D03*
%TD*%
D35*
%TO.C,R1*%
X224200000Y-30597500D03*
X227300000Y-30597500D03*
%TD*%
D60*
%TO.C,U11*%
X232269999Y-153329999D03*
X231319999Y-153329999D03*
X230369999Y-153329999D03*
X230369999Y-156029999D03*
X231319999Y-156029999D03*
X232269999Y-156029999D03*
%TD*%
D46*
%TO.C,U2*%
X212710000Y-108070000D03*
X212710000Y-106370000D03*
X212710000Y-104670000D03*
D47*
X203560000Y-104670000D03*
D46*
X212710000Y-102970000D03*
X212710000Y-101270000D03*
%TD*%
D62*
%TO.C,D3*%
X190370000Y-116850000D03*
X183570000Y-116850000D03*
%TD*%
D35*
%TO.C,R19*%
X169490000Y-124880000D03*
X172590000Y-124880000D03*
%TD*%
D63*
%TO.C,JP1*%
X233600000Y-46830000D03*
D64*
X233600000Y-48130000D03*
%TD*%
D65*
%TO.C,J9*%
X258717500Y-53600000D03*
X248742500Y-53650000D03*
%TD*%
D21*
%TO.C,TP11*%
X243577500Y-32640000D03*
%TD*%
D63*
%TO.C,JP2*%
X236200000Y-46780000D03*
D64*
X236200000Y-48080000D03*
%TD*%
D24*
%TO.C,J15*%
X259899999Y-92939999D03*
D25*
X257359999Y-92939999D03*
X259899999Y-95479999D03*
X257359999Y-95479999D03*
%TD*%
D66*
%TO.C,R44*%
X244530000Y-81380000D03*
X244530000Y-83380000D03*
%TD*%
D38*
%TO.C,C1*%
X227312500Y-33397500D03*
X224187500Y-33397500D03*
%TD*%
D67*
%TO.C,L2*%
X219149999Y-114412753D03*
X219149999Y-124312753D03*
%TD*%
D35*
%TO.C,R20*%
X231030000Y-110190000D03*
X234130000Y-110190000D03*
%TD*%
D22*
%TO.C,R23*%
X167510000Y-53540000D03*
X164410000Y-53540000D03*
%TD*%
%TO.C,R29*%
X241550000Y-46380000D03*
X238450000Y-46380000D03*
%TD*%
D19*
%TO.C,R15*%
X209350000Y-44497500D03*
X209350000Y-41397500D03*
%TD*%
D33*
%TO.C,C16*%
X193230000Y-148380000D03*
X196355000Y-148380000D03*
%TD*%
D35*
%TO.C,R3*%
X230000000Y-33197500D03*
X233100000Y-33197500D03*
%TD*%
D51*
%TO.C,C32*%
X243550000Y-55102500D03*
X243550000Y-51977500D03*
%TD*%
D55*
%TO.C,C37*%
X239337500Y-88880000D03*
X237262500Y-88880000D03*
%TD*%
D39*
%TO.C,C44*%
X212780000Y-86807500D03*
X212780000Y-89932500D03*
%TD*%
D24*
%TO.C,J2*%
X259899999Y-111479999D03*
D25*
X257359999Y-111479999D03*
X259899999Y-114019999D03*
X257359999Y-114019999D03*
%TD*%
D40*
%TO.C,L4*%
X187472499Y-143349999D03*
X177572499Y-143349999D03*
%TD*%
D21*
%TO.C,TP1*%
X245800000Y-105480000D03*
%TD*%
D22*
%TO.C,R25*%
X196390000Y-163740000D03*
X193290000Y-163740000D03*
%TD*%
D33*
%TO.C,C9*%
X238357500Y-43920000D03*
X241482500Y-43920000D03*
%TD*%
%TO.C,C27*%
X229940000Y-143320000D03*
X233065000Y-143320000D03*
%TD*%
D55*
%TO.C,C40*%
X247837500Y-35780000D03*
X245762500Y-35780000D03*
%TD*%
D35*
%TO.C,R21*%
X227350000Y-75130000D03*
X230450000Y-75130000D03*
%TD*%
D68*
%TO.C,Q1*%
X212715000Y-34897500D03*
D69*
X210809999Y-38672499D03*
X212079999Y-38672499D03*
X213349999Y-38672499D03*
X214619999Y-38672499D03*
%TD*%
D38*
%TO.C,C43*%
X221202500Y-86060000D03*
X218077500Y-86060000D03*
%TD*%
D65*
%TO.C,J3*%
X170857500Y-69230000D03*
X160882500Y-69280000D03*
%TD*%
D44*
%TO.C,L1*%
X196089999Y-69959999D03*
X205989999Y-69959999D03*
%TD*%
D27*
%TO.C,J1*%
X177250000Y-58037500D03*
X177200000Y-48062500D03*
%TD*%
D35*
%TO.C,R38*%
X253650000Y-154570000D03*
X256750000Y-154570000D03*
%TD*%
D45*
%TO.C,R17*%
X205100000Y-84670000D03*
X205100000Y-87770000D03*
%TD*%
D61*
%TO.C,R35*%
X228430000Y-163090000D03*
X226430000Y-163090000D03*
%TD*%
D33*
%TO.C,C29*%
X229940000Y-146370000D03*
X233065000Y-146370000D03*
%TD*%
D21*
%TO.C,TP8*%
X241000000Y-99880000D03*
%TD*%
D70*
%TO.C,D2*%
X170150000Y-83150000D03*
X170150000Y-76350000D03*
%TD*%
D22*
%TO.C,R10*%
X221090000Y-38390000D03*
X217990000Y-38390000D03*
%TD*%
D38*
%TO.C,C3*%
X238952500Y-40740000D03*
X235827500Y-40740000D03*
%TD*%
D27*
%TO.C,J7*%
X203760000Y-147377500D03*
X203710000Y-137402500D03*
%TD*%
D33*
%TO.C,C15*%
X193160000Y-145550000D03*
X196285000Y-145550000D03*
%TD*%
D24*
%TO.C,J18*%
X259999999Y-61439999D03*
D25*
X257459999Y-61439999D03*
X259999999Y-63979999D03*
X257459999Y-63979999D03*
%TD*%
D38*
%TO.C,C2*%
X181350000Y-33747500D03*
X178225000Y-33747500D03*
%TD*%
D51*
%TO.C,C41*%
X258610000Y-39272500D03*
X258610000Y-36147500D03*
%TD*%
D24*
%TO.C,J17*%
X172424999Y-115954999D03*
D25*
X169884999Y-115954999D03*
X172424999Y-118494999D03*
X169884999Y-118494999D03*
%TD*%
D35*
%TO.C,R34*%
X225930000Y-160390000D03*
X229030000Y-160390000D03*
%TD*%
D71*
%TO.C,C12*%
X212449999Y-74259999D03*
D72*
X210450000Y-74260000D03*
%TD*%
D73*
%TO.C,C13*%
X233039999Y-116657538D03*
D74*
X233040000Y-121657539D03*
%TD*%
D75*
%TO.C,C24*%
X207349999Y-56147499D03*
D21*
X207350000Y-51147500D03*
%TD*%
D71*
%TO.C,C11*%
X212342599Y-69209999D03*
D72*
X210342600Y-69210000D03*
%TD*%
D73*
%TO.C,C6*%
X183939999Y-37139999D03*
D74*
X176440000Y-37140000D03*
%TD*%
D73*
%TO.C,C5*%
X182729999Y-83307245D03*
D74*
X182730000Y-90807246D03*
%TD*%
D76*
%TO.C,C34*%
X248809999Y-154689999D03*
D77*
X245010000Y-154690000D03*
%TD*%
D75*
%TO.C,C26*%
X240349999Y-55715176D03*
D21*
X240350000Y-50715177D03*
%TD*%
D74*
%TO.C,SW1*%
X243732500Y-70652500D03*
X238732500Y-70652500D03*
X248732500Y-70652500D03*
D75*
X227482499Y-70652499D03*
D21*
X223732500Y-70652500D03*
%TD*%
D75*
%TO.C,C25*%
X229349999Y-55915176D03*
D21*
X229350000Y-50915177D03*
%TD*%
D76*
%TO.C,C22*%
X177752499Y-154869999D03*
D77*
X181552500Y-154870000D03*
%TD*%
D75*
%TO.C,C28*%
X218349999Y-56147499D03*
D21*
X218350000Y-51147500D03*
%TD*%
D73*
%TO.C,C4*%
X203529999Y-115789999D03*
D74*
X203530000Y-123290000D03*
%TD*%
G36*
X216038000Y-28296613D02*
G01*
X216083387Y-28342000D01*
X216100000Y-28404000D01*
X216100000Y-37028638D01*
X216090561Y-37076091D01*
X216063681Y-37116319D01*
X216036319Y-37143681D01*
X215996091Y-37170561D01*
X215948638Y-37180000D01*
X208524000Y-37180000D01*
X208462000Y-37163387D01*
X208416613Y-37118000D01*
X208400000Y-37056000D01*
X208400000Y-28404000D01*
X208416613Y-28342000D01*
X208462000Y-28296613D01*
X208524000Y-28280000D01*
X215976000Y-28280000D01*
X216038000Y-28296613D01*
G37*
G36*
X229838000Y-39196613D02*
G01*
X229883387Y-39242000D01*
X229900000Y-39304000D01*
X229900000Y-44356000D01*
X229883387Y-44418000D01*
X229838000Y-44463387D01*
X229776000Y-44480000D01*
X226624000Y-44480000D01*
X226562000Y-44463387D01*
X226516613Y-44418000D01*
X226500000Y-44356000D01*
X226500000Y-39304000D01*
X226516613Y-39242000D01*
X226562000Y-39196613D01*
X226624000Y-39180000D01*
X229776000Y-39180000D01*
X229838000Y-39196613D01*
G37*
G36*
X201796091Y-52589439D02*
G01*
X201836319Y-52616319D01*
X204263681Y-55043681D01*
X204290561Y-55083909D01*
X204300000Y-55131362D01*
X204300000Y-59356000D01*
X204283387Y-59418000D01*
X204238000Y-59463387D01*
X204176000Y-59480000D01*
X192424000Y-59480000D01*
X192362000Y-59463387D01*
X192316613Y-59418000D01*
X192300000Y-59356000D01*
X192300000Y-52704000D01*
X192316613Y-52642000D01*
X192362000Y-52596613D01*
X192424000Y-52580000D01*
X201748638Y-52580000D01*
X201796091Y-52589439D01*
G37*
M02*
