%TF.GenerationSoftware,KiCad,Pcbnew,(7.0.0)*%
%TF.CreationDate,2024-10-30T08:51:02+03:30*%
%TF.ProjectId,tester supply,74657374-6572-4207-9375-70706c792e6b,rev?*%
%TF.SameCoordinates,Original*%
%TF.FileFunction,Paste,Top*%
%TF.FilePolarity,Positive*%
%FSLAX46Y46*%
G04 Gerber Fmt 4.6, Leading zero omitted, Abs format (unit mm)*
G04 Created by KiCad (PCBNEW (7.0.0)) date 2024-10-30 08:51:02*
%MOMM*%
%LPD*%
G01*
G04 APERTURE LIST*
G04 Aperture macros list*
%AMRoundRect*
0 Rectangle with rounded corners*
0 $1 Rounding radius*
0 $2 $3 $4 $5 $6 $7 $8 $9 X,Y pos of 4 corners*
0 Add a 4 corners polygon primitive as box body*
4,1,4,$2,$3,$4,$5,$6,$7,$8,$9,$2,$3,0*
0 Add four circle primitives for the rounded corners*
1,1,$1+$1,$2,$3*
1,1,$1+$1,$4,$5*
1,1,$1+$1,$6,$7*
1,1,$1+$1,$8,$9*
0 Add four rect primitives between the rounded corners*
20,1,$1+$1,$2,$3,$4,$5,0*
20,1,$1+$1,$4,$5,$6,$7,0*
20,1,$1+$1,$6,$7,$8,$9,0*
20,1,$1+$1,$8,$9,$2,$3,0*%
G04 Aperture macros list end*
%ADD10C,0.010000*%
%ADD11R,1.300000X0.300000*%
%ADD12R,2.200000X1.800000*%
%ADD13RoundRect,0.250000X0.625000X-0.400000X0.625000X0.400000X-0.625000X0.400000X-0.625000X-0.400000X0*%
%ADD14RoundRect,0.250000X-1.400000X-1.000000X1.400000X-1.000000X1.400000X1.000000X-1.400000X1.000000X0*%
%ADD15RoundRect,0.250000X0.400000X0.625000X-0.400000X0.625000X-0.400000X-0.625000X0.400000X-0.625000X0*%
%ADD16RoundRect,0.250000X1.000000X-1.400000X1.000000X1.400000X-1.000000X1.400000X-1.000000X-1.400000X0*%
%ADD17RoundRect,0.250000X-0.350000X-0.450000X0.350000X-0.450000X0.350000X0.450000X-0.350000X0.450000X0*%
%ADD18RoundRect,0.357000X2.368000X-1.143000X2.368000X1.143000X-2.368000X1.143000X-2.368000X-1.143000X0*%
%ADD19RoundRect,0.100000X-0.100000X0.637500X-0.100000X-0.637500X0.100000X-0.637500X0.100000X0.637500X0*%
%ADD20RoundRect,0.250000X0.550000X0.575000X-0.550000X0.575000X-0.550000X-0.575000X0.550000X-0.575000X0*%
%ADD21RoundRect,0.250000X-0.550000X-0.575000X0.550000X-0.575000X0.550000X0.575000X-0.550000X0.575000X0*%
%ADD22RoundRect,0.250000X-0.412500X-0.650000X0.412500X-0.650000X0.412500X0.650000X-0.412500X0.650000X0*%
%ADD23R,0.700000X2.000000*%
%ADD24RoundRect,0.250000X-0.400000X-0.625000X0.400000X-0.625000X0.400000X0.625000X-0.400000X0.625000X0*%
%ADD25RoundRect,0.250000X-0.337500X-0.475000X0.337500X-0.475000X0.337500X0.475000X-0.337500X0.475000X0*%
%ADD26RoundRect,0.150000X-0.512500X-0.150000X0.512500X-0.150000X0.512500X0.150000X-0.512500X0.150000X0*%
%ADD27RoundRect,0.250000X0.412500X0.650000X-0.412500X0.650000X-0.412500X-0.650000X0.412500X-0.650000X0*%
%ADD28RoundRect,0.250000X-0.650000X0.412500X-0.650000X-0.412500X0.650000X-0.412500X0.650000X0.412500X0*%
%ADD29R,2.900000X5.400000*%
%ADD30RoundRect,0.250000X-0.350000X0.850000X-0.350000X-0.850000X0.350000X-0.850000X0.350000X0.850000X0*%
%ADD31RoundRect,0.250000X-1.125000X1.275000X-1.125000X-1.275000X1.125000X-1.275000X1.125000X1.275000X0*%
%ADD32RoundRect,0.250000X0.250000X0.250000X-0.250000X0.250000X-0.250000X-0.250000X0.250000X-0.250000X0*%
%ADD33R,4.000000X6.000000*%
%ADD34RoundRect,0.250000X-0.625000X0.400000X-0.625000X-0.400000X0.625000X-0.400000X0.625000X0.400000X0*%
%ADD35RoundRect,0.250000X2.050000X0.300000X-2.050000X0.300000X-2.050000X-0.300000X2.050000X-0.300000X0*%
%ADD36RoundRect,0.250000X2.025000X2.375000X-2.025000X2.375000X-2.025000X-2.375000X2.025000X-2.375000X0*%
%ADD37RoundRect,0.250001X0.624999X-0.462499X0.624999X0.462499X-0.624999X0.462499X-0.624999X-0.462499X0*%
%ADD38RoundRect,0.250000X0.650000X-0.412500X0.650000X0.412500X-0.650000X0.412500X-0.650000X-0.412500X0*%
%ADD39RoundRect,0.180000X0.180000X0.205000X-0.180000X0.205000X-0.180000X-0.205000X0.180000X-0.205000X0*%
%ADD40RoundRect,0.100000X0.612500X0.100000X-0.612500X0.100000X-0.612500X-0.100000X0.612500X-0.100000X0*%
%ADD41RoundRect,0.250000X-1.000000X-0.650000X1.000000X-0.650000X1.000000X0.650000X-1.000000X0.650000X0*%
%ADD42RoundRect,0.250000X0.337500X0.475000X-0.337500X0.475000X-0.337500X-0.475000X0.337500X-0.475000X0*%
%ADD43RoundRect,0.180000X-0.205000X0.180000X-0.205000X-0.180000X0.205000X-0.180000X0.205000X0.180000X0*%
%ADD44RoundRect,0.100000X-0.100000X0.612500X-0.100000X-0.612500X0.100000X-0.612500X0.100000X0.612500X0*%
%ADD45R,0.650000X1.560000*%
%ADD46RoundRect,0.250000X0.350000X0.450000X-0.350000X0.450000X-0.350000X-0.450000X0.350000X-0.450000X0*%
%ADD47RoundRect,0.250000X-1.000000X1.400000X-1.000000X-1.400000X1.000000X-1.400000X1.000000X1.400000X0*%
%ADD48RoundRect,0.357000X1.143000X2.368000X-1.143000X2.368000X-1.143000X-2.368000X1.143000X-2.368000X0*%
%ADD49RoundRect,0.250000X-0.450000X0.350000X-0.450000X-0.350000X0.450000X-0.350000X0.450000X0.350000X0*%
%ADD50R,5.400000X2.900000*%
%ADD51R,1.500000X1.500000*%
%ADD52R,0.500000X0.750000*%
%ADD53R,0.450000X1.200000*%
%ADD54RoundRect,0.056250X-0.693750X-0.168750X0.693750X-0.168750X0.693750X0.168750X-0.693750X0.168750X0*%
%ADD55RoundRect,0.250000X1.400000X1.000000X-1.400000X1.000000X-1.400000X-1.000000X1.400000X-1.000000X0*%
G04 APERTURE END LIST*
%TO.C,U1*%
G36*
X229090000Y-43270000D02*
G01*
X227270000Y-43270000D01*
X227270000Y-40410000D01*
X229090000Y-40410000D01*
X229090000Y-43270000D01*
G37*
D10*
X229090000Y-43270000D02*
X227270000Y-43270000D01*
X227270000Y-40410000D01*
X229090000Y-40410000D01*
X229090000Y-43270000D01*
%TD*%
D11*
%TO.C,J2*%
X149439999Y-127739999D03*
X149439999Y-128239999D03*
X149439999Y-128739999D03*
X149439999Y-129239999D03*
X149439999Y-129739999D03*
X149439999Y-130239999D03*
X149439999Y-130739999D03*
X149439999Y-131239999D03*
X149439999Y-131739999D03*
X149439999Y-132239999D03*
X149439999Y-132739999D03*
X149439999Y-133239999D03*
X149439999Y-133739999D03*
X149439999Y-134239999D03*
X149439999Y-134739999D03*
X149439999Y-135239999D03*
X149439999Y-135739999D03*
X149439999Y-136239999D03*
X149439999Y-136739999D03*
X149439999Y-137239999D03*
X149439999Y-137739999D03*
X149439999Y-138239999D03*
X149439999Y-138739999D03*
X149439999Y-139239999D03*
X149439999Y-139739999D03*
X149439999Y-140239999D03*
X149439999Y-140739999D03*
X149439999Y-141239999D03*
X149439999Y-141739999D03*
X149439999Y-142239999D03*
X149439999Y-142739999D03*
X149439999Y-143239999D03*
X149439999Y-143739999D03*
X149439999Y-144239999D03*
X149439999Y-144739999D03*
X149439999Y-145239999D03*
X149439999Y-145739999D03*
X149439999Y-146239999D03*
X149439999Y-146739999D03*
X149439999Y-147239999D03*
D12*
X152689999Y-149139999D03*
X152689999Y-125839999D03*
%TD*%
D11*
%TO.C,J2*%
X133219999Y-72419999D03*
X133219999Y-71919999D03*
X133219999Y-71419999D03*
X133219999Y-70919999D03*
X133219999Y-70419999D03*
X133219999Y-69919999D03*
X133219999Y-69419999D03*
X133219999Y-68919999D03*
X133219999Y-68419999D03*
X133219999Y-67919999D03*
X133219999Y-67419999D03*
X133219999Y-66919999D03*
X133219999Y-66419999D03*
X133219999Y-65919999D03*
X133219999Y-65419999D03*
X133219999Y-64919999D03*
X133219999Y-64419999D03*
X133219999Y-63919999D03*
X133219999Y-63419999D03*
X133219999Y-62919999D03*
X133219999Y-62419999D03*
X133219999Y-61919999D03*
X133219999Y-61419999D03*
X133219999Y-60919999D03*
X133219999Y-60419999D03*
X133219999Y-59919999D03*
X133219999Y-59419999D03*
X133219999Y-58919999D03*
X133219999Y-58419999D03*
X133219999Y-57919999D03*
X133219999Y-57419999D03*
X133219999Y-56919999D03*
X133219999Y-56419999D03*
X133219999Y-55919999D03*
X133219999Y-55419999D03*
X133219999Y-54919999D03*
X133219999Y-54419999D03*
X133219999Y-53919999D03*
X133219999Y-53419999D03*
X133219999Y-52919999D03*
D12*
X129969999Y-51019999D03*
X129969999Y-74319999D03*
%TD*%
D13*
%TO.C,R14*%
X218220000Y-100460000D03*
X218220000Y-97360000D03*
%TD*%
D14*
%TO.C,D15*%
X185510000Y-51070000D03*
X185510000Y-57870000D03*
%TD*%
D15*
%TO.C,R7*%
X233100000Y-36197500D03*
X230000000Y-36197500D03*
%TD*%
D16*
%TO.C,D6*%
X218600000Y-107610000D03*
X225400000Y-107610000D03*
%TD*%
D17*
%TO.C,R45*%
X242550000Y-78230000D03*
X244550000Y-78230000D03*
%TD*%
D18*
%TO.C,J5*%
X245640000Y-121435000D03*
X245590000Y-111460000D03*
%TD*%
D19*
%TO.C,U6*%
X229505000Y-80027500D03*
X228855000Y-80027500D03*
X228205000Y-80027500D03*
X227555000Y-80027500D03*
X227555000Y-85752500D03*
X228205000Y-85752500D03*
X228855000Y-85752500D03*
X229505000Y-85752500D03*
%TD*%
D20*
%TO.C,D4*%
X227375000Y-36197500D03*
X224525000Y-36197500D03*
%TD*%
D21*
%TO.C,D8*%
X169595000Y-128500000D03*
X172445000Y-128500000D03*
%TD*%
D22*
%TO.C,C18*%
X251807500Y-44380000D03*
X254932500Y-44380000D03*
%TD*%
D23*
%TO.C,Q2*%
X217679999Y-70359999D03*
X219579999Y-70359999D03*
X218629999Y-66959999D03*
%TD*%
D24*
%TO.C,R2*%
X230000000Y-30597500D03*
X233100000Y-30597500D03*
%TD*%
D25*
%TO.C,C38*%
X247962500Y-32980000D03*
X250037500Y-32980000D03*
%TD*%
D21*
%TO.C,D11*%
X257155000Y-85170000D03*
X260005000Y-85170000D03*
%TD*%
D22*
%TO.C,C36*%
X186200000Y-158420000D03*
X189325000Y-158420000D03*
%TD*%
D26*
%TO.C,U5*%
X245930000Y-41830000D03*
X245930000Y-42780000D03*
X245930000Y-43730000D03*
X248205000Y-43730000D03*
X248205000Y-41830000D03*
%TD*%
D27*
%TO.C,C49*%
X240202500Y-78220000D03*
X237077500Y-78220000D03*
%TD*%
D28*
%TO.C,C48*%
X241770000Y-80957500D03*
X241770000Y-84082500D03*
%TD*%
D29*
%TO.C,L5*%
X239519999Y-143029999D03*
X249419999Y-143029999D03*
%TD*%
D14*
%TO.C,D5*%
X197030000Y-80032500D03*
X197030000Y-86832500D03*
%TD*%
D22*
%TO.C,C23*%
X178177500Y-152260000D03*
X181302500Y-152260000D03*
%TD*%
D15*
%TO.C,R32*%
X189312500Y-163940000D03*
X186212500Y-163940000D03*
%TD*%
D30*
%TO.C,D9*%
X198230000Y-49547500D03*
D31*
X197475000Y-54172500D03*
X194425000Y-54172500D03*
X197475000Y-57522500D03*
X194425000Y-57522500D03*
D30*
X193670000Y-49547500D03*
%TD*%
D32*
%TO.C,D16*%
X220860000Y-89610000D03*
X218360000Y-89610000D03*
%TD*%
D33*
%TO.C,L3*%
X192059999Y-37529999D03*
X203159999Y-37529999D03*
%TD*%
D34*
%TO.C,R36*%
X231730000Y-159990000D03*
X231730000Y-163090000D03*
%TD*%
D35*
%TO.C,U3*%
X189065000Y-75782246D03*
X189065000Y-74082246D03*
X189065000Y-72382246D03*
D36*
X182340000Y-75157246D03*
X182340000Y-69607246D03*
X177490000Y-75157246D03*
X177490000Y-69607246D03*
D35*
X189065000Y-70682246D03*
X189065000Y-68982246D03*
%TD*%
D15*
%TO.C,R26*%
X252800000Y-60910000D03*
X249700000Y-60910000D03*
%TD*%
D24*
%TO.C,R6*%
X233300000Y-43880000D03*
X236400000Y-43880000D03*
%TD*%
D37*
%TO.C,R11*%
X215350000Y-44235000D03*
X215350000Y-41260000D03*
%TD*%
D15*
%TO.C,R40*%
X242990000Y-160040000D03*
X239890000Y-160040000D03*
%TD*%
D22*
%TO.C,C31*%
X229970000Y-140270000D03*
X233095000Y-140270000D03*
%TD*%
D15*
%TO.C,R41*%
X237320000Y-162890000D03*
X234220000Y-162890000D03*
%TD*%
%TO.C,R33*%
X227050000Y-156030000D03*
X223950000Y-156030000D03*
%TD*%
D20*
%TO.C,D10*%
X234065000Y-106430000D03*
X231215000Y-106430000D03*
%TD*%
D27*
%TO.C,C42*%
X254832500Y-41200000D03*
X251707500Y-41200000D03*
%TD*%
D22*
%TO.C,C10*%
X217657500Y-77340000D03*
X220782500Y-77340000D03*
%TD*%
D28*
%TO.C,C17*%
X203890000Y-153457500D03*
X203890000Y-156582500D03*
%TD*%
D34*
%TO.C,R30*%
X215230000Y-67620000D03*
X215230000Y-70720000D03*
%TD*%
D21*
%TO.C,D12*%
X158685000Y-53590000D03*
X161535000Y-53590000D03*
%TD*%
D17*
%TO.C,R46*%
X258380000Y-42720000D03*
X260380000Y-42720000D03*
%TD*%
D26*
%TO.C,U4*%
X217942500Y-80600000D03*
X217942500Y-81550000D03*
X217942500Y-82500000D03*
X220217500Y-82500000D03*
X220217500Y-80600000D03*
%TD*%
D34*
%TO.C,R13*%
X220820000Y-97380000D03*
X220820000Y-100480000D03*
%TD*%
D28*
%TO.C,C47*%
X236920000Y-117125000D03*
X236920000Y-120250000D03*
%TD*%
D38*
%TO.C,C21*%
X199220000Y-156522500D03*
X199220000Y-153397500D03*
%TD*%
D15*
%TO.C,R42*%
X243060000Y-162860000D03*
X239960000Y-162860000D03*
%TD*%
%TO.C,R37*%
X237410000Y-160070000D03*
X234310000Y-160070000D03*
%TD*%
%TO.C,R28*%
X247340000Y-46100000D03*
X244240000Y-46100000D03*
%TD*%
D38*
%TO.C,C14*%
X218150000Y-44310000D03*
X218150000Y-41185000D03*
%TD*%
%TO.C,C33*%
X237760000Y-156212500D03*
X237760000Y-153087500D03*
%TD*%
D39*
%TO.C,U10*%
X253522500Y-37755000D03*
X253522500Y-36835000D03*
X252662500Y-37755000D03*
X252662500Y-36835000D03*
D40*
X255255000Y-38270000D03*
X255255000Y-37620000D03*
X255255000Y-36970000D03*
X255255000Y-36320000D03*
X250930000Y-36320000D03*
X250930000Y-36970000D03*
X250930000Y-37620000D03*
X250930000Y-38270000D03*
%TD*%
D18*
%TO.C,J4*%
X184310000Y-110337500D03*
X184260000Y-100362500D03*
%TD*%
D24*
%TO.C,R18*%
X250140000Y-117650000D03*
X253240000Y-117650000D03*
%TD*%
D41*
%TO.C,D14*%
X227422500Y-68190000D03*
X231422500Y-68190000D03*
%TD*%
D24*
%TO.C,R31*%
X186272500Y-160960000D03*
X189372500Y-160960000D03*
%TD*%
D34*
%TO.C,R16*%
X205000000Y-78810000D03*
X205000000Y-81910000D03*
%TD*%
D21*
%TO.C,D1*%
X253750000Y-157320000D03*
X256600000Y-157320000D03*
%TD*%
D24*
%TO.C,R24*%
X193240000Y-160850000D03*
X196340000Y-160850000D03*
%TD*%
D18*
%TO.C,J12*%
X224760000Y-147377500D03*
X224710000Y-137402500D03*
%TD*%
D13*
%TO.C,R9*%
X212000000Y-81800000D03*
X212000000Y-78700000D03*
%TD*%
D38*
%TO.C,C30*%
X210220000Y-55315000D03*
X210220000Y-52190000D03*
%TD*%
D28*
%TO.C,C20*%
X208510000Y-78727500D03*
X208510000Y-81852500D03*
%TD*%
D42*
%TO.C,C39*%
X239437500Y-92080000D03*
X237362500Y-92080000D03*
%TD*%
D43*
%TO.C,U8*%
X238490000Y-82780000D03*
X237570000Y-82780000D03*
X238490000Y-83640000D03*
X237570000Y-83640000D03*
D44*
X239005000Y-81047500D03*
X238355000Y-81047500D03*
X237705000Y-81047500D03*
X237055000Y-81047500D03*
X237055000Y-85372500D03*
X237705000Y-85372500D03*
X238355000Y-85372500D03*
X239005000Y-85372500D03*
%TD*%
D45*
%TO.C,U7*%
X195699999Y-153559999D03*
X194749999Y-153559999D03*
X193799999Y-153559999D03*
X193799999Y-156259999D03*
X194749999Y-156259999D03*
X195699999Y-156259999D03*
%TD*%
D34*
%TO.C,R8*%
X220950000Y-41197500D03*
X220950000Y-44297500D03*
%TD*%
D24*
%TO.C,R27*%
X244987500Y-38830000D03*
X248087500Y-38830000D03*
%TD*%
D46*
%TO.C,R47*%
X260400000Y-44780000D03*
X258400000Y-44780000D03*
%TD*%
D15*
%TO.C,R22*%
X260180000Y-88490000D03*
X257080000Y-88490000D03*
%TD*%
D38*
%TO.C,C19*%
X224140000Y-84932500D03*
X224140000Y-81807500D03*
%TD*%
D24*
%TO.C,R4*%
X235860000Y-37990000D03*
X238960000Y-37990000D03*
%TD*%
D15*
%TO.C,R39*%
X229530000Y-89510000D03*
X226430000Y-89510000D03*
%TD*%
D20*
%TO.C,D7*%
X253185000Y-114360000D03*
X250335000Y-114360000D03*
%TD*%
D27*
%TO.C,C35*%
X248712500Y-157740000D03*
X245587500Y-157740000D03*
%TD*%
D13*
%TO.C,R12*%
X225470000Y-100600000D03*
X225470000Y-97500000D03*
%TD*%
D21*
%TO.C,D13*%
X243815000Y-60990000D03*
X246665000Y-60990000D03*
%TD*%
D24*
%TO.C,R1*%
X224200000Y-30597500D03*
X227300000Y-30597500D03*
%TD*%
D45*
%TO.C,U11*%
X232269999Y-153329999D03*
X231319999Y-153329999D03*
X230369999Y-153329999D03*
X230369999Y-156029999D03*
X231319999Y-156029999D03*
X232269999Y-156029999D03*
%TD*%
D35*
%TO.C,U2*%
X212710000Y-108070000D03*
X212710000Y-106370000D03*
X212710000Y-104670000D03*
D36*
X205985000Y-107445000D03*
X205985000Y-101895000D03*
X201135000Y-107445000D03*
X201135000Y-101895000D03*
D35*
X212710000Y-102970000D03*
X212710000Y-101270000D03*
%TD*%
D47*
%TO.C,D3*%
X190370000Y-116850000D03*
X183570000Y-116850000D03*
%TD*%
D24*
%TO.C,R19*%
X169490000Y-124880000D03*
X172590000Y-124880000D03*
%TD*%
D48*
%TO.C,J9*%
X258717500Y-53600000D03*
X248742500Y-53650000D03*
%TD*%
D49*
%TO.C,R44*%
X244530000Y-81380000D03*
X244530000Y-83380000D03*
%TD*%
D27*
%TO.C,C1*%
X227312500Y-33397500D03*
X224187500Y-33397500D03*
%TD*%
D50*
%TO.C,L2*%
X219149999Y-114412753D03*
X219149999Y-124312753D03*
%TD*%
D24*
%TO.C,R20*%
X231030000Y-110190000D03*
X234130000Y-110190000D03*
%TD*%
D15*
%TO.C,R23*%
X167510000Y-53540000D03*
X164410000Y-53540000D03*
%TD*%
%TO.C,R29*%
X241550000Y-46380000D03*
X238450000Y-46380000D03*
%TD*%
D13*
%TO.C,R15*%
X209350000Y-44497500D03*
X209350000Y-41397500D03*
%TD*%
D22*
%TO.C,C16*%
X193230000Y-148380000D03*
X196355000Y-148380000D03*
%TD*%
D24*
%TO.C,R3*%
X230000000Y-33197500D03*
X233100000Y-33197500D03*
%TD*%
D38*
%TO.C,C32*%
X243550000Y-55102500D03*
X243550000Y-51977500D03*
%TD*%
D42*
%TO.C,C37*%
X239337500Y-88880000D03*
X237262500Y-88880000D03*
%TD*%
D28*
%TO.C,C44*%
X212780000Y-86807500D03*
X212780000Y-89932500D03*
%TD*%
D29*
%TO.C,L4*%
X187472499Y-143349999D03*
X177572499Y-143349999D03*
%TD*%
D15*
%TO.C,R25*%
X196390000Y-163740000D03*
X193290000Y-163740000D03*
%TD*%
D22*
%TO.C,C9*%
X238357500Y-43920000D03*
X241482500Y-43920000D03*
%TD*%
%TO.C,C27*%
X229940000Y-143320000D03*
X233065000Y-143320000D03*
%TD*%
D42*
%TO.C,C40*%
X247837500Y-35780000D03*
X245762500Y-35780000D03*
%TD*%
D24*
%TO.C,R21*%
X227350000Y-75130000D03*
X230450000Y-75130000D03*
%TD*%
D51*
%TO.C,Q1*%
X211864999Y-35747499D03*
X213564999Y-35747499D03*
X211864999Y-34047499D03*
X213564999Y-34047499D03*
D52*
X210809999Y-32642499D03*
X212079999Y-32642499D03*
X213349999Y-32642499D03*
X214619999Y-32642499D03*
D53*
X210809999Y-38672499D03*
X212079999Y-38672499D03*
X213349999Y-38672499D03*
X214619999Y-38672499D03*
%TD*%
D27*
%TO.C,C43*%
X221202500Y-86060000D03*
X218077500Y-86060000D03*
%TD*%
D48*
%TO.C,J3*%
X170857500Y-69230000D03*
X160882500Y-69280000D03*
%TD*%
D33*
%TO.C,L1*%
X196089999Y-69959999D03*
X205989999Y-69959999D03*
%TD*%
D18*
%TO.C,J1*%
X177250000Y-58037500D03*
X177200000Y-48062500D03*
%TD*%
D24*
%TO.C,R38*%
X253650000Y-154570000D03*
X256750000Y-154570000D03*
%TD*%
D34*
%TO.C,R17*%
X205100000Y-84670000D03*
X205100000Y-87770000D03*
%TD*%
D46*
%TO.C,R35*%
X228430000Y-163090000D03*
X226430000Y-163090000D03*
%TD*%
D22*
%TO.C,C29*%
X229940000Y-146370000D03*
X233065000Y-146370000D03*
%TD*%
D54*
%TO.C,U1*%
X225280000Y-39890000D03*
X225280000Y-40540000D03*
X225280000Y-41190000D03*
X225280000Y-41840000D03*
X225280000Y-42490000D03*
X225280000Y-43140000D03*
X225280000Y-43790000D03*
X231080000Y-43790000D03*
X231080000Y-43140000D03*
X231080000Y-42490000D03*
X231080000Y-41840000D03*
X231080000Y-41190000D03*
X231080000Y-40540000D03*
X231080000Y-39890000D03*
%TD*%
D55*
%TO.C,D2*%
X170150000Y-83150000D03*
X170150000Y-76350000D03*
%TD*%
D15*
%TO.C,R10*%
X221090000Y-38390000D03*
X217990000Y-38390000D03*
%TD*%
D27*
%TO.C,C3*%
X238952500Y-40740000D03*
X235827500Y-40740000D03*
%TD*%
D18*
%TO.C,J7*%
X203760000Y-147377500D03*
X203710000Y-137402500D03*
%TD*%
D22*
%TO.C,C15*%
X193160000Y-145550000D03*
X196285000Y-145550000D03*
%TD*%
D27*
%TO.C,C2*%
X181350000Y-33747500D03*
X178225000Y-33747500D03*
%TD*%
D38*
%TO.C,C41*%
X258610000Y-39272500D03*
X258610000Y-36147500D03*
%TD*%
D24*
%TO.C,R34*%
X225930000Y-160390000D03*
X229030000Y-160390000D03*
%TD*%
M02*
