%TF.GenerationSoftware,KiCad,Pcbnew,(7.0.0)*%
%TF.CreationDate,2025-01-08T14:06:24+03:30*%
%TF.ProjectId,tester interface,74657374-6572-4206-996e-746572666163,rev?*%
%TF.SameCoordinates,Original*%
%TF.FileFunction,Paste,Top*%
%TF.FilePolarity,Positive*%
%FSLAX46Y46*%
G04 Gerber Fmt 4.6, Leading zero omitted, Abs format (unit mm)*
G04 Created by KiCad (PCBNEW (7.0.0)) date 2025-01-08 14:06:24*
%MOMM*%
%LPD*%
G01*
G04 APERTURE LIST*
%ADD10R,0.300000X1.300000*%
%ADD11R,1.800000X2.200000*%
G04 APERTURE END LIST*
D10*
%TO.C,J2*%
X65966132Y-140436131D03*
X66466132Y-140436131D03*
X66966132Y-140436131D03*
X67466132Y-140436131D03*
X67966132Y-140436131D03*
X68466132Y-140436131D03*
X68966132Y-140436131D03*
X69466132Y-140436131D03*
X69966132Y-140436131D03*
X70466132Y-140436131D03*
X70966132Y-140436131D03*
X71466132Y-140436131D03*
X71966132Y-140436131D03*
X72466132Y-140436131D03*
X72966132Y-140436131D03*
X73466132Y-140436131D03*
X73966132Y-140436131D03*
X74466132Y-140436131D03*
X74966132Y-140436131D03*
X75466132Y-140436131D03*
X75966132Y-140436131D03*
X76466132Y-140436131D03*
X76966132Y-140436131D03*
X77466132Y-140436131D03*
X77966132Y-140436131D03*
X78466132Y-140436131D03*
X78966132Y-140436131D03*
X79466132Y-140436131D03*
X79966132Y-140436131D03*
X80466132Y-140436131D03*
X80966132Y-140436131D03*
X81466132Y-140436131D03*
X81966132Y-140436131D03*
X82466132Y-140436131D03*
X82966132Y-140436131D03*
X83466132Y-140436131D03*
X83966132Y-140436131D03*
X84466132Y-140436131D03*
X84966132Y-140436131D03*
X85466132Y-140436131D03*
D11*
X87366132Y-137186131D03*
X64066132Y-137186131D03*
%TD*%
M02*
