M48
; DRILL file {KiCad (7.0.0)} date Wed Jan  8 14:06:20 2025
; FORMAT={-:-/ absolute / metric / decimal}
; #@! TF.CreationDate,2025-01-08T14:06:20+03:30
; #@! TF.GenerationSoftware,Kicad,Pcbnew,(7.0.0)
; #@! TF.FileFunction,Plated,1,2,PTH
FMAT,2
METRIC
; #@! TA.AperFunction,Plated,PTH,ViaDrill
T1C0.200
; #@! TA.AperFunction,Plated,PTH,ViaDrill
T2C0.400
; #@! TA.AperFunction,Plated,PTH,ComponentDrill
T3C0.500
; #@! TA.AperFunction,Plated,PTH,ComponentDrill
T4C0.900
; #@! TA.AperFunction,Plated,PTH,ComponentDrill
T5C1.000
; #@! TA.AperFunction,Plated,PTH,ComponentDrill
T6C1.200
; #@! TA.AperFunction,Plated,PTH,ComponentDrill
T7C1.300
; #@! TA.AperFunction,Plated,PTH,ComponentDrill
T8C3.200
; #@! TA.AperFunction,Plated,PTH,ComponentDrill
T9C3.500
%
G90
G05
T1
X73.786Y-158.516
X73.786Y-162.646
X73.806Y-149.936
X74.976Y-148.746
X75.016Y-150.776
X75.036Y-158.506
X75.046Y-162.646
X76.326Y-151.596
X76.346Y-162.636
X77.576Y-162.696
X77.586Y-158.496
X77.626Y-152.656
X78.066Y-149.706
X79.606Y-162.706
X79.616Y-158.506
X80.196Y-134.726
X80.566Y-134.286
X80.836Y-149.716
X80.836Y-151.656
X80.846Y-152.646
X81.436Y-162.606
X81.446Y-158.476
X82.436Y-153.676
X82.696Y-158.476
X82.696Y-162.466
X83.906Y-162.486
X83.916Y-158.476
X83.976Y-154.646
X85.096Y-155.656
X85.246Y-162.506
X85.266Y-158.466
X86.466Y-162.606
X86.476Y-160.516
X86.63Y-150.656
X86.74Y-149.706
X86.846Y-156.576
X87.396Y-157.566
X87.546Y-153.646
X87.556Y-151.646
X88.536Y-148.726
X88.77Y-152.646
X90.046Y-150.626
X90.306Y-160.516
X90.326Y-162.716
X90.386Y-154.616
X90.716Y-158.776
X90.726Y-157.566
X90.746Y-151.646
X91.496Y-152.646
X91.566Y-162.786
X91.616Y-160.536
X91.781Y-147.181
X91.916Y-145.366
X91.92Y-135.91
X91.946Y-143.15
X91.956Y-138.726
X92.176Y-153.646
X92.246Y-148.436
X92.796Y-162.856
X92.876Y-154.596
X93.166Y-135.826
X93.166Y-139.36
X93.166Y-145.796
X93.176Y-143.646
X93.406Y-158.516
X93.566Y-155.606
X93.636Y-148.766
X93.776Y-160.476
X93.786Y-159.496
X94.046Y-150.106
X94.166Y-162.916
X94.286Y-146.386
X94.316Y-135.646
X94.316Y-143.13
X94.326Y-138.706
X94.416Y-156.536
X94.471Y-151.381
X94.856Y-134.616
X95.106Y-157.516
X95.406Y-146.956
X95.456Y-139.36
X95.456Y-143.646
X95.556Y-163.256
X95.716Y-151.746
X95.716Y-158.496
X96.216Y-160.476
X96.226Y-161.476
X96.616Y-147.496
X96.646Y-134.626
X96.646Y-138.696
X96.646Y-143.14
X97.006Y-158.816
X97.186Y-152.046
X97.406Y-153.596
X97.556Y-162.476
X97.576Y-163.516
X97.626Y-149.846
X97.746Y-159.906
X97.786Y-135.16
X97.786Y-139.35
X97.786Y-143.646
X97.796Y-147.976
X98.236Y-154.416
X98.426Y-160.776
X98.446Y-150.786
X98.936Y-155.236
X98.976Y-134.656
X98.976Y-138.676
X98.976Y-143.14
X98.986Y-147.936
X99.146Y-161.486
X99.396Y-151.596
X99.826Y-155.996
X99.936Y-162.426
X100.126Y-135.11
X100.126Y-139.35
X100.126Y-143.656
X100.136Y-147.936
X100.156Y-152.486
X100.636Y-157.016
X100.696Y-163.216
X100.876Y-153.306
X101.316Y-134.626
X101.316Y-143.16
X101.326Y-138.656
X101.326Y-147.936
X101.386Y-157.786
X101.846Y-153.986
X101.946Y-150.706
X102.016Y-158.606
X102.396Y-163.246
X102.456Y-143.646
X102.466Y-135.12
X102.466Y-139.36
X102.466Y-147.926
X102.666Y-151.486
X102.666Y-154.976
X102.776Y-159.486
X103.386Y-155.806
X103.616Y-134.636
X103.616Y-143.25
X103.626Y-138.646
X103.636Y-147.926
X103.636Y-152.186
X103.666Y-160.246
X103.716Y-163.606
X104.066Y-156.566
X104.576Y-161.046
X104.676Y-152.996
X104.796Y-135.11
X104.796Y-139.35
X104.796Y-143.636
X104.796Y-147.926
X104.796Y-151.016
X104.926Y-157.416
X105.466Y-153.726
X105.526Y-161.836
X105.696Y-158.196
X105.946Y-134.666
X105.946Y-143.25
X105.946Y-147.916
X105.956Y-138.646
X105.956Y-151.586
X106.216Y-154.416
X106.356Y-162.716
X106.686Y-159.046
X107.016Y-155.306
X107.116Y-151.596
X107.126Y-143.636
X107.136Y-135.11
X107.136Y-139.35
X107.136Y-147.916
X107.326Y-163.466
X107.516Y-159.846
X107.836Y-156.096
X108.306Y-151.586
X108.316Y-134.596
X108.316Y-138.636
X108.316Y-143.31
X108.316Y-147.896
X108.506Y-160.566
X108.676Y-156.966
X109.066Y-163.606
X109.076Y-153.266
X109.436Y-161.396
X109.476Y-147.906
X109.486Y-135.1
X109.486Y-139.38
X109.496Y-143.616
X109.526Y-151.566
X109.636Y-157.756
X109.966Y-153.956
X110.416Y-162.246
X110.516Y-158.506
X110.646Y-151.566
X110.656Y-134.516
X110.656Y-143.35
X110.666Y-138.616
X110.686Y-147.876
X110.796Y-154.846
X111.516Y-159.286
X111.746Y-155.576
X111.816Y-135.1
X111.816Y-139.42
X111.826Y-147.886
X111.826Y-151.556
X111.836Y-143.586
X111.926Y-160.736
X112.636Y-156.376
X112.976Y-154.336
X113.016Y-151.536
X113.026Y-134.446
X113.026Y-138.626
X113.026Y-143.29
X113.026Y-147.886
X113.336Y-159.326
X113.626Y-157.216
X114.096Y-154.926
X114.126Y-151.516
X114.136Y-135.11
X114.136Y-139.43
X114.136Y-143.596
X114.166Y-147.886
X114.736Y-157.926
X115.276Y-134.406
X115.276Y-144.07
X115.286Y-138.616
X115.286Y-147.876
X115.286Y-151.506
X115.286Y-155.176
X116.416Y-156.236
X116.446Y-139.696
X116.456Y-135.326
X116.456Y-149.456
X116.466Y-145.956
X116.466Y-154.136
X116.476Y-125.516
X116.476Y-128.256
X116.476Y-131.836
X116.476Y-142.826
X116.486Y-152.076
T2
X50.54Y-126.12
X50.54Y-131.12
X50.54Y-136.12
X50.54Y-141.12
X50.54Y-146.12
X50.54Y-151.12
X50.54Y-156.12
X50.54Y-161.12
X50.54Y-166.12
X55.54Y-126.12
X55.54Y-131.12
X55.54Y-136.12
X55.54Y-141.12
X55.54Y-146.12
X55.54Y-151.12
X55.54Y-156.12
X55.54Y-161.12
X55.54Y-166.12
X59.776Y-167.766
X59.776Y-168.546
X59.776Y-169.346
X60.54Y-126.12
X60.54Y-131.12
X62.436Y-143.126
X63.836Y-155.356
X64.046Y-148.356
X65.54Y-126.12
X65.54Y-131.12
X67.996Y-127.386
X71.496Y-142.836
X71.496Y-156.926
X71.626Y-149.506
X82.996Y-143.166
X90.286Y-143.166
X90.366Y-138.096
X120.04Y-127.12
X120.04Y-132.12
X120.04Y-137.12
X120.04Y-142.12
X120.04Y-147.12
X120.04Y-152.12
X120.04Y-157.12
X120.04Y-162.12
X120.04Y-167.12
X158.54Y-33.62
X158.54Y-38.62
X158.54Y-43.62
X158.54Y-48.62
X158.54Y-53.62
X159.54Y-81.62
X159.54Y-86.62
X159.54Y-91.62
X163.54Y-33.62
X163.54Y-38.62
X163.54Y-43.62
X163.54Y-48.62
X163.54Y-53.62
X164.54Y-81.62
X164.54Y-86.62
X164.54Y-91.62
X166.54Y-104.12
X166.54Y-109.12
X166.54Y-114.12
X166.54Y-119.12
X166.54Y-124.12
X166.54Y-129.12
X166.54Y-134.12
X167.54Y-145.12
X167.54Y-150.12
X167.54Y-155.12
X167.54Y-160.12
X167.54Y-165.12
X167.54Y-170.12
X168.54Y-33.62
X168.54Y-38.62
X168.54Y-43.62
X168.54Y-48.62
X168.54Y-53.62
X171.04Y-129.12
X171.54Y-104.12
X171.54Y-109.12
X171.54Y-134.12
X172.54Y-145.12
X172.54Y-150.12
X172.54Y-155.12
X172.54Y-160.12
X172.54Y-165.12
X172.54Y-170.12
X173.04Y-62.62
X176.04Y-129.12
X176.54Y-104.12
X176.54Y-109.12
X176.54Y-134.12
X177.54Y-145.12
X177.54Y-155.12
X177.54Y-160.12
X177.54Y-165.12
X177.54Y-170.12
X178.04Y-62.62
X181.04Y-129.12
X181.54Y-104.12
X181.54Y-109.12
X181.54Y-134.12
X182.54Y-145.12
X183.04Y-62.62
X183.04Y-166.62
X185.54Y-158.12
X185.54Y-162.12
X186.54Y-104.12
X186.54Y-109.12
X186.54Y-129.12
X186.54Y-134.12
X187.54Y-145.12
X188.04Y-62.62
X188.54Y-164.12
X188.54Y-167.62
X189.256Y-91.876
X191.04Y-159.62
X191.54Y-104.12
X191.54Y-109.12
X191.54Y-129.12
X191.54Y-134.12
X192.54Y-145.12
X193.04Y-62.62
X194.54Y-54.12
X194.54Y-164.12
X194.54Y-168.12
X196.54Y-129.12
X196.54Y-134.12
X197.54Y-145.12
X198.04Y-62.62
X198.04Y-91.62
X200.04Y-54.12
X200.04Y-160.12
X201.54Y-129.12
X201.54Y-134.12
X202.04Y-164.12
X202.04Y-168.12
X202.54Y-145.12
X203.04Y-62.62
X203.04Y-91.62
X204.54Y-54.12
X206.54Y-129.12
X206.54Y-134.12
X207.54Y-145.12
X207.54Y-150.12
X207.54Y-155.12
X207.54Y-164.12
X208.04Y-62.62
X208.04Y-91.62
X209.54Y-54.12
X209.54Y-160.12
X211.54Y-129.12
X211.54Y-134.12
X212.54Y-145.12
X212.54Y-155.12
X213.04Y-62.62
X213.04Y-91.62
X213.04Y-150.12
X215.04Y-54.12
X216.04Y-162.62
X216.54Y-129.12
X216.54Y-134.12
X217.54Y-145.12
X217.54Y-150.12
X217.54Y-155.12
X218.04Y-62.62
X218.04Y-91.62
X219.54Y-54.12
X221.54Y-129.12
X221.54Y-134.12
X222.54Y-145.12
X222.54Y-150.12
X222.54Y-155.12
X222.54Y-160.12
X222.54Y-165.12
X223.04Y-62.62
X223.04Y-67.62
X223.04Y-91.62
X224.54Y-54.12
X226.54Y-129.12
X226.54Y-134.12
X228.04Y-62.62
X228.04Y-67.62
X228.04Y-91.62
X229.54Y-54.12
X231.54Y-129.12
X231.54Y-134.12
X233.04Y-62.62
X233.04Y-67.62
X233.04Y-72.62
X233.04Y-77.62
X233.04Y-91.62
X235.04Y-24.12
X235.04Y-29.12
X235.04Y-34.12
X235.04Y-39.12
X235.04Y-54.12
X236.54Y-129.12
X236.54Y-134.12
X238.04Y-62.62
X238.04Y-67.62
X238.04Y-72.62
X238.04Y-77.62
X238.04Y-91.62
X239.54Y-24.12
X239.54Y-29.12
X239.54Y-34.12
X239.54Y-39.12
X239.54Y-54.12
X241.54Y-129.12
X241.54Y-134.12
X243.04Y-62.62
X243.04Y-67.62
X243.04Y-72.62
X243.04Y-77.62
X243.04Y-82.62
X243.04Y-91.62
X244.54Y-24.12
X244.54Y-29.12
X244.54Y-34.12
X244.54Y-39.12
X244.54Y-54.12
X248.04Y-62.62
X248.04Y-67.62
X248.04Y-72.62
X248.04Y-77.62
X248.04Y-82.62
X248.04Y-87.62
X248.04Y-91.62
X250.04Y-34.12
X250.04Y-39.12
X250.04Y-44.12
X250.04Y-49.12
X250.04Y-54.12
X254.54Y-34.12
X254.54Y-39.12
X254.54Y-44.12
X254.54Y-49.12
X254.54Y-54.12
T3
X41.911Y-167.116
X41.915Y-129.12
X42.68Y-165.26
X42.68Y-168.972
X42.684Y-127.264
X42.684Y-130.976
X44.536Y-164.491
X44.536Y-169.741
X44.54Y-126.495
X44.54Y-131.745
X46.392Y-165.26
X46.392Y-168.972
X46.396Y-127.264
X46.396Y-130.976
X47.161Y-167.116
X47.165Y-129.12
X156.911Y-26.116
X156.911Y-167.116
X156.915Y-76.12
X156.915Y-107.12
X157.68Y-24.26
X157.68Y-27.972
X157.68Y-165.26
X157.68Y-168.972
X157.684Y-74.264
X157.684Y-77.976
X157.684Y-105.264
X157.684Y-108.976
X159.536Y-23.491
X159.536Y-28.741
X159.536Y-164.491
X159.536Y-169.741
X159.54Y-73.495
X159.54Y-78.745
X159.54Y-104.495
X159.54Y-109.745
X161.392Y-24.26
X161.392Y-27.972
X161.392Y-165.26
X161.392Y-168.972
X161.396Y-74.264
X161.396Y-77.976
X161.396Y-105.264
X161.396Y-108.976
X162.161Y-26.116
X162.161Y-167.116
X162.165Y-76.12
X162.165Y-107.12
X251.871Y-166.811
X251.911Y-26.116
X251.915Y-76.12
X251.915Y-107.12
X252.64Y-164.955
X252.64Y-168.667
X252.68Y-24.26
X252.68Y-27.972
X252.684Y-74.264
X252.684Y-77.976
X252.684Y-105.264
X252.684Y-108.976
X254.496Y-164.186
X254.496Y-169.436
X254.536Y-23.491
X254.536Y-28.741
X254.54Y-73.495
X254.54Y-78.745
X254.54Y-104.495
X254.54Y-109.745
X256.352Y-164.955
X256.352Y-168.667
X256.392Y-24.26
X256.392Y-27.972
X256.396Y-74.264
X256.396Y-77.976
X256.396Y-105.264
X256.396Y-108.976
X257.121Y-166.811
X257.161Y-26.116
X257.165Y-76.12
X257.165Y-107.12
T4
X137.336Y-154.479
X139.836Y-154.479
X141.836Y-154.479
X144.336Y-154.479
T5
X66.736Y-165.576
X66.736Y-168.116
X69.276Y-165.576
X69.276Y-168.116
X71.816Y-165.576
X71.816Y-168.116
X74.356Y-165.576
X74.356Y-168.116
X76.896Y-165.576
X76.896Y-168.116
X79.436Y-165.576
X79.436Y-168.116
X81.976Y-165.576
X81.976Y-168.116
X84.516Y-165.576
X84.516Y-168.116
X87.056Y-165.576
X87.056Y-168.116
X89.596Y-165.576
X89.596Y-168.116
X92.136Y-165.576
X92.136Y-168.116
X94.676Y-165.576
X94.676Y-168.116
X97.216Y-165.576
X97.216Y-168.116
X99.756Y-165.576
X99.756Y-168.116
X102.296Y-165.576
X102.296Y-168.116
X104.836Y-165.576
X104.836Y-168.116
X107.376Y-165.576
X107.376Y-168.116
X109.916Y-165.576
X109.916Y-168.116
X112.456Y-165.576
X112.456Y-168.116
X114.996Y-165.576
X114.996Y-168.116
X137.016Y-166.816
X139.556Y-166.816
X142.096Y-166.816
X144.636Y-166.816
X167.431Y-65.366
X167.431Y-67.906
X167.561Y-24.341
X167.561Y-26.881
X169.971Y-65.366
X169.971Y-67.906
X170.101Y-24.341
X170.101Y-26.881
X172.511Y-65.366
X172.511Y-67.906
X172.641Y-24.341
X172.641Y-26.881
X175.051Y-65.366
X175.051Y-67.906
X175.181Y-24.341
X175.181Y-26.881
X177.591Y-65.366
X177.591Y-67.906
X177.721Y-24.341
X177.721Y-26.881
X180.131Y-65.366
X180.131Y-67.906
X180.261Y-24.341
X180.261Y-26.881
X181.946Y-122.556
X182.122Y-151.709
X182.256Y-45.636
X182.256Y-84.096
X182.671Y-65.366
X182.671Y-67.906
X182.801Y-24.341
X182.801Y-26.881
X183.331Y-125.396
X183.507Y-154.549
X183.641Y-48.476
X183.641Y-86.936
X184.716Y-122.556
X184.892Y-151.709
X185.026Y-45.636
X185.026Y-84.096
X185.211Y-65.366
X185.211Y-67.906
X185.341Y-24.341
X185.341Y-26.881
X186.101Y-125.396
X186.277Y-154.549
X186.411Y-48.476
X186.411Y-86.936
X187.486Y-122.556
X187.662Y-151.709
X187.751Y-65.366
X187.751Y-67.906
X187.796Y-45.636
X187.796Y-84.096
X187.881Y-24.341
X187.881Y-26.881
X188.871Y-125.396
X189.047Y-154.549
X189.181Y-48.476
X189.181Y-86.936
X190.256Y-122.556
X190.291Y-65.366
X190.291Y-67.906
X190.421Y-24.341
X190.421Y-26.881
X190.432Y-151.709
X190.566Y-45.636
X190.566Y-84.096
X191.641Y-125.396
X191.817Y-154.549
X191.951Y-48.476
X191.951Y-86.936
X192.831Y-65.366
X192.831Y-67.906
X192.961Y-24.341
X192.961Y-26.881
X193.026Y-122.556
X193.202Y-151.709
X193.336Y-45.636
X193.336Y-84.096
X194.411Y-125.396
X194.721Y-48.476
X194.721Y-86.936
X195.371Y-65.366
X195.371Y-67.906
X195.501Y-24.341
X195.501Y-26.881
X195.796Y-122.556
X196.106Y-45.636
X196.106Y-84.096
X197.181Y-125.396
X197.491Y-48.476
X197.491Y-86.936
X197.911Y-65.366
X197.911Y-67.906
X198.041Y-24.341
X198.041Y-26.881
X198.566Y-122.556
X198.876Y-45.636
X198.876Y-84.096
X199.951Y-125.396
X200.261Y-48.476
X200.261Y-86.936
X200.451Y-65.366
X200.451Y-67.906
X200.581Y-24.341
X200.581Y-26.881
X200.771Y-106.041
X200.771Y-108.581
X201.336Y-122.556
X201.646Y-45.636
X201.646Y-84.096
X202.721Y-125.396
X202.991Y-65.366
X202.991Y-67.906
X203.031Y-48.476
X203.031Y-86.936
X203.121Y-24.341
X203.121Y-26.881
X203.311Y-106.041
X203.311Y-108.581
X204.106Y-122.556
X204.416Y-45.636
X204.416Y-84.096
X205.491Y-125.396
X205.531Y-65.366
X205.531Y-67.906
X205.661Y-24.341
X205.661Y-26.881
X205.801Y-48.476
X205.801Y-86.936
X205.851Y-106.041
X205.851Y-108.581
X206.876Y-122.556
X207.186Y-45.636
X207.186Y-84.096
X208.071Y-65.366
X208.071Y-67.906
X208.201Y-24.341
X208.201Y-26.881
X208.261Y-125.396
X208.391Y-106.041
X208.391Y-108.581
X208.571Y-48.476
X208.571Y-86.936
X208.816Y-165.951
X208.816Y-168.491
X209.646Y-122.556
X209.956Y-45.636
X209.956Y-84.096
X210.611Y-65.366
X210.611Y-67.906
X210.741Y-24.341
X210.741Y-26.881
X210.931Y-106.041
X210.931Y-108.581
X211.031Y-125.396
X211.341Y-48.476
X211.341Y-86.936
X211.356Y-165.951
X211.356Y-168.491
X212.416Y-122.556
X212.726Y-45.636
X212.726Y-84.096
X213.151Y-65.366
X213.151Y-67.906
X213.281Y-24.341
X213.281Y-26.881
X213.471Y-106.041
X213.471Y-108.581
X213.801Y-125.396
X213.896Y-165.951
X213.896Y-168.491
X214.111Y-48.476
X214.111Y-86.936
X215.186Y-122.556
X215.496Y-45.636
X215.496Y-84.096
X215.691Y-65.366
X215.691Y-67.906
X215.821Y-24.341
X215.821Y-26.881
X216.011Y-106.041
X216.011Y-108.581
X216.436Y-165.951
X216.436Y-168.491
X216.571Y-125.396
X216.881Y-48.476
X216.881Y-86.936
X217.956Y-122.556
X218.266Y-45.636
X218.266Y-84.096
X218.551Y-106.041
X218.551Y-108.581
X218.976Y-165.951
X218.976Y-168.491
X219.341Y-125.396
X219.651Y-48.476
X219.651Y-86.936
X220.726Y-122.556
X221.036Y-45.636
X221.036Y-84.096
X221.091Y-106.041
X221.091Y-108.581
X222.111Y-125.396
X222.421Y-48.476
X222.421Y-86.936
X223.496Y-122.556
X223.631Y-106.041
X223.631Y-108.581
X223.806Y-45.636
X223.806Y-84.096
X224.881Y-125.396
X225.191Y-48.476
X225.191Y-86.936
X226.171Y-106.041
X226.171Y-108.581
X226.266Y-122.556
X226.576Y-45.636
X226.576Y-84.096
X227.651Y-125.396
X227.961Y-48.476
X227.961Y-86.936
X228.711Y-106.041
X228.711Y-108.581
X229.036Y-122.556
X229.346Y-45.636
X229.346Y-84.096
X230.421Y-125.396
X230.731Y-48.476
X230.731Y-86.936
X231.251Y-106.041
X231.251Y-108.581
X231.806Y-122.556
X232.116Y-45.636
X232.116Y-84.096
X233.791Y-106.041
X233.791Y-108.581
X236.331Y-106.041
X236.331Y-108.581
X254.496Y-89.576
X254.496Y-92.116
X254.511Y-96.401
X254.511Y-98.941
X257.036Y-89.576
X257.036Y-92.116
X257.051Y-96.401
X257.051Y-98.941
T6
X241.796Y-153.606
X245.606Y-153.606
T8
X175.126Y-123.976
X175.162Y-153.129
X175.436Y-47.056
X175.436Y-85.516
X200.162Y-153.129
X238.626Y-123.976
X238.936Y-47.056
X238.936Y-85.516
T9
X44.54Y-129.12
X44.54Y-167.12
X159.536Y-26.116
X159.536Y-167.116
X159.54Y-76.12
X159.54Y-107.12
X254.496Y-166.811
X254.536Y-26.116
X254.54Y-76.12
X254.54Y-107.12
T7
G00X134.366Y-153.949
M15
G01X134.366Y-151.149
M16
G05
G00X140.336Y-150.569
M15
G01X141.336Y-150.569
M16
G05
G00X147.306Y-151.149
M15
G01X147.306Y-153.949
M16
G05
T0
M30
